<?xml version="1.0" encoding="UTF-8"?>
<svg id="Ebene_1" xmlns="http://www.w3.org/2000/svg" version="1.1" viewBox="0 0 14 14">
  <!-- Generator: Adobe Illustrator 29.3.1, SVG Export Plug-In . SVG Version: 2.1.0 Build 151)  -->
  <path d="M7,10.577l-3.539-3.538.708-.719,2.331,2.331V0h1v8.65l2.331-2.331.708.719-3.538,3.539ZM1.615,14c-.46,0-.845-.154-1.153-.463s-.463-.693-.463-1.153v-2.423h1v2.423c0,.154.064.295.192.423.128.128.269.192.423.192h10.769c.154,0,.295-.064.423-.192.128-.128.192-.269.192-.423v-2.423h1v2.423c0,.46-.154.845-.463,1.153s-.693.463-1.153.463H1.615Z"/>
  <metadata>
    <sfw xmlns="http://ns.adobe.com/SaveForWeb/1.0/">
      <slices/>
      <sliceSourceBounds x="5" y="5" width="14" height="14" bottomLeftOrigin="true"/>
    </sfw>
  </metadata>
</svg>