<?xml version="1.0" encoding="utf-8"?>
<!-- Generator: Adobe Illustrator 26.0.1, SVG Export Plug-In . SVG Version: 6.00 Build 0)  -->
<svg version="1.0" id="Layer_1" xmlns="http://www.w3.org/2000/svg" xmlns:xlink="http://www.w3.org/1999/xlink" x="0px" y="0px"
	 viewBox="0 0 290 30" enable-background="new 0 0 290 30" xml:space="preserve">
<g>
	<g>
		<path d="M0,1.8h8.3v19.8h10.3v6.7H0V1.8z"/>
		<path d="M51.2,14.8c0,6.7-4,14.4-14.4,14.4c-10.9,0-14.2-8.1-14.2-14.1c0-7.6,4.8-14.3,14.3-14.3C47.5,0.8,51.2,8.5,51.2,14.8z
			 M31.2,15.1c0,4.7,1.8,7.4,5.8,7.4c3.4,0,5.7-2.7,5.7-7.7c0-1.3-0.1-2.4-0.5-3.5C41,7.6,37.7,7.5,37,7.5
			C34,7.5,31.2,9.5,31.2,15.1z"/>
		<path d="M82.8,21.5c-0.7,1.3-1.4,2.5-2.6,3.8c-2.7,2.7-6.5,3.9-10.3,3.9c-9.5,0-13.8-7.2-13.8-14C56.2,8.1,61,0.8,70,0.8
			c4,0,7.9,1.5,10.7,4.3c1.2,1.2,1.7,2,2.2,3.1l-7,3.5c-0.7-1.6-1.9-4.4-5.5-4.4c-1.8,0-3,0.9-3.6,1.5c-2,1.9-2,5-2,6
			c0,4,1.5,7.7,5.6,7.7c3.9,0,5-3.5,5.3-4.4L82.8,21.5z"/>
		<path d="M148.8,1.8h13.2c2.5,0,5,0.2,6.5,0.9c3.5,1.6,4.6,5.1,4.6,7.7c0,1-0.1,3.4-2,5.3c-1.1,1.2-2.1,1.6-3.4,2l6.5,10.7h-9.3
			l-5.1-9.4h-2.5v9.4h-8.4L148.8,1.8L148.8,1.8z M157.2,7.4v6.2h3.5c1.4,0,4.1-0.1,4.1-3.1s-2.6-3.1-4.1-3.1
			C160.6,7.4,157.2,7.4,157.2,7.4z"/>
		<polygon points="129.4,7.6 141.9,7.6 141.9,1.8 120.9,1.8 120.9,11.5 129.4,11.5 		"/>
		<rect x="129.4" y="11.5" width="11.7" height="6.7"/>
		<polygon points="129.4,22.5 129.4,18.1 120.9,18.1 120.9,28.4 143.1,28.4 143.1,22.5 		"/>
		<g>
			<rect x="104.5" y="1.8" width="8.4" height="9.7"/>
			<rect x="104.5" y="18.1" width="8.4" height="10.2"/>
			<polygon points="96.6,11.5 96.6,1.8 88.2,1.8 88.2,28.4 96.6,28.4 96.6,18.1 104.5,18.1 104.5,11.5 			"/>
		</g>
	</g>
	<g>
		<path d="M191.5,28h-3V2.2h14.4v2.7h-11.4v9.5h10.7V17h-10.7V28z"/>
		<path d="M232.8,15.1c0,2-0.3,3.8-0.8,5.4c-0.5,1.6-1.3,3-2.3,4.2s-2.2,2.1-3.7,2.7c-1.5,0.6-3.2,1-5.1,1c-2,0-3.8-0.3-5.2-1
			c-1.5-0.6-2.7-1.5-3.7-2.7c-1-1.2-1.7-2.6-2.2-4.2c-0.5-1.6-0.7-3.5-0.7-5.4c0-2.6,0.4-5,1.3-6.9c0.9-2,2.2-3.5,4-4.6
			s4-1.7,6.7-1.7c2.6,0,4.7,0.5,6.5,1.6s3.1,2.6,4,4.6C232.3,10,232.8,12.4,232.8,15.1z M212.3,15.1c0,2.2,0.3,4.1,0.9,5.7
			c0.6,1.6,1.6,2.8,2.9,3.7c1.3,0.9,2.9,1.3,4.9,1.3s3.6-0.4,4.9-1.3c1.3-0.9,2.2-2.1,2.8-3.7c0.6-1.6,0.9-3.5,0.9-5.7
			c0-3.3-0.7-5.9-2.1-7.8c-1.4-1.9-3.6-2.8-6.5-2.8c-2,0-3.7,0.4-4.9,1.3c-1.3,0.9-2.3,2.1-2.9,3.7C212.6,11,212.3,12.9,212.3,15.1z
			"/>
		<path d="M262.4,15.1c0,2-0.3,3.8-0.8,5.4c-0.5,1.6-1.3,3-2.3,4.2c-1,1.2-2.2,2.1-3.7,2.7s-3.2,1-5.1,1c-2,0-3.8-0.3-5.2-1
			c-1.5-0.6-2.7-1.5-3.7-2.7c-1-1.2-1.7-2.6-2.2-4.2c-0.5-1.6-0.7-3.5-0.7-5.4c0-2.6,0.4-5,1.3-6.9c0.9-2,2.2-3.5,4-4.6
			c1.8-1.1,4-1.7,6.7-1.7c2.6,0,4.7,0.5,6.5,1.6c1.8,1.1,3.1,2.6,4,4.6C262.1,10.1,262.4,12.4,262.4,15.1z M241.9,15.1
			c0,2.2,0.3,4.1,0.9,5.7c0.6,1.6,1.6,2.8,2.9,3.7c1.3,0.9,2.9,1.3,4.9,1.3c2,0,3.6-0.4,4.9-1.3c1.3-0.9,2.2-2.1,2.8-3.7
			c0.6-1.6,0.9-3.5,0.9-5.7c0-3.3-0.7-5.9-2.1-7.8c-1.4-1.9-3.6-2.8-6.5-2.8c-2,0-3.7,0.4-4.9,1.3c-1.3,0.9-2.3,2.1-2.9,3.7
			C242.2,11,241.9,12.9,241.9,15.1z"/>
		<path d="M290,14.9c0,2.9-0.5,5.3-1.6,7.3s-2.6,3.4-4.6,4.4s-4.4,1.5-7.3,1.5h-7V2.2h7.8c2.6,0,4.9,0.5,6.8,1.4
			c1.9,1,3.4,2.4,4.4,4.3C289.5,9.8,290,12.1,290,14.9z M286.8,15c0-2.3-0.4-4.2-1.2-5.7c-0.8-1.5-1.9-2.6-3.4-3.4
			c-1.5-0.7-3.3-1.1-5.5-1.1h-4.3v20.6h3.7c3.6,0,6.2-0.9,8-2.6C285.9,21.1,286.8,18.5,286.8,15z"/>
	</g>
</g>
</svg>
