<?xml version="1.0" encoding="utf-8"?>
<!-- Generator: Adobe Illustrator 26.0.1, SVG Export Plug-In . SVG Version: 6.00 Build 0)  -->
<svg version="1.0" id="Ebene_1" xmlns="http://www.w3.org/2000/svg" xmlns:xlink="http://www.w3.org/1999/xlink" x="0px" y="0px"
	 viewBox="0 0 1500 970" enable-background="new 0 0 1500 970" xml:space="preserve">
<g>
	<path d="M1459,268.3c0.1-0.2,0.3-0.5,0.5-0.6c0.6-0.3,1.3-0.1,1.6,0.4c0.2,0.4,23.5,40.8,33.9,106.7c6.1,38.7,6.7,78.5,1.7,118.3
		c-6.3,49.8-21.3,99.7-44.6,148.3c-0.3,0.6-1,0.8-1.6,0.6c-0.6-0.3-0.8-1-0.6-1.6c52.7-109.7,52.3-204.8,42.8-265.3
		c-10.3-65.5-33.4-105.5-33.6-105.9C1458.9,268.9,1458.8,268.6,1459,268.3z"/>
	<path d="M1465.1,329.5c0.1-0.3,0.4-0.6,0.8-0.7c0.6-0.2,1.3,0.2,1.5,0.8c17.8,60.4,31.1,152-6.5,245.2c-0.2,0.6-0.9,0.9-1.5,0.6
		c-0.6-0.2-0.9-0.9-0.6-1.5c37.4-92.6,24.2-183.6,6.5-243.7C1465,330,1465.1,329.7,1465.1,329.5z"/>
	<path d="M1414.2,707.9c0.2-0.5,0.4-0.9,0.7-1.3c1.3-1.8,4-2.5,6.6-3.3c2.3-0.6,4.7-1.3,5.4-2.4c1.2-1.8,0.9-4.7,0.6-7.5
		c-0.3-2.9-0.6-5.8,0.7-8c1.4-2.5,4.2-4.1,6.6-5.5c1.9-1.1,3.7-2.2,4.4-3.4c2.3-4.4-0.6-9.6-0.7-9.6c-0.3-0.6-0.1-1.3,0.4-1.6
		c0.6-0.3,1.3-0.1,1.6,0.4c0.1,0.3,3.6,6.3,0.7,11.9c-0.9,1.8-3,3-5.3,4.3c-2.3,1.3-4.6,2.7-5.7,4.6c-0.9,1.5-0.6,4-0.4,6.6
		c0.3,3.2,0.6,6.5-0.9,9c-1.2,1.9-4.1,2.7-6.8,3.5c-2.2,0.6-4.5,1.2-5.3,2.3c-1,1.4-0.7,4-0.4,6.2c0.2,1.7,0.4,3.2,0,4.3
		c-0.2,0.6-0.8,1-1.5,0.8c-0.6-0.2-1-0.9-0.8-1.5c0.2-0.7,0-2-0.1-3.4C1413.8,712.4,1413.5,709.9,1414.2,707.9z"/>
	<path d="M1421,302.2c2.5-6.8,10.1-10.3,16.9-7.8c6.8,2.5,10.3,10.1,7.8,16.9c-2.5,6.8-10.1,10.3-16.9,7.8c-0.6-0.2-0.9-0.9-0.7-1.5
		c0.2-0.6,0.9-0.9,1.5-0.7c5.6,2.1,11.8-0.8,13.9-6.4c2.1-5.6-0.8-11.8-6.4-13.9c-5.6-2.1-11.8,0.8-13.9,6.4
		c-0.2,0.6-0.9,0.9-1.5,0.7C1421,303.5,1420.7,302.8,1421,302.2z"/>
</g>
<g>
	<g>
		
			<ellipse transform="matrix(0.1385 -0.9904 0.9904 0.1385 767.7311 1376.4252)" fill="#FFFFFF" cx="1175" cy="246.9" rx="39.5" ry="38.1"/>
		<path d="M1174.6,287.6c-6.6,0-13.1-1.7-19-5.1c-9.3-5.4-15.9-14.2-18.6-24.8c-1.2-4.7-1.6-9.4-1.1-14.2c0.1-0.6,0.6-1.1,1.3-1.1
			c0.6,0.1,1.1,0.6,1.1,1.3c-0.4,4.5-0.1,9,1.1,13.4c2.6,10,8.8,18.3,17.5,23.4c8.4,4.9,18.3,6.1,27.6,3.5
			c19.7-5.6,31.6-26.6,26.4-47c-2.6-10-8.8-18.3-17.5-23.4c-8.4-4.9-18.3-6.1-27.6-3.5c-8.9,2.5-16.6,8.3-21.6,16.4
			c-0.3,0.6-1.1,0.7-1.6,0.4c-0.6-0.3-0.7-1.1-0.4-1.6c5.3-8.5,13.5-14.7,23-17.4c10-2.8,20.5-1.5,29.5,3.7
			c9.3,5.4,15.9,14.2,18.6,24.8c5.5,21.6-7.1,44-28,49.9C1181.6,287.1,1178.1,287.6,1174.6,287.6z"/>
		<path d="M1178.5,270.2l-1.3-5.3c-3.7,0.8-7.4,0.8-9.8,0.2l0-7c2.6,0.6,6.1,0.9,9.6-0.1c3.1-0.9,4.9-2.7,4.3-4.9
			c-0.5-2.1-2.6-3-6.9-3.2c-6.3-0.4-10.9-2.1-12.3-7.4c-1.2-4.9,1.1-9.7,6.6-12.5l-1.3-5.3l5.3-1.5l1.2,4.9c3.7-0.8,6.3-0.8,8.3-0.4
			l0,6.7c-1.6-0.2-4.4-0.8-8.2,0.3c-3.5,1-4.2,2.9-3.8,4.4c0.5,1.8,2.7,2.5,7.7,3c7,0.5,10.4,2.9,11.7,7.9c1.3,4.9-1.1,10.1-7,13
			l1.4,5.7L1178.5,270.2z"/>
	</g>
	<g>
		
			<ellipse transform="matrix(0.1204 -0.9927 0.9927 0.1204 948.6656 1423.0712)" fill="#FFFFFF" cx="1277.4" cy="176.2" rx="49" ry="47.3"/>
		<path d="M1276.9,226.4c-7.8,0-15.6-2-22.6-5.9c-11.6-6.4-20-17.1-23.6-30.2c-1.6-5.7-2.2-11.6-1.7-17.5c0-0.6,0.6-1.1,1.3-1.1
			c0.6,0,1.1,0.6,1.1,1.3c-0.4,5.6,0.1,11.2,1.7,16.7c3.4,12.4,11.4,22.6,22.4,28.7c10.7,5.9,22.9,7.1,34.6,3.6
			c24.5-7.4,38.7-34.1,31.7-59.3c-3.4-12.4-11.4-22.6-22.4-28.7c-10.7-5.9-22.9-7.1-34.6-3.6c-11.1,3.4-20.5,10.8-26.6,21
			c-0.3,0.6-1.1,0.7-1.6,0.4c-0.6-0.3-0.7-1.1-0.4-1.6c6.4-10.7,16.3-18.5,27.9-22c12.3-3.7,25.2-2.4,36.4,3.8
			c11.6,6.4,20,17.1,23.6,30.2c7.3,26.5-7.6,54.4-33.3,62.2C1286.1,225.7,1281.5,226.4,1276.9,226.4z"/>
		<path d="M1282.3,204.9l-1.8-6.5c-4.5,1.1-9.2,1.2-12.1,0.5l-0.2-8.6c3.2,0.7,7.5,1,11.9-0.3c3.8-1.1,6-3.4,5.2-6.2
			c-0.7-2.6-3.3-3.6-8.7-3.8c-7.8-0.3-13.6-2.3-15.4-8.9c-1.7-6,1.1-12,7.9-15.6l-1.8-6.5l6.5-2l1.7,6c4.5-1.1,7.8-1.1,10.3-0.7
			l0.2,8.3c-1.9-0.2-5.4-0.9-10.2,0.6c-4.3,1.3-5.2,3.7-4.7,5.6c0.6,2.3,3.4,3,9.6,3.5c8.7,0.5,12.9,3.3,14.6,9.5
			c1.7,6.1-1.1,12.6-8.3,16.3l1.9,7L1282.3,204.9z"/>
	</g>
	<g>
		
			<ellipse transform="matrix(0.8215 -0.5702 0.5702 0.8215 34.0061 777.4044)" fill="#FFFFFF" cx="1258.6" cy="334.4" rx="39.4" ry="38.2"/>
		<path d="M1257.5,374.2c-7.7,0-15.5-2.2-22.2-6.8c-8.6-5.9-14.4-14.7-16.2-25c-1.9-10.6,0.5-21.3,6.9-30.3c2.8-3.9,6.2-7.3,10.1-10
			c0.5-0.4,1.3-0.2,1.6,0.3c0.4,0.5,0.2,1.3-0.3,1.6c-3.7,2.6-6.9,5.8-9.5,9.5c-6,8.4-8.3,18.5-6.5,28.5c1.7,9.6,7.2,18,15.2,23.5
			c17,11.5,40.7,7,52.8-10.2c6-8.4,8.3-18.5,6.5-28.5c-1.7-9.6-7.2-18-15.2-23.5c-7.7-5.2-17-7.3-26.4-6c-0.6,0.1-1.2-0.4-1.3-1
			c-0.1-0.6,0.4-1.2,1-1.3c9.9-1.4,19.9,0.8,28.1,6.4c8.6,5.9,14.4,14.7,16.2,25c1.9,10.6-0.5,21.3-6.9,30.3
			C1283.2,368,1270.4,374.2,1257.5,374.2z"/>
		<path d="M1243.2,352.1l3.1-4.4c-3-2.3-5.4-5.1-6.5-7.4l5.3-4.5c1.2,2.4,3.2,5.2,6.2,7.3c2.6,1.8,5.2,2,6.5,0.1
			c1.3-1.8,0.6-3.9-2-7.4c-3.8-5.1-5.5-9.7-2.3-14.2c2.9-4.1,8.1-5.4,13.7-3l3.1-4.4l4.5,3.1l-2.9,4.1c3,2.3,4.6,4.3,5.6,6.1
			l-5.1,4.4c-0.8-1.3-2.2-3.9-5.6-6.1c-3-2-4.9-1.4-5.8-0.1c-1.1,1.5-0.2,3.6,2.7,7.8c4.1,5.7,4.5,9.8,1.6,14
			c-2.9,4.2-8.4,5.7-14.4,3l-3.4,4.8L1243.2,352.1z"/>
	</g>
</g>
<path fill="none" stroke="#000000" stroke-width="2.9075" stroke-miterlimit="10" stroke-dasharray="14.5377,14.5377" d="
	M960.7,113.4c104.7-9.8,176.5-1.1,183.7,27.4c12.2,47.8-161.5,133.3-387.8,190.8S336.9,397,324.8,349.2c-2.4-9.5,2.5-20.4,13.6-32.3
	"/>
<path fill="none" stroke="#000000" stroke-width="2.741" stroke-miterlimit="10" stroke-dasharray="16.4362,16.4362" d="M666.9,65.7
	c27.5-48.8,56.5-73.3,82.3-63.6c60.9,22.8,81.1,226.7,45.3,455.4S680.3,853,619.4,830.2c-18.5-6.9-33.2-30.5-43.7-66.4"/>
<g>
	<g>
		<path fill="#FFFFFF" d="M430.8,143.3c0.1,0,0.1,0,0.2-0.1c1.5-0.5-28.8,9.1-28.8,9.1c-13.4,4.2-42.1,22.7-38.8,33.2
			c3.3,10.4,37.4,9,50.8,4.8c0,0,27.9-8.5,28.6-8.7c6.6-2.1,9.2-12.3,5.9-22.9C445.3,148.2,437.4,141.4,430.8,143.3z"/>
		<path d="M425.5,166c3.3,10.6,11.2,17.5,17.6,15.5c6.4-2,8.9-12.2,5.5-22.8c-3.3-10.6-11.2-17.5-17.6-15.5
			C424.6,145.2,422.1,155.4,425.5,166z"/>
		<path d="M388.9,194.9c-12.7,0-24.8-2.4-27-9c-0.7-2.1-0.3-4.6,1.1-7.3c0.3-0.6,1-0.9,1.7-0.7c14.5,4.1,32,3.8,40.6,1.1l23-7.3
			c0.6-0.2,1.3,0.1,1.7,0.6c3.1,5,7.3,8.1,11,8c0.7,0,1.3,0.5,1.5,1.2c0.1,0.7-0.3,1.4-1,1.6l-26.8,8.5
			C408.6,193.6,398.6,194.9,388.9,194.9z M365.1,181c-0.6,1.6-0.8,2.9-0.4,4c2.9,9.1,35.4,8.1,49,3.8l22-6.9
			c-2.7-1.4-5.4-3.9-7.6-7.1l-21.9,6.9C397.4,184.5,379.9,184.9,365.1,181z"/>
		<path d="M388.7,194.9c-1.3,0-2.6,0-3.9-0.1c-9.3-0.4-20.8-2.2-22.9-8.9c-3.7-11.8,26-30.6,39.8-35l27.7-8.7
			c0.3-0.1,0.6-0.2,0.9-0.3c0,0,0.1,0,0.1,0c0,0,0,0,0,0l0,0c0,0,0.2-0.1,0.2-0.1l0,0c7.4-2,15.9,5.2,19.4,16.4
			c3.6,11.5,0.6,22.4-6.8,24.7c-0.7,0.2-27.5,8.4-28.6,8.7C408.3,193.7,398.1,194.9,388.7,194.9z M431.1,144.7
			c-3.4,1.1-28.5,9-28.5,9c-13.6,4.3-40.8,22.2-37.9,31.3c1.2,3.9,8.8,6.4,20.3,6.9c10,0.4,21.8-0.9,28.7-3
			c0.3-0.1,27.9-8.5,28.6-8.7c5.7-1.8,8-11.5,4.9-21.1c-3.1-9.6-10.2-16.1-16-14.4C431.2,144.7,431.1,144.7,431.1,144.7z
			 M431.3,144.7L431.3,144.7L431.3,144.7z"/>
	</g>
	<g>
		<path fill="#FFFFFF" d="M417.2,198.8l-120.5-144l-16,6c0,0,40.7,113.7,44.2,129.1c3.4,15.4,2.7,42.6,2.7,42.6L417.2,198.8z"/>
		<path d="M353.7,215.8c-0.3,0-0.6-0.1-0.8-0.2c-0.4-0.2-0.6-0.7-0.7-1.1c0-0.3-1.9-27.2-6.6-41.8c-4-12.4-46.4-90.1-59.3-113.7
			c-0.2-0.4-0.2-0.8-0.1-1.2c0.1-0.4,0.5-0.7,0.8-0.9l9.1-3.4c0.6-0.2,1.2,0,1.6,0.4l115.3,137.8c0.3,0.4,0.4,0.8,0.3,1.3
			c-0.1,0.5-0.5,0.8-0.9,1l-58.3,21.7C354.1,215.7,353.9,215.8,353.7,215.8z M289.7,59c17,31,54.8,100.6,58.7,112.7
			c4.1,12.8,6.1,34,6.6,40.6l54.6-20.3L296.3,56.5L289.7,59z"/>
		<path d="M327.7,234c-0.3,0-0.6-0.1-0.8-0.3c-0.4-0.3-0.6-0.7-0.6-1.2c0-0.3,0.7-27.3-2.7-42.3c-3.4-15.1-43.7-127.8-44.1-128.9
			c-0.3-0.7,0.1-1.6,0.9-1.9l16-6c0.6-0.2,1.2,0,1.6,0.4l120.5,144c0.3,0.4,0.4,0.8,0.3,1.3c-0.1,0.5-0.5,0.8-0.9,1l-89.6,33.7
			C328,233.9,327.8,234,327.7,234z M282.6,61.7c4.8,13.5,40.5,113.4,43.7,127.9c2.9,13,2.9,34,2.8,40.8l85.6-32.3L296.3,56.5
			L282.6,61.7z"/>
	</g>
	<path fill="#FFFFFF" d="M94.8,315.9c-0.6,0-1.2-0.4-1.4-1l-4.3-13.7c-0.2-0.7,0.1-1.4,0.7-1.7l16.1-8.1l-105.2-57
		C0.2,234,0,233.5,0,232.9s0.5-1.1,1-1.2l32.2-10.2c0.3-0.1,0.5-0.1,0.8,0l136.6,32.9l375.9-107.6c0.2-0.1,33.9-11.9,62,4.8
		c3.2,0.9,23.9,6.9,25.2,16.1c1.3,9.4-2.4,23.8-49.7,40.3c-33.3,11.6-182,55.5-267.6,80.6c-32.5,9.5-66.1,15.6-99.8,18.2l-121.6,9.2
		C94.9,315.9,94.9,315.9,94.8,315.9z M92.3,301.5l3.6,11.4l120.4-9.1c33.6-2.5,66.9-8.6,99.2-18.1c85.6-25.1,234.2-68.9,267.5-80.5
		c50.6-17.6,48.5-32.4,47.8-37.2c-0.9-6.3-17.1-12-23.2-13.7c-0.1,0-0.3-0.1-0.4-0.2c-27-16.2-59.5-4.8-59.8-4.7L171,257.2
		c-0.2,0.1-0.5,0.1-0.7,0L33.7,224.4l-28.5,9l104.6,56.7c0.5,0.3,0.8,0.8,0.8,1.3c0,0.5-0.3,1-0.8,1.3L92.3,301.5z"/>
	<g>
		<polygon fill="#FFFFFF" points="110.8,288.5 94.4,216.7 109,211.7 154.6,272.2 		"/>
		<path d="M110.8,290c-0.2,0-0.5-0.1-0.7-0.2c-0.4-0.2-0.6-0.5-0.7-1L93,217.1c-0.2-0.7,0.2-1.5,0.9-1.7l14.5-5
			c0.6-0.2,1.3,0,1.6,0.5l45.6,60.5c0.3,0.4,0.4,0.8,0.2,1.3c-0.1,0.4-0.5,0.8-0.9,1l-43.7,16.3C111.2,290,111,290,110.8,290z
			 M96.1,217.7l15.8,68.9l40.4-15.1l-43.8-58.1L96.1,217.7z"/>
	</g>
	<g>
		<path fill="#FFFFFF" d="M422.8,279.5c0.1,0,0.1,0,0.2-0.1c1.5-0.5-28.8,9.1-28.8,9.1c-13.4,4.2-42.1,22.7-38.8,33.2
			c3.3,10.4,37.4,9,50.8,4.8c0,0,27.9-8.5,28.6-8.7c6.6-2.1,9.2-12.3,5.9-22.9C437.3,284.4,429.4,277.6,422.8,279.5z"/>
		<ellipse transform="matrix(0.9533 -0.3019 0.3019 0.9533 -70.1097 143.4602)" cx="429" cy="298.5" rx="12.1" ry="20.1"/>
		<path d="M380.7,331.1c-1.3,0-2.6,0-3.9-0.1c-9.3-0.4-20.8-2.2-22.9-8.9c-0.7-2.2-0.3-4.6,1.1-7.3c0.3-0.6,1-0.9,1.7-0.7
			c14.5,4.1,32,3.8,40.6,1.1l23-7.3c0.6-0.2,1.3,0.1,1.7,0.6c3.1,5,7.3,8.1,11,8c0.7,0,1.3,0.5,1.5,1.2c0.1,0.7-0.3,1.4-1,1.6
			l-26.8,8.5C400.3,329.9,390.1,331.1,380.7,331.1z M357.1,317.2c-0.6,1.6-0.8,2.9-0.4,4c1.2,3.9,8.8,6.4,20.3,6.9
			c10,0.4,21.8-0.9,28.7-3l22-6.9c-2.7-1.4-5.4-3.9-7.6-7.1l-21.9,6.9C389.4,320.7,371.9,321.1,357.1,317.2z"/>
		<path d="M380.9,331.1c-12.7,0-24.9-2.4-27-9c-2.1-6.7,6.3-14.8,13.6-20.5c8.2-6.2,18.9-12.2,26.1-14.5l27.7-8.7
			c0.3-0.1,0.6-0.2,0.9-0.3c0,0,0,0,0.1,0c0,0,0,0,0,0l0,0c0,0,0.2-0.1,0.2-0.1l0,0c7.4-2,15.9,5.2,19.4,16.4
			c3.6,11.5,0.6,22.4-6.8,24.7c-0.7,0.2-27.5,8.4-28.6,8.7C400.6,329.8,390.6,331.1,380.9,331.1z M423.1,280.9
			c-3.4,1.1-28.5,9-28.5,9c-6.9,2.2-17.3,8-25.2,14c-9.1,7-13.9,13.5-12.6,17.3c2.9,9.1,35.4,8.1,49,3.8c0.3-0.1,27.9-8.5,28.6-8.7
			c5.7-1.8,8-11.5,4.9-21.1c-3.1-9.6-10.2-16.1-16-14.4C423.2,280.9,423.1,280.9,423.1,280.9z M423.3,280.8L423.3,280.8L423.3,280.8
			z"/>
	</g>
	<g>
		<path fill="#FFFFFF" d="M170.6,255.8l376.3-107.7c0,0,30.3-11,57.3,2.8c2.6,1.3,25.5,8.2,28,17c2.4,8.4-2.6,22.7-48.8,38.8
			c-33.7,11.8-187.4,57.1-267.5,80.5c-32.5,9.5-65.8,15.6-99.5,18.1l-121.6,9.2l-4.3-13.7l18.6-9.4L1.5,233l32.2-10.2L170.6,255.8z"
			/>
		<path d="M109.3,292.2c-0.2,0-0.5-0.1-0.7-0.2L0.8,234.3C0.3,234,0,233.5,0,232.9c0.1-0.6,0.5-1.1,1-1.3l18.4-5.8
			c0.3-0.1,0.6-0.1,0.9,0l150.7,47c0.6,0.2,1,0.8,1,1.4c0,0.6-0.5,1.2-1.1,1.4l-61.3,16.6C109.6,292.2,109.5,292.2,109.3,292.2z
			 M5.2,233.4l104.3,55.8l55.9-15.1L19.9,228.7L5.2,233.4z"/>
		<path d="M94.8,315.9c-0.6,0-1.2-0.4-1.4-1l-3.2-10.1c-0.1-0.4-0.1-0.9,0.2-1.3c0.2-0.4,0.7-0.6,1.1-0.6
			c19.3-1.4,197.2-17.2,503.5-124c17.6-6.1,21.4-11.2,22.3-13.1c0.4-0.8,0.4-1.6,0.2-2.2c-2.5-5.8-12.3-10.7-13.7-11.4
			c-0.1,0-0.2-0.1-0.2-0.1c-0.7-0.4-1-1.2-0.7-1.9c0.3-0.7,1.2-1,1.9-0.7c0,0,0.1,0,0.2,0.1c0.5,0.2,1.5,0.6,2.7,1
			c7.7,2.9,23.6,8.8,25.9,16.7c2.8,9.6-3.6,24.5-49.7,40.5c-33.3,11.6-182,55.5-267.6,80.6c-32.5,9.5-66.1,15.6-99.8,18.2
			l-121.6,9.2C94.9,315.9,94.9,315.9,94.8,315.9z M93.6,305.6l2.3,7.3l120.4-9.1c33.6-2.5,66.9-8.6,99.2-18.1
			c85.6-25.1,234.2-68.9,267.5-80.5c46.3-16.1,49.8-30.1,47.8-37c-1.2-4.1-8-8-14.4-10.9c1.6,1.6,3,3.3,3.8,5.2
			c0.4,0.9,0.7,2.5-0.2,4.5c-2.2,4.9-10.5,10-24,14.7c-116,40.5-226.6,72.4-328.6,95C172.4,297.7,115.3,303.9,93.6,305.6z"/>
		<path d="M586.6,145.1c-4.4-0.8-8.8-1.1-12.9-1.1c6.5,3.8,12.2,9.2,12,12.6c-0.2,4.3-8.7,11-13.2,14.3c-1.5,1.1-1.9,3.2-0.9,4.8
			l2.1,3.3c1.1,1.7,3.4,2.2,5.1,1c11.4-8,19.9-16.5,19.1-22.1C597,152.4,591.6,148,586.6,145.1z"/>
		<path d="M94.8,315.9c-0.6,0-1.2-0.4-1.4-1l-4.3-13.7c-0.2-0.7,0.1-1.4,0.7-1.7l16.1-8.1l-105.2-57C0.2,234,0,233.5,0,232.9
			s0.5-1.1,1-1.2l32.2-10.2c0.3-0.1,0.5-0.1,0.8,0l136.6,32.9l375.9-107.6c1.2-0.4,31.1-11,58.4,2.9c0.4,0.2,1.5,0.6,2.8,1.1
			c7.7,2.9,23.6,8.8,25.9,16.7c2.8,9.6-3.6,24.5-49.7,40.5c-33.3,11.6-182,55.5-267.6,80.6c-32.5,9.5-66.1,15.6-99.8,18.2
			l-121.6,9.2C94.9,315.9,94.9,315.9,94.8,315.9z M92.3,301.5l3.6,11.4l120.4-9.1c33.6-2.5,66.9-8.6,99.2-18.1
			c85.6-25.1,234.2-68.9,267.5-80.5c46.3-16.1,49.8-30.1,47.8-37c-1.9-6.5-18.1-12.6-24.1-14.8c-1.6-0.6-2.6-1-3.1-1.2
			c-26.2-13.3-55.9-2.8-56.2-2.7L171,257.2c-0.2,0.1-0.5,0.1-0.7,0L33.7,224.4l-28.5,9l104.6,56.7c0.5,0.3,0.8,0.8,0.8,1.3
			c0,0.5-0.3,1-0.8,1.3L92.3,301.5z"/>
	</g>
	<g>
		<polygon fill="#FFFFFF" points="53.5,376.1 70.9,371.8 137.9,301.8 92.1,306.1 		"/>
	</g>
	<g>
		<path fill="#FFFFFF" d="M420.7,244.8L225.2,476.4l-29,4.4c0,0,86.2-130.4,97.1-148.7c10.9-18.4,23.1-58.8,23.1-58.8L420.7,244.8z"
			/>
		<path d="M215.4,479.3c-0.5,0-1-0.2-1.2-0.7c-0.3-0.5-0.3-1.1,0-1.6c9.5-14.3,34.2-47.8,58-80.1c25.6-34.7,49.8-67.5,55-76.2
			l1.2,0.7l-1.2-0.7c9.2-15.3,19.3-45.3,23.3-57.4c0.2-0.5,0.5-0.8,1-1l68.8-18.9c0.6-0.2,1.3,0.1,1.6,0.6c0.3,0.5,0.3,1.2-0.1,1.7
			L226.3,477.3c-0.2,0.3-0.5,0.4-0.9,0.5l-9.8,1.5C215.5,479.3,215.5,479.3,215.4,479.3z M353,264.9c-4.1,12.7-14.1,42-23.3,57.3
			c-5.3,8.8-29.5,41.7-55.2,76.5c-22.4,30.4-45.6,61.8-56.1,77.3l6-0.9l192.1-227.6L353,264.9z"/>
		<path d="M196.2,482.2c-0.5,0-1-0.2-1.2-0.7c-0.3-0.5-0.3-1.1,0-1.6c0.9-1.3,86.3-130.5,97.1-148.7c10.7-18,22.8-58.1,22.9-58.5
			c0.1-0.5,0.5-0.9,1-1l104.3-28.4c0.6-0.2,1.3,0.1,1.6,0.6c0.3,0.5,0.3,1.2-0.1,1.7L226.3,477.3c-0.2,0.3-0.5,0.4-0.9,0.5l-29,4.4
			C196.4,482.2,196.3,482.2,196.2,482.2z M317.6,274.5c-1.8,5.8-12.8,41.2-23,58.3c-9.9,16.7-82.9,127.2-95.3,146l25.2-3.8
			l192.1-227.6L317.6,274.5z"/>
	</g>
</g>
<g>
	<g>
		<g>
			<polygon fill="#FFFFFF" points="1250.8,889.3 1254.6,922.5 1266.7,922.1 1266.7,889.3 			"/>
			<path d="M1253.5,922.7l-3.8-33.2c0-0.3,0.1-0.7,0.3-0.9c0.2-0.2,0.5-0.4,0.9-0.4h15.9c0.6,0,1.2,0.5,1.2,1.2v32.8
				c0,0.6-0.5,1.2-1.1,1.2l-12.1,0.4c0,0,0,0,0,0C1254.1,923.7,1253.5,923.3,1253.5,922.7z M1265.6,890.5h-13.4l3.5,30.8l9.9-0.4
				V890.5z"/>
		</g>
		<g>
			<path fill="#FFFFFF" d="M1250.7,914.6c0,0-0.5,14.7,0,20.7c0.3,4.2,6,17.1,9.2,24c1.3,2.9,3.8,4.7,6.6,4.8
				c3.4,0.2,8.1,0.3,11.9,0.3c5.2,0,8.8-6.1,7-11.8c-1.7-5.3-4.6-11-9.3-18.2c-3.4-5.2-6.6-20.4-6.6-20.4h-9.8l-2.8,8.5
				L1250.7,914.6z"/>
			<path d="M1278.4,965.6c-3.8,0-8.6-0.2-12-0.3c-3.2-0.1-6.1-2.3-7.6-5.5c-4.1-8.8-9-20.2-9.3-24.4c-0.5-5.9,0-20.2,0-20.8
				c0-0.5,0.3-0.9,0.8-1.1c0.5-0.2,1,0,1.3,0.4l4.8,6.2l2.1-6.4c0.2-0.5,0.6-0.8,1.1-0.8h9.8c0.6,0,1,0.4,1.2,0.9
				c0,0.2,3.1,15.1,6.4,20c4.6,6.9,7.6,12.8,9.5,18.5c1.1,3.4,0.6,7-1.4,9.8C1283.4,964.4,1281,965.6,1278.4,965.6
				C1278.4,965.6,1278.4,965.6,1278.4,965.6z M1260.5,915.2l-2.5,7.7c-0.1,0.4-0.5,0.7-0.9,0.8c-0.4,0.1-0.9-0.1-1.1-0.4l-4.1-5.3
				c-0.1,4.7-0.2,13.2,0.1,17.3c0.2,3,3.6,11.6,9.1,23.6c1.1,2.4,3.3,4,5.6,4.1c3.3,0.1,8,0.3,11.9,0.3c0,0,0,0,0,0
				c1.8,0,3.5-0.9,4.7-2.6c1.5-2.1,2-5.1,1.1-7.7c-1.8-5.5-4.7-11.2-9.2-17.9c-3.1-4.6-5.8-16.5-6.5-19.9H1260.5z"/>
		</g>
	</g>
	<g>
		<polygon fill="#FFFFFF" points="1156,903.6 1156,930.6 1168.9,929.8 1171.5,903.6 		"/>
		<path d="M1155.2,931.4c-0.2-0.2-0.4-0.5-0.4-0.9v-27c0-0.6,0.5-1.2,1.2-1.2h15.4c0.3,0,0.6,0.1,0.9,0.4c0.2,0.2,0.3,0.6,0.3,0.9
			l-2.5,26.2c-0.1,0.6-0.5,1-1.1,1.1l-12.9,0.8c0,0,0,0-0.1,0C1155.7,931.8,1155.5,931.6,1155.2,931.4z M1170.2,904.8h-13v24.6
			l10.6-0.7L1170.2,904.8z"/>
	</g>
	<g>
		<path fill="#FFFFFF" d="M1170.9,964.3c-5.2,0.6-13.8,0.5-23.8-0.8c-4.3-0.6-6.5-8.9-5-11.9c6.8-13.3,7.6-20.8,10.8-30l3.5,5.4
			l1.9-4.6c0.3-0.5,0.9-0.9,1.5-1l4.9-0.5c1-0.1,2.3,0.9,2.4,2l3.3,4.1l2.8-5.1l4,33.5C1177.4,960.4,1173.9,963.9,1170.9,964.3z"/>
		<path d="M1146.9,964.6c-1.9-0.2-3.6-1.7-4.9-4c-1.7-3.2-2.1-7.4-1-9.6c4.7-9.2,6.5-15.6,8.3-21.8c0.8-2.7,1.5-5.3,2.4-8
			c0.1-0.4,0.5-0.7,1-0.8c0.4-0.1,0.9,0.1,1.1,0.5l2.3,3.5l1.1-2.6c0-0.1,0-0.1,0.1-0.2c0.5-0.9,1.4-1.4,2.4-1.5l4.9-0.5
			c1.5-0.1,3.2,1.1,3.6,2.6l2,2.5l1.9-3.6c0.2-0.5,0.8-0.7,1.3-0.6c0.5,0.1,0.9,0.5,0.9,1l4,33.6c0.1,5.6-3.7,9.7-7.4,10.1
			c-2.1,0.2-4.6,0.3-7.4,0.3C1158.6,965.8,1152.7,965.4,1146.9,964.6z M1176.1,955.4l-3.6-29.8l-1,1.9c-0.2,0.3-0.5,0.6-0.9,0.6
			c-0.4,0-0.8-0.1-1-0.4l-3.3-4.1c-0.1-0.2-0.2-0.3-0.2-0.5c-0.1-0.5-0.8-1-1.2-1l-4.9,0.5c-0.2,0-0.4,0.1-0.6,0.3l-1.9,4.5
			c-0.2,0.4-0.5,0.7-1,0.7c-0.4,0-0.9-0.2-1.1-0.5l-2.2-3.3c-0.6,1.9-1.1,3.7-1.7,5.6c-1.8,6.3-3.6,12.8-8.4,22.2
			c-0.7,1.3-0.4,4.7,1,7.4c0.5,0.9,1.6,2.6,3.1,2.8c8.8,1.1,17.6,1.4,23.6,0.8C1173,962.8,1176.2,959.9,1176.1,955.4z"/>
	</g>
	<path d="M1135.3,633.7c0,0,1.3,99.3,5.4,164c3.5,54.8,9.9,98.6,11.8,110.8c0.3,2.1,1.9,3.6,4,3.9c3.3,0.4,8.6,0.8,13.8-0.1
		c1.8-0.3,3.3-1.7,3.7-3.6c2.6-11.9,12.3-57.4,12.3-74.9c0-19.3-3.4-24.1-3.8-39.8c-0.3-11.7,3.6-53.5,5.6-73.8
		c0.3-2.7,3.9-3.1,4.8-0.6c6.3,18.4,19.9,58.1,32.5,98.9c0.6,2.1,3.9,19.9,4.5,22c8,26,16.6,50.7,19.3,63.1c0.3,1.5,1.5,2.7,3,3
		c3.5,0.7,10,1.6,15.9-0.6c1.5-0.6,2.5-2.1,2.5-3.7c-0.1-12.6-0.4-67.5-1.5-75.9c-2.4-17.6-16-35-18.5-53.7
		c-2.5-18.7-3.9-65.7-10.6-93.9c-6.8-28.2-20-59.9-20-59.9L1135.3,633.7z"/>
	<g>
		<g>
			<path d="M1198.2,451.4c-3.5-3.2-7.4-7.7-18-10.1c-9.5-2.2-18,2.5-19.4,14.6c-1.2,9.8,8.3,14.8,11.9,20.9
				c11.8,19.7-6.2,35,2.3,54.1c8.1,18.1,27.2,10.5,46.4,33.3c15.1,17.9,1.5,21.1,21.3,40.7c15.8,15.7,50.1,21.4,73.7,3
				c22.4-17.5,32.8-48.5,17.1-67.5c-14.2-17.1-29.2-3.4-44.7-19.9c-15.2-16.3-0.4-29.7-21.8-43.9c-16.5-10.9-39.3-3.2-45.2-4.9
				C1209.5,468.1,1209.1,461.1,1198.2,451.4z"/>
			<g>
				<g>
					<path fill="#FFFFFF" d="M985.8,530.3l13.5,4.6c4.3,1.4,7.6,4.9,8.9,9.2l3.3,10.7c4.7,3.1,9.3,5.7,14,7.8
						c-0.8,1.8-1.7,3.6-2.5,5.5c-1.3,3-2.5,6-3.7,9c-6.2-6.3-10.5-12-12.6-15.1c-1-1.5-2.6-2.4-4.3-2.8c-10.3-2-9.5-11.5-8.9-14
						c0.7-2.7-2.1-3.7-8.2-7.8c-1.5-1-2.4-2-3.1-2.9C980.7,532.1,983.2,529.2,985.8,530.3z"/>
					<path d="M1018.5,577.8c-6.4-6.4-10.7-12.3-12.7-15.2c-0.8-1.2-2.1-2-3.6-2.3c-3.8-0.7-6.5-2.5-8.3-5.2
						c-2.3-3.6-2.1-8.1-1.5-10.2c0.3-1.2-0.6-2-4.7-4.5c-0.9-0.6-1.9-1.2-3-2c-1.5-1-2.6-2.1-3.4-3.2c-1-1.5-0.9-3.4,0.3-4.8
						c1.2-1.4,3-1.9,4.6-1.2l13.5,4.6c4.6,1.6,8.2,5.3,9.7,10l3.2,10.3c4.3,2.9,8.9,5.4,13.4,7.4c0.3,0.1,0.5,0.4,0.6,0.7
						c0.1,0.3,0.1,0.6,0,0.9c-0.8,1.7-1.7,3.6-2.5,5.4c-1.3,3-2.6,6.1-3.7,9c-0.1,0.4-0.5,0.6-0.9,0.7c-0.1,0-0.2,0-0.2,0
						C1019,578.1,1018.7,578,1018.5,577.8z M1010.9,555.7c-0.2-0.1-0.4-0.4-0.5-0.6l-3.3-10.7c-1.2-4-4.3-7.1-8.2-8.4l-13.5-4.6
						c0,0-0.1,0-0.1,0c-0.8-0.4-1.6,0-2,0.5c-0.4,0.5-0.6,1.2-0.1,2c0.6,0.9,1.5,1.7,2.7,2.5c1.1,0.7,2.1,1.4,3,1.9
						c4.2,2.6,6.4,4.1,5.7,7.1c-0.4,1.6-0.6,5.5,1.2,8.4c1.4,2.1,3.6,3.5,6.7,4.1c2.1,0.4,3.9,1.6,5.1,3.3
						c1.8,2.7,5.6,7.9,11.2,13.6c1-2.4,2-4.9,3.1-7.4c0.6-1.5,1.3-3,2-4.4C1019.5,561,1015.2,558.6,1010.9,555.7z M985.8,530.3
						L985.8,530.3L985.8,530.3z"/>
				</g>
				<g>
					<path fill="#FFFFFF" d="M1194,514.2c-21.9-8.8-67.8-6.9-84.5,15.6c-6.1,8.1-17.9,40.7-43.2,41.1c-18.2,0.3-34.6-8.1-42.4-12.8
						c-2.7-1.7-6.3-0.8-8,1.9l-4.7,7.4c-1.1,1.7-1.3,3.8-0.5,5.6c3.5,8.1,15.2,30.4,42.3,39.3c33.4,10.9,69.6-14.9,69.6-14.9
						s-4.2,77.4,8.3,87.5c23.3,18.8,103.4,9.8,111.7-14C1251.5,644.8,1227.1,527.4,1194,514.2z"/>
					<path d="M1130.1,685.7c-11.7-9.4-9.5-72.9-8.9-86.1c-6.4,4.1-27.8,16.5-50.9,16.5c-5.9,0-11.9-0.8-17.8-2.7
						c-27.2-8.9-39.1-30.9-43-40c-0.9-2.2-0.7-4.7,0.6-6.7l4.7-7.4c2.1-3.3,6.3-4.3,9.6-2.2c8,4.9,24.1,12.9,41.8,12.7
						c19.6-0.3,31-20.9,37.8-33.1c1.7-3.1,3.2-5.8,4.5-7.5c16.8-22.5,63-25.1,85.9-15.9l-0.4,1.1l0.4-1.1
						c34.2,13.7,58.1,132.2,49.1,158c-2.8,7.9-13.2,14.8-29.4,19.5c-12.2,3.5-26.8,5.4-40.7,5.4
						C1155.6,696.1,1139,692.9,1130.1,685.7z M1110.4,530.5c-1.2,1.6-2.6,4.2-4.3,7.2c-7.1,12.7-18.9,34-39.8,34.3
						c-18.3,0.3-34.8-8-43-13c-2.2-1.3-5-0.7-6.4,1.5l-4.7,7.4c-0.9,1.4-1,3-0.4,4.5c3.7,8.7,15.2,30,41.6,38.6
						c32.5,10.6,68.2-14.5,68.6-14.7c0.4-0.3,0.9-0.3,1.2-0.1c0.4,0.2,0.6,0.6,0.6,1.1c-1.1,21.4-2,78.6,7.9,86.5
						c15.3,12.3,54.7,12.3,82,4.5c15.5-4.4,25.4-10.8,27.8-18c4.4-12.5,0.7-47.9-8.5-82.4c-10.6-39.9-25.3-67.1-39.3-72.7
						c-7.8-3.1-18.3-4.8-29.4-4.8C1143.5,510.5,1120.9,516.4,1110.4,530.5z"/>
				</g>
				<polygon points="1100.4,621 1169.1,621.8 1145.2,535.8 1068.8,535.8 				"/>
				<g>
					<g>
						<path fill="#FFFFFF" d="M1146.1,577.6c-1.8,2,1.8,4.9,3.2,7.2c0.9,1.4-0.2,2.4-1.8,1.8c-4.4-1.9-19.1-8.4-22.3-4.3
							c-1.1,1.4-0.4,4.4,1.9,7.2c4.7,5.9,19.4,13,27.6,14.9c4.9,1.1,12.8,5.7,13.6,5.4c3.6-1,5-8.3,4-9.7
							c-0.2-0.3-6.6-4.5-13.5-14.6C1155.1,580.1,1147.8,575.7,1146.1,577.6z"/>
						<path d="M1163.7,609.1c-2.8-1.3-6.6-3.1-9.3-3.7c-8.8-2-23.4-9.3-28.2-15.3c-2.7-3.3-3.4-6.8-1.9-8.7c3.2-4,13.4-0.4,23,3.7
							l0.7,0.3c0.2,0.1,0.3,0.1,0.4,0.1c0-0.1-0.1-0.1-0.1-0.2c-0.3-0.6-0.8-1.2-1.4-1.8c-1.6-1.9-3.7-4.5-1.7-6.8
							c0.4-0.4,1.1-0.9,2.4-0.8c3.4,0.2,9.1,4.3,12.1,8.7c5.8,8.4,11,12.6,12.8,13.9c0.5,0.4,0.6,0.5,0.8,0.7
							c0.9,1.3,0.6,4.3-0.3,6.6c-1,2.7-2.5,4.4-4.3,4.9c-0.1,0-0.2,0.1-0.4,0.1C1167.6,610.9,1166.6,610.5,1163.7,609.1z
							 M1171,600.5c-1.8-1.4-7.2-5.7-13.2-14.5c-2.7-3.9-7.5-7.3-10.1-7.7c-0.5-0.1-0.7,0-0.7,0c-0.6,0.7,0.3,2,1.8,3.7
							c0.6,0.7,1.1,1.4,1.6,2.1c0.8,1.3,0.5,2.4,0,3c-0.7,0.8-2,1-3.2,0.5l-0.7-0.3c-14.7-6.2-19.1-5.8-20.3-4.4
							c-0.7,0.8-0.1,3.3,1.9,5.7c4.4,5.5,18.5,12.5,26.9,14.5c2.9,0.7,6.7,2.4,9.7,3.8c1.4,0.6,2.9,1.4,3.5,1.5
							c0.9-0.3,1.7-1.3,2.3-2.7c1-2.3,1-4.5,0.8-5C1171.2,600.7,1171.1,600.6,1171,600.5z M1147,578.4"/>
					</g>
					<path fill="#FFFFFF" d="M1160.4,609.4l9.9-16.6c0,0,20.2,11.7,31.5,6.7c19.6-8.7,15.9-39.1,12.6-54.2
						c-3.3-15.1-18.9-30.4-18.9-30.4s29.7,11.3,43.9,35.1c13.1,22.1,21.5,77.1-19.4,86.2C1193.1,642.2,1160.4,609.4,1160.4,609.4z"
						/>
					<path d="M1213,638.1c2.4,0,4.8-0.2,7.1-0.8c12.8-2.9,21.8-10.2,26.8-21.8c9.4-21.8,1.6-52.3-6.6-66.1
						c-14.2-23.9-44.2-35.5-44.5-35.6c-0.6-0.2-1.3,0.1-1.5,0.7c-0.2,0.6,0.1,1.3,0.7,1.5c0.3,0.1,29.5,11.4,43.3,34.6
						c8,13.4,15.5,43,6.5,64c-4.7,10.9-13.2,17.8-25.2,20.5c-23.8,5.3-53-21.3-57.7-25.8l8.9-14.8c4.3,2.3,21.2,10.8,31.5,6.2
						c9.2-4.1,14.5-13,15.7-26.5c0.1-0.6-0.4-1.2-1.1-1.3c-0.6-0.1-1.2,0.4-1.3,1.1c-1.1,12.6-5.9,20.9-14.3,24.6
						c-10.6,4.7-30.2-6.5-30.4-6.6c-0.6-0.3-1.3-0.1-1.6,0.4l-9.9,16.6c-0.3,0.5-0.2,1.1,0.2,1.4
						C1160.8,611.5,1187.7,638.1,1213,638.1z"/>
				</g>
			</g>
			<g>
				<path fill="#FFFFFF" d="M1186.9,480.4c-0.7,0.1-1.3-0.5-1.3-1.2c0.2-3.4,0.9-9.8-2.4-12.5c-4.3-3.4-11.4-8.6-13.9-5.1
					c-2.2,3.1-4.2,9.2-9.7,11.8c-0.5,0.2-0.5,1-0.3,1.5l1.3,2.9c0.3,0.6,0.1,2-0.1,2.6c-0.7,1.9-2.3,5.9-1.9,6.7
					c0.8,1.6,7,4.1,7,4.1l-3.1,19.3c-0.1,0.7-0.5,2-1.3,1.8l-6.2,0.8c-0.7,0.1-1.2,0.8-1,1.5c0.9,2.9,4.3,9.4,16.7,11
					c14.1,1.8,20-2.2,22.3-5c0.9-1,0.4-2.6-0.9-3.1c-5.3-1.7-17.1-7.5-11-25.5c0.2-0.5,0.6-0.9,1.1-1c2-0.4,7.4-1.8,8.2-5.4
					C1191.6,482,1189.3,480.2,1186.9,480.4z"/>
				<path d="M1170.8,526.9c-13.2-1.7-16.8-8.8-17.7-11.8c-0.2-0.7-0.1-1.4,0.3-2c0.4-0.6,1-1,1.7-1l6.2-0.8c0.1-0.2,0.2-0.5,0.3-0.8
					l3-18.4c-2.3-1-6-2.8-6.8-4.3c-0.5-1,0-2.6,1.5-6.6l0.4-1c0.2-0.5,0.2-1.4,0.1-1.7l-1.3-2.9c-0.3-0.6-0.4-1.4-0.2-2
					c0.2-0.5,0.5-0.9,1-1.1c3.8-1.7,5.8-5.5,7.5-8.5c0.6-1.1,1.2-2.1,1.7-2.9c0.6-0.9,1.6-1.5,2.7-1.6c2.8-0.4,6.8,1.6,12.9,6.5
					c3.5,2.8,3.2,8.6,2.9,12.5l-0.1,0.9c0,0,0,0,0,0c1.6-0.1,3.1,0.4,4.1,1.6c0.8,0.9,1.6,2.5,0.9,5.2c-1,4-6.1,5.6-9.1,6.2
					c-0.1,0-0.2,0.1-0.2,0.2c-2.2,6.4-2.2,11.7-0.1,15.9c2.5,5,7.6,7.2,10.4,8.1c1,0.3,1.7,1.1,2,2.1c0.3,1,0.1,2.1-0.6,2.8
					c-2,2.4-6.6,5.9-16.7,5.9C1175.5,527.3,1173.3,527.2,1170.8,526.9z M1187,481.6c-0.7,0.1-1.4-0.2-1.9-0.7
					c-0.5-0.5-0.7-1.1-0.7-1.8l0.1-1c0.2-3.2,0.6-8.4-2-10.5c-5.3-4.3-9.1-6.3-11.1-6c-0.5,0.1-0.8,0.3-1.1,0.7
					c-0.5,0.7-1,1.7-1.6,2.7c-1.8,3.2-4,7.2-8.3,9.3c0,0,0,0.1,0,0.1l1.3,2.9c0.5,1.1,0.2,2.9,0,3.5l-0.4,1c-0.5,1.2-1.5,4-1.5,4.9
					c0.6,0.7,3.4,2.3,6.4,3.4c0.5,0.2,0.8,0.7,0.7,1.3l-3.1,19.3c-0.1,0.4-0.4,1.8-1.3,2.5c-0.3,0.2-0.7,0.3-1.1,0.3l-6,0.8
					c0.8,2.6,3.9,8.7,15.8,10.2c13.7,1.7,19.2-2.1,21.3-4.6c0.2-0.3,0.2-0.6,0.1-0.7c0-0.1-0.2-0.4-0.5-0.5c-3.1-1-8.8-3.5-11.7-9.3
					c-2.4-4.8-2.4-10.7-0.1-17.7c0.3-0.9,1.1-1.6,2-1.8c2-0.4,6.7-1.7,7.3-4.5c0.3-1.4,0.2-2.5-0.4-3.2c-0.4-0.5-1.1-0.8-1.9-0.8
					C1187.2,481.6,1187.1,481.6,1187,481.6z M1159.8,486.9L1159.8,486.9L1159.8,486.9z"/>
			</g>
		</g>
	</g>
</g>
<g>
	<g>
		<g>
			<path fill="#FFFFFF" d="M841.5,768.3l109.4,19.2l108.5-19.1c0.2,0,0.2-0.2,0-0.3l-109.7-19.3L841.5,768.3z"/>
			<path d="M950.9,788.7c-0.1,0-0.1,0-0.2,0l-109.4-19.2c-0.6-0.1-1-0.6-1-1.2c0-0.6,0.4-1.1,1-1.2l108.1-19.5c0.1,0,0.3,0,0.4,0
				l109.7,19.3c0.7,0.1,1.1,0.7,1.1,1.3s-0.5,1.2-1.1,1.3l-108.5,19.1C951,788.7,951,788.7,950.9,788.7z M848.5,768.3l102.4,18
				l102.2-18l-103.4-18.2L848.5,768.3z"/>
		</g>
		<g>
			<polygon fill="#FFFFFF" points="950.9,950.2 950.9,787.3 841.1,768.2 841.1,930.7 			"/>
			<path d="M907.9,799.1c-0.1,0-0.1,0-0.2,0l-23.9-4.3c-0.6-0.1-1-0.6-1-1.2v-18c0-0.4,0.2-0.7,0.4-0.9c0.3-0.2,0.6-0.3,1-0.3
				l23.9,4.2c0.6,0.1,1,0.6,1,1.2v18.1c0,0.4-0.2,0.7-0.4,0.9C908.5,799,908.2,799.1,907.9,799.1z M885.2,792.6l21.5,3.8v-15.6
				l-21.5-3.7V792.6z"/>
			<path d="M950.9,951.4c-0.1,0-0.1,0-0.2,0l-109.8-19.6c-0.6-0.1-1-0.6-1-1.2V768.2c0-0.4,0.2-0.7,0.4-0.9c0.3-0.2,0.6-0.3,1-0.3
				l109.8,19.1c0.6,0.1,1,0.6,1,1.2v162.9c0,0.4-0.2,0.7-0.4,0.9C951.4,951.3,951.2,951.4,950.9,951.4z M842.3,929.6l107.4,19.1
				V788.4l-107.4-18.7V929.6z"/>
			<g>
				<path d="M931.1,889.8c-0.1,0-0.1,0-0.2,0l-71-12.8c-0.6-0.1-1-0.6-1-1.2v-77.6c0-0.4,0.2-0.7,0.4-0.9c0.3-0.2,0.6-0.3,1-0.3
					l71,12.5c0.6,0.1,1,0.6,1,1.2v77.9c0,0.4-0.2,0.7-0.4,0.9C931.7,889.7,931.4,889.8,931.1,889.8z M861.3,874.8l68.5,12.3v-75.4
					l-68.5-12V874.8z"/>
				<g>
					<g>
						<path d="M887.7,872.7C887.7,872.7,887.6,872.7,887.7,872.7c-2.5-0.1-4.8-1.1-6.5-2.9c-1.8-1.9-2.7-4.4-2.7-7l0-1.7
							c0-1.3,1-2.4,2.3-2.4c0.6,0,1.2,0.3,1.7,0.7c0.4,0.5,0.7,1.1,0.7,1.7l0,1.7c0,1.3,0.5,2.6,1.4,3.6c0.9,0.9,2,1.5,3.3,1.5
							c0,0,0,0,0,0c1.2,0,2.4-0.5,3.2-1.4c0.9-0.9,1.4-2.2,1.4-3.6l0-48.5c0-0.7,0.3-1.4,0.8-1.8c0.5-0.4,1.1-0.7,1.8-0.6
							c1.2,0.1,2.1,1.2,2.1,2.5v48.4c0,2.6-1,5.1-2.7,7c-1.7,1.8-4,2.9-6.5,2.9c0,0,0,0,0,0L887.7,872.7
							C887.8,872.7,887.7,872.7,887.7,872.7z"/>
					</g>
					<path d="M873,839.1c-1.5-0.2-2.4-1.7-2-3.1c3.3-12.7,14.4-16.6,26.3-14.6c11.4,2,20,10.9,22.9,22.2c0.5,1.8-1,3.5-2.8,3.2
						L873,839.1z"/>
				</g>
			</g>
		</g>
		<g>
			<g>
				<polygon fill="#FFFFFF" points="950.9,950.2 950.9,787.3 1059.7,768.2 1059.7,930.8 				"/>
				<path d="M950.9,951.4c-0.3,0-0.6-0.1-0.8-0.3c-0.3-0.2-0.4-0.6-0.4-0.9V787.3c0-0.6,0.4-1.1,1-1.2l108.9-19.1
					c0.4-0.1,0.7,0,1,0.3c0.3,0.2,0.4,0.6,0.4,0.9v162.5c0,0.6-0.4,1.1-1,1.2l-108.9,19.5C951,951.4,950.9,951.4,950.9,951.4z
					 M952.1,788.4v160.4l106.4-19V769.7L952.1,788.4z"/>
			</g>
			<g>
				<g>
					<g>
						<g>
							<g>
								<polygon points="1033.6,856.2 1033.6,868.1 979.8,877.3 979.8,865.6 								"/>
							</g>
						</g>
					</g>
					<g>
						<g>
							<g>
								<g>
									<polygon points="982.4,829.9 993.5,813.9 1004.6,826 998.9,827 998.9,855.4 988.2,857.2 988.2,828.9 									"/>
								</g>
							</g>
						</g>
						<g>
							<g>
								<g>
									<polygon points="1008.9,825.5 1019.9,809.5 1031,821.6 1025.3,822.6 1025.3,850.9 1014.6,852.8 1014.6,824.4 									"/>
								</g>
							</g>
						</g>
					</g>
				</g>
				<path d="M971.2,889.8c-0.3,0-0.6-0.1-0.8-0.3c-0.3-0.2-0.4-0.6-0.4-0.9v-77.9c0-0.6,0.4-1.1,1-1.2l71-12.5c0.4-0.1,0.7,0,1,0.3
					c0.3,0.2,0.4,0.6,0.4,0.9v77.6c0,0.6-0.4,1.1-1,1.2l-71,12.8C971.4,889.8,971.3,889.8,971.2,889.8z M972.4,811.7v75.4l68.5-12.3
					v-75.1L972.4,811.7z"/>
			</g>
		</g>
	</g>
	<g>
		<g>
			<path fill="#FFFFFF" d="M896.2,667.3l66,11.6l65.3-11.5c0.1,0,0.1-0.2,0-0.2l-66-11.6L896.2,667.3z"/>
			<path d="M962.2,680.1c-0.1,0-0.1,0-0.2,0l-66-11.6c-0.6-0.1-1-0.6-1-1.2c0-0.6,0.4-1.1,1-1.2l65.2-11.7c0.1,0,0.3,0,0.4,0
				l66,11.6c0.6,0.1,1.1,0.7,1.1,1.3c0,0.7-0.5,1.2-1.1,1.3l-65.3,11.5C962.4,680.1,962.3,680.1,962.2,680.1z M903.3,667.3l59,10.4
				l58.8-10.4l-59.6-10.5L903.3,667.3z"/>
		</g>
		<g>
			<polygon fill="#FFFFFF" points="962.2,777.1 962.2,678.8 896,667.3 896,765.3 			"/>
			<path d="M936.4,688.5c-0.1,0-0.1,0-0.2,0l-16.7-3c-0.6-0.1-1-0.6-1-1.2v-12.6c0-0.4,0.2-0.7,0.4-0.9c0.3-0.2,0.6-0.3,1-0.3
				l16.7,2.9c0.6,0.1,1,0.6,1,1.2v12.7c0,0.4-0.2,0.7-0.4,0.9C937,688.4,936.7,688.5,936.4,688.5z M920.9,683.3l14.3,2.5v-10.2
				l-14.3-2.5V683.3z"/>
			<path d="M962.2,778.3c-0.1,0-0.1,0-0.2,0l-66.3-11.8c-0.6-0.1-1-0.6-1-1.2v-98c0-0.4,0.2-0.7,0.4-0.9c0.3-0.2,0.6-0.3,1-0.3
				l66.3,11.5c0.6,0.1,1,0.6,1,1.2v98.3c0,0.4-0.2,0.7-0.4,0.9C962.8,778.2,962.5,778.3,962.2,778.3z M897.2,764.3l63.8,11.4v-95.8
				l-63.8-11.1V764.3z"/>
		</g>
		<g>
			<polygon fill="#FFFFFF" points="962.2,777.1 962.2,678.8 1027.9,667.3 1027.9,765.3 			"/>
			<path d="M962.2,778.3c-0.3,0-0.6-0.1-0.8-0.3c-0.3-0.2-0.4-0.6-0.4-0.9v-98.3c0-0.6,0.4-1.1,1-1.2l65.7-11.5c0.4-0.1,0.7,0,1,0.3
				c0.3,0.2,0.4,0.6,0.4,0.9v98.1c0,0.6-0.4,1.1-1,1.2l-65.7,11.7C962.4,778.3,962.3,778.3,962.2,778.3z M963.4,679.8v95.8
				l63.2-11.3v-95.6L963.4,679.8z"/>
		</g>
	</g>
</g>
<path d="M54,375.8c-0.4,0-0.9-0.2-1.2-0.6c-0.4-0.5-0.4-1.1-0.1-1.6l38.6-70c0.2-0.4,0.7-0.7,1.1-0.7l45.8-4.3
	c0.6-0.1,1.2,0.3,1.4,0.8s0.2,1.2-0.3,1.6l-66.9,70c-0.2,0.2-0.4,0.3-0.7,0.4l-17.4,4.3C54.2,375.8,54.1,375.8,54,375.8z
	 M93.4,305.7l-36.6,66.4l13.8-3.4l63.9-66.9L93.4,305.7z"/>
<g>
	<g>
		<g>
			<g>
				<path d="M438.7,827.1c-0.2,0-0.3-0.1-0.5-0.1l-18.6-7.7c-1.1-0.4-1.7-1.6-1.5-2.8l41.2-212.1c0.1-0.7,0.6-1.3,1.2-1.7
					c0.6-0.4,1.4-0.4,2.1-0.1l18.2,7.1c1.1,0.4,1.7,1.6,1.5,2.8l-40.7,212.8c-0.1,0.7-0.6,1.4-1.3,1.7
					C439.8,827.1,439.2,827.2,438.7,827.1z"/>
				<path d="M396.2,809.4c-0.2,0-0.3-0.1-0.5-0.1l-18.6-7.7c-1.1-0.4-1.7-1.6-1.5-2.8l33.8-174.4c0.1-0.7,0.6-1.3,1.2-1.7
					c0.6-0.4,1.4-0.4,2.1-0.1l18.2,7.1c1.1,0.4,1.7,1.6,1.5,2.8l-33.4,175.1c-0.1,0.7-0.6,1.4-1.3,1.7
					C397.3,809.4,396.8,809.5,396.2,809.4z"/>
				<path d="M353.8,791.7c-0.2,0-0.3-0.1-0.5-0.1l-18.6-7.7c-1.1-0.4-1.7-1.6-1.5-2.8l27.6-142.4c0.1-0.7,0.6-1.3,1.2-1.7
					c0.6-0.4,1.4-0.4,2.1-0.1l18.2,7.1c1.1,0.4,1.7,1.6,1.5,2.8l-27.2,143.1c-0.1,0.7-0.6,1.4-1.3,1.7
					C354.9,791.7,354.3,791.8,353.8,791.7z"/>
				<path d="M311.3,773.9c-0.2,0-0.3-0.1-0.5-0.1l-18.6-7.7c-1.1-0.4-1.7-1.6-1.5-2.8l22.1-113.8c0.1-0.7,0.6-1.3,1.2-1.7
					c0.6-0.4,1.4-0.4,2.1-0.1l18.2,7.1c1.1,0.4,1.7,1.6,1.5,2.8L314.2,772c-0.1,0.7-0.6,1.4-1.3,1.7
					C312.5,774,311.9,774,311.3,773.9z"/>
				<path d="M268.9,756.2c-0.2,0-0.3-0.1-0.5-0.1l-18.6-7.7c-1.1-0.4-1.7-1.6-1.5-2.8l17.2-88.7c0.1-0.7,0.6-1.3,1.2-1.7
					c0.6-0.4,1.4-0.4,2.1-0.1l18.2,7.1c1.1,0.4,1.7,1.6,1.5,2.8l-16.7,89.3c-0.1,0.7-0.6,1.4-1.3,1.7
					C270,756.2,269.4,756.3,268.9,756.2z"/>
				<path d="M226.4,738.5c-0.2,0-0.3-0.1-0.5-0.1l-18.6-7.7c-1.1-0.4-1.7-1.6-1.5-2.8l11.2-57.8c0.1-0.7,0.6-1.3,1.2-1.7
					c0.6-0.4,1.4-0.4,2.1-0.1l18.2,7.1c1.1,0.4,1.7,1.6,1.5,2.8l-10.8,58.5c-0.1,0.7-0.6,1.4-1.3,1.7
					C227.6,738.5,227,738.6,226.4,738.5z"/>
			</g>
			<g>
				<path d="M224.5,649.5c-0.5-0.1-0.8-0.5-0.9-1c0-0.6,0.4-1.1,1-1.1c33.4-2.2,66.9-8.1,99.5-17.4c0.6-0.2,1.2,0.2,1.3,0.7
					c0.2,0.6-0.2,1.2-0.7,1.3c-32.8,9.4-66.4,15.3-99.9,17.5C224.6,649.5,224.5,649.5,224.5,649.5z"/>
				<path d="M407.5,599.9c-0.3-0.1-0.6-0.3-0.8-0.6c-0.3-0.5,0-1.2,0.5-1.4c43.7-21.6,71.3-43.3,81.1-51.7c0.5-0.4,1.1-0.3,1.5,0.1
					c0.4,0.5,0.3,1.1-0.1,1.5c-9.9,8.4-37.7,30.2-81.6,51.9C407.9,599.9,407.7,599.9,407.5,599.9z"/>
				<path d="M487.6,561.6C487.6,561.6,487.6,561.6,487.6,561.6c-0.6-0.1-1-0.7-0.8-1.3l3.1-15l-14.5-3.3c-0.6-0.1-0.9-0.7-0.8-1.3
					c0.1-0.6,0.7-0.9,1.3-0.8l15.5,3.5c0.6,0.1,0.9,0.7,0.8,1.3l-3.3,16.1C488.8,561.4,488.2,561.7,487.6,561.6z"/>
			</g>
		</g>
		<g>
			<g>
				<path fill="#FFFFFF" d="M336.6,473c-32.6-6.3-64.3,15.2-70.7,48.1c-6.4,32.9,14.9,64.7,47.5,71c32.6,6.3,64.3-15.2,70.7-48.1
					C390.5,511.1,369.3,479.3,336.6,473z M320.4,556.7c-13.2-2.6-21.8-15.4-19.2-28.7c2.6-13.3,15.4-22,28.6-19.4
					c13.2,2.6,21.8,15.4,19.2,28.7C346.4,550.5,333.6,559.2,320.4,556.7z"/>
				<path d="M313.3,593.2c-33.2-6.4-54.9-38.9-48.4-72.3c6.5-33.4,38.8-55.4,71.9-49c33.2,6.4,54.9,38.9,48.4,72.3
					C378.7,577.7,346.5,599.6,313.3,593.2z M336.4,474c-32-6.2-63.1,15-69.4,47.3c-6.3,32.3,14.7,63.6,46.7,69.8
					c32,6.2,63.1-15,69.4-47.3C389.4,511.6,368.4,480.3,336.4,474z M320.2,557.7c-13.8-2.7-22.8-16.1-20.1-30
					c2.7-13.9,16.1-23,29.8-20.3c13.8,2.7,22.8,16.1,20.1,30C347.3,551.3,333.9,560.4,320.2,557.7z M329.5,509.5
					c-12.6-2.4-24.8,5.9-27.3,18.6c-2.5,12.7,5.8,25,18.4,27.5c12.6,2.4,24.8-5.9,27.3-18.6C350.3,524.3,342.1,512,329.5,509.5z"/>
			</g>
			<g>
				<path fill="#FFFFFF" d="M347.5,476.2L336,510.7c6.8,3.4,11.6,9.9,13,17.4l34.9-8.7C379.7,500.1,366.2,483.7,347.5,476.2z"/>
				<path d="M348.8,529.1c-0.1,0-0.3-0.1-0.4-0.2c-0.2-0.2-0.4-0.4-0.5-0.7c-1.3-7.2-5.9-13.4-12.4-16.7c-0.5-0.2-0.7-0.8-0.5-1.3
					l11.5-34.5c0.1-0.3,0.3-0.5,0.6-0.6c0.3-0.1,0.6-0.1,0.8,0c18.8,7.5,32.7,24,37,44c0.1,0.6-0.2,1.1-0.8,1.3l-34.9,8.7
					C349.1,529.2,348.9,529.2,348.8,529.1z M337.3,510.1c6.3,3.5,10.9,9.6,12.5,16.7l32.8-8.1c-4.4-18.5-17.1-33.7-34.5-41
					L337.3,510.1z"/>
			</g>
			<g>
				<path fill="#FFFFFF" d="M349,528.1c0.5,2.9,0.6,6,0,9.1c-0.3,1.8-0.9,3.4-1.5,5l34.8,9.2c0.8-2.4,1.4-4.8,1.9-7.4
					c1.7-8.7,1.4-17.3-0.4-25.4L349,528.1z"/>
				<path d="M382,552.5C382,552.5,382,552.5,382,552.5l-34.9-9.2c-0.3-0.1-0.6-0.3-0.7-0.6c-0.1-0.3-0.1-0.6,0-0.9
					c0.7-1.6,1.2-3.2,1.5-4.8c0.6-2.9,0.6-5.8,0-8.7c-0.1-0.5,0.2-1.1,0.8-1.2l34.7-9.4c0.3-0.1,0.6,0,0.8,0.1
					c0.2,0.1,0.4,0.4,0.5,0.7c2,8.5,2.1,17.2,0.5,25.8c-0.5,2.4-1.1,5-2,7.5C383.1,552.3,382.6,552.6,382,552.5z M348.8,541.5
					l32.7,8.6c0.7-2.1,1.2-4.2,1.6-6.3c1.5-8,1.5-16-0.2-23.9l-32.7,8.9c0.4,2.9,0.3,5.7-0.2,8.5
					C349.7,538.8,349.3,540.1,348.8,541.5z"/>
			</g>
		</g>
	</g>
	<g>
		<g>
			<polygon fill="#FFFFFF" points="464.8,497.2 536.8,528.1 597.1,475.1 			"/>
			<path d="M536.6,529.1c-0.1,0-0.1,0-0.2-0.1l-72-30.9c-0.4-0.2-0.7-0.6-0.6-1.1c0.1-0.5,0.4-0.9,0.9-0.9L596.9,474
				c0.5-0.1,0.9,0.2,1.1,0.6c0.2,0.4,0.1,0.9-0.3,1.3l-60.3,53C537.3,529.1,536.9,529.2,536.6,529.1z M468.6,497.6l68.1,29.2
				l57-50.1L468.6,497.6z"/>
		</g>
		<g>
			<polygon fill="#FFFFFF" points="497.7,537 490.6,508.3 563.6,488.1 503.3,513.7 518.3,520.2 			"/>
			<path d="M497.5,538c0,0-0.1,0-0.1,0c-0.3-0.1-0.6-0.4-0.7-0.8l-7.1-28.7c-0.1-0.6,0.2-1.1,0.8-1.3l73-20.2
				c0.5-0.2,1.1,0.1,1.3,0.7c0.2,0.5-0.1,1.1-0.6,1.3l-58,24.6l12.8,5.5c0.3,0.1,0.6,0.5,0.6,0.8c0.1,0.4-0.1,0.7-0.4,1l-20.6,16.8
				C498.1,538,497.8,538.1,497.5,538z M491.9,509l6.4,26.1l18-14.7l-13.4-5.8c-0.4-0.2-0.6-0.6-0.6-1c0-0.4,0.3-0.8,0.7-1l45.4-19.3
				L491.9,509z"/>
		</g>
		<path d="M500.1,526.9C500.1,526.9,500.1,526.9,500.1,526.9c-0.6-0.2-1-0.7-0.8-1.3l3-12.1c0.1-0.6,0.7-0.9,1.3-0.8
			c0.6,0.1,0.9,0.7,0.8,1.3l-3,12.1C501.2,526.6,500.6,527,500.1,526.9z"/>
	</g>
</g>
</svg>
