<?xml version="1.0" encoding="utf-8"?>
<!-- Generator: Adobe Illustrator 26.0.1, SVG Export Plug-In . SVG Version: 6.00 Build 0)  -->
<svg version="1.0" id="Ebene_1" xmlns="http://www.w3.org/2000/svg" xmlns:xlink="http://www.w3.org/1999/xlink" x="0px" y="0px"
	 viewBox="0 0 983 433.5" enable-background="new 0 0 983 433.5" xml:space="preserve">
<g>
	<path stroke="#000000" stroke-width="2.5" stroke-miterlimit="10" d="M637.7,41.7c-2.1,15.8-34.6,67.5-42.3,79.5
		c-0.6,1-2.2,0.8-2.5-0.3c-4.3-13.6-22.4-71.9-20.3-87.8c2.4-18,18.8-30.6,36.8-28.3C627.4,7.2,640.1,23.7,637.7,41.7z"/>
	<path fill="#FFFFFF" stroke="#000000" stroke-width="2.5" stroke-miterlimit="10" d="M622.3,38.2c-1.2,9.4-9.8,16-19.2,14.7
		c-9.4-1.2-16-9.8-14.7-19.2c1.2-9.4,9.8-16,19.2-14.7C616.9,20.3,623.5,28.9,622.3,38.2z"/>
</g>
<g>
	<path stroke="#000000" stroke-width="2.5" stroke-miterlimit="10" d="M976.5,355.9c-9.9,18.1-73.3,65.1-88.1,76
		c-1.2,0.9-3,0-2.9-1.6c1.2-18.3,6.7-97.1,16.6-115.2c11.3-20.5,37-28.1,57.6-16.8C980.3,309.6,987.8,335.4,976.5,355.9z"/>
	<path fill="#FFFFFF" stroke="#000000" stroke-width="2.5" stroke-miterlimit="10" d="M959.6,344.5c-5.9,10.7-19.3,14.6-30,8.8
		c-10.7-5.9-14.6-19.3-8.8-30c5.9-10.7,19.3-14.6,30-8.8C961.6,320.4,965.5,333.8,959.6,344.5z"/>
</g>
<g>
	<path stroke="#000000" stroke-width="2.5" stroke-miterlimit="10" d="M84.8,290c5,20-9.5,97.6-13,115.6c-0.3,1.5-2.2,2-3.2,0.8
		C57,392.2,7.6,330.6,2.5,310.6c-5.7-22.7,8.1-45.8,30.8-51.5C56.1,253.5,79.1,267.2,84.8,290z"/>
	<path fill="#FFFFFF" stroke="#000000" stroke-width="2.5" stroke-miterlimit="10" d="M64.7,293.1c3,11.9-4.2,23.9-16.1,26.8
		c-11.9,3-23.9-4.2-26.8-16.1C18.8,292,26,280,37.8,277C49.7,274.1,61.7,281.3,64.7,293.1z"/>
</g>
<g>
	<path stroke="#000000" stroke-width="2.5" stroke-miterlimit="10" d="M290.5,81.9c2.7,20.5-20.7,95.9-26.2,113.4
		c-0.5,1.5-2.4,1.7-3.2,0.4c-9.9-15.5-51.9-82.3-54.6-102.8c-3-23.2,13.3-44.5,36.5-47.6C266.1,42.3,287.4,58.6,290.5,81.9z"/>
	<path fill="#FFFFFF" stroke="#000000" stroke-width="2.5" stroke-miterlimit="10" d="M270.1,82.7c1.6,12.1-6.9,23.2-19.1,24.8
		c-12.1,1.6-23.2-6.9-24.8-19.1c-1.6-12.1,6.9-23.2,19.1-24.8C257.4,62,268.5,70.5,270.1,82.7z"/>
</g>
</svg>
