<?xml version="1.0" encoding="utf-8"?>
<!-- Generator: Adobe Illustrator 26.0.1, SVG Export Plug-In . SVG Version: 6.00 Build 0)  -->
<svg version="1.0" id="Ebene_1" xmlns="http://www.w3.org/2000/svg" xmlns:xlink="http://www.w3.org/1999/xlink" x="0px" y="0px"
	 viewBox="0 0 222 65.6" enable-background="new 0 0 222 65.6" xml:space="preserve">
<path fill="#009F51" d="M31,0.1c4.9-0.3,9.8,0.6,14.3,2.4c3.9,1.6,7.4,3.9,10.4,6.9c3.9,3.8,6.8,8.6,8.4,13.8
	c1.5,4.9,1.8,10.2,1,15.2c-0.7,4.3-2.4,8.5-4.7,12.2c-2.2,3.5-5.1,6.5-8.5,8.9c-3.6,2.6-7.7,4.4-12,5.4c-5.2,1.2-10.8,1-16-0.4
	c-5.2-1.4-10-4.2-13.9-8c-2.9-2.8-5.4-6.2-7.1-9.9c-2-4.4-3.1-9.3-3-14.2c0-3.4,0.6-6.7,1.7-9.9c1.4-4.1,3.5-7.8,6.3-11.1
	c2.8-3.3,6.3-5.9,10.1-7.9C22.1,1.5,26.5,0.3,31,0.1 M30.8,7.6c-0.4,0.6-0.5,1.4-0.4,2.1c0.1,0.6,0.4,1.2,0.9,1.6
	c0.6,0.4,1.3,0.6,2,0.4c0.3-0.1,0.6-0.3,0.8-0.6c0,0.2,0.1,0.4,0.1,0.5c0.2,0,0.5,0,0.7,0c0-0.9,0-1.8,0-2.7c-0.7,0-1.4,0-2.1,0
	c0,0.3,0,0.5,0,0.8c0.4,0,0.7,0,1.1,0c0,0.4-0.2,0.7-0.6,0.9c-0.5,0.2-1.2,0.2-1.6-0.3c-0.4-0.4-0.4-1.1-0.3-1.6
	c0.1-0.5,0.3-1,0.7-1.2c0.4-0.2,0.9-0.2,1.3,0.1c0.2,0.1,0.3,0.4,0.3,0.6c0.3,0,0.7,0,1,0c0-0.4-0.2-0.8-0.5-1.1
	C33.4,6.3,31.6,6.4,30.8,7.6 M24,8.1c0.4,1.6,0.8,3.2,1.2,4.8c1.2-0.3,2.4-0.6,3.6-0.9c-0.1-0.3-0.2-0.6-0.2-0.9
	c-0.9,0.2-1.7,0.4-2.6,0.7c-0.1-0.4-0.2-0.8-0.3-1.1c0.8-0.2,1.5-0.4,2.3-0.6C28,9.6,28,9.4,27.9,9.1c-0.8,0.2-1.5,0.4-2.3,0.6
	c-0.1-0.3-0.2-0.7-0.3-1C26.2,8.5,27,8.3,27.8,8c-0.1-0.3-0.2-0.6-0.2-0.9C26.4,7.5,25.2,7.8,24,8.1 M36,11.8
	c0.4,0.1,0.7,0.2,1.1,0.3c0.2-0.3,0.4-0.6,0.7-0.9c0.6,0.2,1.2,0.3,1.8,0.5c0,0.4,0.1,0.8,0.1,1.1c0.4,0.1,0.7,0.2,1.1,0.3
	c-0.2-1.7-0.3-3.5-0.5-5.2c-0.4-0.1-0.7-0.2-1.1-0.3C38,9,37,10.4,36,11.8 M20.8,9.4c0.2,1.2,0.4,2.4,0.7,3.6
	c-0.9-0.8-1.7-1.7-2.6-2.5c-0.3,0.2-0.7,0.4-1,0.5c1.2,1.2,2.5,2.4,3.7,3.6c0.4-0.2,0.7-0.4,1.1-0.6c-0.3-1.7-0.6-3.4-0.9-5.1
	C21.4,9.1,21.1,9.3,20.8,9.4 M44.3,9.4c-0.8,1.4-1.7,2.8-2.5,4.2c0.3,0.2,0.6,0.3,0.9,0.5c0.6-0.9,1.1-1.9,1.7-2.8
	c0,1.3,0.1,2.6,0.1,3.9c0.3,0.2,0.6,0.4,0.9,0.6c0.8-1.4,1.7-2.8,2.5-4.2c-0.3-0.2-0.6-0.3-0.9-0.5c-0.6,0.9-1.1,1.9-1.7,2.8
	c0-1.3,0-2.6-0.1-3.9C44.9,9.7,44.6,9.6,44.3,9.4 M17.1,26.1C17,26.5,17,27,16.9,27.4c0,0.8,0,1.5,0.1,2.2c0.2,1,0.4,2,0.9,3
	c0.8,1.9,2.1,3.7,3.7,5c0.7,0.6,1.4,1.1,2.2,1.5c2,1.2,4.4,1.8,6.7,1.8c-0.2-1-0.2-2-0.2-3c-0.9-0.6-1.8-1.2-2.6-1.8
	c-1.3-1-2.5-2.2-3.5-3.5c-0.3-0.4-0.6-0.9-0.8-1.3c0.2,0.3,0.5,0.7,0.7,1c0.3,0.3,0.5,0.6,0.8,0.9c1.6,1.6,3.5,2.9,5.5,3.9
	c0.1-1.9,0.5-3.8,1.1-5.6c-1.8-2.3-4.1-4.2-6.8-5.4c-1-0.5-2.1-0.9-3.1-1.3c-1.2-0.4-2.4-0.9-3.6-1.2C17.5,24.4,17.3,25.3,17.1,26.1
	 M41,24.3c-0.9,0.2-1.8,0.6-2.6,1.1c-3.6,2-6.3,5.6-7.1,9.6c-0.4,2.2-0.3,4.5,0.4,6.6c0.7-1.5,1.6-3,2.5-4.5
	c1.1-1.7,2.3-3.2,3.7-4.6c0.4-0.4,0.8-0.8,1.3-1.1c0.5-0.4,1-0.7,1.5-1c-0.3,0.2-0.6,0.4-0.8,0.6c-1.7,1.3-3,3.1-4.2,4.9
	c-1.2,2-2.2,4.1-3,6.3c3.2-0.9,6.2-2.3,8.7-4.5c1.5-1.3,2.7-2.8,3.7-4.5c0.9-1.6,1.5-3.2,2.2-4.9c0.4-1.1,0.8-2.2,1.2-3.4
	c-0.4-0.2-0.8-0.4-1.3-0.6c-0.6-0.2-1.2-0.4-1.9-0.4c-0.7-0.1-1.4-0.1-2.1,0C42.5,24,41.7,24.1,41,24.3 M9.6,31.7
	c-0.4,0.1-0.7,0.4-0.8,0.7c-0.1,0.4-0.1,0.8,0.2,1.1c0.3,0.3,0.7,0.5,1.1,0.4c0.4-0.1,0.8-0.4,0.9-0.8c0.1-0.4,0-0.8-0.3-1.1
	C10.3,31.7,9.9,31.6,9.6,31.7 M55.5,31.7c-0.4,0.1-0.8,0.5-0.8,0.9c-0.1,0.4,0.1,0.9,0.5,1.1c0.3,0.2,0.8,0.3,1.2,0
	c0.3-0.2,0.5-0.5,0.6-0.9C56.9,32.1,56.2,31.5,55.5,31.7 M19.3,56.3c0.4,0.2,0.7,0.4,1.1,0.5c1.2-1.2,2.4-2.5,3.6-3.7
	c-0.3-0.2-0.7-0.3-1-0.5c-0.8,0.9-1.7,1.7-2.5,2.6c0.2-1.2,0.4-2.4,0.5-3.6c-0.3-0.2-0.7-0.3-1-0.5C19.8,52.9,19.5,54.6,19.3,56.3
	 M45.2,51.8c0.5,1,0.9,2,1.4,3c-1.1-0.7-2.2-1.4-3.3-2.1c-0.3,0.2-0.7,0.3-1,0.5c0.7,1.5,1.4,3,2.1,4.4c0.3-0.1,0.6-0.3,0.9-0.4
	c-0.5-1-0.9-2-1.4-3c1.1,0.7,2.2,1.4,3.3,2.1c0.3-0.2,0.7-0.3,1-0.5c-0.7-1.5-1.4-3-2.1-4.4C45.8,51.5,45.5,51.7,45.2,51.8
	 M25.2,53.5c-0.3,1.6-0.7,3.2-1,4.8c1.2,0.3,2.4,0.5,3.7,0.7c0.1-0.3,0.1-0.6,0.2-0.9c-0.9-0.2-1.7-0.4-2.6-0.5
	c0.1-0.4,0.2-0.8,0.2-1.2c0.8,0.2,1.6,0.3,2.3,0.5c0.1-0.3,0.1-0.6,0.2-0.8c-0.8-0.2-1.6-0.3-2.3-0.5c0.1-0.3,0.1-0.7,0.2-1
	c0.8,0.2,1.7,0.3,2.5,0.5c0.1-0.3,0.1-0.6,0.2-0.9C27.6,53.9,26.4,53.7,25.2,53.5 M38.4,54c-0.3,1.7-0.7,3.4-1,5.2
	c0.4-0.1,0.7-0.1,1.1-0.2c0.1-0.4,0.1-0.8,0.2-1.1c0.6-0.1,1.2-0.2,1.8-0.3c0.2,0.3,0.4,0.7,0.6,1c0.4-0.1,0.7-0.1,1.1-0.2
	c-0.9-1.5-1.8-3-2.7-4.5C39.1,53.9,38.7,54,38.4,54 M30.9,55.2c-0.4,0.6-0.5,1.4-0.5,2.1c0.1,0.7,0.4,1.3,1,1.7
	c0.6,0.4,1.3,0.5,1.9,0.3c0.3-0.1,0.6-0.3,0.8-0.5c0,0.2,0.1,0.4,0.1,0.5c0.2,0,0.5,0,0.7,0c0-0.9,0-1.8,0-2.7c-0.7,0-1.4,0-2.1,0
	c0,0.3,0,0.5,0,0.8c0.4,0,0.7,0,1.1,0c0,0.4-0.2,0.7-0.6,0.9c-0.5,0.2-1.2,0.2-1.6-0.3c-0.4-0.4-0.4-1-0.3-1.6
	c0.1-0.5,0.3-1,0.7-1.2c0.4-0.2,0.9-0.2,1.3,0.1c0.2,0.1,0.3,0.4,0.3,0.6c0.3,0,0.7,0,1,0c0-0.4-0.2-0.8-0.5-1.1
	C33.5,53.9,31.7,54,30.9,55.2"/>
<path fill="#009F51" d="M38.2,10.5c0.4-0.5,0.7-1,1.1-1.6c0,0.6,0.1,1.3,0.1,1.9C39,10.7,38.6,10.6,38.2,10.5"/>
<path fill="#009F51" d="M38.8,57c0.1-0.6,0.2-1.3,0.3-1.9c0.3,0.6,0.6,1.1,0.9,1.7C39.6,56.9,39.2,56.9,38.8,57"/>
<path fill="#D3A04C" d="M109.2,0c5-0.3,10.1,0.6,14.7,2.6c3.9,1.7,7.5,4.2,10.5,7.3c3.8,3.9,6.6,8.7,8.1,13.9
	c1.4,5,1.6,10.3,0.6,15.4c-0.9,4.3-2.6,8.5-5.1,12.1c-2.3,3.4-5.3,6.4-8.7,8.7c-3.6,2.4-7.6,4.1-11.8,5c-5.3,1.1-10.8,0.8-15.9-0.7
	c-5.3-1.6-10.2-4.5-14.1-8.5c-2.9-2.9-5.2-6.5-6.8-10.3c-1.8-4.4-2.7-9.2-2.5-13.9c0.1-3.3,0.8-6.7,1.9-9.8c1.4-4,3.6-7.7,6.4-10.8
	c2.8-3.1,6.2-5.7,10-7.6C100.5,1.4,104.8,0.3,109.2,0 M111.3,6.7c-0.2,1.6-0.3,3.3-0.5,4.9c0.3,0,0.7,0.1,1,0.1
	c0.1-1.1,0.2-2.2,0.3-3.3c0.6,1.2,1.1,2.3,1.7,3.5c0.4,0.1,0.7,0.1,1.1,0.1c0.2-1.6,0.3-3.3,0.5-4.9c-0.3,0-0.7-0.1-1-0.1
	c-0.1,1.1-0.2,2.2-0.3,3.3c-0.6-1.2-1.1-2.3-1.7-3.5C112,6.8,111.6,6.7,111.3,6.7 M104.8,7.3c0.2,1.6,0.5,3.2,0.8,4.9
	c1.2-0.2,2.5-0.4,3.7-0.6c0-0.3-0.1-0.6-0.1-0.9c-0.9,0.1-1.7,0.3-2.6,0.4c-0.1-0.4-0.1-0.8-0.2-1.2c0.8-0.1,1.6-0.2,2.3-0.4
	c0-0.3-0.1-0.6-0.1-0.8c-0.8,0.1-1.6,0.2-2.3,0.4c-0.1-0.3-0.1-0.7-0.2-1c0.9-0.1,1.7-0.3,2.6-0.4c0-0.3-0.1-0.6-0.1-0.9
	C107.2,6.9,106,7.1,104.8,7.3 M98.6,9.6c0.1,0.3,0.2,0.6,0.4,0.9c0.5-0.2,0.9-0.4,1.4-0.6c0.5,1.2,1,2.5,1.5,3.7
	c0.3-0.1,0.7-0.3,1-0.4c-0.5-1.2-1-2.5-1.5-3.7c0.5-0.2,0.9-0.4,1.4-0.6c-0.1-0.3-0.2-0.6-0.4-0.8C101.1,8.5,99.9,9,98.6,9.6
	 M121.5,9c-0.7,1.5-1.5,2.9-2.2,4.4c0.3,0.2,0.6,0.3,1,0.5c0.3-0.6,0.6-1.2,0.9-1.8c0.6,0.3,1.2,0.6,1.8,0.9
	c0.1-0.3,0.3-0.5,0.4-0.8c-0.6-0.3-1.2-0.6-1.8-0.9c0.2-0.3,0.3-0.7,0.5-1c0.7,0.4,1.4,0.7,2.1,1.1c0.1-0.3,0.3-0.5,0.4-0.8
	C123.5,10,122.5,9.5,121.5,9 M95.5,11.5c0.5,0.7,1.1,1.5,1.6,2.2c0.2,0.3,0.5,0.6,0.5,0.9c0,0.3-0.2,0.5-0.3,0.7
	c-0.2,0.2-0.5,0.4-0.9,0.4c-0.3,0-0.5-0.3-0.7-0.5c-0.6-0.8-1.2-1.6-1.8-2.4c-0.3,0.2-0.6,0.4-0.9,0.7c0.6,0.8,1.2,1.6,1.8,2.4
	c0.3,0.4,0.7,0.8,1.2,0.9c0.6,0.1,1.1-0.1,1.6-0.5c0.5-0.3,0.9-0.8,1-1.4c0.1-0.5-0.1-1.1-0.4-1.5c-0.6-0.8-1.3-1.7-1.9-2.5
	C96.1,11,95.8,11.3,95.5,11.5 M123.5,15.7c0.3,0.2,0.5,0.5,0.8,0.7c0.4-0.5,0.8-1,1.3-1.4c0.3,0.3,0.6,0.5,0.9,0.8
	c0.2,0.2,0.3,0.4,0.2,0.6c-0.2,0.5-0.6,0.8-0.8,1.3c0.3,0.2,0.5,0.5,0.8,0.7c0.2-0.6,0.8-1,1-1.7c0.1-0.2,0-0.5-0.1-0.7
	c0.3,0.1,0.6,0.1,0.9,0c0.4-0.2,0.8-0.6,0.8-1.1c0.1-0.5-0.1-0.9-0.5-1.2c-0.7-0.6-1.4-1.2-2-1.8C125.7,13.3,124.6,14.5,123.5,15.7
	 M127.7,19.7c0.7,1,1.4,2.1,2.1,3.1c0.3-0.2,0.5-0.3,0.8-0.5c-0.5-0.7-1-1.5-1.5-2.2c0.3-0.2,0.7-0.5,1-0.7c0.4,0.7,0.9,1.3,1.3,2
	c0.2-0.2,0.5-0.3,0.7-0.5c-0.4-0.7-0.9-1.3-1.3-2c0.3-0.2,0.6-0.4,0.9-0.6c0.5,0.7,1,1.4,1.5,2.1c0.3-0.2,0.5-0.3,0.8-0.5
	c-0.7-1-1.4-2-2.1-3C130.4,17.8,129.1,18.8,127.7,19.7 M89,17.9c1.3,1,2.5,2.1,3.8,3.1c0.7-0.9,1.5-1.8,2.2-2.7
	c-0.2-0.2-0.5-0.4-0.7-0.6c-0.5,0.6-1,1.2-1.5,1.9c-1-0.8-2.1-1.7-3.1-2.5C89.4,17.4,89.2,17.6,89,17.9 M114.6,20.1
	c-0.4,0.5-0.6,1.2-0.4,1.8c0.2,0.7,0.7,1.2,1.4,1.4c0.4-0.5,0.6-1.3,0.4-1.9C115.8,20.8,115.2,20.3,114.6,20.1 M87.2,21.3
	c-1,0.6-1.4,1.9-0.9,2.9c0.3,0.6,0.8,1.1,1.5,1.4c0.6,0.3,1.3,0.3,1.9,0.1c0.7-0.2,1.3-0.9,1.5-1.6c0.1-0.4,0.1-0.8-0.1-1.2
	c0.2,0,0.4,0.1,0.5,0.1c0.1-0.2,0.2-0.4,0.3-0.6c-0.8-0.4-1.6-0.7-2.4-1.1c-0.3,0.6-0.6,1.3-0.9,1.9c0.2,0.1,0.5,0.2,0.7,0.3
	c0.1-0.3,0.3-0.7,0.4-1c0.3,0.2,0.6,0.5,0.6,0.8c0,0.6-0.3,1.2-0.9,1.3c-0.5,0.1-1,0-1.4-0.2c-0.4-0.2-0.7-0.5-0.9-0.9
	c-0.2-0.4,0-0.9,0.3-1.3c0.2-0.3,0.6-0.3,1-0.3c0.1-0.3,0.3-0.6,0.4-0.9C88.3,20.9,87.7,21,87.2,21.3 M117.7,21.5
	c-0.4,0.3-0.7,0.7-0.9,1.2c-1.9,1.4-3.7,3-5.3,4.8c-3.1,3.5-5.5,7.5-7.4,11.8c-0.9,2.2-1.7,4.4-2.3,6.7c0.2,0,0.4,0.1,0.6,0.1
	c0.5-2.2,1.3-4.3,2.2-6.4c1-2.4,2.2-4.7,3.6-6.8c2.4-3.7,5.4-7.1,9-9.7c0.6,0.1,1.2,0.1,1.7-0.3c0.5-0.3,0.8-0.9,0.8-1.5
	C119.1,21.1,118.3,21.1,117.7,21.5 M111.7,23.7c0.1,0.7,0.7,1.2,1.3,1.5c0.4-0.5,0.7-1.2,0.5-1.9c-0.2-0.6-0.7-1.1-1.2-1.4
	C111.8,22.4,111.6,23,111.7,23.7 M130.5,24.2c0.4,1.2,0.9,2.3,1.3,3.5c0.3-0.1,0.6-0.2,0.9-0.3c-0.3-0.8-0.6-1.7-0.9-2.5
	c0.4-0.1,0.7-0.3,1.1-0.4c0.3,0.7,0.5,1.5,0.8,2.2c0.3-0.1,0.5-0.2,0.8-0.3c-0.3-0.7-0.6-1.5-0.8-2.2c0.3-0.1,0.6-0.2,1-0.4
	c0.3,0.8,0.6,1.6,0.9,2.4c0.3-0.1,0.6-0.2,0.9-0.3c-0.4-1.2-0.9-2.3-1.3-3.5C133.6,23.1,132,23.6,130.5,24.2 M116.5,24.6
	c0.3,0.6,0.8,1.1,1.5,1.2c0.7,0.1,1.4-0.1,1.8-0.6c-0.3-0.6-0.9-1.1-1.5-1.2C117.6,23.8,117,24.1,116.5,24.6 M109.2,26.4
	c0.2,0.6,0.8,1.1,1.4,1.2c0.4-0.5,0.5-1.3,0.3-1.9c-0.2-0.6-0.8-1.1-1.5-1.3C109.1,25.1,108.9,25.8,109.2,26.4 M114.2,26.6
	c0.3,0.6,0.8,1.1,1.5,1.2c0.7,0.1,1.3-0.2,1.8-0.6c-0.3-0.6-0.9-1.1-1.6-1.2C115.3,25.8,114.6,26.1,114.2,26.6 M106.9,29.4
	c0.2,0.6,0.8,1,1.4,1.2c0.4-0.6,0.5-1.3,0.2-1.9c-0.2-0.6-0.8-1-1.4-1.2C106.8,28.1,106.6,28.8,106.9,29.4 M111.9,28.7
	c0.3,0.6,0.9,1.1,1.5,1.2c0.7,0.1,1.3-0.2,1.8-0.6c-0.3-0.6-0.9-1.1-1.6-1.2C113,28,112.3,28.3,111.9,28.7 M104.8,30.8
	c-0.3,0.6-0.4,1.4,0,2c0.3,0.6,0.9,0.9,1.5,1c0.3-0.6,0.4-1.3,0.1-1.9C106.1,31.3,105.5,30.9,104.8,30.8 M110,31.5
	c0.3,0.6,0.8,1.1,1.5,1.2c0.7,0.1,1.4-0.2,1.8-0.6c-0.3-0.6-0.8-1.1-1.5-1.2C111.2,30.8,110.5,31.1,110,31.5 M87.7,31.7
	c-0.3,0.1-0.6,0.4-0.7,0.7c-0.1,0.3-0.1,0.8,0.1,1.1c0.3,0.3,0.7,0.5,1.1,0.4c0.4-0.1,0.8-0.5,0.9-0.9c0.1-0.4-0.1-0.8-0.4-1.1
	C88.4,31.7,88,31.6,87.7,31.7 M133.7,31.7c-0.3,0.1-0.6,0.3-0.8,0.7c-0.2,0.4-0.1,0.8,0.1,1.1c0.3,0.4,0.7,0.5,1.1,0.4
	c0.4-0.1,0.8-0.5,0.9-0.9c0.1-0.4-0.1-0.8-0.4-1.1C134.4,31.7,134,31.6,133.7,31.7 M108.1,34.5c0.3,0.6,0.9,1.1,1.5,1.2
	c0.6,0.1,1.3-0.2,1.8-0.6c-0.3-0.6-0.9-1.1-1.6-1.2C109.2,33.8,108.5,34,108.1,34.5 M102.8,36.5c0.3,0.5,0.9,0.9,1.5,1
	c0.3-0.6,0.4-1.4,0-2c-0.3-0.6-0.9-0.9-1.5-1C102.5,35.1,102.4,35.9,102.8,36.5 M106,38c0.3,0.6,0.9,1.1,1.5,1.2
	c0.7,0.1,1.3-0.2,1.8-0.6c-0.3-0.6-0.8-1.1-1.5-1.2C107.2,37.2,106.5,37.5,106,38 M130.8,39.6c-0.2,1.2-0.5,2.4-0.7,3.6
	c1.6,0.3,3.2,0.6,4.8,0.9c0.2-1.2,0.5-2.4,0.7-3.7c-0.3-0.1-0.6-0.1-0.9-0.2c-0.2,0.9-0.3,1.7-0.5,2.6c-0.4-0.1-0.8-0.1-1.2-0.2
	c0.1-0.8,0.3-1.6,0.4-2.3c-0.3-0.1-0.6-0.1-0.8-0.2c-0.1,0.8-0.3,1.6-0.4,2.3c-0.3-0.1-0.7-0.1-1-0.2c0.2-0.8,0.3-1.7,0.5-2.5
	C131.4,39.7,131.1,39.6,130.8,39.6 M89,40.2c-0.7,0.1-1.3,0.5-1.7,1.1c-0.5,0.7-0.5,1.6-0.2,2.3c0.2,0.4,0.5,0.6,0.9,0.8
	c-0.2,0.1-0.3,0.2-0.5,0.2c0.1,0.2,0.1,0.4,0.2,0.7c0.9-0.2,1.7-0.5,2.6-0.7c-0.2-0.7-0.4-1.3-0.6-2c-0.3,0.1-0.5,0.1-0.8,0.2
	c0.1,0.3,0.2,0.7,0.3,1c-0.4,0.1-0.8,0-1.1-0.4c-0.3-0.4-0.4-0.9-0.2-1.4c0.2-0.4,0.7-0.7,1.2-0.8c0.4-0.1,0.9-0.1,1.3,0
	c0.5,0.2,0.8,0.8,0.7,1.3c-0.1,0.3-0.3,0.5-0.5,0.7c0.1,0.3,0.2,0.7,0.3,1c0.5-0.2,0.9-0.6,1.1-1.1c0.3-1-0.1-2.3-1.1-2.8
	C90.3,40.1,89.7,40,89,40.2 M129.7,44.5c-0.6,1.1-1.1,2.2-1.7,3.3c1.4,0.8,2.9,1.5,4.3,2.3c0.6-1.1,1.2-2.2,1.7-3.3
	c-0.3-0.1-0.5-0.3-0.8-0.4c-0.4,0.8-0.8,1.6-1.2,2.3c-0.4-0.2-0.7-0.4-1-0.6c0.4-0.7,0.7-1.4,1.1-2.1c-0.2-0.1-0.5-0.3-0.7-0.4
	c-0.4,0.7-0.7,1.4-1.1,2.1c-0.3-0.2-0.6-0.3-0.9-0.5c0.4-0.8,0.8-1.5,1.2-2.3C130.2,44.8,130,44.7,129.7,44.5 M89,47.9
	c0.6,1,1.2,2,1.9,2.9c0.3-0.2,0.5-0.3,0.8-0.5c-0.4-0.7-0.9-1.3-1.3-2c1.1-0.7,2.3-1.4,3.4-2.1c-0.2-0.3-0.4-0.6-0.6-0.9
	C91.7,46.2,90.4,47,89,47.9 M93.8,51.4c-0.3,0.4-0.5,0.8-0.5,1.3c0,0.5,0.3,1,0.7,1.4c0.5,0.4,1.1,0.8,1.8,0.8c0.5,0,1-0.4,1.3-0.8
	c0.6-0.8,1.3-1.6,1.9-2.4c-0.3-0.2-0.6-0.4-0.8-0.7c-0.6,0.8-1.3,1.6-1.9,2.4c-0.2,0.2-0.4,0.4-0.6,0.5c-0.3,0.1-0.5-0.1-0.7-0.2
	c-0.2-0.2-0.5-0.4-0.5-0.7c-0.1-0.3,0.1-0.6,0.3-0.8c0.6-0.8,1.3-1.6,1.9-2.4c-0.3-0.2-0.6-0.4-0.8-0.7C95,49.8,94.4,50.6,93.8,51.4
	 M126.8,49.4c-0.4,0.1-0.7,0.4-1,0.7c-0.5,0.5-1,0.9-1.6,1.4c1.1,1.2,2.2,2.5,3.2,3.7c0.3-0.2,0.5-0.5,0.8-0.7
	c-0.4-0.5-0.8-1-1.3-1.4c0.3-0.2,0.6-0.5,0.8-0.7c0.2-0.2,0.5-0.3,0.7-0.2c0.5,0.2,0.8,0.7,1.2,1c0.3-0.2,0.5-0.5,0.8-0.7
	c-0.6-0.2-0.8-0.8-1.4-1.1c-0.3-0.1-0.6-0.2-0.8,0c0.2-0.3,0.2-0.7,0-1c-0.1-0.3-0.4-0.6-0.7-0.7C127.5,49.3,127.1,49.3,126.8,49.4
	 M120.1,53.3c0.6,1.5,1.2,3,1.8,4.5c0.3-0.1,0.7-0.3,1-0.4c-0.3-0.6-0.5-1.2-0.8-1.9c0.6-0.3,1.3-0.5,1.9-0.8
	c-0.1-0.3-0.2-0.5-0.3-0.8c-0.6,0.3-1.3,0.5-1.9,0.8c-0.1-0.3-0.3-0.7-0.4-1c0.7-0.3,1.5-0.6,2.2-0.9c-0.1-0.3-0.2-0.6-0.3-0.8
	C122.2,52.4,121.2,52.8,120.1,53.3 M99.6,53c0.5,0.2,0.9,0.3,1.4,0.5c-0.5,1.2-0.9,2.5-1.4,3.7c0.3,0.1,0.7,0.3,1,0.4
	c0.5-1.2,0.9-2.5,1.4-3.7c0.5,0.2,0.9,0.4,1.4,0.5c0.1-0.3,0.2-0.6,0.3-0.9c-1.3-0.5-2.5-0.9-3.8-1.4C99.8,52.4,99.7,52.7,99.6,53
	 M104.5,58.7c1.2,0.2,2.5,0.3,3.7,0.5c0-0.3,0.1-0.6,0.1-0.9c-0.9-0.1-1.7-0.2-2.6-0.4c0-0.4,0.1-0.8,0.2-1.2
	c0.8,0.1,1.6,0.2,2.4,0.3c0-0.3,0.1-0.6,0.1-0.8c-0.8-0.1-1.6-0.2-2.4-0.3c0.1-0.3,0.1-0.7,0.1-1.1c0.9,0.1,1.7,0.2,2.6,0.3
	c0-0.3,0.1-0.6,0.1-0.9c-1.2-0.2-2.4-0.3-3.7-0.5C104.9,55.4,104.7,57.1,104.5,58.7 M113.9,54.3c0,1.1,0.1,2.2,0.1,3.3
	c-0.7-1.1-1.4-2.1-2.2-3.2c-0.4,0-0.7,0-1.1,0c0.1,1.6,0.1,3.3,0.2,4.9c0.3,0,0.7,0,1,0c0-1.1-0.1-2.2-0.1-3.3
	c0.7,1.1,1.4,2.1,2.2,3.2c0.4,0,0.7,0,1.1,0c-0.1-1.6-0.1-3.3-0.2-4.9C114.6,54.3,114.2,54.3,113.9,54.3"/>
<path fill="#D3A04C" d="M126.1,14.4c0.3-0.3,0.6-0.7,0.9-1c0.3,0.3,0.7,0.6,1,0.9c0.2,0.2,0.3,0.5,0.2,0.7c-0.1,0.3-0.4,0.6-0.8,0.5
	c-0.2,0-0.4-0.2-0.6-0.4C126.6,14.8,126.3,14.6,126.1,14.4"/>
<path fill="#D3A04C" d="M126.3,50.7c0.2-0.2,0.4-0.4,0.6-0.4c0.2,0,0.4,0.1,0.6,0.3c0.1,0.2,0.2,0.4,0.2,0.5
	c-0.1,0.2-0.2,0.3-0.4,0.5c-0.3,0.2-0.6,0.5-0.8,0.7c-0.3-0.4-0.6-0.7-0.9-1C125.9,51.2,126.1,50.9,126.3,50.7"/>
<g>
	<path fill="#E8A9BE" d="M188.2,0c5-0.2,10.1,0.9,14.7,3c3.6,1.7,6.9,4,9.7,6.8c3.8,3.8,6.6,8.6,8.1,13.7c1.4,4.8,1.7,9.9,0.9,14.8
		c-0.7,4.2-2.3,8.3-4.6,12c-2.3,3.6-5.2,6.7-8.6,9.1c-3.4,2.5-7.3,4.3-11.4,5.2c-5,1.2-10.2,1.2-15.2,0.1c-5-1.2-9.6-3.5-13.5-6.8
		c-3-2.5-5.6-5.6-7.5-9c-2.2-3.8-3.6-8.1-4.1-12.5c-0.7-6.5,0.5-13.2,3.5-18.9c1.9-3.7,4.6-7.1,7.8-9.8c3.2-2.7,7-4.9,11-6.2
		C181.9,0.7,185.1,0.1,188.2,0"/>
	<g>
		<path fill="#FFFFFF" d="M187.4,6.8c0,1.4-0.1,2.9-0.1,4.3c0.3,0,0.6,0,0.9,0c0-1,0-1.9,0.1-2.9c0.6,1,1.1,1.9,1.7,2.9
			c0.3,0,0.6,0,1,0c0-1.4,0.1-2.9,0.1-4.3c-0.3,0-0.6,0-0.9,0c0,1,0,1.9-0.1,2.9c-0.6-1-1.2-2-1.7-2.9
			C188.1,6.8,187.8,6.8,187.4,6.8 M184.2,7.3c0.2,1.4,0.4,2.8,0.7,4.2c0.3,0,0.6-0.1,0.9-0.1c-0.2-1.4-0.4-2.8-0.7-4.2
			C184.8,7.2,184.5,7.2,184.2,7.3 M193.6,7.3c-0.3,1.4-0.7,2.8-1,4.2c1.1,0.3,2.1,0.5,3.2,0.8c0.1-0.3,0.1-0.5,0.2-0.8
			c-0.7-0.2-1.5-0.4-2.2-0.6c0.1-0.3,0.2-0.7,0.3-1c0.7,0.2,1.3,0.3,2,0.5c0.1-0.2,0.1-0.5,0.2-0.7c-0.7-0.2-1.3-0.3-2-0.5
			c0.1-0.3,0.1-0.6,0.2-0.9c0.7,0.2,1.5,0.4,2.2,0.6c0.1-0.3,0.1-0.5,0.2-0.8C195.6,7.8,194.6,7.5,193.6,7.3 M179,8.6
			c0.1,0.3,0.2,0.5,0.2,0.8c0.4-0.1,0.8-0.3,1.2-0.4c0.4,1.1,0.7,2.2,1.1,3.3c0.3-0.1,0.6-0.2,0.9-0.3c-0.4-1.1-0.7-2.2-1.1-3.3
			c0.4-0.1,0.8-0.3,1.2-0.4c-0.1-0.3-0.2-0.5-0.2-0.8C181.2,7.9,180.1,8.3,179,8.6 M175.8,10.3c0.2,1.5,0.4,3,0.6,4.5
			c0.3-0.2,0.6-0.3,0.8-0.5c-0.1-0.3-0.1-0.7-0.2-1c0.5-0.3,0.9-0.5,1.4-0.8c0.2,0.2,0.5,0.5,0.7,0.7c0.3-0.1,0.6-0.3,0.9-0.5
			c-1.2-1-2.3-2-3.5-3C176.4,10,176.1,10.1,175.8,10.3 M201.4,10.1c-0.8,1.2-1.5,2.4-2.3,3.6c0.3,0.2,0.5,0.3,0.8,0.5
			c0.3-0.5,0.6-1,0.9-1.5c0.5,0.3,1,0.6,1.5,1c0.1-0.2,0.3-0.4,0.4-0.6c-0.5-0.3-1-0.6-1.5-1c0.2-0.3,0.4-0.6,0.5-0.8
			c0.6,0.4,1.2,0.7,1.8,1.1c0.1-0.2,0.3-0.5,0.4-0.7C203.1,11.2,202.3,10.6,201.4,10.1 M202.7,16.1c0.2,0.2,0.4,0.4,0.7,0.7
			c0.4-0.4,0.8-0.8,1.2-1.2c0.2,0.2,0.4,0.4,0.6,0.6c0.2,0.2,0.4,0.4,0.3,0.7c-0.2,0.5-0.6,0.7-0.8,1.2c0.2,0.2,0.4,0.4,0.7,0.7
			c0.2-0.5,0.7-0.8,0.9-1.4c0.1-0.2,0-0.4-0.1-0.6c0.2,0.1,0.5,0.1,0.7,0c0.4-0.2,0.8-0.6,0.8-1.1c0-0.4-0.1-0.7-0.4-1
			c-0.5-0.5-1.1-1.1-1.6-1.6C204.7,14.1,203.7,15.1,202.7,16.1 M170.7,14c0.9,1.1,1.9,2.2,2.8,3.3c0.8-0.7,1.5-1.3,2.3-2
			c-0.2-0.2-0.3-0.4-0.5-0.6c-0.5,0.5-1.1,0.9-1.6,1.4c-0.8-0.9-1.5-1.8-2.3-2.6C171.2,13.6,170.9,13.8,170.7,14 M167.1,18.2
			c1.1,0.9,2.3,1.8,3.4,2.6c0.7-0.9,1.3-1.7,2-2.6c-0.2-0.2-0.4-0.3-0.6-0.5c-0.5,0.6-0.9,1.2-1.4,1.8c-0.3-0.2-0.5-0.4-0.8-0.6
			c0.4-0.5,0.9-1.1,1.3-1.6c-0.2-0.1-0.4-0.3-0.6-0.4c-0.4,0.5-0.8,1.1-1.3,1.6c-0.2-0.2-0.5-0.4-0.7-0.6c0.5-0.6,0.9-1.2,1.4-1.8
			c-0.2-0.2-0.4-0.3-0.6-0.5C168.4,16.5,167.8,17.4,167.1,18.2 M206.1,19.9c0.6,0.9,1.2,1.8,1.8,2.7c0.2-0.1,0.4-0.3,0.7-0.4
			c-0.4-0.7-0.8-1.3-1.3-1.9c0.3-0.2,0.6-0.4,0.9-0.6c0.4,0.6,0.7,1.2,1.1,1.7c0.2-0.1,0.4-0.3,0.6-0.4c-0.4-0.6-0.8-1.2-1.1-1.7
			c0.3-0.2,0.5-0.3,0.8-0.5c0.4,0.6,0.8,1.3,1.2,1.9c0.2-0.1,0.4-0.3,0.7-0.4c-0.6-0.9-1.2-1.8-1.7-2.7
			C208.5,18.3,207.3,19.1,206.1,19.9 M165.8,21c-0.9,0.5-1.4,1.7-0.9,2.7c0.3,0.6,0.8,1,1.4,1.2c0.5,0.2,1.1,0.2,1.6,0
			c0.6-0.2,1.1-0.8,1.2-1.4c0.1-0.3,0-0.7-0.1-1c0.2,0,0.3,0.1,0.5,0.1c0.1-0.2,0.2-0.4,0.2-0.5c-0.7-0.3-1.4-0.6-2.1-1
			c-0.2,0.5-0.5,1.1-0.8,1.6c0.2,0.1,0.4,0.2,0.6,0.3c0.1-0.3,0.3-0.6,0.4-0.9c0.2,0.1,0.4,0.3,0.5,0.5c0.1,0.3,0,0.6-0.2,0.9
			c-0.2,0.3-0.5,0.5-0.8,0.5c-0.4,0-0.7-0.1-1-0.3c-0.3-0.2-0.6-0.4-0.7-0.7c-0.2-0.5,0-1.1,0.4-1.3c0.2-0.1,0.4-0.1,0.7-0.1
			c0.1-0.3,0.3-0.5,0.4-0.8C166.6,20.8,166.2,20.8,165.8,21 M208.5,23.8c0.4,1,0.8,2,1.2,3c0.2-0.1,0.5-0.2,0.7-0.3
			c-0.3-0.7-0.5-1.4-0.8-2.2c0.3-0.1,0.7-0.2,1-0.4c0.2,0.6,0.5,1.3,0.7,1.9c0.2-0.1,0.5-0.2,0.7-0.3c-0.2-0.6-0.5-1.3-0.7-1.9
			c0.3-0.1,0.6-0.2,0.9-0.3c0.3,0.7,0.5,1.4,0.8,2.1c0.2-0.1,0.5-0.2,0.7-0.3c-0.4-1-0.8-2-1.1-3C211.2,22.8,209.9,23.3,208.5,23.8
			 M188.4,23.7c-2.1,0.3-4.2,0.9-5.9,2.1c-1.4,1-2.4,2.3-2.9,3.9c-0.4,1.3-0.5,2.7-0.4,4.1c2.1-2.5,4.8-4.3,7.8-5.4
			c2.2-0.8,4.5-1.2,6.9-1.2c-3,1.1-5.8,2.6-8.4,4.3c-1.8,1.2-3.4,2.6-4.8,4.2c-1.2,1.3-2.1,2.7-2.8,4.3c-0.1,0.2,0,0.5,0.1,0.6
			c0.3,0.3,0.7,0.5,1.1,0.5c0.2,0,0.4-0.1,0.5-0.3c0.7-1.5,1.6-2.9,2.7-4.2c1.7,0.6,3.5,1.1,5.3,1c1.1,0,2.3-0.3,3.3-0.8
			c1-0.6,1.8-1.4,2.4-2.3c1.1-1.7,1.8-3.7,2.9-5.5c0.9-1.4,2-2.7,3.5-3.6c0.2-0.1,0.4-0.2,0.6-0.4c-0.1-0.1-0.1-0.2-0.2-0.2
			c-0.3-0.2-0.7-0.3-1-0.4c-0.9-0.3-1.7-0.4-2.6-0.6C193.6,23.5,191,23.4,188.4,23.7 M165.8,31.2c-0.6,0.1-1,0.7-0.9,1.2
			c0,0.6,0.6,1,1.2,1c0.6,0,1.1-0.6,1.1-1.2C167.1,31.6,166.4,31,165.8,31.2 M211.7,31.2c-0.5,0.1-0.9,0.6-0.9,1.2
			c0,0.6,0.5,1,1.1,1.1c0.5,0,1-0.3,1.1-0.8c0.1-0.4,0-0.9-0.3-1.1C212.4,31.2,212,31.1,211.7,31.2 M209.3,39.3
			c-0.2,1.1-0.4,2.1-0.6,3.2c1.4,0.3,2.8,0.5,4.2,0.8c0.2-1.1,0.4-2.1,0.6-3.2c-0.3-0.1-0.5-0.1-0.8-0.1c-0.1,0.8-0.3,1.5-0.4,2.3
			c-0.3-0.1-0.7-0.1-1-0.2c0.1-0.7,0.2-1.4,0.4-2c-0.2,0-0.5-0.1-0.7-0.1c-0.1,0.7-0.2,1.4-0.4,2c-0.3-0.1-0.6-0.1-0.9-0.2
			c0.1-0.7,0.3-1.5,0.4-2.2C209.9,39.4,209.6,39.3,209.3,39.3 M165.2,40.8c-0.4,0.5-0.4,1.3-0.2,1.9c0.1,0.4,0.4,0.6,0.8,0.8
			c-0.1,0.1-0.3,0.1-0.4,0.2c0.1,0.2,0.1,0.4,0.2,0.6c0.7-0.2,1.5-0.4,2.2-0.6c-0.2-0.6-0.3-1.2-0.5-1.7c-0.2,0.1-0.5,0.1-0.7,0.2
			c0.1,0.3,0.2,0.6,0.2,0.9c-0.2,0-0.5,0-0.7-0.1c-0.3-0.2-0.5-0.5-0.5-0.8c-0.1-0.3,0.1-0.7,0.3-0.9c0.4-0.3,0.8-0.5,1.3-0.5
			c0.4,0,0.9,0.1,1.1,0.5c0.2,0.3,0.2,0.7,0.1,1c-0.1,0.2-0.3,0.3-0.4,0.4c0.1,0.3,0.2,0.6,0.2,0.9c0.5-0.2,0.9-0.6,1-1.1
			c0.2-0.8-0.1-1.7-0.8-2.3c-0.5-0.3-1.1-0.5-1.6-0.4C166.2,39.9,165.6,40.2,165.2,40.8 M207.1,46.7c1.3,0.6,2.6,1.2,3.9,1.8
			c0.5-1,0.9-2,1.4-3c-0.2-0.1-0.5-0.2-0.7-0.3c-0.3,0.7-0.6,1.4-1,2.1c-0.3-0.1-0.6-0.3-1-0.4c0.3-0.6,0.6-1.3,0.9-1.9
			c-0.2-0.1-0.4-0.2-0.7-0.3c-0.3,0.6-0.6,1.3-0.9,1.9c-0.3-0.1-0.5-0.3-0.8-0.4c0.3-0.7,0.6-1.4,1-2.1c-0.2-0.1-0.5-0.2-0.7-0.3
			C208,44.7,207.5,45.7,207.1,46.7 M166.5,46.6c0.5,0.9,1.1,1.9,1.6,2.8c0.2-0.1,0.5-0.3,0.7-0.4c-0.4-0.7-0.8-1.3-1.1-2
			c0.3-0.2,0.6-0.3,0.9-0.5c0.3,0.6,0.7,1.2,1,1.8c0.2-0.1,0.4-0.2,0.6-0.4c-0.3-0.6-0.7-1.2-1-1.8c0.3-0.1,0.5-0.3,0.8-0.5
			c0.4,0.7,0.8,1.3,1.1,2c0.2-0.1,0.5-0.3,0.7-0.4c-0.5-0.9-1.1-1.9-1.6-2.8C169,45.2,167.8,45.9,166.5,46.6 M205.5,48.8
			c-0.5,0.5-1,1.1-1.5,1.6c1,1,2.1,2,3.1,2.9c0.2-0.2,0.4-0.5,0.6-0.7c-0.4-0.4-0.8-0.8-1.2-1.1c0.3-0.3,0.5-0.5,0.7-0.8
			c0.1-0.1,0.4-0.2,0.6-0.1c0.4,0.2,0.7,0.6,1.2,0.8c0.2-0.2,0.4-0.5,0.6-0.7c-0.5-0.2-0.8-0.6-1.3-0.8c-0.2-0.1-0.5-0.1-0.7,0
			c0.3-0.8-0.4-1.6-1.2-1.6C206,48.3,205.7,48.5,205.5,48.8 M169.7,51.3c0.7,0.7,1.4,1.4,2.2,2.1c0.2-0.2,0.4-0.4,0.5-0.6
			c-0.5-0.5-1-1-1.5-1.5c0.8-0.8,1.6-1.7,2.5-2.5c-0.2-0.2-0.5-0.4-0.7-0.7C171.7,49.3,170.7,50.3,169.7,51.3 M200.5,52.5
			c0.7,1.2,1.4,2.5,2.1,3.7c0.3-0.2,0.6-0.3,0.8-0.5c-0.3-0.5-0.6-1-0.9-1.5c0.5-0.3,1-0.6,1.6-0.9c-0.1-0.2-0.2-0.4-0.4-0.6
			c-0.5,0.3-1,0.6-1.6,0.9c-0.2-0.3-0.3-0.6-0.5-0.9c0.6-0.3,1.2-0.7,1.8-1c-0.1-0.2-0.3-0.5-0.4-0.7
			C202.3,51.5,201.4,52,200.5,52.5 M173.4,54.7c0.3,0.2,0.6,0.3,0.8,0.5c0.2-0.2,0.5-0.4,0.7-0.7c0.5,0.3,0.9,0.5,1.4,0.8
			c-0.1,0.3-0.1,0.7-0.2,1c0.3,0.2,0.6,0.3,0.9,0.5c0.2-1.5,0.4-3,0.6-4.5c-0.3-0.1-0.6-0.3-0.9-0.5
			C175.7,52.7,174.5,53.7,173.4,54.7 M179.5,52.9c-0.1,0.3-0.1,0.5-0.2,0.8c0.4,0.1,0.8,0.2,1.2,0.4c-0.3,1.1-0.6,2.2-1,3.4
			c0.3,0.1,0.6,0.2,0.9,0.3c0.3-1.1,0.6-2.2,1-3.4c0.4,0.1,0.8,0.2,1.2,0.4c0.1-0.3,0.1-0.5,0.2-0.8
			C181.7,53.6,180.6,53.3,179.5,52.9 M193.1,54.3c0.2,1.4,0.4,2.8,0.7,4.2c1.1-0.2,2.1-0.3,3.2-0.5c0-0.3-0.1-0.5-0.1-0.8
			c-0.8,0.1-1.5,0.2-2.3,0.4c-0.1-0.3-0.1-0.7-0.2-1c0.7-0.1,1.4-0.2,2.1-0.3c0-0.2-0.1-0.5-0.1-0.7c-0.7,0.1-1.4,0.2-2.1,0.3
			c0-0.3-0.1-0.6-0.1-0.9c0.7-0.1,1.5-0.2,2.2-0.3c0-0.3-0.1-0.5-0.1-0.8C195.2,54,194.2,54.2,193.1,54.3 M184.5,54.2
			c-0.2,1.4-0.4,2.8-0.5,4.3c0.3,0,0.6,0.1,0.9,0.1c0.2-1.4,0.4-2.8,0.5-4.3C185.1,54.2,184.8,54.2,184.5,54.2 M190.1,54.5
			c0,1,0,1.9,0,2.9c-0.6-0.9-1.2-1.9-1.8-2.9c-0.3,0-0.6,0-0.9,0c0,1.4,0,2.9,0.1,4.3c0.3,0,0.6,0,0.9,0c0-1,0-1.9,0-2.9
			c0.6,0.9,1.2,1.9,1.8,2.8c0.3,0,0.6,0,0.9,0c0-1.4,0-2.9-0.1-4.3C190.7,54.5,190.4,54.5,190.1,54.5"/>
		<path fill="#E8A9BE" d="M176.7,11c0.4,0.4,0.8,0.7,1.2,1.1c-0.3,0.2-0.6,0.4-1,0.5C176.9,12.1,176.8,11.5,176.7,11"/>
		<path fill="#E8A9BE" d="M205,15.1c0.3-0.3,0.6-0.6,0.8-0.8c0.3,0.3,0.5,0.5,0.8,0.8c0.2,0.2,0.3,0.4,0.2,0.6
			c-0.1,0.2-0.3,0.4-0.6,0.4c-0.2,0-0.4-0.2-0.5-0.3C205.4,15.6,205.2,15.3,205,15.1"/>
		<path fill="#E8A9BE" d="M205.8,49.5c0.1-0.2,0.3-0.3,0.5-0.3c0.3,0,0.5,0.2,0.6,0.4c0.1,0.2,0,0.5-0.1,0.7
			c-0.2,0.3-0.5,0.5-0.7,0.8c-0.3-0.3-0.6-0.6-0.9-0.8C205.4,49.9,205.6,49.7,205.8,49.5"/>
		<path fill="#E8A9BE" d="M175.5,54c0.4-0.4,0.8-0.7,1.2-1.1c-0.1,0.5-0.2,1.1-0.3,1.6C176.2,54.3,175.8,54.1,175.5,54"/>
	</g>
</g>
</svg>
