<?xml version="1.0" encoding="utf-8"?>
<!-- Generator: Adobe Illustrator 26.0.1, SVG Export Plug-In . SVG Version: 6.00 Build 0)  -->
<svg version="1.0" id="Ebene_1" xmlns="http://www.w3.org/2000/svg" xmlns:xlink="http://www.w3.org/1999/xlink" x="0px" y="0px"
	 viewBox="0 0 217.9 247" enable-background="new 0 0 217.9 247" xml:space="preserve">
<g>
	<path fill="#A50E0E" d="M150.8,120.1c-0.3-4.1-1-8.3-2-12.3l-2.9-11.1l-3.8,1.1l0.5-1.2l-5.1-2l2.3-2.9l-10.4-7.9l-18.2,25.3
		l-2.2,3.1l-0.6,0.8c-0.2,0.2-0.3,0.4-0.5,0.7c-0.4,0.5-0.7,0.9-1.1,1.4c-1.5,1.8-3.1,3.5-4.8,5.1c-3.5,3.2-7.4,5.8-11.7,7.9
		c-4.2,2.1-8.8,3.6-13.5,4.4c-2.3,0.4-4.7,0.7-7.1,0.7c-1.2,0-2.4,0-3.6,0l-3.9-0.2c-0.3,0-0.6,0-0.9,0l-0.3-0.9l-0.6-1.8
		c-0.2-0.7-0.5-1.3-0.8-1.9c-1.2-2.5-2.8-4.8-4.8-6.7c-2-1.9-4.4-3.4-6.9-4.4c-5-2-10.8-2-15.8,0c-0.2,0.1-0.5,0.2-0.7,0.3
		c-0.7-1-1.3-1.9-1.9-3c-0.3-0.5-0.6-1-0.9-1.6c-0.3-0.5-0.5-1.1-0.8-1.6c-1.8-4.2-2.4-9.1-1.4-13.7c0.9-4.6,3.3-8.9,6.8-12.2
		c0.9-0.8,1.8-1.6,2.8-2.3c0.5-0.3,1-0.7,1.5-1l1.7-1l6.7-4l6.7-4l1.7-1c0.6-0.4,1.1-0.7,1.7-1.1c1.1-0.7,2.2-1.5,3.2-2.3
		c4.2-3.3,7.9-7.1,11-11.4c6.2-8.5,9.9-18.7,10.6-29.1c-1.2,10.3-5.4,20.1-11.9,28.1c-3.2,4-7,7.5-11.1,10.4c-1,0.7-2.1,1.4-3.2,2.1
		c-0.5,0.3-1.1,0.6-1.6,0.9l-1.7,0.9l-6.9,3.7l-6.9,3.7L35.8,79c-0.6,0.3-1.2,0.7-1.8,1c-1.2,0.7-2.3,1.6-3.4,2.5
		c-4.3,3.6-7.4,8.6-8.8,14.1c-1.4,5.5-1.2,11.5,0.9,16.9c0.3,0.7,0.5,1.3,0.8,2c0.3,0.6,0.6,1.3,0.9,1.9c0.6,1.2,1.3,2.3,2,3.4
		c-0.3,0.2-0.5,0.5-0.8,0.7c-1.9,1.8-3.5,3.7-5,5.7c-3,4.1-5.1,8.8-6.3,13.7c-1.2,4.9-1.5,10-0.8,14.9c0.7,4.9,2.3,9.7,4.8,14
		c-2.2-4.4-3.6-9.2-4-14.1c-0.4-4.9,0.1-9.8,1.5-14.4c1.4-4.6,3.7-8.9,6.7-12.6c1.5-1.9,3.2-3.6,5-5.1c0.2-0.1,0.4-0.3,0.5-0.4
		c1.1,1.5,2.3,3,3.7,4.4c3.9,4.1,8.6,7.3,13.7,9.6c2.6,1.2,5.3,2,8.1,2.7c1.4,0.3,2.8,0.6,4.2,0.7l0.5,0.1l1,3.5l2,7.1l1,3.6
		l0.5,1.8l0.2,0.9c0.1,0.3,0.2,0.7,0.3,1c0.9,2.7,2.4,5.3,4.4,7.5c2,2.2,4.4,3.9,7.1,5.2c2.7,1.2,5.7,1.9,8.6,1.9
		c3,0.1,6-0.5,8.8-1.7c1.4-0.6,2.7-1.3,4-2.2l0.4-0.3l0.4-0.3l0.8-0.6c0.5-0.4,1-0.8,1.5-1.2c2-1.6,4-3.2,5.9-5
		c3.8-3.5,7.4-7.3,10.6-11.3c3.2-4.1,6.1-8.4,8.7-12.9c1.3-2.3,2.5-4.6,3.5-7l0.4-0.9l0.4-0.9l0.7-1.7l1.5-3.4l5.7-13.5l0.3,0.9
		c1.1,3.3,1.9,6.7,2.4,10.1c1,6.9,0.8,14-0.7,21c-0.7,3.5-1.8,6.9-3.1,10.2c-1.3,3.3-3,6.5-4.9,9.4c-3.9,6-9,11.2-15,15.3
		c-3,2-6.2,3.8-9.5,5.2c-1.7,0.7-3.4,1.3-5.1,1.9c-0.4,0.1-0.9,0.3-1.3,0.4l-1.4,0.4c-1,0.3-2,0.7-3,1.1c-3.9,1.7-7.3,4.5-9.7,7.9
		c-2.4,3.4-3.9,7.4-4.2,11.5c-0.4,4.1,0.4,8.3,2.2,11.9c0.4,0.9,1,1.8,1.5,2.6l1.5,2.5l3,4.9l11.9,19.6L91,226.6l-2.6-5.1l-1.3-2.6
		c-0.5-0.9-0.9-1.7-1.2-2.5c-1.4-3.3-1.8-7-1.2-10.5c0.5-3.5,2-6.8,4.3-9.5c2.2-2.7,5.1-4.7,8.3-5.8c0.8-0.3,1.6-0.5,2.4-0.7
		l1.4-0.3c0.5-0.1,1-0.2,1.5-0.3c1.9-0.5,3.9-1,5.8-1.7c3.8-1.3,7.5-3,11-5c7-4.1,13.2-9.5,18.1-16.1c2.5-3.3,4.6-6.8,6.4-10.5
		c1.8-3.7,3.3-7.5,4.4-11.5C150.5,136.8,151.4,128.4,150.8,120.1z M55,132.4c-2.3-0.4-4.6-1-6.8-1.9c-4.4-1.7-8.5-4.2-12-7.5
		c-0.9-0.9-1.8-1.8-2.6-2.8c4.2-1.4,8.9-1.1,12.8,0.8c2,0.9,3.8,2.2,5.3,3.8c1.5,1.6,2.7,3.4,3.5,5.4c0.2,0.5,0.4,1,0.5,1.5l0.2,0.7
		C55.6,132.5,55.3,132.4,55,132.4z M119.1,123.1l-0.6,1.7l-0.3,0.8l-0.3,0.8c-0.8,2.2-1.8,4.3-2.8,6.4c-2,4.2-4.4,8.2-7.1,12
		c-2.7,3.8-5.7,7.4-9,10.7c-1.6,1.7-3.4,3.3-5.1,4.8c-0.4,0.4-0.9,0.8-1.3,1.1l-0.7,0.6l-0.6,0.5c-0.7,0.6-1.6,1.1-2.4,1.5
		c-1.7,0.8-3.6,1.3-5.5,1.4c-1.9,0.1-3.9-0.2-5.7-0.9c-1.8-0.7-3.5-1.8-5-3.2c-1.4-1.4-2.5-3.1-3.3-5c-0.1-0.2-0.2-0.5-0.3-0.7
		l-0.3-0.9l-0.6-1.8l-1.2-3.5l-2.4-7l-0.4-1.2l1.4,0.1c1.4,0.1,2.8,0.2,4.2,0.2c2.8,0.1,5.6-0.1,8.4-0.4c5.6-0.7,11.1-2.2,16.2-4.4
		c5.2-2.2,10.1-5.2,14.5-8.8c2.2-1.8,4.3-3.8,6.2-5.8c0.5-0.5,1-1.1,1.4-1.6c0.2-0.3,0.5-0.6,0.7-0.8l0.6-0.8l2.5-3.1l2.5-3.2
		l-2.5,6.8L119.1,123.1z"/>
	<g opacity="0.1">
		<path d="M54.6,68.9c-0.5,0.3-1.1,0.6-1.6,0.9l-1.7,0.9l-2.6,1.4c-0.6,1.4-1,2.8-1.3,4.3l5.2-3.2l1.7-1c0.5-0.3,1-0.6,1.5-1
			l0.4-0.7l1.5-3l0.5-1.1c-0.1,0.1-0.3,0.2-0.4,0.3C56.7,67.6,55.6,68.3,54.6,68.9z"/>
		<path d="M150.8,120.2C150.8,120.2,150.8,120.2,150.8,120.2c-0.3-4.2-4.9-23.6-4.9-23.6l-16.5-12.8l-18.2,25.3l-2.2,3.1l-0.5,0.7
			c2.6-0.8,5.1-1.8,7.6-3c1.1-0.6,2.2-1.2,3.3-1.8c0.5-0.3,8.5-5.8,8.5-5.8l1.1-0.7c2.5-1.7,5.9-1,7.4,1.6l2.6,4.3
			c2.9,4.7,6.6,8.7,10.8,12.1C150.1,119.7,150.4,120,150.8,120.2z"/>
	</g>
	<path fill="#CE1515" d="M151.6,81.5l2.8,3.9l-1.1-1.1c3.2,2.8,7.3,4.7,11.7,5.3c2.2,0.3,4.4,0.3,6.6,0c0.3,0,0.5-0.1,0.8-0.1l1-0.2
		l2-0.4l4.1-0.8l2-0.4l1.1-0.2c0.5-0.1,0.8-0.1,1.3-0.2c1.7-0.2,3.3-0.3,5-0.2c3.3,0.1,6.7,0.8,9.8,2c6.2,2.4,11.5,6.8,15,12.4
		c1.7,2.8,3,5.9,3.7,9c0.2,0.8,0.3,1.6,0.4,2.4l0.1,0.6l0.1,0.6c0,0.4,0.1,0.8,0.1,1.2c0.1,1.6,0.1,3.3-0.1,4.9
		c-0.4,3.3-1.3,6.4-2.8,9.3c-1.5,2.9-3.4,5.5-5.8,7.7c-2.4,2.2-5.1,4-8.1,5.2c-3,1.2-6.1,1.9-9.3,2.1c-0.4,0-0.8,0-1.2,0l-1.1,0
		l-2.1,0l-4.1-0.1l-8.3-0.1l-2.1,0l-0.5,0c-0.2,0-0.2,0-0.4,0c-0.3,0-0.5,0-0.8,0.1c-1.1,0.1-2.1,0.4-3.1,0.8c-2,0.8-3.8,2.3-5,4.1
		c-0.6,0.9-1.1,1.9-1.4,3c-0.2,0.5-0.3,1.1-0.4,1.6l0,0.2l0,0.2l-0.1,0.5c0,0.3-0.1,0.6-0.1,0.9c-0.2,2.5-0.2,5.1,0.2,7.6
		c0.4,2.5,1,5,2,7.4c0.5,1.2,1,2.4,1.6,3.5c0.6,1.1,1.4,2.3,2.1,3.5l1.1,1.8l0.3,0.5l0.3,0.5c0.2,0.3,0.4,0.7,0.5,1.1
		c0.6,1.4,1,3,1.2,4.5c0.3,3.1-0.3,6.3-1.8,9c-0.7,1.4-1.7,2.6-2.8,3.6c-0.6,0.5-1.2,1-1.7,1.4c-0.6,0.4-1.2,0.8-1.8,1.2
		c-2.5,1.5-5.2,2.7-8,3.4c-2.8,0.7-5.7,0.9-8.5,0.7c-0.7-0.1-1.4-0.1-2.1-0.2c-0.4-0.1-0.7-0.1-1.1-0.2l-1-0.2l-4.1-0.8l-2-0.4
		l-0.5-0.1l-0.5-0.1c-0.3-0.1-0.7-0.1-1-0.1c-1.3-0.1-2.7-0.2-4-0.1c-2.7,0.2-5.3,0.8-7.8,1.8c-2.5,1.1-4.8,2.5-6.8,4.4
		c-1,0.9-1.9,1.9-2.8,3c-0.4,0.5-0.8,1.1-1.2,1.7c-0.4,0.6-0.7,1.2-1.1,1.8c0.3-0.6,0.6-1.2,1-1.8c0.3-0.6,0.7-1.2,1.1-1.7
		c0.8-1.1,1.7-2.2,2.7-3.2c2-2,4.3-3.6,6.8-4.8c2.5-1.2,5.3-2,8.1-2.3c1.4-0.1,2.8-0.2,4.2-0.1c0.4,0,0.7,0.1,1.1,0.1l0.5,0.1
		l0.5,0.1l2,0.3l4.1,0.6l1,0.2c0.3,0,0.7,0.1,1,0.1c0.7,0.1,1.3,0.1,2,0.1c2.6,0.1,5.3-0.3,7.8-1c2.5-0.7,4.9-1.9,7-3.4
		c1.1-0.7,2.1-1.6,2.9-2.4c0.8-0.9,1.5-1.9,2.1-3c1.1-2.2,1.4-4.7,1-7c-0.2-1.2-0.6-2.3-1.1-3.4c-0.1-0.3-0.3-0.5-0.4-0.8l-0.2-0.4
		l-0.3-0.4l-1.1-1.7c-0.8-1.2-1.5-2.2-2.3-3.5c-0.8-1.2-1.4-2.5-2.1-3.9c-1.2-2.7-2.1-5.5-2.7-8.4c-0.6-2.9-0.8-5.8-0.7-8.8
		c0-0.4,0-0.7,0.1-1.1l0-0.6l0.1-0.5c0.1-0.8,0.2-1.6,0.4-2.4c0.4-1.6,1.1-3.1,1.9-4.5c1.7-2.8,4.3-5.1,7.3-6.6
		c1.5-0.7,3.1-1.2,4.8-1.5c0.4-0.1,0.8-0.1,1.2-0.1c0.2,0,0.5,0,0.6,0l0.6,0l2.1-0.1l8.3-0.3l4.1-0.1l2.1-0.1l1,0
		c0.3,0,0.6,0,0.9-0.1c2.3-0.2,4.6-0.8,6.7-1.8c2.1-1,4-2.4,5.6-4c3.2-3.3,5.1-7.7,5.4-12.1c0.1-1.1,0-2.2-0.1-3.3
		c0-0.3-0.1-0.6-0.1-0.8l-0.1-0.4l-0.1-0.5c-0.1-0.6-0.2-1.1-0.4-1.6c-0.6-2.2-1.6-4.2-2.8-6.1c-2.5-3.7-6.3-6.5-10.4-7.8
		c-2.1-0.7-4.2-1-6.4-1c-1.1,0-2.2,0.1-3.2,0.3c-0.9,0.2-2.4,0.6-3.7,0.9l-4,1l-2,0.5l-1,0.2c-0.4,0.1-0.8,0.2-1.2,0.3
		c-3.2,0.6-6.6,0.8-9.9,0.5c-6.6-0.6-13.1-3.1-18.4-7.2l-0.5-0.4l-0.6-0.7l-2.9-3.7L151.6,81.5z"/>
	<path fill="#EA3232" d="M217.8,120.1c0.2-1.6,0.2-3.3,0.1-4.9c0-0.4-0.1-0.8-0.1-1.2l-0.1-0.6l-0.1-0.6c-0.1-0.8-0.3-1.6-0.4-2.4
		c-0.7-3.2-2-6.2-3.7-9c-1.4-2.2-3-4.2-4.9-6c-7.9-5.3-17.2-3.2-24.7-1.1c-8.2,2.2-17.9,5.8-21.3,7.1c0.3,0,0.6,0.1,1,0.1
		c3.3,0.3,6.7,0.1,9.9-0.5c0.4-0.1,0.8-0.2,1.2-0.3l1-0.2l2-0.5l4-1c1.3-0.3,2.8-0.7,3.7-0.9c1.1-0.2,2.1-0.3,3.2-0.3
		c2.2,0,4.3,0.3,6.4,1c4.2,1.3,7.9,4.1,10.4,7.8c1.3,1.8,2.2,3.9,2.8,6.1c0.1,0.5,0.3,1.1,0.4,1.6l0.1,0.5l0.1,0.4
		c0,0.2,0.1,0.5,0.1,0.8c0.1,1.1,0.2,2.2,0.1,3.3c-0.3,4.5-2.2,8.8-5.4,12.1c-1.6,1.6-3.5,3-5.6,4c-0.9,0.4-1.9,0.8-2.9,1.1
		c1.5,6.2,4.1,5.7,9.7,3.9c2-1.2,4-3,4.3-3.2c2.4-2.2,4.3-4.8,5.8-7.7C216.5,126.5,217.4,123.3,217.8,120.1z"/>
	<path fill="#CE1515" d="M135,91.8l-6,2.1l-0.8,0.3l-0.5,0.2c-0.2,0.1-0.4,0.1-0.5,0.2c-0.7,0.2-1.4,0.4-2.1,0.5
		c-1.4,0.3-2.8,0.4-4.3,0.5c-5.7,0.1-11.4-1.8-15.7-5.4c-1.1-0.9-2.1-1.9-3-2.9c-0.5-0.5-0.9-1.1-1.3-1.7c-0.2-0.3-0.4-0.6-0.6-0.9
		l-0.3-0.4L99.8,84l-0.1-0.2c-1.3-2.3-2.3-4.7-3-7.2c-1.3-5-1.3-10.3,0-15.2c0.7-2.5,1.6-4.8,2.9-7c0.2-0.3,0.3-0.5,0.5-0.8l0.4-0.7
		l0.9-1.3l1.7-2.7l3.4-5.4l1.7-2.7l0.4-0.6l0.4-0.6c0.2-0.4,0.4-0.8,0.6-1.2c1.7-3.2,2.5-6.8,2.5-10.5c0-3.7-0.9-7.4-2.6-10.7
		c-0.4-0.8-0.9-1.6-1.4-2.4c-0.3-0.4-0.5-0.8-0.8-1.1c-0.1-0.2-0.3-0.4-0.4-0.6l-0.5-0.6l-0.5-0.6c-0.1-0.2-0.3-0.3-0.4-0.5
		c-0.3-0.3-0.6-0.7-1-1c-0.7-0.6-1.4-1.2-2.2-1.8c-3-2.2-6.7-3.5-10.5-3.8C87.9,4.6,84,5.4,80.5,7.2C76.8,9,73.4,11.3,70.3,14
		c-3.1,2.7-5.9,5.8-8.3,9.2c-1.2,1.7-2.3,3.5-3.2,5.3c-0.5,0.9-0.9,1.9-1.4,2.8l-1.3,2.9l-1.3,2.9c-0.4,1-0.9,2-1.4,2.9
		c-1.1,1.9-2.3,3.7-3.8,5.3c-2.9,3.2-6.6,5.6-10.6,7.1c3.9-1.7,7.3-4.4,10-7.6c1.3-1.6,2.4-3.4,3.3-5.3c0.4-0.9,0.8-1.9,1.2-2.9
		l1.1-3l1.1-3c0.4-1,0.8-2,1.2-3c0.9-2,1.9-3.9,3-5.8c2.2-3.7,5-7.2,8.1-10.3c3.1-3.1,6.6-5.8,10.5-8c2-1.2,4.1-2.1,6.4-2.7
		C87.2,0.3,89.5,0,91.9,0c4.7,0,9.4,1.4,13.5,3.9c1,0.6,2,1.3,2.9,2.1c0.5,0.4,0.9,0.8,1.3,1.2c0.2,0.2,0.4,0.4,0.7,0.6l0.6,0.6
		l0.6,0.6c0.2,0.2,0.4,0.4,0.6,0.7c0.4,0.4,0.8,0.9,1.1,1.4c0.7,0.9,1.4,1.9,2,2.9c2.5,4.1,4,8.8,4.3,13.6c0.3,4.8-0.5,9.8-2.5,14.3
		c-0.2,0.6-0.5,1.1-0.8,1.7l-0.4,0.8l-0.4,0.7l-1.5,2.8l-3.1,5.6l-1.5,2.8l-0.8,1.4l-0.4,0.7c-0.1,0.2-0.2,0.4-0.3,0.6
		c-0.8,1.5-1.3,3.2-1.6,4.8c-0.7,3.3-0.4,6.8,0.7,10c0.5,1.6,1.3,3.1,2.2,4.4l0.1,0.2l0,0c0,0,0-0.1,0,0l0,0.1l0.2,0.2
		c0.1,0.1,0.2,0.3,0.3,0.4c0.2,0.3,0.5,0.6,0.7,0.8c0.5,0.5,1.1,1,1.7,1.4c2.4,1.7,5.3,2.5,8.1,2.2c0.7-0.1,1.4-0.2,2-0.4
		c0.3-0.1,0.7-0.2,1-0.3c0.1,0,0.2-0.1,0.2-0.1l0.2-0.1l0.7-0.3l5.9-2.5L135,91.8z"/>
	<path fill="#CE1515" d="M203.1,145.3c0-0.6,0.1-1.5,0.1-2l0-1.8l0-7.1l0-0.9l0-0.4l0-0.6c0-0.8-0.1-1.5-0.2-2.3
		c-0.2-1.5-0.6-3-1.2-4.4c-1.2-2.8-3-5.4-5.3-7.4c-2.3-2-5.2-3.5-8.2-4.2c-1.5-0.4-3.1-0.6-4.6-0.5l-1.9,0c-0.5,0-1,0-1.6,0
		c-4.2-0.1-8.3-1-12.1-2.6c-3.8-1.5-7.4-3.7-10.4-6.4C154.6,102,157,95,157,95s-0.1-3.6,0.2-8.8c2-1.1,3.8-3.8,4.5-7.2
		c0.9-4.5-0.4-8.6-2.9-9.6c0.9-5.4,2.1-10.6,4-14.1c6.2-11.4,12.7-25.4-10.7-32.2l-1-0.2c-24.2-3-23.7,12.5-22.5,25.4
		c0.4,4-0.5,9.3-1.9,14.6c-2.7,0-5.4,3.3-6.4,7.7c-0.7,3.3-0.2,6.4,1.2,8.2c-1.9,4.9-3.4,8.2-3.4,8.2l-2,3.6l-0.6,0.5l-0.5,0.4
		c-0.4,0.3-0.8,0.6-1.2,0.8c-0.8,0.5-1.6,1.1-2.4,1.5c-6.6,3.9-14.5,5.7-22.4,5.1c-3.9-0.3-7.8-1.2-11.5-2.7
		c-1.8-0.7-3.6-1.6-5.3-2.7l-5.7-3.4l-2.8-1.7l-1.4-0.9l-0.3-0.2l-0.3-0.2c-0.2-0.1-0.4-0.2-0.5-0.4c-1.5-1-2.7-2.3-3.8-3.8
		c-2.1-2.9-3.2-6.6-3-10.3c0.1-1.8,0.5-3.7,1.2-5.4c0.2-0.4,0.4-0.8,0.6-1.3l0.8-1.5l1.5-3l1.5-3l0.7-1.5l0.4-0.8l0.2-0.4
		c0.1-0.2,0.1-0.3,0.2-0.4c1-2.3,1.6-4.8,1.7-7.3c0.1-2.5-0.3-5-1.1-7.4c-0.8-2.4-2-4.5-3.6-6.4c-1.6-1.9-3.5-3.5-5.6-4.6
		c-0.3-0.1-0.5-0.3-0.8-0.4l-0.4-0.2L51.1,29c-0.6-0.3-1.1-0.5-1.6-0.7c-1.1-0.4-2.2-0.8-3.3-1.1c-4.5-1.1-9.3-1.2-13.8-0.2
		c-4.5,1-8.7,3.1-12.2,6L0,50.5l21.1-16.1c3.5-2.5,7.5-4.2,11.7-4.9c4.2-0.7,8.5-0.4,12.4,0.9c2,0.6,3.9,1.5,5.6,2.6
		c1.7,1.1,3.1,2.4,4.3,4c1.2,1.6,2,3.4,2.5,5.2c0.5,1.9,0.7,3.8,0.5,5.7c-0.2,1.9-0.7,3.7-1.6,5.4c-0.1,0.1-0.1,0.2-0.2,0.3L56.1,54
		l-0.4,0.7l-0.8,1.4l-1.7,2.9l-1.7,2.9l-0.8,1.4c-0.3,0.5-0.6,1.1-0.9,1.7c-1.1,2.3-1.8,4.8-2.1,7.4c-0.6,5.1,0.6,10.5,3.4,14.9
		c1.4,2.2,3.1,4.2,5.2,5.9c0.3,0.2,0.5,0.4,0.8,0.6l0.4,0.3l0.4,0.3l1.4,0.9L62,97l5.5,3.8c2,1.4,4.1,2.6,6.3,3.6
		c4.4,2.1,9.1,3.6,14,4.2c9.7,1.4,20-0.2,28.9-4.7c1.1-0.6,2.2-1.2,3.3-1.8c0.5-0.3,1.1-0.7,1.6-1l0.8-0.5l0.7-0.5l5.4-3.8l1.1-0.7
		c2.5-1.7,5.9-1,7.4,1.6l2.6,4.3c2.9,4.7,6.6,8.7,10.8,12.1c4.2,3.3,9,5.9,14.1,7.6c5.1,1.7,10.4,2.5,15.7,2.4c0.7,0,1.3,0,2-0.1
		c0.3,0,0.7,0,1-0.1l0.7-0.1c0.8-0.1,1.6,0,2.4,0.1c1.6,0.3,3.2,1,4.5,2c1.3,1,2.4,2.3,3.2,3.9c0.4,0.8,0.6,1.6,0.8,2.4
		c0.1,0.4,0.2,0.8,0.2,1.3l0,0.3l0,0.4l0.1,0.9l0.4,7.1l0.1,1.7c0,0.7,0,1,0,1.6c0,1-0.1,2-0.2,3.1c-0.6,4-2.2,8-4.8,11.2
		c-2.6,3.3-6.1,5.9-10,7.4c-1,0.4-2,0.7-3,1c-0.5,0.1-1,0.2-1.6,0.3l-1.7,0.3c-0.6,0.1-1.1,0.2-1.8,0.3c-0.7,0.1-1.3,0.3-1.9,0.5
		c-1.3,0.4-2.5,0.9-3.7,1.4c-2.4,1.2-4.6,2.8-6.4,4.7c-1.8,1.9-3.3,4.1-4.3,6.5c-2.1,4.8-2.5,10.2-1,15.1c0.7,2.5,1.9,4.8,3.4,6.8
		c0.4,0.5,0.8,1,1.2,1.5c0.2,0.2,0.4,0.5,0.6,0.6c0.2,0.2,0.3,0.4,0.5,0.6c0.7,0.9,1.2,1.8,1.7,2.8c1.9,4,2,8.8,0.2,13
		c-0.9,2.1-2.2,4-3.8,5.6c-0.8,0.8-1.7,1.5-2.7,2.1c-0.5,0.3-1,0.6-1.5,0.8l-1.6,0.8l-12.7,6.5l13-5.7l1.6-0.7
		c0.5-0.2,1.1-0.5,1.6-0.8c1.1-0.6,2.1-1.3,3-2.1c1.9-1.6,3.4-3.6,4.5-5.8c1.1-2.2,1.7-4.7,1.8-7.2c0.1-2.5-0.3-5-1.3-7.4
		c-0.5-1.2-1.1-2.3-1.8-3.4c-0.2-0.3-0.4-0.5-0.6-0.8c-0.2-0.3-0.4-0.5-0.6-0.7c-0.3-0.4-0.7-0.9-1-1.4c-1.2-1.8-2.1-3.9-2.6-6
		c-1-4.2-0.4-8.8,1.6-12.6c1.9-3.8,5.2-6.9,9-8.5c1-0.4,2-0.7,3-1c0.5-0.1,1-0.2,1.5-0.3c0.5-0.1,1.1-0.1,1.7-0.2l1.8-0.2
		c0.6-0.1,1.3-0.2,1.9-0.3c1.3-0.2,2.6-0.6,3.8-1c5-1.6,9.6-4.6,13.1-8.6c3.5-4,6-8.9,7.1-14.2C202.9,147.9,203,146.6,203.1,145.3z"
		/>
	<g opacity="0.1">
		<path d="M203.2,134.3l0-0.9l0-0.4l0-0.6c0-0.2,0-0.3,0-0.5c-0.1,0.1-0.2,0.2-0.2,0.3c-1.6,1.6-3.5,3-5.6,4
			c-0.7,0.3-1.4,0.6-2.2,0.9l0.3,4.6l0.1,1.7c0,0.5,0,0.9,0,1.3c1.6-0.3,3.3-0.8,4.8-1.5c0.9-0.4,1.9-0.8,2.8-1.3l0-0.4L203.2,134.3
			z"/>
	</g>
	<path fill="#EA3232" d="M158.8,227.8c-0.8,0.8-1.7,1.5-2.7,2.1c-0.5,0.3-1,0.6-1.5,0.8l-1.6,0.8l-0.4,0.2l2.5-0.2
		c0.5-0.2,1.1-0.5,1.6-0.8c1.1-0.6,2.1-1.3,3-2.1c1.9-1.6,3.4-3.6,4.5-5.8c1.1-2.2,1.7-4.7,1.8-7.2c0.1-2.5-0.3-5-1.3-7.4
		c-0.3-0.8-0.7-1.6-1.1-2.4c-3.8-3.9-7.5-8.8-8.8-10.6c0.1,0.5,0.2,1,0.4,1.6c0.7,2.5,1.9,4.8,3.4,6.8c0.4,0.5,0.8,1,1.2,1.5
		c0.2,0.2,0.4,0.5,0.6,0.6c0.2,0.2,0.3,0.4,0.5,0.6c0.7,0.9,1.2,1.8,1.7,2.8c1.9,4,2,8.8,0.2,13
		C161.8,224.3,160.5,226.2,158.8,227.8z"/>
	<path opacity="0.1" d="M166.1,173.6c-0.4-0.7-0.7-1.4-1.1-2.2c-0.5,0.3-1.1,0.7-1.6,1.1c0.9,1.1,1.7,2.4,2.8,3.8
		c0.4-0.2,0.7-0.4,1.1-0.6C166.9,174.9,166.4,174.3,166.1,173.6z"/>
	<path fill="#EA3232" d="M115.4,45l0.4-0.7l0.4-0.8c0.3-0.6,0.5-1.1,0.8-1.7c2-4.5,2.8-9.4,2.5-14.3c-0.3-4.8-1.8-9.5-4.3-13.6
		c-0.6-1-1.3-2-2-2.9c-0.4-0.5-0.7-0.9-1.1-1.4c-0.2-0.2-0.4-0.4-0.6-0.7l-0.6-0.6l-0.6-0.6c-0.2-0.2-0.4-0.4-0.7-0.6
		c-0.4-0.4-0.9-0.8-1.3-1.2c-0.9-0.8-1.9-1.5-2.9-2.1c-2.2-1.4-4.7-2.4-7.2-3.1c-4.9,0-10.7,1.7-17.3,6.2c3.4-1.7,7.2-2.4,10.9-2.1
		c3.8,0.3,7.5,1.6,10.5,3.8c0.8,0.5,1.5,1.1,2.2,1.8c0.3,0.3,0.7,0.6,1,1c0.2,0.2,0.3,0.3,0.4,0.5l0.5,0.6l0.5,0.6
		c0.1,0.2,0.3,0.4,0.4,0.6c0.3,0.4,0.6,0.7,0.8,1.1c0.5,0.8,1,1.6,1.4,2.4c1.7,3.3,2.6,7,2.6,10.7c0,3.7-0.9,7.3-2.5,10.5
		c-0.2,0.4-0.4,0.8-0.6,1.2l-0.4,0.6l-0.4,0.6l-1.7,2.7l-3.4,5.4l-1.7,2.7l-0.9,1.3l-0.4,0.7c-0.2,0.3-0.3,0.5-0.5,0.8
		c-1.3,2.2-2.3,4.6-2.9,7c-0.3,1.2-0.6,2.4-0.7,3.6c3.3-5,9.2-12.4,19-19.2L115.4,45z"/>
	<path fill="#EA3232" d="M63.5,88.5l-1.4-0.9l-0.3-0.2l-0.3-0.2c-0.2-0.1-0.4-0.2-0.5-0.4c-1.5-1-2.7-2.3-3.8-3.8
		c-2.1-2.9-3.2-6.6-3-10.3c0.1-1.8,0.5-3.7,1.2-5.4c0.2-0.4,0.4-0.8,0.6-1.3l0.8-1.5l1.5-3l1.5-3l0.7-1.5l0.4-0.8l0.2-0.4
		c0.1-0.2,0.1-0.3,0.2-0.4c1-2.3,1.6-4.8,1.7-7.3c0.1-2.5-0.3-5-1.1-7.4c-0.8-2.4-2-4.5-3.6-6.4c-1.6-1.9-3.5-3.5-5.6-4.6
		c-0.3-0.1-0.5-0.3-0.8-0.4l-0.4-0.2L51.1,29c-0.6-0.3-1.1-0.5-1.6-0.7c-1.1-0.4-2.2-0.8-3.3-1.1c-4.5-1.1-9.3-1.2-13.8-0.2
		c-4.5,1-8.7,3.1-12.2,6L0,50.5l21.1-16.1c3.5-2.5,7.5-4.2,11.7-4.9c4.2-0.7,8.5-0.4,12.4,0.9c2,0.6,3.9,1.5,5.6,2.6
		c1.7,1.1,3.1,2.4,4.3,4c1.2,1.6,2,3.4,2.5,5.2c0.5,1.9,0.7,3.8,0.5,5.7c-0.2,1.9-0.7,3.7-1.6,5.4c-0.1,0.1-0.1,0.2-0.2,0.3L56.1,54
		l-0.4,0.7l-0.8,1.4l-1.7,2.9l-1.7,2.9l-0.8,1.4c-0.3,0.5-0.6,1.1-0.9,1.7c-1.1,2.3-1.8,4.8-2.1,7.4c-0.3,2.8-0.1,5.6,0.6,8.3
		C54,89.4,63.5,88.5,63.5,88.5z"/>
	<path fill="#CE1515" d="M93.1,161c-0.2,0.2-0.4,0.3-0.6,0.5l-0.7,0.6l-0.6,0.5c-0.7,0.6-1.6,1.1-2.4,1.5c-1.7,0.8-3.6,1.3-5.5,1.4
		c-1.9,0.1-3.9-0.2-5.7-0.9c-1.8-0.7-3.5-1.8-5-3.2c-1.4-1.4-2.5-3.1-3.3-5c-0.1-0.2-0.2-0.5-0.3-0.7l-0.3-0.9l-0.6-1.8l-1.2-3.5
		l-2.4-7l-2.4-7l-1.2-3.5l-0.6-1.8c-0.2-0.7-0.5-1.3-0.8-1.9c-1.2-2.5-2.8-4.8-4.8-6.7c-2-1.9-4.4-3.4-6.9-4.4c-5-2-10.8-2-15.8,0
		c-2.5,1-4.8,2.5-6.6,4.3c-1.9,1.8-3.5,3.7-5,5.7c-3,4.1-5.1,8.8-6.3,13.7c-1.2,4.9-1.5,10-0.8,14.9c0.7,4.9,2.3,9.7,4.8,14
		c-2.2-4.4-3.6-9.2-4-14.1c-0.4-4.9,0.1-9.8,1.5-14.4c1.4-4.6,3.7-8.9,6.7-12.6c1.5-1.9,3.2-3.6,5-5.1c1.8-1.5,3.7-2.6,5.9-3.4
		c4.3-1.5,9-1.2,13.1,0.7c2,0.9,3.8,2.2,5.3,3.8c1.5,1.6,2.7,3.4,3.5,5.4c0.2,0.5,0.4,1,0.5,1.5l0.5,1.8l1,3.6l2,7.1l2,7.1l1,3.6
		l0.5,1.8l0.2,0.9c0.1,0.3,0.2,0.7,0.3,1c0.9,2.7,2.4,5.3,4.4,7.5C83,170.2,90.4,164.2,93.1,161z"/>
	<g>
		<path fill="#EA3232" d="M109.3,106.8c0,0,0.2,0,0.6,0c0.1,0,0.2-0.1,0.3-0.1C109.9,106.7,109.6,106.7,109.3,106.8z"/>
		<path fill="#EA3232" d="M135.2,94.4L135.2,94.4C135.2,94.4,135.3,94.4,135.2,94.4C135.3,94.4,135.2,94.4,135.2,94.4z"/>
	</g>
	<path opacity="0.1" d="M205.3,133.7l0-0.9l0-0.4l0-0.6c0-0.7-0.1-1.5-0.2-2.2c-0.5,0.6-1,1.2-1.5,1.7c-0.2,0.2-0.3,0.3-0.5,0.5
		c0,0.2,0,0.4,0,0.6l0,0.6l0,0.4l0,0.9l0,6.5c0.5-0.2,1.1-0.3,1.7-0.5c0.2-0.1,0.3-0.2,0.5-0.3L205.3,133.7z"/>
	<path fill="#EA3232" d="M202.6,149.3c0.3-1.3,0.4-2.7,0.5-4c0-0.6,0.1-1.5,0.1-2l0-1.8l0-7.1l0-0.9l0-0.4l0-0.6
		c0-0.8-0.1-1.5-0.2-2.3c-0.2-1.5-0.6-3-1.2-4.4c0,0,0-0.1,0-0.1c-6.5-6.1-19.6-2.3-19.6-2.3c0.3,0,0.7,0,1-0.1l0.7-0.1
		c0.8-0.1,1.6,0,2.4,0.1c1.6,0.3,3.2,1,4.5,2c1.3,1,2.4,2.3,3.2,3.9c0.4,0.8,0.6,1.6,0.8,2.4c0.1,0.4,0.2,0.8,0.2,1.3l0,0.3l0,0.4
		l0.1,0.9l0.4,7.1l0.1,1.7c0,0.7,0,1,0,1.6c0,1-0.1,2-0.2,3.1c-0.6,4-2.2,8-4.8,11.2c-2.6,3.3-6.1,5.9-10,7.4c-1,0.4-2,0.7-3,1
		c-0.5,0.1-1,0.2-1.6,0.3l-1.7,0.3c-0.1,0-0.2,0-0.2,0c5.8,2.3,10.7,2.4,14.8,0.8c2.5-1.5,4.8-3.4,6.8-5.7
		C199.1,159.5,201.5,154.6,202.6,149.3z"/>
	<path opacity="0.1" d="M195.4,141.7l-0.3-5.2c-0.7,0.2-1.4,0.4-2.1,0.5l0.3,4.7l0.1,1.7c0,0.4,0,0.6,0,0.9c0.7-0.1,1.4-0.2,2.1-0.3
		c0-0.2,0-0.3,0-0.6L195.4,141.7z"/>
	<path fill="#EA3232" d="M169.2,181.4c-0.2-0.4-0.3-0.7-0.5-1.1l-0.3-0.5l-0.3-0.5l-1.1-1.8c-0.7-1.2-1.5-2.4-2.1-3.5
		c-0.6-1.1-1.2-2.3-1.6-3.5c-1-2.4-1.6-4.9-2-7.4c-0.4-2.5-0.4-5.1-0.2-7.6c0-0.3,0.1-0.6,0.1-0.9l0.1-0.5l0-0.2l0-0.2
		c0.1-0.6,0.2-1.1,0.4-1.6c0.3-1.1,0.8-2.1,1.4-3c1.2-1.8,3-3.3,5-4.1c1-0.4,2.1-0.7,3.1-0.8c0.3,0,0.5,0,0.8-0.1c0.2,0,0.2,0,0.4,0
		l0.5,0l0.2,0c-2.5-0.4-9.6-1.3-14.5,1.7c-0.1,0.1-0.1,0.2-0.2,0.3c-0.9,1.4-1.5,2.9-1.9,4.5c-0.2,0.8-0.4,1.6-0.4,2.4l-0.1,0.5
		l0,0.6c0,0.4,0,0.7-0.1,1.1c-0.1,3,0.1,5.9,0.7,8.8c0.1,0.8,0.3,1.5,0.5,2.3c4.6,5.8,6.2,8.2,12.8,17.1
		C169.7,182.7,169.5,182,169.2,181.4z"/>
	<path opacity="0.27" d="M162.3,179.6c0.2-0.3,0.5-0.5,0.8-0.8c-0.6-0.8-1.1-1.7-1.7-2.6c-0.3-0.4-0.5-0.9-0.8-1.3
		c-0.1,0.1-0.2,0.2-0.3,0.3c-0.2,0.2-0.3,0.3-0.5,0.5c0.3,0.5,0.5,0.9,0.8,1.4C161.2,178,161.8,178.8,162.3,179.6z"/>
	<g>
		<path fill="#EDCECE" d="M161.2,78.7c-0.8,4-3,6.8-4.9,6.5c-1.9-0.4-2.8-3.9-1.9-7.9c0.8-4,3-6.8,4.9-6.5
			C161.1,71.2,162,74.7,161.2,78.7z"/>
		<path fill="#353535" d="M161.5,78.9c-0.6,3.1-2.3,5.4-3.7,5.2c-1.4-0.3-2-3.1-1.3-6.2c0.6-3.1,2.3-5.4,3.7-5.2
			C161.6,73,162.2,75.8,161.5,78.9z"/>
		<path fill="#B50D0D" d="M154.1,85.5c-0.7-0.3-1.2-1-1.6-1.6c-0.4-0.7-0.6-1.4-0.8-2.2c-0.3-1.5-0.3-3.1,0-4.5
			c0.3-1.5,0.8-2.9,1.6-4.2c0.4-0.6,0.9-1.2,1.5-1.8c0.6-0.5,1.2-0.9,2-1.1c-0.6,0.4-1.1,0.9-1.5,1.5c-0.4,0.6-0.8,1.2-1.1,1.8
			c-0.6,1.3-1,2.6-1.3,4c-0.3,1.4-0.4,2.8-0.3,4.2c0.1,0.7,0.2,1.4,0.4,2.1C153.3,84.3,153.6,85,154.1,85.5z"/>
	</g>
	<g>
		<path fill="#EDCECE" d="M120.8,70.4c-0.8,4,0.1,7.5,1.9,7.9c1.9,0.4,4.1-2.5,4.9-6.5c0.8-3.9-0.1-7.5-1.9-7.9
			C123.8,63.5,121.6,66.4,120.8,70.4z"/>
		<path fill="#353535" d="M120.4,70.5c-0.6,3.1,0,5.9,1.3,6.2c1.4,0.3,3-2,3.7-5.2c0.6-3.1,0-5.9-1.3-6.2
			C122.7,65.1,121,67.4,120.4,70.5z"/>
		<path fill="#B50D0D" d="M124.6,79.4c0.8,0,1.5-0.4,2.1-0.9c0.6-0.5,1.1-1.1,1.6-1.7c0.9-1.3,1.4-2.7,1.8-4.2
			c0.3-1.5,0.4-3,0.2-4.5c-0.1-0.8-0.3-1.5-0.6-2.2c-0.3-0.7-0.8-1.4-1.4-1.8c0.4,0.6,0.7,1.3,0.8,2c0.2,0.7,0.2,1.4,0.3,2.1
			c0,1.4-0.1,2.8-0.4,4.2c-0.3,1.4-0.8,2.7-1.4,4c-0.3,0.6-0.7,1.2-1.2,1.7C125.8,78.7,125.3,79.1,124.6,79.4z"/>
	</g>
	<path fill="#B50D0D" d="M149.2,39.4c-0.2,0.7-0.9,1.2-1.6,1.1c-0.7-0.2-1.2-0.9-1.1-1.6c0.2-0.7,0.9-1.2,1.6-1.1
		C148.9,37.9,149.4,38.7,149.2,39.4z"/>
	<path fill="#B50D0D" d="M150.7,32.5c-0.2,0.7-0.9,1.2-1.6,1.1c-0.7-0.2-1.2-0.9-1.1-1.6c0.2-0.7,0.9-1.2,1.6-1.1
		C150.3,31,150.8,31.7,150.7,32.5z"/>
	<path fill="#B50D0D" d="M152,25.9c-0.2,0.7-0.9,1.2-1.6,1.1c-0.7-0.2-1.2-0.9-1.1-1.6c0.2-0.7,0.9-1.2,1.6-1.1
		C151.7,24.4,152.2,25.1,152,25.9z"/>
	<path fill="#B50D0D" d="M137.8,87c0.4-3.8,0.9-7.5,1.5-11.2c0.6-3.7,1.3-7.4,2.1-11.1c0.8-3.7,1.6-7.4,2.5-11
		c0.9-3.7,1.9-7.3,3-10.9c-0.4,3.8-0.9,7.5-1.5,11.2c-0.6,3.7-1.3,7.4-2.1,11.1c-0.8,3.7-1.6,7.4-2.5,11
		C139.9,79.8,138.9,83.4,137.8,87z"/>
	<path opacity="0.2" fill="#F5F5F5" d="M168.5,37.8c-0.4-5.9-4.5-11.3-16.5-14.8l-1-0.2c-24.2-3-23.7,12.5-22.5,25.4
		c0.2,2.5,0,5.5-0.6,8.8C148.3,59.1,161.6,46.8,168.5,37.8z"/>
	<g>
		<path fill="#FC8D70" d="M55.3,76.4c0.3,1.8-0.5,3.4-1.8,3.7c-1.3,0.3-2.7-1-3-2.8c-0.3-1.8,0.5-3.4,1.8-3.7
			C53.5,73.4,54.9,74.6,55.3,76.4z"/>
		<path fill="#E24B2D" d="M54.4,76.6c0.2,1.2-0.3,2.2-1.2,2.4c-0.9,0.2-1.8-0.6-2-1.8C51,76,51.6,75,52.4,74.8
			C53.3,74.6,54.2,75.4,54.4,76.6z"/>
	</g>
	<g>
		<path fill="#FC8D70" d="M56.2,67.5c-0.3,1.8-1.7,3-3.1,2.8c-1.3-0.3-2.1-1.9-1.8-3.7c0.4-1.8,1.7-3,3.1-2.8
			C55.8,64.1,56.6,65.7,56.2,67.5z"/>
		<path fill="#E24B2D" d="M55.4,67.3c-0.2,1.2-1.1,2-2,1.8c-0.9-0.2-1.4-1.2-1.2-2.4c0.2-1.2,1.1-2,2-1.8
			C55.1,65.1,55.6,66.2,55.4,67.3z"/>
	</g>
	<g>
		<path fill="#FC8D70" d="M60.7,59.4c-0.9,1.6-2.6,2.3-3.8,1.6c-1.2-0.7-1.4-2.5-0.5-4.1c0.9-1.6,2.6-2.3,3.8-1.6
			C61.4,56,61.6,57.9,60.7,59.4z"/>
		<path fill="#E24B2D" d="M60,59c-0.6,1-1.7,1.5-2.5,1c-0.8-0.4-0.9-1.6-0.3-2.7c0.6-1,1.7-1.5,2.5-1C60.4,56.8,60.6,58,60,59z"/>
	</g>
	<g>
		<path fill="#FC8D70" d="M63.7,49.1c-0.3,1.6-1.4,2.6-2.6,2.4c-1.2-0.2-1.9-1.6-1.6-3.2c0.3-1.6,1.4-2.7,2.6-2.4
			C63.2,46.1,63.9,47.5,63.7,49.1z"/>
		<path fill="#E24B2D" d="M62.9,49c-0.2,1-0.9,1.7-1.7,1.6c-0.8-0.1-1.2-1.1-1.1-2.1c0.2-1,0.9-1.7,1.7-1.6
			C62.6,47,63.1,47.9,62.9,49z"/>
	</g>
	<g>
		<path fill="#FC8D70" d="M63,39.9c0.6,1.5,0.1,3-1,3.4c-1.1,0.4-2.5-0.4-3-1.9c-0.6-1.5-0.1-3,1-3.4C61,37.6,62.4,38.5,63,39.9z"/>
		<path fill="#E24B2D" d="M62.3,40.2c0.4,1,0.1,2-0.6,2.2c-0.7,0.3-1.6-0.3-2-1.2c-0.4-1-0.1-2,0.6-2.2C61,38.7,61.9,39.3,62.3,40.2
			z"/>
	</g>
	<g>
		<path fill="#FC8D70" d="M57,31.5c1.2,1,1.5,2.5,0.8,3.4c-0.7,0.9-2.3,0.8-3.5-0.2c-1.2-1-1.6-2.5-0.8-3.4
			C54.3,30.4,55.8,30.5,57,31.5z"/>
		<path fill="#E24B2D" d="M56.5,32c0.8,0.6,1,1.6,0.5,2.2c-0.5,0.6-1.5,0.5-2.2-0.1c-0.8-0.6-1-1.6-0.5-2.2
			C54.7,31.4,55.8,31.4,56.5,32z"/>
	</g>
	<g>
		<path fill="#FC8D70" d="M46.9,26.2c1.5,0.4,2.5,1.6,2.2,2.7c-0.3,1.1-1.7,1.7-3.2,1.3c-1.5-0.4-2.5-1.6-2.2-2.7
			C44,26.4,45.5,25.8,46.9,26.2z"/>
		<path fill="#E24B2D" d="M46.8,26.9c1,0.2,1.6,1,1.4,1.7c-0.2,0.7-1.1,1.1-2.1,0.9c-1-0.2-1.6-1-1.4-1.7
			C44.9,27.1,45.8,26.7,46.8,26.9z"/>
	</g>
	<g>
		<path fill="#FC8D70" d="M36.1,25.5c1.3,0.1,2.3,1,2.2,2c-0.1,1-1.3,1.7-2.6,1.6c-1.3-0.1-2.3-1-2.2-2
			C33.6,26.1,34.8,25.4,36.1,25.5z"/>
		<path fill="#E24B2D" d="M36,26.2c0.9,0.1,1.5,0.7,1.5,1.3c-0.1,0.7-0.8,1.1-1.7,1c-0.9-0.1-1.5-0.7-1.5-1.3
			C34.4,26.5,35.2,26.1,36,26.2z"/>
	</g>
	<g>
		<path fill="#FC8D70" d="M26.8,28.1c0.9-0.4,1.8-0.2,2.1,0.4c0.3,0.6-0.1,1.5-1,1.9c-0.9,0.4-1.8,0.2-2.1-0.4
			C25.5,29.4,25.9,28.5,26.8,28.1z"/>
		<path fill="#E24B2D" d="M27,28.5c0.6-0.3,1.2-0.2,1.4,0.3c0.2,0.4-0.1,1-0.6,1.2c-0.6,0.3-1.2,0.2-1.4-0.3
			C26.1,29.4,26.4,28.8,27,28.5z"/>
	</g>
	<g>
		<path fill="#FC8D70" d="M20.5,31.5c0.8-0.6,1.7-0.6,2.1,0c0.4,0.6,0.2,1.5-0.6,2.1c-0.8,0.6-1.7,0.6-2.1,0
			C19.5,33,19.8,32.1,20.5,31.5z"/>
		<path fill="#E24B2D" d="M20.8,31.9c0.5-0.4,1.1-0.4,1.4,0c0.3,0.4,0.1,1-0.4,1.3c-0.5,0.4-1.1,0.4-1.4,0
			C20.1,32.8,20.3,32.2,20.8,31.9z"/>
	</g>
	<g>
		<path fill="#FC8D70" d="M15.8,36.4c0.4-0.3,1-0.3,1.2,0c0.2,0.3,0.1,0.8-0.3,1.2c-0.4,0.3-1,0.3-1.2,0
			C15.2,37.2,15.4,36.7,15.8,36.4z"/>
		<path fill="#E24B2D" d="M15.9,36.6c0.3-0.2,0.6-0.2,0.8,0c0.2,0.2,0.1,0.5-0.2,0.8c-0.3,0.2-0.6,0.2-0.8,0
			C15.6,37.1,15.7,36.8,15.9,36.6z"/>
	</g>
	<g opacity="0.4">
		<path fill="#FC8D70" d="M132.6,115.4c-0.5,2.3-2.7,3.7-5,3.3c-2.3-0.5-3.7-2.7-3.3-5c0.5-2.3,2.7-3.7,5-3.3
			C131.6,110.9,133,113.2,132.6,115.4z"/>
		<path fill="#E24B2D" d="M131.1,115.1c-0.3,1.5-1.8,2.4-3.2,2.1c-1.5-0.3-2.4-1.8-2.1-3.2c0.3-1.5,1.8-2.4,3.2-2.1
			C130.5,112.2,131.4,113.7,131.1,115.1z"/>
	</g>
	<g opacity="0.51">
		<path fill="#FC8D70" d="M148.9,117.6c-0.5,2.3-2.7,3.7-5,3.3c-2.3-0.5-3.7-2.7-3.3-5c0.5-2.3,2.7-3.7,5-3.3
			C147.9,113.1,149.3,115.3,148.9,117.6z"/>
		<path fill="#E24B2D" d="M147.4,117.3c-0.3,1.5-1.8,2.4-3.2,2.1c-1.5-0.3-2.4-1.8-2.1-3.2c0.3-1.5,1.8-2.4,3.2-2.1
			C146.8,114.4,147.7,115.8,147.4,117.3z"/>
	</g>
	<g opacity="0.4">
		<path fill="#FC8D70" d="M120.4,113.8c-0.5,2.3-2.7,3.7-5,3.3c-2.3-0.5-3.7-2.7-3.3-5c0.5-2.3,2.7-3.7,5-3.3
			C119.4,109.2,120.9,111.5,120.4,113.8z"/>
		<path fill="#E24B2D" d="M119,113.5c-0.3,1.5-1.8,2.4-3.2,2.1c-1.5-0.3-2.4-1.8-2.1-3.2c0.3-1.5,1.8-2.4,3.2-2.1
			C118.3,110.5,119.3,112,119,113.5z"/>
	</g>
	<g opacity="0.6">
		<path fill="#FC8D70" d="M111.3,124.6c-0.5,2.3-2.7,3.7-5,3.3c-2.3-0.5-3.7-2.7-3.3-5c0.5-2.3,2.7-3.7,5-3.3
			C110.3,120.1,111.8,122.3,111.3,124.6z"/>
		<path fill="#E24B2D" d="M109.9,124.3c-0.3,1.5-1.8,2.4-3.2,2.1c-1.5-0.3-2.4-1.8-2.1-3.2c0.3-1.5,1.8-2.4,3.2-2.1
			C109.3,121.4,110.2,122.8,109.9,124.3z"/>
	</g>
	<g opacity="0.6">
		<path fill="#FC8D70" d="M100.1,132.3c-0.4,2-2.3,3.2-4.3,2.8c-2-0.4-3.2-2.3-2.8-4.3c0.4-2,2.3-3.2,4.3-2.8
			C99.2,128.5,100.5,130.4,100.1,132.3z"/>
		<path fill="#E24B2D" d="M98.8,132.1c-0.3,1.3-1.5,2.1-2.8,1.8c-1.3-0.3-2.1-1.5-1.8-2.8c0.3-1.3,1.5-2.1,2.8-1.8
			C98.3,129.6,99.1,130.8,98.8,132.1z"/>
	</g>
	<g>
		<path fill="#FC8D70" d="M88.3,137.2c0.2,1.9-1.6,3.6-4,3.8c-2.4,0.2-4.4-1.2-4.6-3c-0.2-1.9,1.6-3.6,4-3.8
			C86.1,134,88.2,135.4,88.3,137.2z"/>
		<path fill="#E24B2D" d="M86.8,137.4c0.1,1.2-1.1,2.3-2.6,2.4c-1.5,0.1-2.9-0.8-3-2c-0.1-1.2,1.1-2.3,2.6-2.4
			C85.4,135.3,86.7,136.1,86.8,137.4z"/>
	</g>
	<g>
		<path fill="#FC8D70" d="M74.9,139.9c-0.1,1.5-1.9,2.6-4.2,2.5c-2.3-0.1-4-1.4-4-2.9c0.1-1.5,1.9-2.6,4.2-2.5
			C73.1,137.1,74.9,138.4,74.9,139.9z"/>
		<path fill="#E24B2D" d="M73.4,139.8c0,1-1.3,1.7-2.7,1.7c-1.5-0.1-2.6-0.9-2.6-1.9c0-1,1.3-1.7,2.7-1.7
			C72.3,138,73.5,138.9,73.4,139.8z"/>
	</g>
	<g>
		<path fill="#FC8D70" d="M54.4,139.3c-0.6,1.4-2.7,1.8-4.8,1c-2.1-0.8-3.4-2.6-2.8-4c0.6-1.4,2.7-1.8,4.8-1
			C53.7,136.1,54.9,137.9,54.4,139.3z"/>
		<path fill="#E24B2D" d="M53,138.8c-0.4,0.9-1.8,1.2-3.1,0.7c-1.4-0.5-2.2-1.7-1.8-2.6c0.4-0.9,1.8-1.2,3.1-0.7
			C52.6,136.7,53.4,137.9,53,138.8z"/>
	</g>
	<g>
		<path fill="#FC8D70" d="M41.8,133.9c-0.8,1.3-3,1.3-4.9,0.1c-1.9-1.2-2.8-3.2-2-4.5c0.8-1.3,3-1.3,4.9-0.1
			C41.7,130.6,42.6,132.6,41.8,133.9z"/>
		<path fill="#E24B2D" d="M40.6,133.1c-0.5,0.8-2,0.8-3.2,0.1c-1.2-0.8-1.8-2.1-1.3-2.9c0.5-0.8,2-0.8,3.2-0.1
			C40.5,131,41.1,132.3,40.6,133.1z"/>
	</g>
	<g opacity="0.66">
		<path fill="#FC8D70" d="M128.6,127.6c-0.4,2-2.4,3.4-4.5,2.9c-2-0.4-3.4-2.4-2.9-4.5c0.4-2,2.4-3.4,4.5-2.9
			C127.7,123.5,129,125.5,128.6,127.6z"/>
		<path fill="#E24B2D" d="M127.3,127.3c-0.3,1.3-1.6,2.2-2.9,1.9c-1.3-0.3-2.2-1.6-1.9-2.9c0.3-1.3,1.6-2.2,2.9-1.9
			C126.7,124.7,127.5,126,127.3,127.3z"/>
	</g>
	<g opacity="0.66">
		<path fill="#FC8D70" d="M149.7,130.7c-0.4,2-2.4,3.4-4.5,2.9c-2-0.4-3.4-2.4-2.9-4.5c0.4-2,2.4-3.4,4.5-2.9
			C148.8,126.6,150.1,128.6,149.7,130.7z"/>
		<path fill="#E24B2D" d="M148.4,130.4c-0.3,1.3-1.6,2.2-2.9,1.9c-1.3-0.3-2.2-1.6-1.9-2.9c0.3-1.3,1.6-2.2,2.9-1.9
			C147.8,127.8,148.7,129.1,148.4,130.4z"/>
	</g>
	<g opacity="0.66">
		<path fill="#FC8D70" d="M147,144.8c-0.4,2-2.4,3.4-4.5,2.9c-2-0.4-3.4-2.4-2.9-4.5c0.4-2,2.4-3.4,4.5-2.9
			C146.1,140.8,147.4,142.8,147,144.8z"/>
		<path fill="#E24B2D" d="M145.7,144.6c-0.3,1.3-1.6,2.2-2.9,1.9c-1.3-0.3-2.2-1.6-1.9-2.9c0.3-1.3,1.6-2.2,2.9-1.9
			C145.1,141.9,146,143.2,145.7,144.6z"/>
	</g>
	<g opacity="0.66">
		<path fill="#FC8D70" d="M140.6,160.4c-1.2,1.8-3.2,2.5-4.6,1.6c-1.4-0.9-1.5-3.1-0.4-4.9c1.2-1.8,3.2-2.5,4.6-1.6
			C141.6,156.4,141.8,158.6,140.6,160.4z"/>
		<path fill="#E24B2D" d="M139.8,159.8c-0.8,1.2-2.1,1.6-3,1c-0.9-0.6-1-2-0.3-3.2c0.8-1.2,2.1-1.6,3-1
			C140.4,157.2,140.5,158.6,139.8,159.8z"/>
	</g>
	<g>
		<path fill="#FC8D70" d="M134.5,167.9c0.9,1,0.2,3-1.4,4.5c-1.7,1.5-3.7,1.9-4.6,0.9c-0.9-1-0.2-3,1.4-4.5
			C131.6,167.3,133.6,166.9,134.5,167.9z"/>
		<path fill="#E24B2D" d="M133.4,168.8c0.6,0.6,0.2,1.9-0.9,2.9c-1.1,1-2.4,1.2-3,0.6c-0.6-0.6-0.1-1.9,0.9-2.9
			C131.5,168.4,132.9,168.2,133.4,168.8z"/>
	</g>
	<g>
		<path fill="#FC8D70" d="M123.7,178.1c0.8,1.1-0.1,3-2,4.3c-1.8,1.3-3.9,1.4-4.7,0.3c-0.7-1.1,0.1-3,2-4.3
			C120.9,177.1,123,177,123.7,178.1z"/>
		<path fill="#E24B2D" d="M122.6,178.9c0.5,0.7-0.1,1.9-1.3,2.8c-1.2,0.8-2.6,0.9-3,0.2c-0.5-0.7,0.1-1.9,1.3-2.8
			C120.7,178.3,122.1,178.2,122.6,178.9z"/>
	</g>
	<g>
		<path fill="#FC8D70" d="M111.2,184.8c0.4,1-0.7,2.4-2.4,3.1c-1.7,0.7-3.4,0.4-3.8-0.6c-0.4-1,0.7-2.4,2.4-3.1
			C109.1,183.5,110.8,183.8,111.2,184.8z"/>
		<path fill="#E24B2D" d="M110.1,185.2c0.3,0.7-0.4,1.5-1.6,2c-1.1,0.4-2.2,0.3-2.5-0.4c-0.3-0.7,0.4-1.5,1.6-2
			C108.7,184.4,109.8,184.6,110.1,185.2z"/>
	</g>
	<g>
		<path fill="#FC8D70" d="M98.6,188.7c0.4,1-0.7,2.4-2.4,3.1c-1.7,0.7-3.4,0.4-3.8-0.6c-0.4-1,0.7-2.4,2.4-3.1
			C96.5,187.5,98.2,187.7,98.6,188.7z"/>
		<path fill="#E24B2D" d="M97.5,189.2c0.3,0.7-0.4,1.6-1.6,2c-1.1,0.4-2.2,0.3-2.5-0.4c-0.3-0.7,0.4-1.6,1.6-2
			C96.1,188.3,97.2,188.5,97.5,189.2z"/>
	</g>
	<g>
		<path fill="#FC8D70" d="M88.7,195.4c0.9,0.6,0.9,2.3-0.1,3.9c-1,1.6-2.5,2.4-3.4,1.8c-0.9-0.6-0.9-2.3,0.1-3.9
			C86.2,195.7,87.7,194.9,88.7,195.4z"/>
		<path fill="#E24B2D" d="M88,196.4c0.6,0.4,0.6,1.5-0.1,2.5c-0.6,1-1.6,1.5-2.2,1.2c-0.6-0.4-0.6-1.5,0.1-2.5
			C86.4,196.6,87.4,196.1,88,196.4z"/>
	</g>
	<g opacity="0.66">
		<path fill="#FC8D70" d="M121.7,139.2c-0.4,2-2.4,3.4-4.5,2.9c-2-0.4-3.4-2.4-2.9-4.5c0.4-2,2.4-3.4,4.5-2.9
			C120.8,135.2,122.2,137.2,121.7,139.2z"/>
		<path fill="#E24B2D" d="M120.4,139c-0.3,1.3-1.6,2.2-2.9,1.9c-1.3-0.3-2.2-1.6-1.9-2.9c0.3-1.3,1.6-2.2,2.9-1.9
			C119.8,136.3,120.7,137.6,120.4,139z"/>
	</g>
	<g>
		<path fill="#FC8D70" d="M200.9,129.5c-0.4,2-2.4,3.4-4.5,2.9c-2-0.4-3.4-2.4-2.9-4.5c0.4-2,2.4-3.4,4.5-2.9
			C200,125.5,201.3,127.5,200.9,129.5z"/>
		<path fill="#E24B2D" d="M199.6,129.3c-0.3,1.3-1.6,2.2-2.9,1.9c-1.3-0.3-2.2-1.6-1.9-2.9c0.3-1.3,1.6-2.2,2.9-1.9
			C199,126.6,199.9,127.9,199.6,129.3z"/>
	</g>
	<g>
		<path fill="#FC8D70" d="M201.5,142.5c-0.4,2-2.3,3.4-4.1,3c-1.9-0.4-3-2.3-2.6-4.4c0.4-2,2.3-3.4,4.1-3
			C200.8,138.5,201.9,140.5,201.5,142.5z"/>
		<path fill="#E24B2D" d="M200.3,142.3c-0.3,1.3-1.5,2.2-2.7,2c-1.2-0.2-2-1.5-1.7-2.9c0.3-1.3,1.5-2.2,2.7-2
			C199.9,139.7,200.6,141,200.3,142.3z"/>
	</g>
	<g opacity="0.66">
		<path fill="#FC8D70" d="M114.5,150.6c-0.4,2-2.3,3.2-4.3,2.8c-2-0.4-3.2-2.3-2.8-4.3c0.4-2,2.3-3.2,4.3-2.8
			C113.6,146.7,114.9,148.7,114.5,150.6z"/>
		<path fill="#E24B2D" d="M113.2,150.4c-0.3,1.3-1.5,2.1-2.8,1.8c-1.3-0.3-2.1-1.5-1.8-2.8c0.3-1.3,1.5-2.1,2.8-1.8
			C112.7,147.8,113.5,149.1,113.2,150.4z"/>
	</g>
	<g>
		<path fill="#FC8D70" d="M105.7,160.6c-0.4,1.8-2.1,3-3.9,2.6c-1.8-0.4-3-2.1-2.6-3.9c0.4-1.8,2.1-3,3.9-2.6
			C104.9,157.1,106.1,158.8,105.7,160.6z"/>
		<path fill="#E24B2D" d="M104.6,160.4c-0.2,1.2-1.4,1.9-2.6,1.7c-1.2-0.2-1.9-1.4-1.7-2.5c0.2-1.2,1.4-1.9,2.6-1.7
			C104.1,158.1,104.8,159.2,104.6,160.4z"/>
	</g>
	<g>
		<path fill="#FC8D70" d="M97.1,166.9c0.2,1.6-1.2,3.1-3.2,3.3c-2,0.2-3.7-0.8-3.9-2.4c-0.2-1.6,1.3-3.1,3.2-3.3
			C95.1,164.3,96.9,165.4,97.1,166.9z"/>
		<path fill="#E24B2D" d="M95.8,167.1c0.1,1-0.8,2-2.1,2.1c-1.3,0.2-2.4-0.5-2.6-1.6c-0.1-1,0.8-2,2.1-2.1
			C94.5,165.4,95.7,166.1,95.8,167.1z"/>
	</g>
	<g>
		<path fill="#FC8D70" d="M84.8,172.3c-0.2,1.2-2,1.9-3.9,1.5c-1.9-0.4-3.2-1.7-3-2.9c0.2-1.2,2-1.9,3.9-1.5
			C83.7,169.8,85,171.1,84.8,172.3z"/>
		<path fill="#E24B2D" d="M83.6,172.1c-0.2,0.8-1.3,1.2-2.5,1c-1.2-0.3-2.1-1.1-1.9-1.9c0.2-0.8,1.3-1.2,2.5-1
			C82.9,170.4,83.7,171.3,83.6,172.1z"/>
	</g>
	<g>
		<path fill="#FC8D70" d="M59.7,86.6c-0.9,0.9-2.7,0.6-4-0.7c-1.3-1.3-1.6-3.1-0.7-4c0.9-0.9,2.7-0.6,4,0.7
			C60.3,84,60.6,85.7,59.7,86.6z"/>
		<path fill="#E24B2D" d="M58.9,85.8c-0.6,0.6-1.7,0.4-2.6-0.5c-0.8-0.8-1-2-0.4-2.6c0.6-0.6,1.7-0.4,2.6,0.5
			C59.3,84.1,59.5,85.2,58.9,85.8z"/>
	</g>
	<g>
		<path fill="#FC8D70" d="M184.8,97.4c0.4,1.6-1.2,3.4-3.5,3.9c-2.3,0.5-4.5-0.3-4.9-2c-0.4-1.6,1.2-3.4,3.5-3.9
			C182.2,95,184.4,95.8,184.8,97.4z"/>
		<path fill="#E24B2D" d="M183.3,97.8c0.2,1.1-0.8,2.2-2.3,2.5c-1.5,0.3-2.9-0.2-3.2-1.3c-0.2-1.1,0.8-2.2,2.3-2.5
			C181.6,96.2,183,96.7,183.3,97.8z"/>
	</g>
	<g>
		<path fill="#FC8D70" d="M106.6,46.3c1.3,1.2,1,3.6-0.7,5.5c-1.7,1.9-4.1,2.4-5.4,1.2c-1.3-1.2-1-3.6,0.7-5.5
			C102.8,45.7,105.2,45.1,106.6,46.3z"/>
		<path fill="#E24B2D" d="M105.5,47.5c0.8,0.8,0.7,2.4-0.4,3.6c-1.1,1.2-2.7,1.6-3.5,0.8c-0.9-0.8-0.7-2.4,0.4-3.6
			C103.1,47.1,104.6,46.7,105.5,47.5z"/>
	</g>
	<g>
		<path fill="#FC8D70" d="M113.1,34.4c1.7,0.5,2.5,2.9,1.7,5.3c-0.7,2.4-2.7,3.9-4.4,3.4c-1.7-0.5-2.5-2.9-1.7-5.3
			C109.5,35.4,111.5,33.9,113.1,34.4z"/>
		<path fill="#E24B2D" d="M112.7,35.9c1.1,0.3,1.6,1.9,1.1,3.4c-0.5,1.6-1.7,2.6-2.8,2.2c-1.1-0.3-1.6-1.9-1.1-3.4
			C110.3,36.6,111.6,35.6,112.7,35.9z"/>
	</g>
	<g>
		<path fill="#FC8D70" d="M114.4,20.2c1.8,0.1,3,2.2,2.9,4.7c-0.2,2.5-1.7,4.4-3.5,4.3c-1.8-0.1-3-2.2-2.9-4.7
			C111.1,22,112.6,20.1,114.4,20.2z"/>
		<path fill="#E24B2D" d="M114.3,21.8c1.1,0.1,2,1.4,1.9,3.1c-0.1,1.6-1.1,2.9-2.3,2.8c-1.1-0.1-2-1.5-1.9-3.1
			C112.1,23,113.1,21.7,114.3,21.8z"/>
	</g>
	<g>
		<path fill="#FC8D70" d="M106.5,9c1.4-1.1,3.8-0.4,5.3,1.5c1.6,1.9,1.8,4.4,0.4,5.5c-1.4,1.1-3.8,0.4-5.3-1.5
			C105.3,12.5,105.1,10.1,106.5,9z"/>
		<path fill="#E24B2D" d="M107.5,10.2c0.9-0.7,2.4-0.3,3.5,1c1,1.3,1.1,2.9,0.3,3.6c-0.9,0.7-2.4,0.3-3.5-1
			C106.7,12.5,106.6,10.9,107.5,10.2z"/>
	</g>
	<g>
		<path fill="#FC8D70" d="M94.5,3.7c0.7-1.5,2.9-1.9,5-1c2.1,0.9,3.2,2.9,2.6,4.3c-0.7,1.5-2.9,1.9-5,1C95,7.1,93.8,5.1,94.5,3.7z"
			/>
		<path fill="#E24B2D" d="M95.8,4.3C96.2,3.3,97.7,3,99,3.6c1.4,0.6,2.1,1.9,1.7,2.8c-0.4,1-1.9,1.2-3.2,0.6
			C96.1,6.5,95.4,5.2,95.8,4.3z"/>
	</g>
	<g>
		<path fill="#FC8D70" d="M197.2,151c1.4,0.9,1.4,3.3,0.1,5.2c-1.3,2-3.5,2.8-4.9,1.9c-1.4-0.9-1.4-3.3-0.1-5.2
			C193.6,150.9,195.8,150,197.2,151z"/>
		<path fill="#E24B2D" d="M196.4,152.2c0.9,0.6,0.9,2.1,0.1,3.4c-0.9,1.3-2.3,1.8-3.2,1.2c-0.9-0.6-0.9-2.1-0.1-3.4
			C194,152.2,195.5,151.6,196.4,152.2z"/>
	</g>
	<g>
		<path fill="#FC8D70" d="M188.8,162.3c1,1.3,0.3,3.6-1.6,5c-1.9,1.4-4.2,1.5-5.2,0.2c-1-1.3-0.3-3.6,1.6-5
			C185.5,161.1,187.8,161,188.8,162.3z"/>
		<path fill="#E24B2D" d="M187.6,163.2c0.7,0.9,0.2,2.3-1,3.3c-1.2,0.9-2.7,1-3.4,0.2c-0.7-0.9-0.2-2.3,1-3.3
			C185.5,162.4,187,162.4,187.6,163.2z"/>
	</g>
	<g>
		<path fill="#FC8D70" d="M196.8,96c-0.2,1.6-2.3,2.8-4.6,2.5c-2.4-0.3-4.1-1.9-3.9-3.5c0.2-1.6,2.3-2.8,4.6-2.5
			C195.3,92.8,197,94.4,196.8,96z"/>
		<path fill="#E24B2D" d="M195.3,95.9c-0.1,1.1-1.5,1.8-3,1.6c-1.5-0.2-2.7-1.2-2.5-2.3c0.1-1.1,1.5-1.8,3-1.6
			C194.3,93.8,195.5,94.8,195.3,95.9z"/>
	</g>
	<g>
		<path fill="#FC8D70" d="M208.6,102.8c-1.2,1.2-3.5,0.8-5.2-0.9c-1.7-1.7-2.1-4-0.9-5.2c1.2-1.2,3.5-0.8,5.2,0.9
			C209.3,99.3,209.7,101.7,208.6,102.8z"/>
		<path fill="#E24B2D" d="M207.5,101.8c-0.8,0.8-2.3,0.5-3.4-0.6c-1.1-1.1-1.3-2.6-0.6-3.4c0.8-0.8,2.3-0.5,3.4,0.6
			C208,99.5,208.3,101,207.5,101.8z"/>
	</g>
	<g>
		<path fill="#FC8D70" d="M214.3,116.7c-1.8,0.7-4.1-0.6-5-3c-0.9-2.4-0.1-4.8,1.7-5.5c1.8-0.7,4.1,0.6,5,3
			C216.9,113.5,216.1,116,214.3,116.7z"/>
		<path fill="#E24B2D" d="M213.7,115.2c-1.2,0.5-2.7-0.4-3.2-1.9c-0.6-1.5-0.1-3.1,1.1-3.6c1.2-0.5,2.7,0.4,3.2,1.9
			C215.4,113.2,214.9,114.8,213.7,115.2z"/>
	</g>
	<g>
		<path fill="#FC8D70" d="M208.2,130.5c-1.6-1.1-1.8-3.7-0.4-5.8c1.4-2.1,3.9-2.9,5.5-1.8c1.6,1.1,1.8,3.7,0.4,5.8
			C212.3,130.8,209.9,131.6,208.2,130.5z"/>
		<path fill="#E24B2D" d="M209.1,129.2c-1.1-0.7-1.2-2.4-0.3-3.8c0.9-1.4,2.5-1.9,3.6-1.1c1.1,0.7,1.2,2.4,0.3,3.8
			C211.8,129.4,210.2,129.9,209.1,129.2z"/>
	</g>
	<g>
		<path fill="#FC8D70" d="M159.8,153.5c-1.2-0.6-1.5-2.7-0.6-4.6c0.9-2,2.7-3.1,3.9-2.6c1.2,0.6,1.5,2.7,0.6,4.6
			C162.8,152.9,161,154,159.8,153.5z"/>
		<path fill="#E24B2D" d="M160.4,152.2c-0.8-0.4-1-1.7-0.4-3c0.6-1.3,1.7-2,2.5-1.7c0.8,0.4,1,1.7,0.4,3
			C162.3,151.8,161.2,152.6,160.4,152.2z"/>
	</g>
	<g>
		<path fill="#FC8D70" d="M159.8,162.4c-1.1,0-1.9-1.5-1.8-3.2c0.1-1.7,1-3.1,2.1-3.1c1.1,0,1.9,1.5,1.8,3.2
			C161.8,161,160.9,162.4,159.8,162.4z"/>
		<path fill="#E24B2D" d="M159.9,161.3c-0.7,0-1.2-1-1.2-2.1c0-1.1,0.6-2,1.3-2c0.7,0,1.2,1,1.2,2.1
			C161.2,160.4,160.6,161.3,159.9,161.3z"/>
	</g>
	<g>
		<path fill="#FC8D70" d="M163.2,170.4c-0.8,0.4-2-0.5-2.5-1.8c-0.6-1.3-0.3-2.7,0.5-3.1c0.8-0.4,2,0.5,2.5,1.8
			C164.2,168.7,164,170.1,163.2,170.4z"/>
		<path fill="#E24B2D" d="M162.8,169.6c-0.5,0.2-1.3-0.3-1.6-1.2c-0.4-0.9-0.2-1.8,0.3-2c0.5-0.2,1.3,0.3,1.6,1.2
			C163.5,168.5,163.4,169.4,162.8,169.6z"/>
	</g>
	<g>
		<path fill="#FC8D70" d="M166.3,177.1c-0.6,0.3-1.5-0.4-1.9-1.4c-0.4-1-0.3-2.1,0.4-2.4c0.6-0.3,1.5,0.4,1.9,1.4
			C167.1,175.8,166.9,176.9,166.3,177.1z"/>
		<path fill="#E24B2D" d="M166,176.5c-0.4,0.2-1-0.2-1.3-0.9c-0.3-0.7-0.2-1.4,0.2-1.5c0.4-0.2,1,0.2,1.3,0.9
			C166.6,175.6,166.4,176.3,166,176.5z"/>
	</g>
	<path fill="#CE1515" d="M48.2,130.5c-4.4-1.7-8.5-4.2-12-7.5c-1.7-1.6-3.3-3.4-4.7-5.4c-0.7-1-1.3-2-1.9-3c-0.3-0.5-0.6-1-0.9-1.6
		c-0.3-0.5-0.5-1.1-0.8-1.6c-1.8-4.2-2.4-9.1-1.4-13.7c0.9-4.6,3.3-8.9,6.8-12.2c0.9-0.8,1.8-1.6,2.8-2.3c0.5-0.3,1-0.7,1.5-1l1.7-1
		l6.7-4l6.7-4l1.7-1c0.6-0.4,1.1-0.7,1.7-1.1c1.1-0.7,2.2-1.5,3.2-2.3c4.2-3.3,7.9-7.1,11-11.4c6.2-8.5,9.9-18.7,10.6-29.1
		c-1.2,10.3-5.4,20.1-11.9,28.1c-3.2,4-7,7.5-11.1,10.4c-1,0.7-2.1,1.4-3.2,2.1c-0.5,0.3-1.1,0.6-1.6,0.9l-1.7,0.9l-6.9,3.7
		l-6.9,3.7L35.8,79c-0.6,0.3-1.2,0.7-1.8,1c-1.2,0.7-2.3,1.6-3.4,2.5c-4.3,3.6-7.4,8.6-8.8,14.1c-1.4,5.5-1.2,11.5,0.9,16.9
		c0.3,0.7,0.5,1.3,0.8,2c0.3,0.6,0.6,1.3,0.9,1.9c0.6,1.2,1.3,2.5,2.1,3.6c0.3,0.5,0.6,0.9,1,1.4c7.4,4.4,17.5,7.4,23.2,8.9
		C49.8,131.1,49,130.8,48.2,130.5z"/>
	<path opacity="0.4" fill="#FFFFFF" d="M73.9,98c0.6,0.4,0.2,1.4-0.5,1.1c-1-0.3-1.9-0.8-2.9-1.3c-0.9-0.5-1.8-1.1-2.6-1.8
		c-0.6-0.5,0-1.4,0.7-1.1c0.9,0.5,1.8,0.9,2.7,1.4C72.1,96.9,73,97.4,73.9,98z"/>
	<path opacity="0.4" fill="#FFFFFF" d="M122.1,92c0.3-0.2,0.6,0.2,0.4,0.5c-0.3,0.3-0.7,0.6-1,0.9c-1.2,1-2.5,2-3.8,2.8
		c-1.3,0.9-2.7,1.7-4.1,2.4c-1.4,0.7-2.9,1.4-4.3,1.9c-1.5,0.6-3,1-4.5,1.4c-1.5,0.4-3.1,0.7-4.7,0.9c-2,0.3-4,0.4-6.1,0.3
		c-0.4,0-0.4-0.6,0-0.6c2-0.2,3.9-0.5,5.9-0.9c1.5-0.3,3-0.7,4.5-1.1c1.5-0.4,2.9-0.9,4.4-1.5c1.4-0.5,2.8-1.1,4.2-1.8
		c1.4-0.6,2.8-1.4,4.1-2.1C118.8,94.2,120.5,93.2,122.1,92z"/>
	<path opacity="0.4" fill="#FFFFFF" d="M116.7,87.2c-1.5-0.1-3-0.6-4.4-1.1c-1.4-0.6-2.8-1.3-4-2.2c-1.3-0.9-2.4-1.9-3.4-3.1
		c-1-1.2-1.8-2.5-2.5-3.9c-0.2-0.4-0.3-0.7-0.4-1.1c-0.1-0.4-0.3-0.7-0.4-1.1c-0.2-0.8-0.4-1.5-0.5-2.3c-0.2-1.5-0.2-3.1,0-4.6
		c0.2-1.5,0.6-3,1-4.4c0.5-1.4,1.1-2.8,1.9-4.1c-0.9,2.8-1.5,5.8-1.7,8.7c-0.1,1.4,0,2.9,0.2,4.3c0.1,0.7,0.3,1.4,0.5,2.1
		c0.1,0.3,0.2,0.7,0.3,1c0.1,0.3,0.3,0.7,0.4,1c0.6,1.3,1.3,2.5,2.2,3.6c0.9,1.1,1.9,2.2,3,3.1c1.1,0.9,2.3,1.7,3.6,2.4
		C113.9,86.1,115.3,86.7,116.7,87.2z"/>
	<path opacity="0.4" fill="#FFFFFF" d="M31.8,123.3c-1.2-1-2.2-2.2-3.2-3.4c-1-1.2-1.9-2.5-2.6-3.9c-0.8-1.4-1.5-2.8-2-4.3
		c-0.6-1.5-1-3-1.3-4.6c-0.3-1.6-0.4-3.2-0.4-4.8c0.1-1.6,0.2-3.2,0.6-4.8c0.8-3.1,2.2-6,4.2-8.4c-1.4,2.8-2.5,5.7-3,8.7
		c-0.2,1.5-0.4,3-0.4,4.5c0,1.5,0.2,3,0.4,4.5c0.3,1.5,0.7,3,1.1,4.4c0.5,1.4,1.1,2.8,1.7,4.2C28.3,118.1,29.9,120.8,31.8,123.3z"/>
	<path opacity="0.4" fill="#FFFFFF" d="M75.2,165.8c-1.3-0.1-2.7-0.5-3.9-1.1c-1.2-0.6-2.3-1.5-3.1-2.6c-0.8-1.1-1.4-2.4-1.8-3.7
		l-1.1-3.8l-2.3-7.7l-2.3-7.7c-0.8-2.6-1.6-5.1-2.4-7.6c-0.2-0.6-0.4-1.3-0.6-1.9c-0.2-0.6-0.5-1.3-0.7-1.8c0-0.1,0-0.1-0.1-0.2
		l-0.2-0.2l-0.3-0.4l-0.5-0.9c-0.3-0.6-0.7-1.1-1.1-1.6c-1.5-2.1-3.5-3.9-5.8-5.2c-1.1-0.7-2.4-1.2-3.6-1.6c-1.3-0.4-2.6-0.7-3.9-1
		c2.7,0.2,5.3,0.9,7.8,2.1c1.2,0.6,2.4,1.4,3.4,2.2c1.1,0.9,2,1.9,2.8,2.9c0.4,0.5,0.8,1.1,1.2,1.7l0.5,0.9l0.3,0.4l0.1,0.2
		c0,0.1,0.1,0.2,0.2,0.3c0.2,0.3,0.3,0.7,0.5,1c0.1,0.3,0.3,0.6,0.4,0.9c0.2,0.6,0.5,1.3,0.7,1.9c0.9,2.5,1.7,5.1,2.5,7.7
		c1.5,5.1,3,10.3,4.4,15.5c0.3,1.3,0.7,2.6,1,3.9c0.3,1.3,0.7,2.5,1.5,3.6C70.1,164,72.5,165.4,75.2,165.8z"/>
	<path opacity="0.4" fill="#FFFFFF" d="M148.5,92.5c0.6,2.4,1.3,4.8,2.3,7c1,2.3,2.2,4.4,3.7,6.3c1.5,1.9,3.2,3.6,5.3,4.9
		c2,1.3,4.3,2.3,6.6,3.1c2.3,0.8,4.7,1.5,7.1,1.9c2.4,0.4,4.8,0.6,7.3,0.5c1.2-0.1,2.5-0.1,3.8-0.1c1.3,0,2.5,0.2,3.8,0.5
		c2.5,0.6,4.8,1.8,6.6,3.5c-2.1-1.4-4.4-2.4-6.8-2.7c-2.4-0.4-4.8-0.2-7.3,0.1c-5.1,0.5-10.2-0.4-14.9-2.1c-2.4-0.9-4.7-1.9-6.8-3.3
		c-2.2-1.4-4-3.3-5.4-5.4c-1.5-2.1-2.6-4.4-3.4-6.8C149.3,97.5,148.7,95,148.5,92.5z"/>
	<path opacity="0.4" fill="#FFFFFF" d="M169.9,94.1c2.2-0.8,4.3-1.6,6.4-2.5c1-0.5,2.1-0.9,3.1-1.4l0.8-0.4c0.3-0.1,0.5-0.2,0.8-0.3
		c0.6-0.2,1.1-0.4,1.7-0.6c2.3-0.7,4.7-1.1,7-0.9c2.4,0.1,4.7,0.6,6.8,1.7c-2.3-0.5-4.5-0.6-6.8-0.5c-2.2,0.1-4.5,0.5-6.6,1.2
		c-0.5,0.2-1.1,0.3-1.6,0.5c-0.3,0.1-0.5,0.2-0.8,0.3l-0.8,0.3c-1.1,0.4-2.2,0.9-3.3,1.2C174.5,93.4,172.2,94,169.9,94.1z"/>
	<path opacity="0.4" fill="#FFFFFF" d="M152.7,87.9c0.8,0.7,1.6,1.2,2.3,1.8c0.8,0.5,1.6,1.1,2.4,1.6l2.4,1.5
		c0.4,0.3,0.8,0.5,1.2,0.8c0.4,0.3,0.9,0.5,1.3,0.7c-0.5,0.1-1,0-1.6,0c-0.5-0.1-1-0.2-1.5-0.4c-1-0.3-1.9-0.8-2.8-1.3
		c-0.9-0.6-1.7-1.2-2.4-2C153.5,89.8,152.9,88.9,152.7,87.9z"/>
	<path opacity="0.4" fill="#FFFFFF" d="M182.8,139.3c0.4,0.1,0.4,0.7-0.1,0.7c-0.6,0-1.2,0-1.8,0l-2.6,0.1c-0.9,0-1.7,0-2.6,0.1
		c-1.7,0.1-3.4,0.2-5.1,0.3c-0.6,0.1-1.2,0.1-1.7,0.2c-0.4,0.1-0.7-0.5-0.3-0.7c0.6-0.2,1.2-0.4,1.8-0.5c1.7-0.4,3.5-0.6,5.2-0.6
		c1.7-0.1,3.5,0,5.2,0.1C181.6,139.2,182.2,139.2,182.8,139.3z"/>
	<path fill="#B50D0D" d="M128.9,61.2c0,0,10.9,10.6,27.9,5.6C156.8,66.8,141.3,67.7,128.9,61.2z"/>
	<path fill="#B50D0D" d="M124,85.2c0,0,14.1-5.4,27.8,5.8C151.8,91.1,137.9,84.2,124,85.2z"/>
</g>
</svg>
