<?xml version="1.0" encoding="utf-8"?>
<!-- Generator: Adobe Illustrator 26.0.1, SVG Export Plug-In . SVG Version: 6.00 Build 0)  -->
<svg version="1.0" id="Ebene_1" xmlns="http://www.w3.org/2000/svg" xmlns:xlink="http://www.w3.org/1999/xlink" x="0px" y="0px"
	 viewBox="0 0 467.6 181.7" enable-background="new 0 0 467.6 181.7" xml:space="preserve">
<g id="XMLID_1929_" opacity="0.64">
	<g id="XMLID_1930_">
		<path id="XMLID_1932_" fill="#FAFAFA" d="M220.5,104.1c0.4,0,0.8,0.1,1.2,0.1c-0.3-0.3-0.5-0.5-0.7-0.8
			C220.8,103.6,220.6,103.9,220.5,104.1z"/>
	</g>
	<g id="XMLID_1933_">
		<path id="XMLID_1934_" fill="#FAFAFA" d="M425.4,148.2c-5.9,0-11.6,1.2-16.7,3.4c0-0.1,0-0.2,0-0.3c6.3-6.6,10.2-15.6,10.2-25.4
			c0-20.3-16.4-36.7-36.7-36.7c-12.4,0-23.4,6.2-30,15.6c-3.4-14.5-14-26.3-27.8-31.4c0.8-4,1.3-8.1,1.3-12.4c0-33.7-27.3-61-61-61
			c-30.3,0-55.4,22.1-60.1,51c-4.4-1.9-9.3-3-14.5-3c-18.9,0-34.4,14.4-36.1,32.8c-15,3.8-27.3,14.6-33.2,28.6
			c-3.9-1.1-8.1-1.7-12.4-1.7c-9.4,0-18.1,2.8-25.4,7.7c-0.7,0-1.3-0.1-2-0.1c-40,0-73.4,28.5-80.9,66.3h467.6
			C463.1,162.5,446,148.2,425.4,148.2z M220.5,104.1c0.1-0.2,0.3-0.5,0.4-0.7c0.2,0.3,0.5,0.5,0.7,0.8
			C221.3,104.1,220.9,104.1,220.5,104.1z"/>
	</g>
</g>
</svg>
