<?xml version="1.0" encoding="utf-8"?>
<!-- Generator: Adobe Illustrator 26.0.1, SVG Export Plug-In . SVG Version: 6.00 Build 0)  -->
<svg version="1.0" id="Ebene_1" xmlns="http://www.w3.org/2000/svg" xmlns:xlink="http://www.w3.org/1999/xlink" x="0px" y="0px"
	 viewBox="0 0 215.5 118.9" enable-background="new 0 0 215.5 118.9" xml:space="preserve">
<g>
	<path fill="#97948C" d="M133.3,25.4c-0.2-0.1-0.4-0.1-0.6-0.1c-2.1,0-24.5,0.7-24.5,7c0,6.4,22.3,7,24.5,7c0.2,0,0.4,0,0.6-0.1
		V25.4z"/>
	<path fill="#D9D2C0" d="M136.6,32.3c0,3.9-1.7,7-3.9,7s-3.9-3.1-3.9-7c0-3.9,1.7-7,3.9-7S136.6,28.5,136.6,32.3z"/>
	<path fill="#C1BAAA" d="M135.6,32.3c0,3.2-1.2,5.7-2.6,5.7c-0.3,0-0.7-0.1-0.9-0.4c-1-0.8-1.6-2.9-1.6-5.3c0-2.4,0.7-4.5,1.6-5.3
		c0.3-0.3,0.6-0.4,0.9-0.4C134.4,26.6,135.6,29.2,135.6,32.3z"/>
	<path fill="#97948C" d="M133.7,32.3c0,2.4-0.7,4.5-1.6,5.3c-1-0.8-1.6-2.9-1.6-5.3c0-2.4,0.7-4.5,1.6-5.3
		C133,27.9,133.7,29.9,133.7,32.3z"/>
	<path fill="#97948C" d="M128,75.9c-0.1,0-0.1,0-0.2,0c-2.9,0-32.5,0.9-32.5,9.3c0,0.1,0,0.2,0,0.3H128V75.9z"/>
	<path fill="#97948C" d="M128,85.5H95.4c0.7,8.2,29.6,9,32.4,9c0.1,0,0.1,0,0.2,0V85.5z"/>
	<path fill="#C1BAAA" d="M113.9,18.1C101.5,9,89.2,0,89.2,0h-0.4l18.1,18.1H113.9z"/>
	<polygon fill="#C1BAAA" points="88.8,0 85.4,0 97.5,18.1 106.9,18.1 	"/>
	<path fill="#D6D6CB" d="M97.5,18.1l12.5,18.7c3.3,3.3,11.9,3.8,18.9,3.2l-21.9-21.9H97.5z"/>
	<path fill="#EDEDE0" d="M138.7,36.8c-1.2-1.2-13-10-24.8-18.7h-7L128.8,40C135,39.5,139.9,38,138.7,36.8z"/>
	<path fill="#EDEDE0" d="M62.9,35.4c-22.8,1.5-42.5,4.9-51,6.5c24.9,4.6,50.1,8,75.7,9.6c7.4,0.5,14.9,0.9,22.3,1.3L91.6,34.3
		C81.4,34.5,71.5,34.8,62.9,35.4z"/>
	<path fill="#EDEDE0" d="M214.6,46.7c-0.8-1.3-2-2.6-3.5-3.8c-1.9-1.6-4.1-3-6.3-4.2c-2-1.1-4-2-5.5-2.6c-5.9-2.1-19-2.2-38.8-1.9
		c-14.3,0.2-42.8-0.4-69,0L110,52.7C145.1,54.4,180.2,54.1,214.6,46.7z"/>
	<path fill="#C1BAAA" d="M87.7,51.5c-25.6-1.6-50.8-5-75.7-9.6c-2.8,0.5-4.4,0.9-4.4,0.9l3.1,5c19.1,7.4,51,13.9,73.6,14.7
		c10.3,0.4,23.2,0.9,36.7,1.2l-11-11C102.6,52.4,95.1,51.9,87.7,51.5z"/>
	<path fill="#C1BAAA" d="M214.6,46.7c-34.4,7.3-69.4,7.6-104.6,6l11,11c22.2,0.6,45.6,0.9,60.1-0.1c23.2-1.6,31.8-7.7,34.1-12.8
		C215.8,49.6,215.5,48.2,214.6,46.7z"/>
	<path fill="#C1BAAA" d="M97.5,75.7c-13,17.2-32.2,43.1-32.2,43.1h4.3l43.1-43.1H97.5z"/>
	<path fill="#C1BAAA" d="M69.6,118.9h1.1c0,0,33.3-25.6,54.6-43.1h-12.5L69.6,118.9z"/>
	<path fill="#D6D6CB" d="M128,55.6c-12.4,0-15.2,1.3-19.2,5.5c-1.2,1.3-5.7,7.1-11.3,14.6h15.2l20-20C130.8,55.7,129,55.6,128,55.6z
		"/>
	<path fill="#EDEDE0" d="M132.7,55.8l-20,20h12.5c9.8-8.1,17.1-14.5,17.3-15.8C143.1,57,137.3,56.1,132.7,55.8z"/>
	<path fill="#D6D6CB" d="M13.2,47.6L0,61.7h3.1c0,0,21.8-12.2,22.6-13.1C26.6,47.7,16.2,44.5,13.2,47.6z"/>
	<path fill="#EDEDE0" d="M24.7,41.4C24.6,41.2,7.1,20.9,7.1,20.9H3.5c0,0,9,20.3,9.8,22.1C14,44.7,26.2,43.5,24.7,41.4z"/>
	<path fill="#97948C" d="M211.1,43c-5.1,3.1-17.1,3.2-17.1,3.2l-1.5-3.3c0,0,8.2,0,12.3-4.2C207,39.9,209.2,41.4,211.1,43z"/>
	<path fill="#D6D6CB" d="M176.1,44.9c0-0.7-0.6-1.3-1.3-1.3h-4.6c-0.7,0-1.3,0.6-1.3,1.3v6.2h7.3V44.9z"/>
	<path fill="#EDEDE0" d="M168.8,51.1v3.1c0,0.7,0.6,1.3,1.3,1.3h4.6c0.7,0,1.3-0.6,1.3-1.3v-3.1H168.8z"/>
	<path fill="#EDEDE0" d="M95.4,41.2c0-1-0.8-1.8-1.8-1.8H77.3c-1,0-1.8,0.8-1.8,1.8v9.2h19.9V41.2z"/>
	<ellipse fill="#D9D2C0" cx="127.8" cy="85.2" rx="5.2" ry="9.3"/>
	<path fill="#C1BAAA" d="M131.7,85.2c0,4.2-1.5,7.6-3.4,7.6c-0.4,0-0.9-0.2-1.3-0.5c-1.3-1.1-2.2-3.8-2.2-7.1c0-3.2,0.9-6,2.2-7.1
		c0.4-0.3,0.8-0.5,1.3-0.5C130.1,77.7,131.7,81,131.7,85.2z"/>
	<path fill="#97948C" d="M129.2,85.2c0,3.2-0.9,6-2.2,7.1c-1.3-1.1-2.2-3.8-2.2-7.1c0-3.2,0.9-6,2.2-7.1
		C128.3,79.3,129.2,82,129.2,85.2z"/>
</g>
</svg>
