<?xml version="1.0" encoding="utf-8"?>
<!-- Generator: Adobe Illustrator 26.0.1, SVG Export Plug-In . SVG Version: 6.00 Build 0)  -->
<svg version="1.0" id="Ebene_1" xmlns="http://www.w3.org/2000/svg" xmlns:xlink="http://www.w3.org/1999/xlink" x="0px" y="0px"
	 viewBox="0 0 1034.2 462.9" enable-background="new 0 0 1034.2 462.9" xml:space="preserve">
<g id="XMLID_3031_">
	<g id="XMLID_3049_">
		<g id="XMLID_3050_">
			<path id="XMLID_3052_" fill="#2D2D2D" d="M249.4,267.5c-25.7,17.6-41.2,22.9-72.3,24.9c-18.6-54-37.3-108.1-55.9-162.1
				c-6.9-20,3.7-41.7,23.7-48.6l0,0c20-6.9,41.7,3.7,48.6,23.7C212.1,159.5,230.7,213.5,249.4,267.5z"/>
		</g>
	</g>
	<g id="XMLID_3047_">
		
			<rect id="XMLID_3048_" x="142.9" y="154.3" transform="matrix(0.9454 -0.326 0.326 0.9454 -51.0864 69.2852)" fill="#6B152E" width="76.5" height="65.5"/>
	</g>
	<g id="XMLID_3040_">
		<g id="XMLID_3044_">
			
				<rect id="XMLID_3046_" x="115" y="5.5" transform="matrix(0.9454 -0.326 0.326 0.9454 -5.3513 44.5492)" fill="#FFDB06" width="30.6" height="65.5"/>
		</g>
		<g id="XMLID_3041_">
			
				<rect id="XMLID_3043_" x="132.2" y="68.1" transform="matrix(0.9454 -0.326 0.326 0.9454 -20.6829 52.8872)" fill="#2D2D2D" width="30.6" height="40.1"/>
		</g>
	</g>
	<g id="XMLID_3038_" opacity="0.36">
		<path id="XMLID_3039_" fill="#0F0F0D" d="M160.8,79.8l-5.4-15.6L134,2.3l-9,3.1l21.4,62l5.4,15.6c14.5,1.3,27.6,10.9,32.7,25.6
			c18.6,54,37.3,108.1,55.9,162.1c-11.1,7.6-20.3,12.9-29.7,16.6c12.7-3.7,24-9.7,38.6-19.7c-18.6-54-37.3-108.1-55.9-162.1
			C188.4,90.7,175.3,81.1,160.8,79.8z"/>
	</g>
	<g id="XMLID_3035_">
		<path id="XMLID_3037_" fill="#FFDB06" d="M135.8,12L109,21.3c-3.2,1.1-6.8-0.6-7.9-3.8l0,0c-1.1-3.2,0.6-6.8,3.8-7.9l26.9-9.3
			c3.2-1.1,6.8,0.6,7.9,3.8l0,0C140.8,7.4,139.1,10.9,135.8,12z"/>
	</g>
	<g id="XMLID_3032_" opacity="0.22">
		<path id="XMLID_3034_" fill="#FFF8F8" d="M185.3,291.8c9.6-0.9,17.8-2.3,25.4-4.5l-54.1-156.8c-2.3-6.7-9.5-10.2-16.2-7.9l0,0
			c-6.7,2.3-10.2,9.5-7.9,16.2L185.3,291.8z"/>
	</g>
</g>
<g id="XMLID_2531_">
	<g id="XMLID_2537_">
		
			<ellipse id="XMLID_2541_" transform="matrix(0.495 -0.8689 0.8689 0.495 107.014 680.6955)" fill="#562211" cx="639.1" cy="248.3" rx="40.4" ry="28.5"/>
		<path id="XMLID_2540_" fill="#87442D" d="M656.3,218.1c0.1,0.1-1.1,0.5-2.8,1.7c-1.7,1.1-3.9,3-5.8,5.6c-1.9,2.7-3.4,6.1-4.3,10.1
			c-0.5,2-0.7,4.1-0.9,6.2c-0.2,2.2-0.2,4.2-0.2,6.8c-0.1,2.4,0,4.6-0.5,7.2c-0.3,2.5-1,4.9-1.7,7.2c-0.7,2.3-1.8,4.4-3,6.2
			c-1.2,1.9-2.6,3.5-4,4.7c-1.4,1.3-2.9,2.3-4.3,2.9c-1.3,0.7-2.6,1.1-3.7,1.4c-2.1,0.5-3.3,0.4-3.3,0.4s1.1-0.4,2.8-1.6
			c0.8-0.6,1.8-1.3,2.8-2.2c1-0.9,2-2.1,2.9-3.4c0.9-1.3,1.8-2.9,2.5-4.5c0.7-1.7,1.3-3.6,1.8-5.5c0.4-2,0.8-4.1,0.9-6.2
			c0.3-2,0.2-4.5,0.3-6.8c0-2.2,0.1-4.9,0.4-7.3c0.3-2.5,0.9-4.8,1.7-7.1c1.5-4.5,4.1-8.5,7-11c2.9-2.6,5.9-3.8,8-4.3
			C655.1,218.1,656.3,218.2,656.3,218.1z"/>
		<g id="XMLID_2538_" opacity="0.13">
			<path id="XMLID_2539_" d="M668.4,224.1c-7.9,26.4-28.2,47.1-53.9,55.7c1.4,1.4,2.9,2.6,4.6,3.6c13.7,7.8,33.7-1.6,44.8-20.9
				C671.5,249.1,672.8,234.5,668.4,224.1z"/>
		</g>
	</g>
	<g id="XMLID_2532_">
		<path id="XMLID_2536_" fill="#6B2F15" d="M618.7,232.9c0.7,22.3-11.5,40.7-27.3,41.2c-15.8,0.5-29.1-17.2-29.8-39.4
			c-0.7-22.3,11.5-40.7,27.3-41.2C604.7,192.9,618,210.6,618.7,232.9z"/>
		<path id="XMLID_2535_" fill="#87442D" d="M589.1,199.1c0.1,0-0.7,1-1.5,2.9c-0.8,1.8-1.7,4.6-2,7.8c-0.2,3.3,0.3,7,1.6,10.8
			c0.6,1.9,1.5,3.9,2.5,5.8c1,2,2,3.7,3.3,5.9c1.1,2.1,2.4,3.9,3.3,6.4c1.1,2.3,1.7,4.7,2.3,7c0.6,2.3,0.7,4.7,0.7,6.9
			c0,2.2-0.4,4.3-0.9,6.1c-0.5,1.8-1.3,3.5-2.1,4.7c-0.8,1.3-1.7,2.3-2.4,3.1c-1.5,1.5-2.6,2.1-2.6,2.1s0.8-1,1.6-2.8
			c0.4-0.9,0.9-2,1.2-3.4c0.4-1.3,0.6-2.8,0.7-4.4c0.1-1.6,0-3.4-0.2-5.2c-0.3-1.8-0.8-3.7-1.4-5.6c-0.7-1.9-1.5-3.9-2.5-5.7
			c-0.8-1.8-2.2-3.9-3.3-5.9c-1.2-1.9-2.5-4.2-3.4-6.4c-1-2.3-1.7-4.6-2.3-6.9c-1.1-4.7-0.9-9.4,0.3-13c1.1-3.7,3-6.3,4.5-7.8
			C588,199.7,589.2,199.1,589.1,199.1z"/>
		<g id="XMLID_2533_" opacity="0.13">
			<path id="XMLID_2534_" d="M602.6,197.8c7,26.6,0.5,54.9-16.9,75.6c1.9,0.5,3.8,0.7,5.8,0.6c15.8-0.5,28-19,27.3-41.2
				C618.2,217.5,611.7,204.4,602.6,197.8z"/>
		</g>
	</g>
</g>
<g>
	<path opacity="0.5" fill="#A6D7F0" d="M573.1,433.3h42.3c1-0.6,2-1.3,2.9-2c15.3-11.6,10.2-35.3-5.6-46.4
		c-15.8-11.2-37.8-12.7-58.1-11.3c-20.3,1.3-40.7,4.9-60.8,2.1c-20.1-2.8-40.5-14.1-44.4-31.5c-5.8-25.9,26.3-46.1,55.6-52.6
		c29.3-6.5,62.8-7.9,83.8-27c-14.1,8.9-36.2,2.9-44.7-10.4c-8.6-13.2-5-30.7,5.8-42.6c29.9-33,70.3-5.8,98.4-33.2
		c10.9-10.6,20.5-24.2,35.2-28.3c0.3-0.1,0.7-0.2,1-0.3c-100.2-31.2-208.8-35.1-309.3-5.8c-50.7,14.7-98.8,38.1-141.9,68.5
		c-23.1,16.3-46.4,35.8-68.2,57.7c1.9,15,1,30.9,0.9,43.1c-0.5,37.5,2.8,71.8,22.4,104.9c3.1,5.2,6.4,10.2,9.9,15"/>
	<path fill="#B9D9F2" d="M166,313.3c-0.5,37.5,2.8,71.8,22.4,104.9c3.1,5.2,6.4,10.2,9.9,15h38.2c-0.7-4-1.3-8-1.8-12.1
		c-14.4-19.5-22.4-44.2-22.2-68.5c0.4-41.2,21.5-80.3,51.2-108.8c6.5-6.3,13.5-12,20.7-17.4c3.2-4.3,6.5-8.5,10-12.5
		c0.3-0.4,0.9-0.4,1.3-0.1c0.4,0.3,0.4,0.9,0.1,1.3c-2.1,2.5-4.2,5-6.2,7.6c24.4-17.2,52.1-30,80.2-40.1
		c27.7-10,200.6-59.4,208.4-21.6c-62.8,8.5-120.7,31.2-153.9,89.4c-2.4,4.2-4.8,8.7-7.3,13c23.1-7.3,49.2-5.3,70.6,6.2
		c0.4,0.2,0.6,0.8,0.4,1.3c-0.2,0.5-0.8,0.6-1.3,0.4c-21.6-11.5-48.1-13.3-71.2-5.4c-5.4,8.7-11.8,16.6-21.1,20.2
		c-22.7,8.9-49.6-12-72-2.1c-10.2,4.5-16.1,14.3-18.3,25.4c21.7,5.2,41.3,19.5,54.9,34.5c13.6,15,24.4,32.5,34.9,49.4
		c0.4,0.6,0.8,1.2,1.1,1.9c40.7-21.7,50.7,34.9,88.1,36.1c17.6,0.6,34.4-7.3,51.9-9.5c13.6-1.7,29.5,2,37.9,11.8h42.3
		c1-0.6,2-1.3,2.9-2c15.3-11.6,10.2-35.3-5.6-46.4c-15.8-11.2-37.8-12.7-58.1-11.3c-20.3,1.3-40.7,4.9-60.8,2.1
		c-20.1-2.8-40.5-14.1-44.4-31.5c-5.8-25.9,26.3-46.1,55.6-52.6c29.3-6.5,62.8-7.9,83.8-27c-14.1,8.9-36.2,2.9-44.7-10.4
		c-8.6-13.2-5-30.7,5.8-42.6c29.9-33,70.3-5.8,98.4-33.2c10.9-10.6,20.5-24.2,35.2-28.3c0.3-0.1,0.7-0.2,1-0.3
		c-100.2-31.2-208.8-35.1-309.3-5.8c-50.7,14.7-98.8,38.1-141.9,68.5c-23.1,16.3-46.4,35.8-68.2,57.7
		C167,285.2,166.1,301.1,166,313.3z"/>
	<path fill="#E3F5FF" d="M415.6,265.7c-5.4,8.7-11.8,16.6-21.1,20.2c-22.7,8.9-49.6-12-72-2.1c-10.2,4.5-16.1,14.3-18.3,25.4
		c21.7,5.2,41.3,19.5,54.9,34.5c13.6,15,24.4,32.5,34.9,49.4c0.4,0.6,0.8,1.2,1.1,1.9c40.7-21.7,50.7,34.9,88.1,36.1
		c17.6,0.6,34.4-7.3,51.9-9.5c13.6-1.7,29.5,2,37.9,11.8h42.3c1-0.6,2-1.3,2.9-2c15.3-11.6,10.2-35.3-5.6-46.4
		c-15.8-11.2-37.8-12.7-58.1-11.3c-20.3,1.3-40.7,4.9-60.8,2.1c-20.1-2.8-40.5-14.1-44.4-31.5c-5.8-25.9,26.3-46.1,55.6-52.6
		c29.3-6.5,62.8-7.9,83.8-27c-14.1,8.9-36.2,2.9-44.7-10.4c-8.6-13.2-5-30.7,5.8-42.6c29.9-33,70.3-5.8,98.4-33.2
		c10.9-10.6,20.5-24.2,35.2-28.3c0.3-0.1,0.7-0.2,1-0.3c-100.2-31.2-208.8-35.1-309.3-5.8c-50.7,14.7-98.8,38.1-141.9,68.5
		c-23.1,16.3-46.4,35.8-68.2,57.7c1.9,15,1,30.9,0.9,43.1c-0.5,37.5,2.8,71.8,22.4,104.9c3.1,5.2,6.4,10.2,9.9,15h38.2
		c-0.7-4-1.3-8-1.8-12.1c-14.4-19.5-22.4-44.2-22.2-68.5c0.4-41.2,21.5-80.3,51.2-108.8c6.5-6.3,13.5-12,20.7-17.4
		c3.2-4.3,6.5-8.5,10-12.5c0.3-0.4,0.9-0.4,1.3-0.1c0.4,0.3,0.4,0.9,0.1,1.3c-2.1,2.5-4.2,5-6.2,7.6c24.4-17.2,52.1-30,80.2-40.1
		c27.7-10,200.6-59.4,208.4-21.6c-62.8,8.5-120.7,31.2-153.9,89.4c-2.4,4.2-4.8,8.7-7.3,13L415.6,265.7z"/>
	<path fill="#54A371" d="M648.4,178.4c-28.1,27.5-68.5,0.3-98.4,33.2c-10.8,11.9-14.4,29.4-5.8,42.6c8.6,13.2,30.6,19.2,44.7,10.4
		c-20.9,19.1-54.4,20.5-83.8,27c-29.3,6.5-61.4,26.7-55.6,52.6c3.9,17.4,24.3,28.8,44.4,31.5c20.1,2.8,40.5-0.8,60.8-2.1
		c20.3-1.3,42.3,0.2,58.1,11.3c15.8,11.1,20.9,34.8,5.6,46.4c-0.9,0.7-1.9,1.4-2.9,2h63.7c-8.2-33.9-37.3-62.8-72.1-68
		c-10.9-1.6-22.3-1.2-32.7-5c-10.4-3.7-19.9-13.5-18.5-24.5c2.4-19,29.5-20.2,44.7-31.8c16.3-12.4,17.4-36.1,25.9-54.7
		c20.5-44.8,84.3-54.2,128.3-32.1c44,22.1,72.7,65.5,99.2,107c7.3,11.4,14.7,23.1,17,36.4c2.2,13.3-2.1,28.7-13.7,35.5
		c-10.4,6.1-23.6,3.9-35.3,6.7c-16.4,3.9-28,15.4-37.1,30.5h121.5c2.6-5.4,3.7-12.2,3.7-18.3c0.2-19.9-3.8-39.9-11.6-58.2
		c-9.2-21.5,2.4-17.2,13.5-10.5c14.5,8.9,28.9,29.8,38.2,43.7c8.9,13.1,15.8,27.9,19.1,43.3h16c-10.6-37.5-25.4-73.6-46.4-106.3
		c-39.8-62-100.5-108.4-166.3-141.6c-28.2-14.2-57.7-26.1-87.9-35.5c-0.3,0.1-0.7,0.2-1,0.3C668.9,154.2,659.3,167.8,648.4,178.4z"
		/>
	<path fill="#54A371" d="M129.6,360c7-2.8,14.5,3.9,16.6,11.2c2.1,7.2,0.9,15,2.3,22.4c3.3,17.3,19.3,28.6,33,39.8h16.7
		c-3.5-4.9-6.8-9.9-9.9-15c-19.6-33.1-22.9-67.4-22.4-104.9c0.2-12.2,1-28.2-0.9-43.1c-42.2,42.1-79.2,92.6-99.4,144.1
		c-2.3,5.9-4.5,12.3-6.4,19h51C102.1,411.2,108.4,368.5,129.6,360z"/>
	<path fill="#ADD4D1" d="M295.8,215.1c0.3-0.4,0.3-1-0.1-1.3c-0.4-0.3-1-0.3-1.3,0.1c-3.5,4.1-6.8,8.3-10,12.5
		c1.7-1.3,3.5-2.5,5.2-3.8C291.6,220.1,293.7,217.6,295.8,215.1z"/>
	<path fill="#2A825D" d="M821.8,402.8c11.8-2.8,24.9-0.6,35.3-6.7c11.7-6.8,16-22.2,13.7-35.5c-2.2-13.3-9.7-25.1-17-36.4
		c-26.6-41.5-55.2-84.9-99.2-107c-44-22.1-107.9-12.7-128.3,32.1c-8.5,18.6-9.6,42.3-25.9,54.7c-15.2,11.6-42.3,12.9-44.7,31.8
		c-1.4,11,8.1,20.7,18.5,24.5c10.4,3.7,21.8,3.3,32.7,5c34.8,5.2,63.9,34.1,72.1,68h105.6C793.8,418.2,805.4,406.7,821.8,402.8z"/>
	<path fill="#2A825D" d="M148.6,393.5c-1.4-7.4-0.2-15.2-2.3-22.4c-2.1-7.2-9.6-14-16.6-11.2c-21.2,8.5-27.6,51.2-19.3,73.3h71.3
		C167.9,422.1,151.8,410.8,148.6,393.5z"/>
	<path fill="#2A825D" d="M950,390c-9.4-13.9-23.7-34.9-38.2-43.7c-11.1-6.8-22.7-11-13.5,10.5c7.9,18.3,11.8,38.3,11.6,58.2
		c-0.1,6.1-1.1,12.9-3.7,18.3h62.9C965.9,417.9,958.9,403.1,950,390z"/>
	<g>
		<path fill="#FF5945" d="M90.3,252.8c14.8,19.5,35.1,110.8,39.7,132.1c0.4,1.8-1.5,3.2-3.1,2.3c-19.3-10.1-101.8-54.1-116.6-73.6
			c-16.8-22.1-12.5-53.6,9.6-70.4C41.9,226.4,73.5,230.7,90.3,252.8z"/>
		<path fill="#FFFFFF" d="M69.8,265.6c8.8,11.5,6.5,28-5,36.7c-11.5,8.8-28,6.5-36.7-5c-8.8-11.5-6.5-28,5-36.7
			C44.6,251.8,61,254,69.8,265.6z"/>
	</g>
	<g>
		<path fill="#FF5945" d="M805.8,149.8c-7.3,21-66.1,82.4-79.9,96.6c-1.2,1.2-3.2,0.5-3.3-1.2c-2.1-19.7-10.4-104.3-3.1-125.3
			c8.3-23.8,34.3-36.5,58.1-28.2C801.4,100,814.1,126,805.8,149.8z"/>
		<path fill="#FFFFFF" d="M785.8,140.8c-4.3,12.4-17.9,19-30.3,14.7c-12.4-4.3-19-17.9-14.7-30.3c4.3-12.4,17.9-19,30.3-14.7
			C783.5,114.8,790.1,128.4,785.8,140.8z"/>
	</g>
	<g>
		<path fill="#FF5945" d="M986.3,258.1c-11.2,13.7-71.9,43.2-86.1,50c-1.2,0.6-2.5-0.5-2.2-1.8c3.9-15.2,20.9-80.6,32.1-94.3
			c12.7-15.5,35.6-17.8,51.1-5.1C996.7,219.7,999,242.6,986.3,258.1z"/>
		<path fill="#FFFFFF" d="M973.9,245.9c-6.6,8.1-18.6,9.3-26.6,2.7c-8.1-6.6-9.3-18.6-2.7-26.6c6.6-8.1,18.6-9.3,26.6-2.7
			C979.3,225.8,980.5,237.8,973.9,245.9z"/>
	</g>
</g>
<g id="XMLID_2520_">
	<g id="XMLID_2528_">
		<path id="XMLID_2530_" fill="#FFDB06" d="M901.8,439.6c-51.3-16.1-79.8-70.8-63.6-122.1l-10.3-3.2c-17.9,57,13.7,117.7,70.7,135.6
			c57,17.9,117.7-13.7,135.6-70.7l-10.3-3.2C1007.7,427.2,953,455.7,901.8,439.6z"/>
		<path id="XMLID_2529_" fill="#FFF3B6" d="M901.8,439.6c51.3,16.1,105.9-12.4,122.1-63.6l-185.7-58.4
			C822,368.8,850.5,423.4,901.8,439.6z"/>
	</g>
	<path id="XMLID_2527_" fill="#FFDB06" d="M935.4,405.1c-7,22.3-20.6,33.1-32.1,29.5c-11.5-3.6-16.5-20.2-9.4-42.5
		c7-22.3,24.9-46.8,36.4-43.2C941.8,352.4,942.5,382.7,935.4,405.1z"/>
	<path id="XMLID_2526_" fill="#FFDB06" d="M974,403.6c-0.2,20-8.3,32.2-18.1,32c-9.8-0.1-17.5-12.5-17.3-32.5
		c0.2-20,8.4-44.5,18.2-44.4C966.6,359,974.2,383.6,974,403.6z"/>
	<path id="XMLID_2525_" fill="#FFDB06" d="M1005.7,389.7c4,13.5,0,23.6-7.9,26c-7.9,2.3-16.8-4-20.8-17.5c-4-13.5-2.5-32,5.4-34.3
		C990.3,361.6,1001.7,376.2,1005.7,389.7z"/>
	<path id="XMLID_2524_" fill="#FFDB06" d="M863.8,369c-11.3,16.5-11.6,31.1-3.5,36.6c8.1,5.5,21.5-0.2,32.7-16.7
		c11.3-16.5,18.5-41.3,10.5-46.8C895.4,336.6,875,352.4,863.8,369z"/>
	<path id="XMLID_2523_" fill="#FFDB06" d="M845.8,339.4c-11,8.8-13.6,19.4-8.4,25.8c5.1,6.4,16,6.3,27-2.5
		c11-8.8,20.4-24.8,15.2-31.2C874.5,325.1,856.8,330.6,845.8,339.4z"/>
	<g id="XMLID_2521_" opacity="0.14">
		<path id="XMLID_2522_" d="M1023.8,375.9l-9.3-2.9c-24.6,35.8-84.2,57.6-154.3,55.5c10.8,9.4,23.7,16.8,38.3,21.4
			c57,17.9,117.7-13.7,135.6-70.7L1023.8,375.9z"/>
	</g>
</g>
<g id="XMLID_20_">
	<g id="XMLID_1027_">
		<g id="XMLID_1037_">
			<path id="XMLID_1074_" fill="#E0DDDC" d="M332.5,137.8l-7.5-4.7c0.2-0.3,19.4-31.3,11.7-57c-1.5-5.1-4.3-6.6-6.2-7.2
				c-11.4-3.8-33.7,10.3-41.4,16l-5.3-7.1c3.2-2.4,31.7-23.2,49.5-17.4c4,1.3,9.4,4.7,11.9,13.1
				C354.1,103.2,333.4,136.4,332.5,137.8z"/>
		</g>
		<g id="XMLID_1036_">
			<path id="XMLID_1972_" fill="#EFECEA" d="M328.5,118.9c-29.4-8.6-37.2-45.6-37.2-64.7l-48.6,5.9c9.7,19.2,7.2,52.4-22,71.9
				c-20.1,13.4-37.4,58.2,30.5,113.7c3.8,3.1,8.7,4.6,13.5,4l24.6-3l24.6-3c4.9-0.6,9.2-3.2,12.2-7.1
				C378.7,166.5,351.6,125.7,328.5,118.9z"/>
		</g>
		<g id="XMLID_1034_">
			<g id="XMLID_1035_">
				<path id="XMLID_1970_" fill="#D8B903" d="M338.1,129.4c-36.3,24.6-82.6,30.3-123.8,15.1c-3.8,5.5-6.7,12.7-7.1,21.6
					c-0.8,16.6,6.7,43.3,46.7,76c2.9,2.3,6.6,3.4,10.2,3l49.1-5.9c3.6-0.4,6.9-2.4,9.2-5.4c33.8-44.9,31.4-73.9,27-87.2
					C346.8,139,342.6,133.4,338.1,129.4z"/>
			</g>
		</g>
		<g id="XMLID_1033_" opacity="0.12">
			<path id="XMLID_1967_" d="M240.4,69.4"/>
		</g>
		<g id="XMLID_1031_" opacity="6.000000e-02">
			<g id="XMLID_1032_">
				<path id="XMLID_1965_" d="M328.5,118.9c-29.4-8.6-37.2-45.6-37.2-64.7l-48.6,5.9c1.7,3.3,3,7.1,3.8,11.2
					c12-2.6,27.8-9.2,35.8,2.5c6.5,9.5,5.3,27.6,10.9,37.7c6,11.1,13.6,21.4,22.8,30.1c17.6,16.7,8,79.2-23.3,104.6l21.2-2.6
					c4.9-0.6,9.2-3.2,12.2-7.1C378.7,166.5,351.6,125.7,328.5,118.9z"/>
			</g>
		</g>
		<g id="XMLID_1030_">
			<path id="XMLID_1962_" fill="#E0DDDC" d="M295.9,57.6l-54.5,6.6c-0.9,0.1-1.7-0.5-1.8-1.4l-0.5-4.4c-0.1-0.9,0.5-1.7,1.4-1.8
				l54.5-6.6c0.9-0.1,1.7,0.5,1.8,1.4l0.5,4.4C297.5,56.6,296.8,57.5,295.9,57.6z"/>
		</g>
		<g id="XMLID_1029_" opacity="0.4">
			<path id="XMLID_1072_" fill="#FFFFFF" d="M244.4,125.1c0,0-1.5,1.6-4,4.5c-1.3,1.4-2.7,3.2-4.4,5.2c-1.7,2-3.4,4.4-5.3,6.9
				c-1.9,2.5-3.6,5.4-5.3,8.4c-1.6,3-3.1,6.2-4,9.6c-1,3.3-1.3,6.6-0.9,9.8l0.2,1.2c0,0.1,0.1,0.6,0.1,0.4l0.2,0.8l0.4,1.5l0.4,1.2
				c0.5,1.6,1.3,3.5,2.1,5.2c3.3,7.2,7.6,14.4,11.8,21.1c4.3,6.8,8.2,13.1,11.6,18.5c3.5,5.4,6.3,10.1,8.3,13.5c2,3.3,3,5.3,3,5.3
				s-1.9-1.1-5.1-3.4c-3.1-2.3-7.5-5.7-12.3-10.3c-4.9-4.5-10.2-10.1-15.4-16.6c-2.6-3.3-5.1-6.8-7.5-10.6
				c-2.4-3.8-4.7-7.8-6.5-12.1c-0.9-2.2-1.8-4.3-2.5-6.9l-0.5-1.9l-0.3-1.6l-0.2-0.8c-0.1-0.8-0.1-0.8-0.2-1.2l-0.2-2
				c-0.3-5.4,0.9-10.5,2.7-14.8c3.8-8.7,9.6-14.6,14.8-19c2.6-2.3,5.1-4,7.4-5.5c2.3-1.5,4.4-2.6,6.1-3.6
				C242.3,125.9,244.4,125.1,244.4,125.1z"/>
		</g>
		<g id="XMLID_1028_" opacity="0.4">
			<path id="XMLID_1071_" fill="#FFFFFF" d="M316,121.6c0,0,3.6,0.9,8,3.9c2.2,1.4,4.7,3.4,7,5.7c2.4,2.3,4.5,5.2,6.4,8.3
				c0.9,1.5,1.7,3.2,2.4,4.8c0.6,1.7,1.3,3.3,1.7,5c0.3,1.7,0.7,3.3,0.8,4.9c0,1.6,0.1,3.1-0.1,4.5c-0.2,1.4-0.4,2.6-0.7,3.7
				c-0.2,1.1-0.7,2-1,2.7c-0.7,1.5-1.1,2.2-1.1,2.2s-0.3-0.9-0.6-2.4c-0.2-0.7-0.3-1.6-0.6-2.6c-0.3-1-0.7-2-1-3.2
				c-0.4-1.1-1-2.3-1.4-3.5c-0.4-1.2-1.2-2.5-1.7-3.8c-0.6-1.3-1.4-2.6-2-3.9c-0.8-1.3-1.5-2.7-2.3-4c-3.2-5.3-6.7-10.7-9.3-15
				C317.6,124.8,316,121.6,316,121.6z"/>
		</g>
	</g>
	<g id="XMLID_590_">
		<g id="XMLID_1026_">
			
				<ellipse id="XMLID_1955_" transform="matrix(0.2103 -0.9776 0.9776 0.2103 -56.7652 401.427)" fill="#93AC1B" cx="220.1" cy="235.8" rx="17.8" ry="24.7"/>
		</g>
		<g id="XMLID_1024_" opacity="0.15">
			<g id="XMLID_840_">
				<path id="XMLID_1953_" fill="#040305" d="M240.8,228.6c-8.1,10.9-23.8,16.9-40.9,15.2c3.7,4.4,9.4,7.9,16.5,9.4
					c13.3,2.9,25.8-2.6,27.8-12.2C245.1,236.8,243.7,232.4,240.8,228.6z"/>
			</g>
		</g>
		<g id="XMLID_593_" opacity="0.4">
			<path id="XMLID_1070_" fill="#040305" d="M202.2,233.1c-0.3,1.5-1.4,2.6-2.4,2.4c-1-0.2-1.6-1.6-1.2-3.1c0.3-1.5,1.4-2.6,2.4-2.4
				C202,230.2,202.5,231.6,202.2,233.1z"/>
		</g>
		<g id="XMLID_591_" opacity="0.41">
			<g id="XMLID_592_">
				<path id="XMLID_1948_" fill="#FEFDFF" d="M204.1,224.3c0,0,1.7-1.3,4.7-2.4c3-1.1,7.2-2,11.5-1.5c1.1,0.1,2.1,0.3,3.2,0.5
					c1.1,0.1,2,0.6,3,0.8c1,0.3,1.8,0.8,2.7,1.2c0.8,0.4,1.6,0.8,2.2,1.3c1.4,0.8,2.3,1.7,3,2.3c0.7,0.6,1,1,1,1s-0.5-0.2-1.3-0.6
					c-0.8-0.4-2-1-3.4-1.5c-0.7-0.3-1.4-0.6-2.3-0.9c-0.8-0.2-1.7-0.6-2.6-0.7c-1.8-0.4-3.8-0.9-5.7-1c-2-0.3-4-0.2-5.9-0.1
					c-1.9,0.2-3.6,0.3-5.1,0.6C206.1,223.7,204.1,224.3,204.1,224.3z"/>
			</g>
		</g>
	</g>
	<g id="XMLID_192_">
		<g id="XMLID_505_">
			<path id="XMLID_1944_" fill="#8DA91B" d="M243,248.9c0,0,63-25.3,56.6-73.1c1.7,12.9-27.7,28.2-35.7,35.6
				C255.5,219.2,238.6,234.7,243,248.9z"/>
		</g>
		<g id="XMLID_193_" opacity="0.11">
			<g id="XMLID_504_">
				<path id="XMLID_1942_" fill="#040305" d="M242.3,245c0.1,1.3,0.2,2.6,0.6,3.9c0,0,47.8-19.3,55.9-55.8
					C284.1,216.3,256.6,236.1,242.3,245z"/>
			</g>
		</g>
	</g>
	<g id="XMLID_184_">
		<g id="XMLID_190_">
			
				<ellipse id="XMLID_1938_" transform="matrix(0.9928 -0.12 0.12 0.9928 -28.3494 31.0833)" fill="#25202D" cx="243.9" cy="250.9" rx="24.7" ry="17.8"/>
		</g>
		<g id="XMLID_188_" opacity="0.18">
			<g id="XMLID_189_">
				<path id="XMLID_1936_" fill="#040305" d="M261.1,237.3c-4.1,12.9-17,23.7-33.7,27.7c4.9,3,11.5,4.4,18.6,3.6
					c13.5-1.6,23.5-10.9,22.3-20.6C267.8,243.6,265.1,239.9,261.1,237.3z"/>
			</g>
		</g>
		<g id="XMLID_187_" opacity="0.4">
			<path id="XMLID_1053_" fill="#040305" d="M226,254.1c0.2,1.5-0.5,2.9-1.5,3c-1,0.1-2-1-2.2-2.6s0.5-2.9,1.5-3
				C224.9,251.4,225.9,252.6,226,254.1z"/>
		</g>
		<g id="XMLID_185_" opacity="0.41">
			<g id="XMLID_186_">
				<path id="XMLID_1931_" fill="#FEFDFF" d="M225,245.2c0,0,1.2-1.8,3.7-3.8c2.4-2,6.2-4.2,10.4-5.2c1-0.3,2.1-0.4,3.2-0.6
					c1-0.2,2.1-0.1,3.1-0.2c1-0.1,2,0.1,2.9,0.2c0.9,0.1,1.8,0.3,2.5,0.5c1.6,0.3,2.8,0.9,3.6,1.2c0.8,0.4,1.3,0.6,1.3,0.6
					s-0.5-0.1-1.4-0.1c-0.9-0.1-2.2-0.3-3.7-0.3c-0.8-0.1-1.6-0.1-2.4-0.1c-0.9,0.1-1.8,0-2.7,0.1c-1.9,0.2-3.8,0.4-5.8,1
					c-1.9,0.4-3.8,1.1-5.6,1.8c-1.7,0.8-3.4,1.4-4.7,2.2C226.7,243.9,225,245.2,225,245.2z"/>
			</g>
		</g>
	</g>
</g>
<g id="XMLID_1246_">
	<g id="XMLID_1248_">
		<g id="XMLID_1878_">
			<path id="XMLID_1254_" fill="#9DA2A5" d="M439.1,121.3c0,0,1.1-12,32.4-22.3c31.3-10.4,21.5-30.2,42.1-32.8
				c20.6-2.6,19.9-5.9,36,13c16.1,18.9,13.7,16.1,24,36.1c10.2,20,14,17.3,3.4,20.8c-10.5,3.5-145.8,3.2-141.9-5.8
				C439.1,121.3,439.1,121.3,439.1,121.3z"/>
		</g>
	</g>
	<g id="XMLID_1251_" opacity="0.16">
		<g id="XMLID_1257_">
			<path fill="#5E666B" d="M535.8,125.9c-2.9-1.8-5.9-4.1-6.2-7.8c-0.2-1.6-0.2-3.2-1-4.6c-0.3-0.5-0.7-0.9-1.2-1
				c-4.1-0.7-3.3,13-7.7,12c-0.1,0-5.9-1.3-7.4-9c-1.5-7.8-2.1-13.4-2-15.1c0-1.7-2.7-9.5-3.9-9.1c-1.2,0.4-1.2,8.3-1.2,8.3
				s-1.2,15.8-6.5,23.7c-2.4,3.6-2.8,8.6-2.4,12.9c14.6,0.4,29.7,0.5,42.9,0.3C540.5,132.6,539.6,128.3,535.8,125.9z M496.8,89.5
				c1.8-1.8,5.6-6.5,5.6-6.5l6.8-13.3c0,0,0.6-2.2,0.8-4.3c-13.3,3.6-10.9,16.7-26.5,26.6c-0.2,0.2-0.3,0.5-0.5,0.7
				c-6.2,8.5-14.6,11.6-23.5,16.6c-0.7,0.4-1.5,0.9-2,1.5c-2.3,2.7-5.3,9.2-5.3,12.6c0,2.4-0.1,6.7-0.1,10.4c4,0.4,8.5,0.8,13.5,1.2
				c0.6-3,1.6-6,3.2-7.4c3.8-3.2,8.8-9.5,14.2-12.1c5.3-2.6,12.4-10.3,12.1-14.7C494.8,96.3,495.1,91.3,496.8,89.5z M570,135.6
				c0.2-5.8-2.4-11.6-7.1-15.1c-2.8-2.1-5.4-2.8-6.3-6.4c-0.7-2.6-0.2-5.4-0.8-8c-0.6-2.7-3.2-9.4-4.4-12.8
				c-1.2-3.4-10.3-4.6-9.4-1.8c0.9,2.8-4.1,6.7-8.6,3.1c-4.4-3.5-0.6-12.4,0.6-18.1c1.2-5.7-4.7-11.4-4.4-10.4
				c2,6.3-1.3,16-3.2,21.9c-0.4,1.1-0.7,2.1-0.6,3.2c0.1,1,0.6,1.9,1.1,2.8c6.5,10.9,19.9,18,20.8,31.7c0.1,1,0,6.6-0.4,10.9
				C556.6,136.3,564.5,136,570,135.6z"/>
		</g>
	</g>
	<g id="XMLID_1258_">
		<g id="XMLID_1871_">
			<path id="XMLID_1263_" fill="#DADDE0" d="M521.9,60.6c0,0-0.9,0-2.5-0.5c-0.8-0.3-1.7-0.6-2.7-1.2c-1-0.6-2.1-1.5-3-2.8
				c-1-1.3-1.4-3.1-1.5-5c0.1-1.8,0.5-3.7,1.3-5.4c0.4-0.8,0.8-1.8,1.3-2.5c0.5-0.7,1-1.5,1.4-2.2c0.5-0.7,1-1.5,1.5-2.2
				c0.4-0.7,0.7-1.4,1-2.1c0.6-1.4,1.2-3,1.5-4.5c0.2-0.8,0.3-1.6,0.4-2.4c0.1-0.8,0.2-1.6,0.2-2.4c0-0.8,0-1.6,0-2.3
				c0-0.8,0-1.5-0.1-2.2c-0.1-1.5-0.3-2.9-0.5-4.2c-0.5-2.6-1-4.7-1.4-6.3c-0.4-1.5-0.7-2.4-0.7-2.4s0.6,0.7,1.6,2
				c0.5,0.7,1,1.5,1.5,2.5c0.5,1,1.1,2.1,1.7,3.4c0.5,1.3,1.1,2.7,1.4,4.3c0.4,1.6,0.7,3.3,0.8,5.1c0.1,0.9,0.1,1.8,0,2.8
				c0,0.9-0.1,1.9-0.3,2.9c-0.3,1.9-0.9,3.8-1.7,5.7c-0.5,0.9-0.9,1.9-1.4,2.7c-0.5,0.7-1,1.5-1.5,2.2l-0.8,1.1l-0.7,1
				c-0.5,0.6-0.8,1.3-1.3,1.9c-0.8,1.3-1.2,2.6-1.5,3.8c-0.1,1.2-0.1,2.4,0.4,3.4c0.8,2.1,2.6,3.6,3.8,4.5
				C521.1,60.2,521.9,60.6,521.9,60.6z"/>
		</g>
	</g>
</g>
<g id="XMLID_00000114793761802473792500000017711590749800776086_">
	<g id="XMLID_00000146473297979506810900000018334380464608194176_">
		
			<ellipse id="XMLID_00000025442150855241642390000017671591455907763387_" transform="matrix(0.5942 -0.8043 0.8043 0.5942 -3.7229 843.3642)" fill="#562211" cx="834" cy="425.4" rx="41.3" ry="29.2"/>
		<path id="XMLID_00000006702267152783053720000008094466665312783025_" fill="#87442D" d="M855.1,396.8c0,0.1-1.2,0.4-3,1.4
			c-1.8,0.9-4.3,2.6-6.5,5c-2.2,2.5-4.2,5.8-5.6,9.7c-0.7,1.9-1.2,4.1-1.7,6.2c-0.4,2.2-0.8,4.3-1,6.8c-0.4,2.4-0.6,4.7-1.4,7.3
			c-0.6,2.6-1.6,4.9-2.6,7.1c-1,2.2-2.4,4.2-3.8,6c-1.4,1.8-3,3.2-4.7,4.3c-1.6,1.1-3.2,2-4.7,2.5c-1.5,0.6-2.8,0.8-3.9,1
			c-2.2,0.3-3.4,0-3.4,0s1.2-0.3,3.1-1.2c0.9-0.5,2-1.1,3.1-1.9c1.1-0.8,2.3-1.9,3.4-3.1c1.1-1.2,2.1-2.7,3.1-4.3
			c0.9-1.7,1.7-3.5,2.5-5.4c0.7-2,1.3-4.1,1.7-6.2c0.5-2,0.7-4.5,1.1-6.9c0.3-2.2,0.7-5,1.3-7.3c0.6-2.5,1.5-4.8,2.6-7
			c2.1-4.4,5.2-8.1,8.5-10.3c3.2-2.3,6.4-3.1,8.6-3.4C853.9,396.6,855.1,396.9,855.1,396.8z"/>
		<g id="XMLID_00000157995220664003676250000009319296851604747156_" opacity="0.13">
			<path id="XMLID_00000039135063118303505630000003210084987313311887_" d="M866.7,404.3c-11.2,25.8-34.4,44.4-61.6,50.1
				c1.2,1.6,2.6,3,4.2,4.2c13,9.6,34.5,2.5,48.1-15.9C866.8,430.1,869.9,415.4,866.7,404.3z"/>
		</g>
	</g>
	<g id="XMLID_00000022551833693993244000000005432171428580592058_">
		<path id="XMLID_00000127023282680171461830000017960776172394237630_" fill="#6B2F15" d="M815.1,407.2c-2,22.7-16.6,40-32.7,38.6
			c-16.1-1.4-27.5-21-25.5-43.7c2-22.7,16.6-40,32.7-38.6C805.7,364.9,817.1,384.5,815.1,407.2z"/>
		<path id="XMLID_00000034807002930087302640000005969373550825927553_" fill="#87442D" d="M789.1,369.3c0.1,0-0.8,1-1.9,2.7
			c-1.1,1.8-2.3,4.4-3,7.7c-0.6,3.3-0.6,7.1,0.3,11.2c0.4,2,1.1,4.1,1.8,6.2c0.8,2.1,1.6,4,2.7,6.4c0.9,2.3,1.9,4.3,2.6,6.9
			c0.9,2.5,1.2,5,1.5,7.4c0.3,2.4,0.2,4.8-0.1,7.1c-0.3,2.3-0.9,4.3-1.7,6.1c-0.8,1.8-1.7,3.4-2.7,4.6c-0.9,1.3-2,2.2-2.8,2.9
			c-1.7,1.4-2.9,1.8-2.9,1.8s0.9-0.9,2-2.7c0.5-0.9,1.1-2,1.6-3.3c0.5-1.3,1-2.8,1.3-4.4c0.3-1.6,0.4-3.4,0.4-5.3
			c-0.1-1.9-0.3-3.9-0.7-5.9c-0.4-2-1.1-4.1-1.8-6.1c-0.6-2-1.7-4.3-2.7-6.4c-0.9-2-2-4.6-2.7-7c-0.8-2.4-1.2-4.9-1.5-7.3
			c-0.5-4.9,0.2-9.6,1.8-13.2c1.6-3.6,3.9-6,5.6-7.4C788,369.8,789.2,369.3,789.1,369.3z"/>
		<g id="XMLID_00000080902726473483527720000010584402340028355248_" opacity="0.13">
			<path id="XMLID_00000045596608537379834750000010874578790854910615_" d="M803,369.7c3.9,27.9-6.1,55.8-26.4,74.8
				c1.9,0.7,3.8,1.2,5.8,1.4c16.1,1.4,30.7-15.9,32.7-38.6C816.5,391.6,811.5,377.4,803,369.7z"/>
		</g>
	</g>
</g>
</svg>
