<?xml version="1.0" encoding="utf-8"?>
<!-- Generator: Adobe Illustrator 26.0.1, SVG Export Plug-In . SVG Version: 6.00 Build 0)  -->
<svg version="1.0" id="Ebene_1" xmlns="http://www.w3.org/2000/svg" xmlns:xlink="http://www.w3.org/1999/xlink" x="0px" y="0px"
	 viewBox="0 0 1500 1100" enable-background="new 0 0 1500 1100" xml:space="preserve">
<g>
	<g>
		<path fill="#FFFFFF" stroke="#000000" stroke-width="2.5" stroke-miterlimit="10" d="M834.9,480.2c-4.7-0.4-8.4-4.1-8.7-8.8
			c-0.3-5.2-0.4-9.9-0.4-9.9c0-8.1-6.6-14.7-14.7-14.7c-8.1,0-14.7,6.6-14.7,14.7c0,0-0.2,4.8-0.5,9.9c-0.3,4.8-4.2,8.6-9,8.8
			c-3.6,0.1-7.3,2.4-10.9,2.5c42.1,58.7,68.2,6.2,71.5-0.8C843.5,481.1,839.3,480.5,834.9,480.2z"/>
		<path fill="#FFFFFF" stroke="#000000" stroke-width="2.5" stroke-miterlimit="10" d="M838.1,440.2c0-2.4-0.9-4.5-2.1-5.3
			c-0.6-18.3-10.1-30.9-24.6-30.9c-13.9,0-22.6,13.5-23.8,30.8c-1.3,0.8-2.2,2.9-2.2,5.4c0,2.7,1,4.9,2.4,5.5
			c1.9,16,10.4,28.1,23.5,28.1c12.6,0,21.4-12.6,23.9-28C836.9,445.4,838.1,443,838.1,440.2z"/>
		<path d="M830.8,405.8c-8.4-5.1-33.1-4.8-40.9,1.5c-8.6,7-2.3,20.7-2.6,30.7c-0.2,5.7,3.9,5.1,4.2,0c0.2-3.8,0.1-17.7,2.2-18.7
			c1-0.5,15.4,6.2,31.9-2.4c3.9-2,7.2,22,7.2,23.6c0,4.6,4.2,2.2,3.6-2.1C835,428.6,840.3,411.6,830.8,405.8z"/>
		<g>
			<path d="M810.1,448c-0.4-0.6-1-1.1-2-1.2c-0.4-0.1-0.8-0.1-1.2,0c-1.2,0.2-2.3,0.8-3.3,1.3c-1,0.5-1.9,1-2.9,1.5
				c-0.9,0.4-1.6,1-2.6,1.3c-1.9,0.6-4.1,0.1-6.1-0.1c0,0,5.1,4.6,11.2,4c2-0.2,4-0.6,5.6-1.6c1-0.6,1.6-1.4,1.8-2.4
				C810.7,449.9,810.6,448.8,810.1,448z"/>
			<path d="M810.3,448c0.4-0.6,1-1.1,2-1.2c0.4-0.1,0.8-0.1,1.2,0c1.2,0.2,2.3,0.8,3.3,1.3c1,0.5,1.9,1,2.9,1.5
				c0.9,0.4,1.6,1,2.6,1.3c1.9,0.6,4.1,0.1,6.1-0.1c0,0-5.1,4.6-11.2,4c-2-0.2-4-0.6-5.6-1.6c-1-0.6-1.6-1.4-1.8-2.4
				C809.7,449.9,809.8,448.8,810.3,448z"/>
		</g>
	</g>
	<g>
		<path fill="#FFFFFF" stroke="#000000" stroke-width="2.5" stroke-miterlimit="10" d="M649.6,625.9c5.9-42.3,29-80.8,59-112.2
			c3.6-3.7,7.3-7.2,11.1-10.7c0.1-0.1,0.1-0.1,0.1-0.1c3.1-2.8,6.8-5.4,10.7-7.4c23.1-11.6,50.3-1.5,61.9,21.6
			c11.6,23.1,3,50.2-20,61.8c0,0-0.9,0.3-1.2,0.3c-22.9,9.1-43.4,31.6-57,51.5c-22.7,33.2-35.4,44.8-40.1,85.9
			c-0.1,0.7-18.9,1.5-17.9-1.5C657.4,711.3,645,658.7,649.6,625.9z"/>
		<g>
			<path fill="#FFC184" d="M673.7,709.6l-0.2,6c0,0,8.8,12.4,10.1,19.6c0.3,1.7-1.7,2.8-3,1.7c-2.2-1.9-3.3-4.7-4.6-7.1
				c-0.2-0.4-0.5-0.8-0.9-0.9c-3.1-0.6-3.3,9.1-3.4,10.7c-0.1,2.8-0.3,5.6-0.4,8.5c-0.1,1.3,0.1,2.8-0.4,3.9
				c-0.6,1.4-2.5,2.1-3.2,0.3c-0.5-1.2-0.1-3-0.1-4.2c0-1.6,0-3.1-0.1-4.7c-0.1-1.6,0.4-4.5-0.5-5.9c-0.2-0.3-0.6-0.5-0.8-0.3
				c-0.1,0.1-0.1,0.3-0.1,0.5c0,3.3-0.1,6.5-0.5,9.7c-0.3,2.6,0.4,6.6-2.3,8.1c-3.1,1.7-2.7-5.3-2.5-6.9c0.3-3,0.2-6.3,0.9-9.2
				c0.1-0.5,0.2-1.1,0-1.5c-1-1.7-1.6,1.9-1.6,2.6c-0.3,3-0.5,5.9-0.8,8.9c-0.1,0.9-0.2,1.9-0.7,2.7c-0.5,0.8-1.6,1.3-2.4,0.9
				c-0.6-0.3-0.9-0.9-1-1.5c-0.2-1.2,0.2-2.3,0.3-3.5c0.2-1.9,0.4-3.8,0.6-5.7c0.2-2.2,0.4-4.3,0.6-6.5c0-0.2,0-0.3-0.1-0.5
				c-0.2-0.3-0.6-0.2-0.9,0c-0.2,0.2-0.3,0.6-0.3,0.9c-0.3,3.3-0.7,6.6-1.2,9.9c-0.1,0.5-0.1,1-0.4,1.4c-0.7,1.4-2.5,0.9-3.1-0.3
				c-1.1-2.1-0.2-5.8,0.1-8.1c0.4-3,1-5.9,1.6-8.8c1.1-5.2,2.6-10.3,3.8-15.5c0.8-3.4,0.9-6.7,1.1-10.1l16.4,1.6L673.7,709.6z"/>
		</g>
	</g>
	<path stroke="#000000" stroke-width="2.5" stroke-miterlimit="10" d="M873.6,490.6c0,0-1.6-7.1-6.7-7.7c-5.4-0.6-10.7-1.5-16.1-2.1
		c-4.9-0.5-9.9-0.8-14.9-0.6c-1.7,8.6-27.2,32.2-50.8,0c-3.1,0-6.7,0.4-10.8,1.1c-5,0.9-10.6,2.2-16.1,3.7
		c-15.6,4.4-30.9,10.6-32.7,13.4c0,0,0,0,0,0c-2,1.4-3.9,2.8-5.6,4.4c0,0,0,0-0.1,0.1c-3.8,3.5-7.5,7-11.1,10.7
		c-12.9,13.4-24.4,28.2-33.9,43.9c14.8,8.7,45.2,31.6,41,71.1c2.5-3.6,5.3-7.2,8.2-10.9l-11.3,128.6c57,18,132.4,25,183.6,5.9
		l0.2-178.5L873.6,490.6z"/>
	<path fill="#FFFFFF" stroke="#000000" stroke-width="2.5" stroke-miterlimit="10" d="M866.9,539v-56.1c-5.4-0.7-10.7-1.5-16.1-2.1
		V538h-76.5v-56.7l-16.1,3.7v53h0l-47,149.6v138l184.9-1.8l10.3-141.2L866.9,539z"/>
</g>
<g>
	<g>
		
			<rect x="1129.8" y="324" fill="#FFFFFF" stroke="#000000" stroke-width="2.5" stroke-miterlimit="10" width="18.7" height="652.4"/>
		<rect x="474" y="324" fill="#FFFFFF" stroke="#000000" stroke-width="2.5" stroke-miterlimit="10" width="18.7" height="652.4"/>
	</g>
</g>
<polyline fill="#FFFFFF" stroke="#000000" stroke-width="2.5" stroke-miterlimit="10" points="453.3,881.7 453.3,666.5 
	1172.3,666.5 1172.3,881.7 "/>
<g>
	<path fill="#FFFFFF" stroke="#000000" stroke-width="1.2923" stroke-miterlimit="10" d="M548.2,989.6"/>
	<path fill="#FFFFFF" stroke="#000000" stroke-width="1.2923" stroke-miterlimit="10" d="M548.2,667.8"/>
</g>
<g>
	<path fill="#FFFFFF" stroke="#000000" stroke-width="2.5" stroke-miterlimit="10" d="M424.3,291v39c0,23.4,19.1,42.5,42.5,42.5l0,0
		c23.4,0,42.5-19.1,42.5-42.5v-39l54.2-67.4h-69.7L424.3,291z"/>
	<path fill="#FFFFFF" stroke="#000000" stroke-width="2.5" stroke-miterlimit="10" d="M594.4,291v39c0,23.4,19.1,42.5,42.5,42.5
		s42.5-19.1,42.5-42.5v-39l23.3-67.4H633L594.4,291z"/>
	<path fill="#FFFFFF" stroke="#000000" stroke-width="2.5" stroke-miterlimit="10" d="M771.6,223.7l-7.1,67.4v39
		c0,23.4,19.1,42.5,42.5,42.5c23.4,0,42.5-19.1,42.5-42.5v-39l-8.4-67.4H771.6z"/>
	<path fill="#FFFFFF" stroke="#000000" stroke-width="2.5" stroke-miterlimit="10" d="M910.9,223.7l23.7,67.4v39
		c0,23.4,19.1,42.5,42.5,42.5l0,0c23.4,0,42.5-19.1,42.5-42.5v-39l-39.2-67.4H910.9z"/>
	<path fill="#FFFFFF" stroke="#000000" stroke-width="2.5" stroke-miterlimit="10" d="M1120,223.7h-69.7l54.6,67.4v39
		c0,23.4,19.1,42.5,42.5,42.5l0,0c23.4,0,42.5-19.1,42.5-42.5v-39L1120,223.7z"/>
	<path stroke="#000000" stroke-width="2.5" stroke-miterlimit="10" d="M339.2,291v39c0,23.4,19.1,42.5,42.5,42.5
		s42.5-19.1,42.5-42.5v-39l69.7-67.4h-69.7L339.2,291z"/>
	<path stroke="#000000" stroke-width="2.5" stroke-miterlimit="10" d="M509.3,291v39c0,23.4,19.1,42.5,42.5,42.5l0,0
		c23.4,0,42.5-19.1,42.5-42.5v-39l38.8-67.4h-69.7L509.3,291z"/>
	<path stroke="#000000" stroke-width="2.5" stroke-miterlimit="10" d="M679.5,291v39c0,23.4,19.1,42.5,42.5,42.5l0,0
		c23.4,0,42.5-19.1,42.5-42.5v-39l7.9-67.4h-69.7L679.5,291z"/>
	<path stroke="#000000" stroke-width="2.5" stroke-miterlimit="10" d="M841.4,223.7l8.2,67.4v39c0,23.4,19.1,42.5,42.5,42.5l0,0
		c23.4,0,42.5-19.1,42.5-42.5v-39l-23.7-67.4H841.4z"/>
	<path stroke="#000000" stroke-width="2.5" stroke-miterlimit="10" d="M980.6,223.7l39.1,67.4v39c0,23.4,19.1,42.5,42.5,42.5
		c23.4,0,42.5-19.1,42.5-42.5v-39l-54.6-67.4H980.6z"/>
	<path stroke="#000000" stroke-width="2.5" stroke-miterlimit="10" d="M1189.6,223.7H1120L1190,291v39c0,23.4,19.1,42.5,42.5,42.5
		l0,0c23.4,0,42.5-19.1,42.5-42.5v-39L1189.6,223.7z"/>
</g>
<line fill="#FFFFFF" stroke="#000000" stroke-width="2.5" stroke-miterlimit="10" x1="339.2" y1="291" x2="1275.4" y2="291"/>
<rect x="424.3" y="198.2" fill="#FFFFFF" stroke="#000000" stroke-width="2.5" stroke-miterlimit="10" width="765.6" height="25.5"/>
<g>
	<g>
		<path d="M819.4,791.7c0,0-23.4,78.2-124.8,79.5C584.7,872.6,528.5,751,550.8,661.7c11.3-45.2,33.8-52.9,33.8-52.9L819.4,791.7z"/>
		<path fill="#FFFFFF" d="M692.7,872.5c-54.4,0-89-29.2-108.5-53.8c-34.1-43.1-47.8-104.9-34.7-157.3c11.3-45.4,33.7-53.5,34.6-53.8
			c0.4-0.1,0.9-0.1,1.2,0.2l234.8,182.9c0.4,0.3,0.6,0.9,0.4,1.4c-0.2,0.8-6.2,20.1-24.7,39.8c-17.1,18.2-48.5,40-101.3,40.6
			C694,872.5,693.3,872.5,692.7,872.5z M584.4,610.3c-3.6,1.7-22.4,12-32.4,51.7c-12.9,51.7,0.5,112.6,34.2,155.1
			c19.4,24.5,53.9,53.5,108.4,52.8c51.8-0.7,82.6-22,99.4-39.7c16-17,22.6-34.1,23.9-38L584.4,610.3z"/>
	</g>
	<g>
		<path fill="#FFFFFF" d="M802.1,814.3c0,0-69.6,68.4-166.9-34c-97.3-102.4-70.6-176.5-38.6-174.4c32,2.1,84.9,53.4,155,85.8
			C821.6,724,841.2,778.8,802.1,814.3z"/>
		<path d="M741.6,837.9c-0.6,0-1.1,0-1.7,0c-34.9-0.6-70.5-19.7-105.7-56.8c-67.9-71.4-76.3-130.1-62.9-158.7
			c5.6-11.9,15-18.5,25.3-17.9c17.6,1.2,40.7,16.4,70,35.8c24.9,16.5,53.2,35.2,85.5,50.1c40.5,18.7,66.2,45.7,70.5,74.2
			c2.9,18.8-3.9,36.4-19.7,50.6C802.1,816,778.9,837.9,741.6,837.9z M595.2,607.1c-8.7,0-16.7,6.1-21.6,16.4
			c-13,27.8-4.5,85.3,62.4,155.8c34.7,36.5,69.6,55.4,103.8,56c0.6,0,1.1,0,1.7,0c36.7,0,59.3-21.8,59.6-22c0,0,0,0,0,0
			c15.1-13.7,21.6-30.4,18.9-48.4c-4.2-27.6-29.4-53.9-69.1-72.2c-32.4-15-60.8-33.7-85.8-50.3c-28.9-19.1-51.8-34.3-68.7-35.4
			C596,607.1,595.6,607.1,595.2,607.1z"/>
	</g>
	<path d="M751.5,768.8c0,0-19.1,24.8-69.2-14.4c-50.1-39.1-23-77.4,20.7-62.1C746.7,707.6,763.7,746.8,751.5,768.8z"/>
	<path fill="#FFFFFF" d="M743.4,740.8c-0.5,0-1-0.3-1.2-0.8c-6.3-16.5-22.2-30.5-42.6-37.7c-5.4-1.9-10.5-2.8-15.3-2.8
		c-0.7,0-1.3-0.6-1.3-1.3c0-0.7,0.6-1.3,1.3-1.3c5.1,0,10.5,1,16.2,3c21.1,7.4,37.7,22,44.2,39.2c0.3,0.7-0.1,1.4-0.7,1.7
		C743.7,740.8,743.5,740.8,743.4,740.8z"/>
</g>
<g>
	<g id="XMLID_00000168101742522804563570000011096947644351226799_">
		<g id="XMLID_00000111174776687370792650000011717233823594730153_">
			
				<path id="XMLID_00000074439524805648875980000016857668022814126492_" fill="#FFFFFF" stroke="#000000" stroke-width="2.676" stroke-miterlimit="10" d="
				M1254,815l-10.6-12.9c-0.8-1-0.7-2.5,0.3-3.4c10.8-9.4,67-61.6,68.8-120.6c0.4-13-4.8-18.3-8.7-21.3
				c-22.6-16.8-81.5-3.1-105.2,4.5c-1.3,0.4-2.6-0.3-3-1.5l-5.3-15.8c-0.4-1.3,0.3-2.7,1.5-3.1c16.2-5.2,90.4-26.9,124.8-1.4
				c8.3,6.2,18,17.9,17.4,39.1c-2,69.2-64.5,126.2-76.5,136.6C1256.4,816.2,1254.8,816.1,1254,815z"/>
		</g>
		<g id="XMLID_00000090293298895591462800000009675734070801582774_">
			
				<path id="XMLID_00000119111415902420327320000004039808791245694101_" fill="#FFFFFF" stroke="#000000" stroke-width="2.676" stroke-miterlimit="10" d="
				M1260.6,770.3c-60-41.5-51-129.9-36.9-174.7c0.4-1.4-0.4-2.8-1.8-3.1L1111.5,570c-1.6-0.3-3.1,1-2.9,2.7
				c5.8,51.3-25.8,123.1-106,145.1c-56.4,15.4-130.6,105.3-16.8,284.9c6.3,10,16.4,17.1,28,19.5l58.8,12l75.4,15.3
				c0.6,0.1,1.3,0,1.8-0.3C1341.5,924.5,1310,804.4,1260.6,770.3z"/>
		</g>
		<g id="XMLID_00000017484850740021070400000015898873275678046119_">
			<g id="XMLID_00000172413359719240750520000007719983656969136060_">
				<path id="XMLID_00000127764775184236042050000000435521939808707504_" d="M1273,802.4c-101.3,27.9-210.5,5.8-293-59.2
					c-0.9-0.7-2.1-0.7-3,0c-12.3,9.7-24,23.8-31.4,43.1c-14.6,37.6-17.8,104.7,49.4,210.6c4.8,7.6,12.5,13,21.1,14.7l117.5,23.9
					c8.6,1.7,17.7-0.2,25.2-5.3c112-77.4,128.8-146,128.8-179.9c0-18.9-4.8-34.5-11.7-46.8C1275.2,802.5,1274.1,802.1,1273,802.4z"
					/>
			</g>
		</g>
		<g id="XMLID_00000047741426257073890170000000621230420779394961_">
			
				<path id="XMLID_00000167387030677399252840000009484987768767065255_" fill="#FFFFFF" stroke="#000000" stroke-width="2.676" stroke-miterlimit="10" d="
				M1235.7,604.9l-136.3-27.7c-0.5-0.1-0.9-0.6-0.8-1.2l3.4-16.5c0.1-0.5,0.6-0.9,1.2-0.8l136.3,27.7c0.5,0.1,0.9,0.6,0.8,1.2
				l-3.4,16.5C1236.7,604.7,1236.2,605,1235.7,604.9z"/>
		</g>
		<g id="XMLID_00000087375060581666047080000009046681766208332195_">
			
				<path id="XMLID_00000096752539869450302570000016819537984677053087_" fill="none" stroke="#FFFFFF" stroke-width="2.676" stroke-miterlimit="10" d="
				M1223.2,828.6c4,5,8.1,11.3,11.6,18.5c3.6,7.2,6.4,15.4,8.4,23.9c0.9,4.2,1.4,8.6,1.9,12.8c0,0.1,0,0.1,0,0.2
				c0.1,4.4,0.3,8.6,0,12.7c-0.6,4.2-0.8,8.2-1.9,11.9c-1.1,3.7-2.1,7.2-3.5,10.3c-1.5,3.1-3,5.7-4.4,8"/>
		</g>
	</g>
	<g id="XMLID_00000154404405197955072980000013072878703994241983_">
		<g id="XMLID_00000155114743526099895100000016280286505057848249_">
			
				<path id="XMLID_00000157285630045181747800000006655053079610747286_" fill="#FFFFFF" stroke="#000000" stroke-width="2.676" stroke-miterlimit="10" d="
				M964.7,1000.9c-0.1,1.5,1.1,2.8,2.6,2.7c21.7-2,163.2-18.7,183.3-124.7c-5.9,31.1-85.2,43.6-109.4,54.7
				C1016.7,944.9,968,966.7,964.7,1000.9z"/>
		</g>
	</g>
	<g id="XMLID_00000038373174019905183320000003920583694309331129_">
		
			<path id="XMLID_00000167354381107974675930000016033560031284690077_" fill="none" stroke="#FFFFFF" stroke-width="2.676" stroke-miterlimit="10" d="
			M983.3,757.6c-6.1,5.7-12,11.9-16.6,18.9c-4.7,6.8-7.9,14.2-9.4,21.8c0,0.1,0,0.1,0,0.2l-0.4,2.8c0,0.2-0.2,1.5-0.2,0.9l-0.1,1.9
			l-0.3,3.8c0,0.1,0,0.1,0,0.2l0,2.9c0.1,4,0.3,9,0.8,13.6c2,19,6.6,38.9,10.9,57.5"/>
	</g>
	
		<path id="XMLID_00000069396633149078317090000009927878796608461203_" fill="none" stroke="#000000" stroke-width="2.676" stroke-miterlimit="10" d="
		M1122,921.9c-61.9,58.8-116.9,64.9-156.5,74.4"/>
	<g id="XMLID_00000114052586357466397190000016609000074344157061_">
		<g id="XMLID_00000152260717288274487560000004411663180286252186_">
			
				<path id="XMLID_00000166642997392210579560000005732334084127525761_" fill="#FFFFFF" stroke="#000000" stroke-width="2.676" stroke-miterlimit="10" d="
				M956.7,1002.1c-0.7,1.3-0.1,3,1.3,3.5c20.7,6.8,157.3,47.4,217.7-41.9c-17.7,26.2-95.5,6.3-122.1,6.9
				C1026.6,971.3,973.2,972,956.7,1002.1z"/>
		</g>
	</g>
	
		<path id="XMLID_00000175290191301287547830000015371849648622447013_" fill="none" stroke="#000000" stroke-width="2.676" stroke-miterlimit="10" d="
		M1132.4,991.8c-80.2,29.5-133,13.3-173.2,6.4"/>
	<g id="XMLID_00000139980007350519867370000018063451105930041999_">
		<g id="XMLID_00000142170274451588942310000016628374120048457638_">
			
				<ellipse id="XMLID_00000119823541231679212000000018148109460838608048_" transform="matrix(0.508 -0.8614 0.8614 0.508 -365.6492 1287.2499)" fill="#FFFFFF" stroke="#000000" stroke-width="2.676" stroke-miterlimit="10" cx="944" cy="963.7" rx="43.1" ry="59.8"/>
		</g>
		<g id="XMLID_00000106137856288273403640000008702500087909970090_">
			
				<path id="XMLID_00000005968412081796519330000001065353673462019229_" stroke="#000000" stroke-width="2.676" stroke-miterlimit="10" d="
				M904.9,943.7c-1.9,3.2-5.2,4.9-7.4,3.6c-2.1-1.3-2.3-4.9-0.4-8.2c1.9-3.2,5.2-4.9,7.4-3.6C906.7,936.8,906.8,940.4,904.9,943.7z"
				/>
		</g>
	</g>
	<g id="XMLID_00000169537205625392316080000011990031211359258814_">
		<g id="XMLID_00000126304048985856584300000013707327103681019527_">
			
				<ellipse id="XMLID_00000107555080058458445480000013792914489836477849_" transform="matrix(0.1994 -0.9799 0.9799 0.1994 -205.6849 1781.1671)" fill="#FFFFFF" stroke="#000000" stroke-width="2.676" stroke-miterlimit="10" cx="987.2" cy="1016.5" rx="43.1" ry="59.8"/>
		</g>
		<g id="XMLID_00000091706261443695080790000003383215185467180976_">
			
				<path id="XMLID_00000124841442780475065460000013287170983921578402_" stroke="#000000" stroke-width="2.676" stroke-miterlimit="10" d="
				M943.7,1010.3c-0.8,3.7-3.3,6.3-5.8,5.8c-2.4-0.5-3.8-3.9-3.1-7.6s3.3-6.3,5.8-5.8C943.1,1003.2,944.5,1006.6,943.7,1010.3z"/>
		</g>
		<g id="XMLID_00000071546229291984501180000007510391952485867442_">
			<g id="XMLID_00000106128170113320898850000007639398776856089529_">
				
					<path id="XMLID_00000176011949322449550910000014013749089610210964_" fill="#FFFFFF" stroke="#000000" stroke-width="2.676" stroke-miterlimit="10" d="
					M909.5,929.6c7.2-2.8,17.5-5,27.9-4c2.6,0.1,5.2,0.6,7.7,1.1c2.6,0.3,4.9,1.3,7.3,2c2.4,0.6,4.4,1.8,6.5,2.7c2,0.9,3.8,2,5.5,3
					c3.4,1.9,5.7,4.2,7.4,5.6"/>
			</g>
		</g>
		<g id="XMLID_00000077288330881032504180000015574188411795104647_">
			<g id="XMLID_00000081646137536620642680000004142571730740998581_">
				
					<path id="XMLID_00000083076628098897401150000008874727817658013060_" fill="#FFFFFF" stroke="#000000" stroke-width="2.676" stroke-miterlimit="10" d="
					M956.9,984.3c7.2-2.8,17.5-5,27.9-4c2.6,0.1,5.2,0.6,7.7,1.1c2.6,0.3,4.9,1.3,7.3,2c2.4,0.6,4.4,1.8,6.5,2.7c2,0.9,3.8,2,5.5,3
					c3.4,1.9,5.7,4.2,7.4,5.6"/>
			</g>
		</g>
	</g>
</g>
<g>
	<g>
		<path d="M616.9,151.4c-24.6,4.3-38.9-5.2-41.4-19.5c-2.5-14.4,7.7-28.2,32.2-32.5c24.6-4.3,54.2,2.5,56.8,16.8
			C667,130.5,641.5,147,616.9,151.4z"/>
		<path fill="#FFFFFF" d="M583.8,131.1c-0.1-0.1-0.2-0.2-0.2-0.3c-0.3-0.6,0-1.4,0.6-1.7c30.1-14.2,67.8-12.1,68.1-12
			c0.7,0,1.2,0.6,1.2,1.3c0,0.7-0.6,1.2-1.3,1.2c-0.4,0-37.4-2.1-66.9,11.8C584.7,131.5,584.2,131.4,583.8,131.1z"/>
	</g>
	<g>
		<path d="M652.1,190.7c-19.2,16-36.3,14.8-45.7,3.6c-9.3-11.2-7.3-28.3,11.9-44.2c19.2-16,48.3-24.8,57.6-13.5
			C685.3,147.7,671.3,174.7,652.1,190.7z"/>
		<path fill="#FFFFFF" d="M612.7,189.1c-0.4-0.4-0.5-1.1-0.1-1.6c19.1-27.3,52.9-44.1,53.2-44.2c0.6-0.3,1.4,0,1.7,0.6
			c0.3,0.6,0,1.4-0.6,1.7c-0.3,0.2-33.5,16.7-52.3,43.4c-0.4,0.6-1.2,0.7-1.7,0.3C612.8,189.2,612.8,189.2,612.7,189.1z"/>
	</g>
	<g>
		<g>
			<g>
				<path fill="#FFFFFF" d="M597.2,19.4c0,0,53.9-54.1,178.7,24.2s150.2,129.2,237.6,101.8l7.8,15c0,0-113.7,143.9-259.8,66.9
					C615.4,150.3,597.2,19.4,597.2,19.4z"/>
				<path d="M676,165.9c-24.7-25-41.4-50.2-52.6-70.8C600.8,53,596,19.9,596,19.6c-0.1-0.4,0.1-0.8,0.4-1
					c0.6-0.6,14.1-13.9,43.3-17.6c26.7-3.4,72.2,1,136.9,41.7c33,20.7,58.6,39.2,81.2,55.5c61,44.1,91.7,66.2,155.4,46.2
					c0.6-0.2,1.2,0.1,1.5,0.6l7.8,15c0.2,0.4,0.2,1-0.1,1.3c-0.3,0.4-29.1,36.5-75.5,62.7c-27.3,15.4-55.2,24.4-83,26.8
					c-34.8,3-69.4-4.5-102.9-22.2C725.5,209.8,697.7,187.9,676,165.9z M598.5,19.9c0.8,4.7,6.4,35.6,27.2,74.1
					c20.7,38.5,61.2,92.6,136.4,132.3c75,39.5,141.1,19.4,183.5-4.5c42.6-24,70.3-56.6,74.3-61.4l-7-13.4
					c-64.2,19.8-95.2-2.5-156.6-46.8c-22.5-16.3-48.1-34.7-81-55.4C711.1,4.4,666.2,0,639.9,3.4C614.5,6.7,601.1,17.6,598.5,19.9z"
					/>
			</g>
			<path d="M676,166c-15.7-15.9-29.6-33.4-41.5-52.2c-0.3-0.5-0.2-1.2,0.2-1.6c0.4-0.4,1.1-0.4,1.6-0.1c29.9,22,59.9,14.6,89.3-22
				c11.5-14.3,20.8-20.5,29.3-19.4c13.1,1.6,21.6,20.4,32.4,44.1c17.5,38.5,39.3,86.5,92.1,89.7c53.9,3.3,104.5-26.7,137.4-52.4
				c0.3-0.2,0.7-0.3,1-0.2c0.4,0.1,0.7,0.3,0.8,0.6l3.9,7.4c0.2,0.4,0.2,1-0.1,1.3c-0.3,0.4-29.1,36.5-75.5,62.7
				c-27.3,15.4-55.2,24.4-83,26.8c-34.8,3-69.4-4.5-102.9-22.2C728.5,211.4,700.1,190.5,676,166z M639.9,117.6
				c29.8,45.1,70.9,81.6,122.2,108.7c75,39.5,141.2,19.4,183.5-4.5c42.6-24.1,70.2-56.5,74.3-61.4l-2.8-5.4
				c-33.3,25.8-83.9,55.4-137.9,52c-54.3-3.3-77.4-54.1-94.2-91.2c-10.1-22.1-18.7-41.2-30.5-42.7c-7.4-0.9-16.3,5.1-27,18.5
				c-16.5,20.6-33.6,32.3-50.8,34.7C664.3,128.2,652,125.2,639.9,117.6z"/>
			<path d="M676,165.9c-24.7-25-41.4-50.2-52.6-70.8C600.8,53,596,19.9,596,19.6c-0.1-0.4,0.1-0.8,0.4-1
				c0.6-0.6,14.1-13.9,43.3-17.6c26.7-3.4,72.2,1,136.9,41.7c33,20.7,58.6,39.2,81.2,55.5c61,44.1,91.7,66.2,155.4,46.2
				c0.6-0.2,1.2,0.1,1.5,0.6l7.8,15c0.2,0.4,0.2,1-0.1,1.3c-0.3,0.4-29.1,36.5-75.5,62.7c-27.3,15.4-55.2,24.4-83,26.8
				c-34.8,3-69.4-4.5-102.9-22.2C725.5,209.8,697.7,187.9,676,165.9z M598.5,19.9c0.8,4.7,6.4,35.6,27.2,74.1
				c20.7,38.5,61.2,92.6,136.4,132.3c75,39.5,141.1,19.4,183.5-4.5c42.6-24,70.3-56.6,74.3-61.4l-7-13.4
				c-64.2,19.8-95.2-2.5-156.6-46.8c-22.5-16.3-48.1-34.7-81-55.4C711.1,4.4,666.2,0,639.9,3.4C614.5,6.7,601.1,17.6,598.5,19.9z"/>
			<path d="M652.3,118.3c-0.1-0.1-0.2-0.3-0.3-0.5c-0.2-0.6,0.1-1.4,0.8-1.6c30.8-10.9,49.9-31.7,56.6-61.7
				c5-22.4,0.9-41.9,0.8-42.1c-0.1-0.7,0.3-1.3,0.9-1.5c0.7-0.1,1.3,0.3,1.5,0.9c0,0.2,4.3,20.2-0.8,43.1
				c-4.7,21.3-18.7,49.5-58.2,63.5C653.1,118.7,652.6,118.6,652.3,118.3z"/>
		</g>
		<ellipse transform="matrix(0.7925 -0.6098 0.6098 0.7925 116.8542 418.8248)" cx="674" cy="37.7" rx="9.7" ry="9.7"/>
		<g>
			<path d="M1006.6,156.6c0,0-23.9-61.2,38.2-114c0,0,33.8,73.5-18.9,105.4c0,0,56.7-1.1,98,45.7
				C1123.9,193.6,1057.3,237.2,1006.6,156.6z"/>
			<path fill="#FFFFFF" d="M1025.2,166.2c-0.5-0.5-0.8-0.9-0.8-0.9c-0.5-0.5-0.4-1.3,0.1-1.8c0.5-0.5,1.3-0.4,1.8,0.1
				c0.3,0.3,30,33.2,81.8,25.8c0.7-0.1,1.3,0.4,1.4,1.1c0.1,0.7-0.4,1.3-1.1,1.4C1060.1,198.8,1030.4,171.5,1025.2,166.2z"/>
			<path fill="#FFFFFF" d="M1009.5,139.2c-0.2-0.2-0.4-0.5-0.4-0.8c-1-46.7,27.3-77,27.6-77.3c0.5-0.5,1.3-0.5,1.8,0
				c0.5,0.5,0.5,1.3,0,1.8c-0.3,0.3-27.9,30-26.9,75.6c0,0.7-0.5,1.3-1.2,1.3C1010,139.5,1009.7,139.4,1009.5,139.2z"/>
		</g>
		<g>
			<path d="M758.3,117.5c-4.1-3.1-9.7,1.1-8.1,6c4.1,12.1,6.3,32.7-4.1,64.4c-0.6,1.8-1.2,3.7-1.7,5.4c-11.1,36.3,9.6,74.6,46,85.5
				c0,0-25.7-24.9-8.8-65.2C797.6,175.2,781.6,135.1,758.3,117.5z"/>
			<path fill="#FFFFFF" d="M767.1,259.1c0,0-0.1-0.1-0.1-0.1c-13.1-17-24.7-46.7-6-91.8c0.3-0.7,0.6-1.5,0.7-1.8
				c0-0.1,0-0.2,0.1-0.3c0.2-0.7,0.9-1,1.5-0.8c0.3,0.1,0.6,0.4,0.8,0.7c0.3,0.6,0.2,0.9-0.8,3.2c-18.2,43.9-7,72.8,5.7,89.3
				c0.4,0.5,0.3,1.3-0.2,1.7C768.2,259.6,767.5,259.5,767.1,259.1z M762.6,166.6c-0.2-0.1-0.4-0.2-0.5-0.3
				C762.2,166.5,762.4,166.6,762.6,166.6z"/>
		</g>
	</g>
</g>
<g>
	<path d="M42.9,510.7c-0.2,0.2-0.5,0.3-0.8,0.3c-0.7,0-1.3-0.6-1.2-1.3c0-0.5,2.1-51.5,31-118.7c17-39.4,39.8-76.6,67.7-110.6
		c34.9-42.4,78-79.9,128.2-111.3c0.6-0.4,1.4-0.2,1.8,0.4c0.4,0.6,0.2,1.4-0.4,1.8C156.1,242,100.7,330.4,74.2,392
		c-28.7,66.7-30.8,117.3-30.8,117.8C43.3,510.1,43.1,510.5,42.9,510.7z"/>
	<path d="M73,450.4c-0.3,0.2-0.7,0.3-1.1,0.2c-0.7-0.2-1.1-0.9-0.9-1.6c18.8-66.4,60.1-159,149.6-223.4c0.6-0.4,1.4-0.3,1.8,0.3
		c0.4,0.6,0.3,1.4-0.3,1.8c-88.9,63.9-129.9,156-148.6,222C73.3,450,73.2,450.2,73,450.4z"/>
	<path d="M341.6,129.5c-0.4,0.3-0.9,0.6-1.4,0.8c-2.2,0.9-5.2,0-8.1-0.9c-2.5-0.8-5.1-1.6-6.4-0.9c-2.1,1-3.6,3.9-4.9,6.6
		c-1.4,2.8-2.9,5.7-5.3,7c-2.8,1.5-6.3,1.4-9.3,1.2c-2.4-0.1-4.7-0.2-6,0.6c-4.8,2.8-5,9.2-5,9.3c0,0.7-0.6,1.3-1.3,1.2
		c-0.7,0-1.3-0.6-1.2-1.3c0-0.3,0.3-7.9,6.3-11.4c1.9-1.1,4.6-1,7.4-0.9c2.9,0.1,5.9,0.2,8-0.9c1.7-0.9,2.9-3.3,4.2-5.9
		c1.6-3.1,3.2-6.4,6.1-7.8c2.3-1.1,5.3-0.1,8.3,0.8c2.4,0.7,4.9,1.5,6.3,0.9c1.8-0.7,3-3.3,4-5.5c0.8-1.7,1.5-3.2,2.5-4
		c0.5-0.5,1.4-0.4,1.8,0.1c0.5,0.5,0.4,1.4-0.1,1.8c-0.6,0.5-1.2,1.9-1.8,3.2C344.6,125.6,343.5,128.1,341.6,129.5z"/>
	<path d="M97.9,501.5c-6.3,4.9-15.4,3.7-20.2-2.6c-4.9-6.3-3.7-15.4,2.6-20.2c6.3-4.9,15.4-3.7,20.2,2.6c0.4,0.6,0.3,1.4-0.2,1.8
		c-0.6,0.4-1.4,0.3-1.8-0.2c-4-5.2-11.5-6.2-16.6-2.2c-5.2,4-6.2,11.5-2.2,16.6s11.5,6.2,16.6,2.2c0.6-0.4,1.4-0.3,1.8,0.2
		C98.6,500.3,98.5,501.1,97.9,501.5z"/>
</g>
<g>
	<path d="M1426,907.6c-0.4,0.3-1,0.4-1.4,0.1c-0.6-0.4-0.8-1.2-0.4-1.8c35-59,52.9-124.1,51.6-188.4c0-0.7,0.6-1.3,1.3-1.3
		c0.7,0,1.3,0.5,1.3,1.3c1.3,64.7-16.6,130.3-51.9,189.7C1426.2,907.3,1426.1,907.5,1426,907.6z"/>
	<path d="M1465.7,637.1c-0.1,0.1-0.3,0.2-0.4,0.2c-0.7,0.2-1.4-0.2-1.6-0.9c-19.3-68.8-60.6-129.3-119.4-174.8
		c-0.6-0.4-0.7-1.2-0.2-1.8c0.4-0.6,1.2-0.7,1.8-0.2c59.3,45.9,100.9,106.8,120.3,176.2C1466.3,636.3,1466.1,636.8,1465.7,637.1z"/>
	<path d="M1493.6,794.7c-0.3,0.2-0.6,0.3-1,0.2c-0.7-0.1-1.2-0.8-1-1.5c9.6-52.4,7.3-104.5-6.8-155
		c-18.8-67.3-58.3-127.5-114.1-174.1c-0.5-0.5-0.6-1.3-0.2-1.8c0.5-0.5,1.3-0.6,1.8-0.2c56.2,46.9,95.9,107.6,114.9,175.4
		c14.2,50.8,16.5,103.3,6.8,156.1C1494.1,794.2,1493.9,794.5,1493.6,794.7z"/>
	<path d="M1422.9,929.7c-2.2,1.7-5.1,2.4-8,1.7c-2.5-0.6-4.6-2.1-5.9-4.3c-1.3-2.2-1.8-4.7-1.2-7.2c0.6-2.5,2.1-4.6,4.3-5.9
		c2.2-1.3,4.7-1.8,7.2-1.2c2.5,0.6,4.6,2.1,5.9,4.3c1.3,2.2,1.8,4.7,1.2,7.2C1425.9,926.6,1424.6,928.4,1422.9,929.7z M1415.5,928.9
		c3.7,0.9,7.5-1.4,8.4-5.2c0.4-1.8,0.1-3.7-0.9-5.2c-1-1.6-2.5-2.7-4.3-3.1c-1.8-0.4-3.7-0.1-5.3,0.9c-1.6,1-2.7,2.5-3.1,4.3
		c-0.4,1.8-0.1,3.7,0.9,5.2C1412.2,927.4,1413.7,928.5,1415.5,928.9z"/>
	<path d="M1458.6,538.4c-0.3,0.2-0.6,0.3-0.9,0.3c-0.4,0-0.8-0.3-1-0.7l-7.6-14.5c-0.2-0.4-0.2-0.9,0.1-1.3c0.3-0.4,0.7-0.6,1.2-0.6
		l16.6,1.9c0.4,0,0.8,0.3,1,0.7c0.2,0.4,0.2,0.9-0.1,1.2c-4.2,6.5-9,12.7-9,12.8C1458.8,538.2,1458.7,538.3,1458.6,538.4z
		 M1452.5,524.4l5.6,10.6c1.5-1.9,4-5.4,6.5-9.2L1452.5,524.4z"/>
	<path d="M1453.9,505.8c-0.1,0.1-0.3,0.2-0.4,0.2c-0.3,0.1-7.6,2.3-12.8-2.3c-1.7-1.4-2.4-4-3.3-6.7c-0.8-2.8-1.7-5.6-3.5-7.3
		c-1.4-1.3-4.1-1.7-7-2.1c-3.5-0.5-7.1-1-9.3-3.3c-1.8-1.8-1.9-5-2-8.1c-0.1-2.5-0.2-5.2-1.1-6.3c-1.3-1.5-4.1-1.8-6.5-2
		c-1.9-0.2-3.5-0.4-4.6-1.1c-0.6-0.4-0.8-1.2-0.5-1.8c0.4-0.6,1.2-0.8,1.8-0.5c0.6,0.4,2.2,0.5,3.6,0.7c2.8,0.3,6.3,0.7,8.2,2.9
		c1.6,1.8,1.7,4.9,1.8,7.9c0.1,2.6,0.2,5.3,1.2,6.4c1.7,1.7,4.8,2.1,7.8,2.5c3.1,0.4,6.4,0.9,8.4,2.7c2.3,2.2,3.3,5.5,4.2,8.4
		c0.7,2.3,1.4,4.5,2.5,5.5c4.2,3.6,10.3,1.8,10.4,1.8c0.7-0.2,1.4,0.2,1.6,0.9C1454.5,504.9,1454.3,505.5,1453.9,505.8z"/>
</g>
<g>
	<path d="M326.3,522.3c0,0-15-30.6-54.5-54.4c-2.2-1.3-7.8,8.3-10.1,7c-3-1.6-5.4-15.9-8.6-17.4c-26.6-12.4-61-20-104.1-14.2
		c0,0,7,12.1,21.4,26.9c1.7,1.7,13.2-0.4,15.1,1.4c1.8,1.7-6.1,7.2-4.2,9C209.9,505.6,257.7,532.3,326.3,522.3z"/>
	<g>
		<g>
			<path fill="#FFFFFF" d="M367.2,537.1c0,0-3.8-91.8-98.9-145.1c-2.4-1.3-9.3,8.4-11.7,7.2c-2.5-1.3-6.1-18.6-8.7-19.8
				c-12.3-5.8-25.9-10.9-40.8-15C207,364.4,224,499.2,367.2,537.1z"/>
			<path d="M230.8,370.8c6,2.3,11.9,4.7,17.5,7.4c1.6,0.8,2.8,3.9,5.1,10.9c1.1,3.2,2.7,8.1,3.6,8.9c0.8-0.1,3.2-2.2,4.5-3.4
				c2.9-2.6,5.3-4.8,7.3-3.7c49.4,27.7,73.9,66,85.7,93.1c12.8,29.5,13.9,52.8,13.9,53c0,0.4-0.2,0.8-0.5,1.1
				c-0.3,0.3-0.7,0.3-1.1,0.2c-74.4-19.7-114.2-65.9-134.6-101.2c-22-38.2-26.5-72.3-26.6-72.6c-0.1-0.4,0.1-0.9,0.4-1.1
				c0.3-0.3,0.8-0.4,1.2-0.3C215.4,365.4,223.2,367.9,230.8,370.8z M256.1,400.5c-0.1,0-0.2-0.1-0.2-0.1c-1.5-0.8-2.7-3.8-4.9-10.5
				c-1.2-3.5-2.9-8.7-3.8-9.4c-12-5.6-25-10.5-38.6-14.4c1.3,7.7,7.2,37.2,26,69.8c19.9,34.6,58.8,79.7,131.2,99.4
				c-0.5-5.9-3-26-13.6-50.4c-11.6-26.8-35.7-64.4-84.5-91.8c-0.8,0.1-3,2.1-4.4,3.3C260.5,399,258.1,401.2,256.1,400.5z"/>
		</g>
		<path d="M309.4,475.8c0.2,0.1,0.3,0.2,0.4,0.3c11.1,10.7,23.6,23.2,37.2,37c0.5,0.5,0.5,1.3,0,1.8c-0.5,0.5-1.3,0.5-1.8,0
			c-13.6-13.8-26.1-26.3-37.1-37c-0.5-0.5-0.5-1.3,0-1.8C308.4,475.7,308.9,475.6,309.4,475.8z"/>
		<path d="M236.4,396.9c0.3,0.1,0.5,0.3,0.7,0.6c11.2,21.8,49.4,56.7,49.8,57c0.5,0.5,0.6,1.3,0.1,1.8c-0.5,0.5-1.3,0.6-1.8,0.1
			c-0.4-0.4-39-35.6-50.4-57.8c-0.3-0.6-0.1-1.4,0.6-1.7C235.7,396.7,236.1,396.7,236.4,396.9z"/>
	</g>
</g>
<g>
	<path d="M261.9,951.2c0,0-33.6,5.6-67.7,36.8c-1.9,1.7,5.7,9.8,3.9,11.7c-2.4,2.4-16.8,0.7-19.1,3.3c-19.5,22-36.5,52.8-43.3,95.7
		c0,0,13.6-3.3,31.9-12.9c2.1-1.1,3.4-12.8,5.6-14.1c2.1-1.2,5.2,8,7.4,6.6C212.7,1058,252,1019.8,261.9,951.2z"/>
	<g>
		<g>
			<path fill="#FFFFFF" d="M287.7,916.3c0,0-89.1-22.5-167.3,53.5c-1.9,1.9,5.5,11.3,3.5,13.3c-1.9,2-19.6,0.6-21.5,2.7
				c-9,10.2-17.8,21.7-26,34.8C76.6,1020.6,210.7,1042.7,287.7,916.3z"/>
			<path d="M89.5,999.6c3.9-5.1,7.9-10,12.1-14.7c1.2-1.3,4.5-1.6,11.9-1.8c3.4-0.1,8.5-0.3,9.6-0.9c0.2-0.8-1.2-3.7-2-5.3
				c-1.7-3.5-3.1-6.5-1.5-8.1c40.7-39.5,84.3-52,113.7-55.6c31.9-3.9,54.5,1.7,54.8,1.8c0.4,0.1,0.7,0.4,0.9,0.8
				c0.2,0.4,0.1,0.8-0.1,1.2c-40,65.7-95.7,90.7-135.3,100.2c-42.9,10.2-76.9,4.8-77.2,4.8c-0.4-0.1-0.8-0.3-1-0.7
				c-0.2-0.4-0.1-0.8,0.1-1.2C79.9,1012.8,84.6,1006,89.5,999.6z M125.1,983.8c-0.1,0.1-0.1,0.1-0.2,0.2c-1.2,1.2-4.4,1.5-11.4,1.7
				c-3.6,0.1-9.2,0.3-10.1,1c-8.8,9.9-17.2,21-24.8,32.9c7.7,1,37.7,3.7,74.3-5c38.8-9.3,93.2-33.7,132.6-97.4
				c-5.8-1.2-25.8-4.5-52.2-1.3c-29,3.5-72,15.9-112,54.8c-0.2,0.8,1.2,3.5,1.9,5.2C125,979.1,126.4,982.1,125.1,983.8z"/>
		</g>
		<path d="M212.5,954.2c0.1-0.1,0.2-0.3,0.4-0.3c13.4-7.5,28.9-16,46.1-25.1c0.6-0.3,1.4-0.1,1.7,0.5c0.3,0.6,0.1,1.4-0.5,1.7
			c-17.1,9.1-32.6,17.5-46,25c-0.6,0.3-1.4,0.1-1.8-0.5C212.1,955.1,212.2,954.6,212.5,954.2z"/>
		<path d="M116.1,1001.6c0.2-0.2,0.5-0.4,0.8-0.5c24.1-4.5,68.4-31.2,68.9-31.5c0.6-0.4,1.4-0.2,1.8,0.4c0.4,0.6,0.2,1.4-0.4,1.8
			c-0.4,0.3-45.2,27.2-69.7,31.8c-0.7,0.1-1.4-0.3-1.5-1C115.8,1002.2,115.9,1001.9,116.1,1001.6z"/>
	</g>
</g>
<g>
	<path d="M1338.6,361.1c0,0,30.6-15,54.4-54.5c1.3-2.2-8.3-7.8-7-10.1c1.6-3,15.9-5.4,17.4-8.6c12.4-26.6,20-61,14.2-104.1
		c0,0-12.1,7-26.9,21.4c-1.7,1.7,0.4,13.2-1.4,15.1c-1.7,1.8-7.2-6.1-9-4.2C1355.4,244.6,1328.6,292.4,1338.6,361.1z"/>
	<g>
		<g>
			<path fill="#FFFFFF" d="M1323.8,401.9c0,0,91.8-3.8,145.1-98.9c1.3-2.4-8.4-9.3-7.2-11.7c1.3-2.5,18.6-6.1,19.8-8.7
				c5.8-12.3,10.9-25.9,15-40.8C1496.5,241.7,1361.7,258.7,1323.8,401.9z"/>
			<path d="M1490.1,265.5c-2.3,6-4.7,11.9-7.4,17.5c-0.8,1.6-3.9,2.8-10.9,5.1c-3.2,1.1-8.1,2.7-8.9,3.6c0.1,0.8,2.2,3.2,3.4,4.5
				c2.6,2.9,4.8,5.3,3.7,7.3c-27.7,49.4-66,73.9-93.1,85.7c-29.5,12.8-52.8,13.9-53,13.9c-0.4,0-0.8-0.2-1.1-0.5
				c-0.3-0.3-0.3-0.7-0.2-1.1c19.7-74.4,65.9-114.2,101.2-134.6c38.2-22,72.3-26.5,72.6-26.6c0.4-0.1,0.9,0.1,1.1,0.4
				c0.3,0.3,0.4,0.8,0.3,1.2C1495.5,250.1,1493,257.9,1490.1,265.5z M1460.4,290.9c0-0.1,0.1-0.2,0.1-0.2c0.8-1.5,3.8-2.7,10.5-4.9
				c3.5-1.2,8.7-2.9,9.4-3.8c5.6-12,10.5-25,14.4-38.6c-7.7,1.3-37.2,7.2-69.8,26c-34.6,19.9-79.7,58.8-99.4,131.2
				c5.9-0.5,26-3,50.4-13.6c26.8-11.6,64.4-35.7,91.8-84.5c-0.1-0.8-2.1-3-3.3-4.4C1461.9,295.2,1459.7,292.8,1460.4,290.9z"/>
		</g>
		<path d="M1385.1,344.1c-0.1,0.2-0.2,0.3-0.3,0.4c-10.7,11.1-23.2,23.6-37,37.2c-0.5,0.5-1.3,0.5-1.8,0c-0.5-0.5-0.5-1.3,0-1.8
			c13.8-13.6,26.3-26.1,37-37.1c0.5-0.5,1.3-0.5,1.8,0C1385.2,343.1,1385.3,343.6,1385.1,344.1z"/>
		<path d="M1464,271.2c-0.1,0.3-0.3,0.5-0.6,0.7c-21.8,11.2-56.7,49.4-57,49.8c-0.5,0.5-1.3,0.6-1.8,0.1c-0.5-0.5-0.6-1.3-0.1-1.8
			c0.4-0.4,35.6-39,57.8-50.4c0.6-0.3,1.4-0.1,1.7,0.6C1464.2,270.5,1464.2,270.8,1464,271.2z"/>
	</g>
</g>
<g>
	<path d="M650.1,1010.9c-53.9-15.4-105.8-37.6-154.3-65.8c-18.1-10.5-35.7-21.9-54.4-31.3c-18.8-9.5-38.5-17-58.4-23.9
		c-63.5-21.8-129.4-36.6-195.9-45.5c-53.3-7.2-109.4-10.2-159.1,10.4c-7.3,3-15.5,11.4-10.1,17.2c4.4,4.7,13,0.7,18.4,4.1
		c6.4,4,2.6,15.3-4.7,17.3c-7.3,2-14.8-2.2-20.5-7.1c-4.5-3.9-8.7-8.6-10.3-14.4c-2.4-8.7,1.6-18.3,8.1-24.6s15-10.1,23.4-13.4
		c60.6-23.4,127.1-29,191.8-23.5s128.1,21.8,190.2,40.8c21.1,6.5,42.4,13.4,61.4,24.8c16.9,10.1,31.8,23.7,50.2,30.8
		c17.2,6.6,37.8,7.8,50.1,21.5c4.4,4.9,7.3,11.1,12.1,15.8c12.7,12.4,33.6,9.9,49.7,17.2c21.4,9.7,32.1,35.2,53.3,45.1
		c5.4,2.5,12,4.6,14,10.1c2.4,6.6-3.1,11.6-8.1,14.8c-8.1,5.1-9,3.8-14.3-2.1C673.8,1019,662.9,1014.6,650.1,1010.9z"/>
	<path fill="none" stroke="#FFFFFF" stroke-width="3.0243" stroke-miterlimit="10" d="M123.3,822c0,0,94.3-11.6,239.1,23.4"/>
	<path fill="none" stroke="#FFFFFF" stroke-width="3.0243" stroke-miterlimit="10" d="M192.3,832.1c0,0,159.7,23.7,235.7,53.8"/>
	<path fill="none" stroke="#FFFFFF" stroke-width="3.0243" stroke-miterlimit="10" d="M593.4,954.7c0,0,33,10,52,25"/>
	<path fill="none" stroke="#FFFFFF" stroke-width="3.0243" stroke-miterlimit="10" d="M577.4,968.1c0,0,34.4,2.8,62.3,19.8"/>
</g>
<g>
	<path d="M739.5,1005.2c-102.9-28-194.8-85.9-292.8-128.2c-113.6-49-235-76.9-356.2-101.2c-12.3-2.5-25.1-5.1-35.3-12.4
		c-10.2-7.3-17.3-20.7-13.2-32.6c4-11.9,26.7-34.3,30-7.8c-8.2,3.6-6.4,17,0.9,22c7.4,5.1,17.1,4.6,26,4.5
		c33.7-0.2,72.8,6.9,106.3,11.5c46.5,6.3,86.4,19.1,130.3,31.1c64.3,17.6,124.3,47.1,179.8,84.1c10.7,7.2,21.1,15,32.8,20.6
		c16.3,7.7,34.4,10.5,51.7,15.7c31,9.2,59,25.9,85.4,44.3c11.1,7.7,21.8,18.1,34.2,23.3c6.1,2.6,11.6,3.2,16.1,8.8
		C736.5,990.3,741.8,1005.9,739.5,1005.2z"/>
	<path fill="none" stroke="#FFFFFF" stroke-width="3.0243" stroke-miterlimit="10" d="M103.9,769c1.6,0.6,163.5,20,245.2,56.2"/>
	<path fill="none" stroke="#FFFFFF" stroke-width="3.0243" stroke-miterlimit="10" d="M128.1,760.6c2.9,0.2,154.8,18.8,202.3,44.3"
		/>
	<path fill="none" stroke="#FFFFFF" stroke-width="3.0243" stroke-miterlimit="10" d="M537.2,904.1c0,0,102.3,30.7,145,61.3"/>
	<path fill="none" stroke="#FFFFFF" stroke-width="3.0243" stroke-miterlimit="10" d="M556.8,924.8c0,0,70.1,18.5,98.1,36.8"/>
</g>
<g>
	<path d="M367.7,625c0,0,5.6,16.3,8.2,24s11.1,23,40,29.3c28.9,6.2,41.6,24.5,51.7,54.3c10.1,29.8,93,273,93,273
		s-12.4,20.3-88.3,46.2s-98.1,17.3-98.1,17.3s-82.8-243.2-93-273s-11.3-51.9,7.9-74.5c19.1-22.6,16.4-39.9,13.8-47.6s-8.2-24-8.2-24
		"/>
	<path fill="none" stroke="#FFFFFF" stroke-width="3.1151" stroke-miterlimit="10" d="M348.4,638.6c0,0,6.7,19.8,9.4,27.5
		c2.6,7.7,11.1,23,40,29.3c28.9,6.2,41.6,24.5,51.7,54.3s86.7,254.5,86.7,254.5"/>
	<path fill="#FFFFFF" stroke="#000000" stroke-width="3.1151" stroke-miterlimit="10" d="M375.7,629.3L291,658.2
		c-3.1,1.1-6.5-0.6-7.6-3.7l-11.2-32.9c-1.1-3.1,0.6-6.5,3.7-7.6l84.7-28.8c3.1-1.1,6.5,0.6,7.6,3.7l11.2,32.9
		C380.5,624.8,378.9,628.2,375.7,629.3z"/>
	<g>
		
			<line fill="#FFFFFF" stroke="#000000" stroke-width="3.1151" stroke-miterlimit="10" x1="283.9" y1="619.7" x2="293.1" y2="646.6"/>
		
			<line fill="#FFFFFF" stroke="#000000" stroke-width="3.1151" stroke-miterlimit="10" x1="296.2" y1="615.5" x2="305.4" y2="642.4"/>
		
			<line fill="#FFFFFF" stroke="#000000" stroke-width="3.1151" stroke-miterlimit="10" x1="308.6" y1="611.3" x2="317.7" y2="638.2"/>
		<line fill="#FFFFFF" stroke="#000000" stroke-width="3.1151" stroke-miterlimit="10" x1="320.9" y1="607.2" x2="330.1" y2="634"/>
		<line fill="#FFFFFF" stroke="#000000" stroke-width="3.1151" stroke-miterlimit="10" x1="333.2" y1="603" x2="342.4" y2="629.8"/>
		
			<line fill="#FFFFFF" stroke="#000000" stroke-width="3.1151" stroke-miterlimit="10" x1="345.6" y1="598.8" x2="354.7" y2="625.6"/>
		<line fill="#FFFFFF" stroke="#000000" stroke-width="3.1151" stroke-miterlimit="10" x1="357.9" y1="594.6" x2="367" y2="621.4"/>
	</g>
	<g>
		<path fill="#FFFFFF" stroke="#000000" stroke-width="3.1151" stroke-miterlimit="10" d="M485.7,832.7c-3.5-10.4-24-70.6-27.6-80.9
			c-54.8,5.1-107.6,23.1-154.1,52.5c3.5,10.4,24,70.6,27.6,80.9l1.4,4.2c3.5,10.4,24,70.6,27.6,80.9c54.8-5.1,107.6-23.1,154.1-52.5
			c-3.5-10.4-24-70.6-27.6-80.9L485.7,832.7z"/>
	</g>
</g>
</svg>
