<?xml version="1.0" encoding="utf-8"?>
<!-- Generator: Adobe Illustrator 26.0.1, SVG Export Plug-In . SVG Version: 6.00 Build 0)  -->
<svg version="1.0" id="Ebene_1" xmlns="http://www.w3.org/2000/svg" xmlns:xlink="http://www.w3.org/1999/xlink" x="0px" y="0px"
	 viewBox="0 0 727.5 732.4" enable-background="new 0 0 727.5 732.4" xml:space="preserve">
<g>
	<g>
		<ellipse fill="#FFFFFF" cx="363.8" cy="366.2" rx="362.4" ry="364.8"/>
		<g>
			<path d="M315.2,118.9c-0.5,0-1.1-0.1-1.6-0.2c-5.4-1-10.9-6.9-14.7-15.7c-2.9-6.7-2.7-19.1-2.5-31c0.2-9.7,0.3-18.8-1.2-22.9
				c-2.9-7.5-5.7-7.4-12.4-7.3c-1,0-2,0-3.1,0c-6.6,0-10.9-3.7-12.6-6.9c-1-1.9-1.1-3.7-0.3-4.9c0,0,0,0,0,0
				c12.1-17.9,51.4-13.4,72.5-10.9c33.3,3.8,36.7,20.6,35.7,30.3c-1.7,16.7-35.7,35.9-39.6,38c-3.9,2.1-5.6,8.3-7.3,14.3
				c-1.5,5.4-3.1,11-6.3,14.3C319.8,117.9,317.6,118.9,315.2,118.9z"/>
			<path d="M240.7,694.8c-3.7,0-8.1-2.3-11.1-5.3c-7-7-19.4-36-25.3-53.7c-4.5-13.7-6.9-56.2-8.5-84.3c-0.5-8.4-0.9-15.7-1.2-19.9
				c-1.2-14.4-6.5-16.6-20.5-22.6c-2.3-1-4.9-2.1-7.7-3.3c-20.5-9.2-22.4-17.9-22-37c0-1.7-0.1-3.9-0.3-6.5
				c-0.7-11.2-1.8-28.2,8.7-38.7c9.2-9.3,14.1-39.4,13.5-52.1c-0.2-4.5,2.1-8.7,6-10.9c7.5-4.2,20.1-7.8,37.9-1.1
				c7.4,2.8,10.8,7.4,14.1,11.8c2.7,3.6,5.4,7.4,10.6,10.3c3.6,2.1,8.1,3.3,12.5,4.6c9.4,2.6,19,5.4,16.8,16.2
				c-2.7,13,12.2,26.6,36.4,33.1c14.3,3.8,25,14.4,26.1,25.7c0.7,7.6-3.1,14-10.5,17.5c-17.7,8.6-17.5,14.5-15.4,25.1
				c0.8,3.9,2.2,8,3.6,11.9c2.6,7.4,4.8,13.8,2,17.3c-4,4.8-17.1,9.4-22.7,10.8c-5.2,1.3-11.5,8.2-12.9,20.2
				c-1.5,13.1-19.9,45.5-31.1,59.8c-9.7,12.4-5.6,23,2.5,44.2c0.7,1.7,1.4,3.6,2.1,5.4c4.2,11,4.2,17.9,0,20.6
				C243.3,694.5,242.1,694.8,240.7,694.8z"/>
			<path d="M519.7,588.6c-2.3,0-4.5-1.1-6.4-3.3c-10-11.5-12.5-54.9,2.6-77.4c16.9-25.2,5.7-44.8,0.1-52c-4.4-5.7-5.1-30.5-4.9-50.3
				l0-1.1c0-0.2,0-0.6,0.1-1.1c0.3-3,1-10.1-4.7-15.4c-7.1-6.6-21.3-8.1-42.5-4.6c-18.5,3.1-32.2,0.3-40.6-8.2
				c-9.4-9.5-12.1-25.6-8.1-47.9c1.9-10.6,0.2-19.1-1.3-26.6c-0.9-4.5-1.8-8.7-1.8-12.8c0-12.8,17.3-23.4,31.7-30.1
				c8.6-3.9,14.7-8.6,20.7-13.2c5.5-4.2,10.7-8.2,17.3-10.9c9.7-4,13.6,2.7,17.4,9.3c2,3.5,4.1,7.1,7.2,9.6c3.4,2.8,5.4,1.8,8.9,0.2
				c4.5-2.1,10.7-5,21.9,2c12.9,8.1,27.4,4.6,33.2-0.2c1.5-1.3,3.8-3.8,2.6-6.6c-1.5-3.6-4.6-4.8-8.6-6.3
				c-4.9-1.8-10.9-4.1-14.6-12.3c-4-9.1,3.4-15.1,10-20.3c4.5-3.6,9.1-7.3,10-11.6c0.9-4.4-1.2-10.1-5.8-15.7
				c-4.6-5.6-10.8-9.8-14.5-9.8c-2,0-2.7,4.5-3.3,9.3c-1.1,8.1-2.7,19.1-12.4,22.5c-8.6,3-16.9-1.5-24.9-5.9
				c-7.1-3.9-14.4-7.9-21.7-6.5c-8.2,1.6-15.6,11.4-23.5,21.7c-6.9,9.1-14,18.5-22.4,23.3c-6.2,3.5-11.7,2.8-15.2-2
				c-5.5-7.6-4.2-23.9,5-32.2c11.2-9.9,10.7-23.4,10.4-30.6c0-1-0.1-1.8-0.1-2.5c0-2,0.5-7.3,5.2-11.5c5.2-4.7,13.6-6.5,24.9-5.4
				c9,0.9,15.8-0.4,19.7-3.8c3.2-2.7,3.4-5.7,3.4-5.8c3.3-23.4-0.3-29.8-2.8-31.6c-2.1-1.5-4.9-0.7-6.8,0.2c-0.8,0.5-3,4.3-5,7.7
				c-6,10.3-14.2,24.3-21.8,22.7c-5.4-1.1-8.8-9.1-10.7-25.3c-2.8-22.9-0.1-37.4,7.9-43.2c7.1-5.1,15.5-1.5,16.4-1
				c15.2,5.4,27.1,5.2,35.2-0.6c11.7-8.4,12.8-26.3,12.7-33.5c0-0.5,0.2-0.9,0.7-1.2c0.4-0.3,0.9-0.3,1.4-0.1
				c47.4,23.1,90.2,57.1,123.6,98.3c33.8,41.7,58.4,91.1,71.2,143.1c0,0.2,0.1,0.4,0,0.6c-2,10.6-6.2,25.2-14.8,35.2
				c-7.1,8.2-6,16.2-5,23.3c0.7,5.3,1.4,10.3-1.9,14.1c-1,1.1-2,2.6-2.9,4c-2.4,3.6-4.9,7.4-8.3,6.7c-4-0.8-8.8-7.1-16.7-47.2
				c-10-50.8-32.5-53.9-41.7-52.8c-0.4,0-0.5,0.4-0.6,0.5c0,0.2-0.1,0.4,0.2,0.7c6,4.6,16.4,13.9,17.9,24.8c0.7,5.3-0.7,10.3-4.3,15
				c-13.2,17.3-16.8,32.5-10,42.7c6.8,10.3,7.8,17.9,4,31.5c-1.4,5-5.5,10.2-9.9,15.7c-8.3,10.4-17.6,22.2-10.4,35.4
				c12.3,22.2-16.8,90.6-36.7,106c-9.2,7.1-17.5,17.3-25.6,27.2c-9.4,11.5-18.2,22.3-27.2,26.6C522,588.3,520.8,588.6,519.7,588.6z"
				/>
			<path d="M134,374.5c-1.8,0-3.8-0.6-6-1.9c-13.8-8.2-63.2-79.5-61-118.8c0.2-3.1,0.3-6.1,0.5-9c1.7-33.8,2.8-54.2,23.9-91.3
				c6.5-11.5,9.7-24.8,9.3-39.6c0-0.4,0.1-0.7,0.4-1c14.7-15.4,43.6-40.3,59.6-52.2c0.3-0.2,0.7-0.3,1.1-0.2
				c3.4,0.8,6.5,2.4,9.8,4.1c8,4.1,17.1,8.8,34.1,1.9c15.8-6.4,25-10.9,31.2-14c8.1-4,11.1-5.5,16.5-4.6c9.9,1.7,18.1,9.8,17.3,17
				c-1.2,11.1-12.3,16.8-32.9,16.8c-16,0-24.6,11.4-27.5,16.3c-4.7,7.8-6.1,16.6-3.5,21.5c2.3,4.4,4.3,6.4,6.6,7
				c4,0.9,10.2-2.1,22.9-11.2c9.1-6.5,17.4-9.1,24.6-7.7c7.3,1.5,11.3,6.7,12.6,8.8c2.9,4.7-0.4,12.4-4.2,21.5
				c-1.6,3.8-3.3,7.8-4.4,11.5c-2,6.5-2,12.5-1.9,17.4c0,4,0,7.2-1.1,9.4c-1.6,3.3-7.1,5.6-14.5,8.7c-4,1.7-8.5,3.6-13.2,5.9
				c-14.2,7.2-24,12.8-30.2,25.9c-4,8.6-11.5,13.7-17.4,17.8c-3.9,2.6-7.2,4.9-8.2,7.3c-1,2.2-1.2,6.2-1.5,10.5
				c-0.5,8.5-1.1,18.2-7.1,21.8c-7.7,4.7-22.6-2-28.5-8.7c-2.5-2.8-5.7-4-8.8-3.4c-2.7,0.6-4.9,2.5-5.7,5.1
				c-2.7,8-0.9,18.9,5.1,32.2c8.5,18.8,12.8,34.8,12.8,47.7c0,15.1-2.3,23.8-7,26.5C136.4,374.2,135.3,374.5,134,374.5z"/>
			<path d="M616,629.5c-0.1,0-0.3,0-0.4-0.1c-0.5-0.1-0.9-0.5-1-1c-1.9-8.3-1.9-18.9-1.9-27.4l0-2.5c0-15,14.9-24,23.8-29.4
				c9.4-5.7,23.7-21.4,24.3-36.8c0.5-14.2,8-20.3,14.6-25.7c1.5-1.2,2.8-2.3,4.1-3.5c7.2-6.6,9.8-24.2,8.1-36.8
				c-2-14.4,1.8-18.6,9.5-21.1c3.1-1,4.5-4.8,5.7-8.1c1.3-3.5,2.8-7.5,6.6-6.7c2.2,0.5,5.1,3.4,8,21.6c0,0.2,0,0.4,0,0.5
				c-16.1,67.1-50.8,128.1-100.3,176.4C616.7,629.4,616.4,629.5,616,629.5z"/>
		</g>
	</g>
	<path d="M363.8,732.4c-97.2,0-188.5-38.1-257.2-107.3C37.8,556,0,464,0,366.2s37.8-189.8,106.5-259C175.2,38.1,266.6,0,363.8,0
		C460.9,0,552.3,38.1,621,107.3c68.7,69.2,106.5,161.1,106.5,259S689.7,556,621,625.2C552.3,694.3,460.9,732.4,363.8,732.4z
		 M363.8,2.8c-199,0-361,163-361,363.4s161.9,363.4,361,363.4s361-163,361-363.4S562.8,2.8,363.8,2.8z"/>
</g>
</svg>
