<?xml version="1.0" encoding="utf-8"?>
<!-- Generator: Adobe Illustrator 26.0.1, SVG Export Plug-In . SVG Version: 6.00 Build 0)  -->
<svg version="1.0" id="Ebene_1" xmlns="http://www.w3.org/2000/svg" xmlns:xlink="http://www.w3.org/1999/xlink" x="0px" y="0px"
	 viewBox="0 0 1500 1100" enable-background="new 0 0 1500 1100" xml:space="preserve">
<g>
	<path fill="#FFFFFF" stroke="#000000" stroke-width="2.5" stroke-miterlimit="10" d="M878,197.2C868.1,132.9,851.9,28,848.6,5.5
		c-0.3-2.3-1.8-4.2-3.7-4.3c-2.3-0.2-4.3,2.1-4.3,5.1v196.6c0,6.1-1.8,11.6-4.7,15.8c-3.8,5.6-11.2,2.4-11.5-5L815.5,5
		c-0.2-2.1-1.9-3.8-4-3.8c-2.1,0-3.8,1.7-4,3.8l-9.1,214.4c-0.2,4.4-3.1,7.8-6.6,7.8h-0.5c-3.5,0-6.4-3.4-6.6-7.8L775.7,5
		c-0.2-2.1-1.9-3.8-4-3.8s-3.8,1.7-4,3.8l-8.9,208.7c-0.3,7.4-7.7,10.7-11.5,5c-2.9-4.3-4.7-9.8-4.7-15.8V6.4c0-2.6-1.5-4.9-3.5-5.2
		c-2.1-0.3-4.1,1.5-4.4,4.1c-3.3,22.1-19.5,127.5-29.5,191.9c-9.4,61.1,21.8,119.4,68.6,132.4l-9.8,219.9h55.1l-9.8-219.9
		C856.2,316.7,887.5,258.3,878,197.2z"/>
	<g>
		<path d="M799.5,316.9c-0.5,0-1-0.3-1.1-0.9c-0.2-0.6,0.2-1.3,0.8-1.4c21.2-5.9,39.5-21.8,51.6-44.9c12.2-23.3,16.6-51.3,12.4-78.8
			c-0.1-0.6,0.3-1.2,1-1.3c0.6-0.1,1.2,0.3,1.3,1c4.3,28-0.1,56.5-12.6,80.3c-12.4,23.7-31.2,40-53,46.1
			C799.7,316.9,799.6,316.9,799.5,316.9z"/>
		<path d="M733.8,283.9c-0.4,0-0.8-0.2-1-0.5c-1.5-2.4-2.9-4.9-4.3-7.5c-12.5-23.8-16.9-52.3-12.6-80.3
			c4.7-30.4,11.1-71.5,16.7-108.3c0.1-0.6,0.7-1.1,1.3-1c0.6,0.1,1.1,0.7,1,1.3c-5.7,36.8-12,78-16.7,108.3
			c-4.3,27.5,0.1,55.5,12.4,78.8c1.3,2.5,2.7,5,4.2,7.3c0.3,0.5,0.2,1.3-0.4,1.6C734.2,283.8,734,283.9,733.8,283.9z"/>
		<path d="M806.8,536.7c-0.6,0-1.1-0.5-1.2-1.1l-7.4-196h-8.5c-0.6,0-1.2-0.5-1.2-1.2c0-0.6,0.5-1.2,1.2-1.2h9.6
			c0.6,0,1.1,0.5,1.2,1.1l7.4,197.1C808,536.1,807.5,536.7,806.8,536.7C806.8,536.7,806.8,536.7,806.8,536.7z"/>
	</g>
</g>
<g>
	<g>
		<g>
			<path fill="#FFFFFF" stroke="#000000" stroke-width="2.5" stroke-miterlimit="10" d="M503.2,156.1c0,0-48.3-28.7-106.1-24.9
				c-19.5,1.3-96.3,1.9-160.4,59.5c-9.9,8.9-31.4,28.5-47.8,60.8c-37.8,74.3-15.6,150.8-8.6,175.1c5.6,19.2,44.3,152.9,160.8,181.5
				c48.4,11.9,91,0.9,114.6-7.4l14-24.8c0,0-187.4-7.5-192.7-198.1c-4.1-148.3,135.2-145.2,135.2-145.2L503.2,156.1z"/>
		</g>
	</g>
	<g>
		<g>
			<path fill="#FFFFFF" stroke="#000000" stroke-width="2.5" stroke-miterlimit="10" d="M254.4,444.7c0,0,93.9-124.7,187.5-39.3
				c92.3,84.2-61.8,221.8-100.7,202.5c0,0,70.6,39.1,151.6,4.1c102.4-44.2,101.4-218.7-8.3-258.5
				C396.1,321.6,294.1,364.3,254.4,444.7z"/>
		</g>
		<path d="M567.4,469.3C567.4,469.3,567.4,469.3,567.4,469.3l-71.7-5.7c-0.6-0.1-1.1-0.6-1.1-1.3c0.1-0.6,0.6-1.1,1.3-1.1l71.6,5.7
			c0.6,0.1,1.1,0.6,1.1,1.3C568.5,468.8,568,469.3,567.4,469.3z"/>
		<path d="M532.3,585.1c-0.2,0-0.4,0-0.6-0.1l-61.4-33.9c-0.6-0.3-0.8-1-0.5-1.6c0.3-0.6,1-0.8,1.6-0.5l61.4,33.9
			c0.6,0.3,0.8,1,0.5,1.6C533.1,584.9,532.7,585.1,532.3,585.1z"/>
		<path d="M466,399.9c-0.4,0-0.9-0.2-1.1-0.7c-0.3-0.6,0-1.3,0.6-1.6l53.2-25.5c0.6-0.3,1.3,0,1.6,0.6c0.3,0.6,0,1.3-0.6,1.6
			l-53.2,25.5C466.3,399.8,466.2,399.9,466,399.9z"/>
		<path d="M415.2,374.4c-0.4,0-0.7-0.2-1-0.5c-0.4-0.5-0.2-1.3,0.3-1.6l39.1-27.6c0.5-0.4,1.3-0.2,1.6,0.3c0.4,0.5,0.2,1.3-0.3,1.6
			l-39.1,27.6C415.6,374.3,415.4,374.4,415.2,374.4z"/>
		<path d="M449.1,365c-0.4,0-0.7-0.2-1-0.5c-0.4-0.5-0.2-1.3,0.3-1.6l21.8-14.5c0.5-0.4,1.3-0.2,1.6,0.3c0.4,0.5,0.2,1.3-0.3,1.6
			l-21.8,14.5C449.5,364.9,449.3,365,449.1,365z"/>
		<path d="M464,371.8c-0.4,0-0.7-0.2-1-0.5c-0.4-0.5-0.2-1.3,0.3-1.6l23.4-16c0.5-0.4,1.3-0.2,1.6,0.3c0.4,0.5,0.2,1.3-0.3,1.6
			l-23.4,16C464.4,371.8,464.2,371.8,464,371.8z"/>
		<path d="M477.1,380.3c-0.4,0-0.8-0.2-1-0.5c-0.3-0.5-0.2-1.3,0.3-1.6l26.1-16.9c0.5-0.3,1.3-0.2,1.6,0.3c0.3,0.5,0.2,1.3-0.3,1.6
			l-26.1,16.9C477.5,380.2,477.3,380.3,477.1,380.3z"/>
		<path d="M501.1,399.9c-0.5,0-0.9-0.3-1.1-0.7c-0.2-0.6,0-1.3,0.6-1.5l31.2-12.7c0.6-0.2,1.3,0,1.5,0.6c0.2,0.6,0,1.3-0.6,1.5
			l-31.2,12.7C501.4,399.8,501.2,399.9,501.1,399.9z"/>
		<path d="M506.9,414.6c-0.5,0-1-0.3-1.1-0.8c-0.2-0.6,0.2-1.3,0.8-1.5l38-11.3c0.6-0.2,1.3,0.2,1.5,0.8c0.2,0.6-0.2,1.3-0.8,1.5
			l-38,11.3C507.1,414.6,507,414.6,506.9,414.6z"/>
		<path d="M514.2,430.5c-0.6,0-1.1-0.4-1.2-1c-0.1-0.6,0.3-1.2,1-1.3l41.6-6.7c0.6-0.1,1.2,0.3,1.3,1c0.1,0.6-0.3,1.2-1,1.3
			l-41.6,6.7C514.3,430.5,514.3,430.5,514.2,430.5z"/>
		<path d="M564,449h-44.8c-0.6,0-1.2-0.5-1.2-1.2c0-0.6,0.5-1.2,1.2-1.2H564c0.6,0,1.2,0.5,1.2,1.2C565.2,448.4,564.7,449,564,449z"
			/>
		<path d="M549.1,561.9c-0.2,0-0.3,0-0.5-0.1l-45.8-21.6c-0.6-0.3-0.8-1-0.6-1.6c0.3-0.6,1-0.8,1.6-0.6l45.8,21.6
			c0.6,0.3,0.8,1,0.6,1.6C549.9,561.6,549.5,561.9,549.1,561.9z"/>
		<path d="M556.9,535.4c-0.2,0-0.3,0-0.5-0.1l-45.9-19.3c-0.6-0.2-0.9-0.9-0.6-1.5c0.3-0.6,0.9-0.9,1.5-0.6l45.9,19.3
			c0.6,0.2,0.9,0.9,0.6,1.5C557.8,535.2,557.3,535.4,556.9,535.4z"/>
		<path d="M567.2,504.5c-0.1,0-0.2,0-0.2,0l-50.5-10.5c-0.6-0.1-1-0.8-0.9-1.4c0.1-0.6,0.8-1,1.4-0.9l50.5,10.5
			c0.6,0.1,1,0.8,0.9,1.4C568.3,504.1,567.8,504.5,567.2,504.5z"/>
		<path d="M501.6,609.1c-0.3,0-0.5-0.1-0.7-0.2l-30.7-24c-0.5-0.4-0.6-1.1-0.2-1.6c0.4-0.5,1.1-0.6,1.6-0.2l30.7,24
			c0.5,0.4,0.6,1.1,0.2,1.6C502.3,608.9,502,609.1,501.6,609.1z"/>
		<path d="M469.6,621.5c-0.3,0-0.7-0.2-0.9-0.5l-20.5-26.4c-0.4-0.5-0.3-1.2,0.2-1.6c0.5-0.4,1.2-0.3,1.6,0.2l20.5,26.4
			c0.4,0.5,0.3,1.2-0.2,1.6C470.1,621.4,469.8,621.5,469.6,621.5z"/>
	</g>
</g>
<path stroke="#000000" stroke-width="2.5" stroke-miterlimit="10" d="M1287.8,854.6h18.7c-12.4-43.8-29.6-86-54.2-124.3
	c-46.6-72.4-117.4-126.7-194.3-165.5c-33-16.6-67.4-30.5-102.8-41.5c-0.4,0.1-0.8,0.2-1.2,0.3c-17.2,4.8-28.4,20.6-41.1,33.1
	c-32.8,32.1-80,0.3-114.9,38.8c-12.6,13.9-16.8,34.3-6.8,49.8c10,15.4,35.8,22.4,52.3,12.1c-24.5,22.3-63.6,24-97.9,31.6
	c-34.3,7.6-71.8,31.2-65,61.5c4.5,20.3,28.4,33.6,51.9,36.9c23.5,3.3,47.3-1,71-2.5c23.7-1.5,49.4,0.2,67.9,13.2
	c18.5,13,24.5,40.6,6.6,54.2c-1.1,0.8-2.3,1.6-3.4,2.3h74.5h123.4h142H1287.8z"/>
<path stroke="#000000" stroke-width="2.5" stroke-miterlimit="10" d="M367.3,854.6h19.6c-4.1-5.7-8-11.5-11.5-17.6
	c-22.9-38.7,10.3-65.1,10.9-109c0.2-14.3-35.9-46.6-38.1-64.1c-49.3,49.2-92.5,108.2-116.2,168.4c-2.7,6.9-5.2,14.3-7.5,22.2l59.6,0
	L367.3,854.6z"/>
<g>
	<path d="M385.9,1096.6c0.2,0.2,0.3,0.4,0.3,0.7c0,0.6-0.4,1.2-1.1,1.3c-0.5,0-46.7,3.4-110.2-15.9c-37.3-11.3-73.2-28.1-106.6-49.8
		c-41.8-27.2-80-62.2-113.5-104.2c-0.4-0.5-0.3-1.2,0.2-1.6c0.5-0.4,1.2-0.3,1.6,0.2c75.4,94.7,160.7,135.6,218.9,153.2
		c63.1,19.1,108.9,15.8,109.3,15.8C385.3,1096.2,385.6,1096.4,385.9,1096.6z"/>
	<path d="M328.4,1075.6c0.2,0.3,0.4,0.6,0.3,1c-0.1,0.6-0.7,1.1-1.3,1c-61.8-10.2-149.5-38-216.7-112.1c-0.4-0.5-0.4-1.2,0.1-1.7
		c0.5-0.4,1.2-0.4,1.7,0.1c66.7,73.6,153.9,101.2,215.4,111.4C328,1075.3,328.2,1075.4,328.4,1075.6z"/>
	<path d="M11.7,866.1c0.3,0.3,0.6,0.7,0.9,1.1c1.1,1.9,0.5,4.7,0,7.3c-0.4,2.3-0.9,4.7-0.2,5.9c1.1,1.8,3.8,2.8,6.5,3.8
		c2.7,1,5.5,2,6.9,4.1c1.6,2.4,1.9,5.5,2.1,8.3c0.2,2.2,0.3,4.3,1.1,5.4c3,4,8.8,3.6,8.9,3.6c0.6-0.1,1.2,0.4,1.3,1.1
		c0.1,0.6-0.4,1.2-1.1,1.3c-0.3,0-7.2,0.5-10.9-4.5c-1.2-1.6-1.4-4-1.6-6.6c-0.2-2.6-0.4-5.3-1.7-7.1c-1-1.4-3.3-2.3-5.8-3.2
		c-3-1.1-6.1-2.2-7.6-4.7c-1.2-1.9-0.7-4.8-0.2-7.6c0.4-2.3,0.9-4.6,0.2-5.8c-0.8-1.5-3.3-2.4-5.4-3.1c-1.6-0.6-3-1-3.9-1.8
		c-0.5-0.4-0.5-1.2-0.1-1.7c0.4-0.5,1.2-0.5,1.7-0.1c0.5,0.5,1.8,0.9,3.1,1.3C7.8,863.7,10.2,864.5,11.7,866.1z"/>
	<path d="M372,1047.9c5,5.2,4.9,13.5-0.3,18.5c-5.2,5-13.5,4.9-18.5-0.3c-5-5.2-4.9-13.5,0.3-18.5c0.5-0.4,1.2-0.4,1.7,0
		c0.4,0.5,0.4,1.2,0,1.7c-4.3,4.1-4.4,11-0.3,15.2c4.1,4.3,11,4.4,15.2,0.3c4.3-4.1,4.4-11,0.3-15.2c-0.4-0.5-0.4-1.2,0-1.7
		C370.8,1047.4,371.5,1047.4,372,1047.9z"/>
</g>
<path fill="#FFFFFF" stroke="#000000" stroke-width="2.5" stroke-miterlimit="10" d="M874.4,854.4c1.2-0.7,2.3-1.5,3.4-2.3
	c17.9-13.6,11.9-41.2-6.6-54.2c-18.5-13.1-44.2-14.8-67.9-13.2c-23.7,1.5-47.6,5.8-71,2.5c-23.5-3.2-47.3-16.5-51.9-36.9
	c-6.7-30.3,30.8-53.9,65-61.5c34.3-7.6,73.4-9.3,97.9-31.6c-16.5,10.3-42.3,3.3-52.3-12.1c-10-15.4-5.8-35.9,6.8-49.8
	c34.9-38.5,82.1-6.7,114.9-38.8c12.7-12.4,24-28.3,41.1-33.1c0.4-0.1,0.8-0.2,1.2-0.3c-117.1-36.4-244-41-361.5-6.8
	c-59.2,17.2-115.4,44.5-165.8,80.1c-27,19-54.2,41.9-79.8,67.4c2.2,17.5,38.3,50,38.1,64.3c-0.6,43.8-33.8,70-10.9,108.8
	c3.6,6,7.5,11.9,11.5,17.6H874.4z"/>
<path fill="#FFFFFF" stroke="#000000" stroke-width="2.5" stroke-miterlimit="10" d="M486.1,836.3c-8.9-2.8-17.9-5.7-25.5-11.2
	c-7.5-5.4-13.5-14-13.5-23.3c0-7.8,4.1-15.1,4.3-22.9c0.2-12.6-9.8-22.7-17.6-32.6c-11-14-18.9-31.1-19.6-48.9
	c-0.7-17.8,6.4-36.4,20.5-47.3c12.5-9.6,28.8-12.4,44.5-14c38.4-3.9,78.9-2.7,113-20.7c11.6-6.1,21.9-14.2,32.2-22.3
	c10.1-7.9,20.1-15.8,30.2-23.7c7.9-6.1,16-12.5,25.7-14.8c21.9-5.4,44.9,10.5,66.7,4.8c10.9-2.9,21.3-11,32.3-8.5
	c0,8.8-7.8,16-16.2,18.7s-17.5,1.9-26.3,1.8c-29.3-0.3-59.5,7.9-81.5,27.2c-8.7,7.7-16.3,17.5-18.1,29c-2.5,16.1,6.2,35.2-4.3,47.7
	c-4.3,5.1-10.9,7.6-17.2,9.6c-23.9,7.4-50.9,11-67.8,29.4c-10,11-14.9,26.7-12.2,41.3c2.7,14.6,13.1,27.8,26.9,33.2
	c13.9,5.4,30.5,3.4,43,11.6c7.9,5.3,12.9,13.9,19.8,20.5c11.3,10.7,27.2,15.2,42.8,15.8c15.5,0.6,31-2.2,46.4-4.2
	c29.2-3.8,58.8-4.9,88.2-3.1"/>
<path fill="none" stroke="#FFFFFF" stroke-width="2.3375" stroke-miterlimit="10" d="M876.3,640.5c-6.7-4.4-15.2-5-23-7
	s-16.1-6.9-17.3-14.9c-1.5-9.6,8.4-17.6,18-18.8s19.1,2.1,28.7,3.3c12.1,1.6,24.6-0.2,35.8-5c14.6-6.3,27.5-17.8,43.4-18.8
	c20.8-1.4,38.4,14.4,55.3,26.7c41.3,30.1,83.9,93.4,140,51.1c15.2-11.4,29.8,23.6,42.4,37.8c20.5,23,39.1,48.3,49.2,77.4"/>
<g id="XMLID_00000003099151353348158220000009635964881833250184_">
	<g id="XMLID_00000121278744528443548310000003694903784108281224_">
		<g id="XMLID_00000018205101545756403630000001495335691723584680_">
			
				<path id="XMLID_00000130633551217975089960000016280869587175059610_" stroke="#000000" stroke-width="2.5" stroke-miterlimit="10" d="
				M571.7,513.5c0,0,0.8-14,37-27.4c36.2-13.3,23.9-36.2,47.9-40c24-3.8,23.1-7.7,42.6,13.8c19.5,21.5,16.7,18.2,29.4,41.2
				c12.7,22.9,17,19.6,4.8,24.2c-12.2,4.5-170.2,9.5-166-1.1C571.7,513.5,571.7,513.5,571.7,513.5z"/>
		</g>
	</g>
</g>
<path fill="none" stroke="#FFFFFF" stroke-width="2.3375" stroke-miterlimit="10" d="M677.8,453.5c5.4,4.1,11,8.3,13.9,14.4
	c1.9,4,2.5,8.5,4.1,12.6c5,12.4,19.3,20.8,20.2,34.1"/>
<path fill="none" stroke="#FFFFFF" stroke-width="2.3375" stroke-miterlimit="10" d="M662.7,459c6.1,7.3,5.9,17.8,5.3,27.2
	c-0.1,2.4-0.3,4.8,0.3,7.1c0.5,1.9,1.4,3.6,2.2,5.5c1.9,4.6,2.2,9.8,1.1,14.7"/>
<path fill="none" stroke="#FFFFFF" stroke-width="2.3375" stroke-miterlimit="10" d="M649.8,465.5c-1.7,7.2,0.8,15.3-2.7,21.8
	c-3.3,6.2-10.8,8.9-17.7,9.6s-14.2,0.1-20.9,2.1c-10.5,3.1-18.6,13.2-19.5,24.1"/>
<g>
	<g>
		<path fill="#FFFFFF" stroke="#000000" stroke-width="2.5" stroke-miterlimit="10" d="M1058,461.9c0,0-44.1-70.7-142.7-19.3
			C767.1,519.8,811.9,921.1,511,842.1S193.1,419.3,404.6,344.3c0,0-257.3,25.7-196.3,289.3C269.3,897.2,485.9,989.7,610,968
			c162.2-28.4,214.6-92.4,263.7-323C917.3,440.1,1010.2,425.3,1058,461.9z"/>
	</g>
	<path d="M506,963.7c-0.1,0-0.2,0-0.2,0c-0.6-0.1-1-0.8-0.9-1.4l16.9-78.7c0.1-0.6,0.8-1,1.4-0.9c0.6,0.1,1,0.8,0.9,1.4l-16.9,78.7
		C507,963.4,506.5,963.7,506,963.7z"/>
	<path d="M372.9,899.8c-0.2,0-0.5-0.1-0.7-0.2c-0.5-0.4-0.6-1.1-0.2-1.6l43.6-58c0.4-0.5,1.1-0.6,1.6-0.2c0.5,0.4,0.6,1.1,0.2,1.6
		l-43.6,58C373.6,899.7,373.2,899.8,372.9,899.8z"/>
	<path d="M279.1,800.8c-0.4,0-0.8-0.2-1-0.6c-0.3-0.6-0.1-1.3,0.4-1.6l52.7-29.7c0.6-0.3,1.3-0.1,1.6,0.4c0.3,0.6,0.1,1.3-0.4,1.6
		l-52.7,29.7C279.5,800.8,279.3,800.8,279.1,800.8z"/>
	<path d="M298.6,827.4c-0.3,0-0.7-0.1-0.9-0.4c-0.4-0.5-0.3-1.2,0.2-1.6l33.1-26.6c0.5-0.4,1.2-0.3,1.6,0.2c0.4,0.5,0.3,1.2-0.2,1.6
		l-33.1,26.6C299.2,827.4,298.9,827.4,298.6,827.4z"/>
	<path d="M322.9,855.4c-0.3,0-0.6-0.1-0.8-0.3c-0.5-0.4-0.5-1.2-0.1-1.7l29.9-32.2c0.4-0.5,1.2-0.5,1.7-0.1c0.5,0.4,0.5,1.2,0.1,1.7
		L323.8,855C323.6,855.2,323.2,855.4,322.9,855.4z"/>
	<path d="M349.5,880.9c-0.2,0-0.5-0.1-0.7-0.2c-0.5-0.4-0.6-1.1-0.2-1.6l29.6-39c0.4-0.5,1.1-0.6,1.6-0.2c0.5,0.4,0.6,1.1,0.2,1.6
		l-29.6,39C350.2,880.7,349.9,880.9,349.5,880.9z"/>
	<path d="M404.7,921.4c-0.2,0-0.4,0-0.6-0.1c-0.6-0.3-0.8-1-0.5-1.6l27.6-50.5c0.3-0.6,1-0.8,1.6-0.5c0.6,0.3,0.8,1,0.5,1.6
		l-27.6,50.5C405.5,921.1,405.1,921.4,404.7,921.4z"/>
	<path d="M441.7,941.1c-0.1,0-0.3,0-0.4-0.1c-0.6-0.2-0.9-0.9-0.7-1.5l21.4-56c0.2-0.6,0.9-0.9,1.5-0.7c0.6,0.2,0.9,0.9,0.7,1.5
		l-21.4,56C442.6,940.8,442.2,941.1,441.7,941.1z"/>
	<path d="M480,956.3c-0.1,0-0.2,0-0.3,0c-0.6-0.1-1-0.8-0.9-1.4l14.2-60.2c0.1-0.6,0.8-1,1.4-0.9c0.6,0.1,1,0.8,0.9,1.4l-14.2,60.2
		C481.1,955.9,480.6,956.3,480,956.3z"/>
	<g>
		<path fill="#FFFFFF" d="M915.4,442.6c0,0,52.6-35.4,104.8-14c52.2,21.4,69.3,87.2,64.7,126.4l-87.3-7.1
			C997.6,547.7,1029.5,425.9,915.4,442.6z"/>
		<path d="M1084.9,556.1C1084.8,556.1,1084.8,556.1,1084.9,556.1l-87.4-7.1c-0.3,0-0.7-0.2-0.9-0.5c-0.2-0.3-0.3-0.6-0.2-1
			c0.1-0.6,14.5-57.1-12.1-86.9c-14.1-15.8-37.3-21.4-68.8-16.8c-0.5,0.1-1.1-0.2-1.3-0.7c-0.2-0.5,0-1.1,0.4-1.4
			c0.5-0.4,53.7-35.5,105.9-14.2c30,12.3,46.1,37.9,54.3,57.1c9.5,22.4,13.7,48.7,11.1,70.4C1085.9,555.6,1085.4,556.1,1084.9,556.1
			z M999,546.7l84.8,6.9c4.2-39.3-12.7-103-64.1-124c-42.1-17.3-85,3.2-99,11.1c29.5-3.3,51.5,2.9,65.3,18.3
			C1011.2,487.1,1001.1,537.8,999,546.7z"/>
	</g>
	<path d="M1066.2,517.1C1066.1,517.1,1066.1,517.1,1066.2,517.1l-64.5-3.8c-0.6,0-1.1-0.6-1.1-1.2c0-0.6,0.6-1.2,1.2-1.1l64.5,3.8
		c0.6,0,1.1,0.6,1.1,1.2C1067.3,516.7,1066.8,517.1,1066.2,517.1z"/>
	<path d="M968.8,448.8c-0.5,0-1-0.4-1.1-1c-0.1-0.6,0.3-1.2,0.9-1.4l57.5-10.9c0.6-0.1,1.2,0.3,1.4,0.9c0.1,0.6-0.3,1.2-0.9,1.4
		L969,448.7C969,448.8,968.9,448.8,968.8,448.8z"/>
	<path d="M1038.3,499.1h-36.6c-0.6,0-1.2-0.5-1.2-1.2c0-0.6,0.5-1.2,1.2-1.2h36.6c0.6,0,1.2,0.5,1.2,1.2
		C1039.5,498.6,1038.9,499.1,1038.3,499.1z"/>
	<path d="M1033.9,483.3h-36.4c-0.6,0-1.2-0.5-1.2-1.2s0.5-1.2,1.2-1.2h36.4c0.6,0,1.2,0.5,1.2,1.2S1034.6,483.3,1033.9,483.3z"/>
	<path d="M991.4,469.4c-0.6,0-1.1-0.5-1.2-1.1c0-0.6,0.5-1.2,1.1-1.2l36.7-1.3c0.6,0,1.2,0.5,1.2,1.1c0,0.6-0.5,1.2-1.1,1.2
		L991.4,469.4C991.4,469.4,991.4,469.4,991.4,469.4z"/>
	<path d="M981.7,457.4c-0.6,0-1.1-0.5-1.2-1.1c0-0.6,0.5-1.2,1.1-1.2l38.3-1.8c0.6,0,1.2,0.5,1.2,1.1c0,0.6-0.5,1.2-1.1,1.2
		L981.7,457.4C981.7,457.4,981.7,457.4,981.7,457.4z"/>
	<path d="M955.7,444.3c-0.5,0-0.9-0.3-1.1-0.8c-0.2-0.6,0.1-1.3,0.7-1.5l37-12.4c0.6-0.2,1.3,0.1,1.5,0.7c0.2,0.6-0.1,1.3-0.7,1.5
		l-37,12.4C956,444.3,955.9,444.3,955.7,444.3z"/>
	<g>
		<path d="M787.1,588.6c-0.3,0-0.6-0.1-0.9-0.4c-3.5-3.4,6.2-45.8,30.2-90.5c19.6-36.6,44.3-65.8,71.3-84.6
			c35.5-24.7,75.7-32.4,119.4-23c0.6,0.1,1,0.8,0.9,1.4c-0.1,0.6-0.8,1-1.4,0.9c-79.7-17.1-133,27.5-163.6,67.9
			c-42.7,56.4-57.2,122.5-55.1,126.4c0.5,0.5,0.4,1.1,0,1.6C787.7,588.5,787.4,588.6,787.1,588.6z"/>
		<path d="M1084.9,397.7c-0.2,0-0.4-0.1-0.6-0.2c-54.4-32.7-100.5-32.7-129.6-26.9c-31.5,6.2-50.5,20.4-50.7,20.5
			c-0.5,0.4-1.2,0.3-1.6-0.2c-0.4-0.5-0.3-1.2,0.2-1.6c0.2-0.1,19.5-14.6,51.5-20.9c29.5-5.9,76.3-5.9,131.3,27.2
			c0.6,0.3,0.7,1.1,0.4,1.6C1085.6,397.5,1085.2,397.7,1084.9,397.7z"/>
		<path d="M775.5,603.6L775.5,603.6L775.5,603.6z"/>
	</g>
</g>
<g id="XMLID_00000052099502557751268460000001689977054336958900_">
	<path fill="#FFFFFF" stroke="#000000" stroke-width="2.5" stroke-miterlimit="10" d="M332.3,892.5
		c-30.3-87.8-60.5-175.6-90.8-263.4c-8.2-23.9-29.5-39.5-53.1-41.6l-8.7-25.3l-34.7-100.7l-47,16.2l34.7,100.7l8.5,24.8
		c-18,16.2-25.5,42.1-17.1,66.4c30.3,87.8,60.5,175.6,90.8,263.4C254.3,949.7,322.2,934.4,332.3,892.5z"/>
	<path stroke="#000000" stroke-width="2.5" stroke-miterlimit="10" d="M265.3,698.4c-16.5,29.3-83.8,49.4-119.9,32.9l42.4,120.9
		c38.4,10.6,104.4-4.7,116.9-39.2L265.3,698.4z"/>
	<g id="XMLID_00000077299773903576129510000010563818693845592736_">
		
			<path id="XMLID_00000183210082195703026910000013353082544609109416_" fill="none" stroke="#000000" stroke-width="2.5" stroke-miterlimit="10" d="
			M130.4,466.5l34.7,100.7l8.7,25.3c23.6,2.1,44.9,17.7,53.1,41.6c30.3,87.8,56.4,163,86.7,250.8"/>
	</g>
	<g id="XMLID_00000045603426540389601070000013643502169164746151_">
		
			<path id="XMLID_00000075842291055957351950000016723261081383513014_" fill="#FFFFFF" stroke="#000000" stroke-width="2.5" stroke-miterlimit="10" d="
			M147.9,477.4l-43.6,15c-5.3,1.8-11-1-12.8-6.2l0,0c-1.8-5.3,1-11,6.2-12.8l43.6-15c5.3-1.8,11,1,12.8,6.2l0,0
			C155.9,469.9,153.1,475.6,147.9,477.4z"/>
	</g>
</g>
<g>
	<g>
		<path fill="#FFFFFF" stroke="#000000" stroke-width="2.5" stroke-miterlimit="10" d="M1283.8,280.9l-46.9-19
			c-5.8-2.3-12.4-1.1-16.9,3.2l-23.1,21.7l-4-33.8c-0.7-5.8-4.5-10.7-9.8-12.9l-43.1-17.5c-8.2-3.3-12.1-12.6-8.8-20.8l37.2-91.6
			c3.3-8.2,12.6-12.1,20.8-8.8l143.9,58.4c8.2,3.3,12.1,12.6,8.8,20.8l-37.2,91.6C1301.2,280.3,1291.9,284.2,1283.8,280.9z"/>
	</g>
	<path d="M1267.1,182.6c-1.8-4.8-5.3-8.5-10.1-10.5c-3.6-1.5-7.3-1.7-11.1-0.7c-1.9,0.5-3.8,1.3-5.6,2.5c-0.5-2.1-1.2-4-2.2-5.7
		c-1.9-3.4-4.7-5.9-8.3-7.4c-4.8-2-10-1.9-14.6,0.2c-4.6,2.1-8.3,6.1-10.4,11.2c-2.2,5.2-2.2,10.8-0.2,17.6
		c1.9,6.1,5.3,12.9,9.3,20.8c1.4,2.7,2.9,5.8,4.5,9c0.4,0.9,1.1,1.5,2,1.9c0.9,0.4,1.9,0.4,2.8,0.1c3.4-1.1,6.7-2.2,9.6-3.1
		c8.4-2.7,15.7-5.1,21.4-8c6.3-3.3,10.2-7.3,12.4-12.5C1268.6,192.7,1268.8,187.3,1267.1,182.6z"/>
</g>
<g>
	<path d="M1433.7,669.9c-0.4,0.3-0.9,0.3-1.3,0.1c-0.6-0.3-0.7-1-0.4-1.6c31.8-53.5,48-112.6,46.8-170.9c0-0.6,0.5-1.2,1.1-1.2
		c0.6,0,1.2,0.5,1.2,1.1c1.2,58.7-15.1,118.3-47.1,172.2C1433.9,669.7,1433.8,669.8,1433.7,669.9z"/>
	<path d="M1469.7,424.5c-0.1,0.1-0.2,0.2-0.4,0.2c-0.6,0.2-1.3-0.2-1.4-0.8c-17.5-62.5-55-117.3-108.4-158.7
		c-0.5-0.4-0.6-1.1-0.2-1.6c0.4-0.5,1.1-0.6,1.6-0.2c53.8,41.6,91.6,96.9,109.2,159.9C1470.3,423.7,1470.1,424.2,1469.7,424.5z"/>
	<path d="M1495.1,567.5c-0.3,0.2-0.6,0.3-0.9,0.2c-0.6-0.1-1.1-0.7-0.9-1.4c8.7-47.6,6.7-94.9-6.1-140.6
		c-17.1-61.1-52.9-115.7-103.5-158c-0.5-0.4-0.6-1.2-0.1-1.6c0.4-0.5,1.2-0.6,1.6-0.1c51,42.6,87.1,97.6,104.3,159.2
		c12.9,46.1,15,93.8,6.2,141.7C1495.5,567.1,1495.3,567.3,1495.1,567.5z"/>
	<path d="M1430.9,690c-2,1.5-4.6,2.2-7.3,1.6c-2.2-0.5-4.2-1.9-5.4-3.9c-1.2-2-1.6-4.3-1.1-6.5c0.5-2.2,1.9-4.2,3.9-5.4
		c2-1.2,4.3-1.6,6.5-1.1c2.2,0.5,4.2,1.9,5.4,3.9c1.2,2,1.6,4.3,1.1,6.5C1433.6,687.2,1432.4,688.9,1430.9,690z M1424.2,689.3
		c3.4,0.8,6.8-1.3,7.6-4.7c0.4-1.6,0.1-3.3-0.8-4.8c-0.9-1.4-2.3-2.4-3.9-2.8c-1.6-0.4-3.3-0.1-4.8,0.8c-1.4,0.9-2.4,2.3-2.8,3.9
		c-0.4,1.6-0.1,3.3,0.8,4.8C1421.1,687.9,1422.5,688.9,1424.2,689.3z"/>
	<path d="M1463.3,334.9c-0.2,0.2-0.5,0.3-0.8,0.2c-0.4,0-0.7-0.3-0.9-0.6l-6.9-13.2c-0.2-0.4-0.2-0.8,0.1-1.2
		c0.2-0.4,0.7-0.6,1.1-0.5l15,1.7c0.4,0,0.8,0.3,0.9,0.7c0.2,0.4,0.1,0.8-0.1,1.1c-3.8,5.9-8.1,11.5-8.2,11.6
		C1463.4,334.8,1463.4,334.8,1463.3,334.9z M1457.7,322.2l5.1,9.6c1.3-1.8,3.6-4.9,5.9-8.4L1457.7,322.2z"/>
	<path d="M1459,305.3c-0.1,0.1-0.2,0.1-0.4,0.2c-0.3,0.1-6.9,2.1-11.7-2.1c-1.5-1.3-2.2-3.6-3-6.1c-0.8-2.5-1.5-5.1-3.2-6.6
		c-1.3-1.2-3.7-1.5-6.3-1.9c-3.2-0.4-6.4-0.9-8.5-3c-1.6-1.6-1.7-4.5-1.8-7.4c-0.1-2.3-0.1-4.7-1-5.7c-1.2-1.3-3.7-1.6-5.9-1.9
		c-1.7-0.2-3.2-0.4-4.2-1c-0.6-0.3-0.7-1-0.4-1.6c0.3-0.6,1-0.7,1.6-0.4c0.6,0.3,2,0.5,3.3,0.6c2.5,0.3,5.7,0.6,7.4,2.6
		c1.4,1.7,1.5,4.5,1.6,7.2c0.1,2.4,0.1,4.8,1.1,5.8c1.5,1.5,4.4,1.9,7.1,2.3c2.8,0.4,5.8,0.8,7.6,2.5c2.1,2,3,5,3.8,7.7
		c0.6,2.1,1.2,4.1,2.2,5c3.8,3.3,9.4,1.6,9.4,1.6c0.6-0.2,1.3,0.2,1.5,0.8C1459.6,304.5,1459.4,305,1459,305.3z"/>
</g>
<g>
	<g id="XMLID_495_">
		<g id="XMLID_445_">
			<path fill="#FFFFFF" stroke="#000000" stroke-width="2.5" stroke-miterlimit="10" d="M1202.4,699.2l10.1-70.8l0.8,0.1
				c1.8,0.3,3.5-1,3.8-2.9l0-0.1c0.3-1.8-1-3.5-2.9-3.8l-0.8-0.1l10-70l0.8,0.1c1.8,0.3,3.5-1,3.8-2.9l0-0.1c0.3-1.8-1-3.5-2.9-3.8
				l-0.8-0.1l9.6-67.4l2.3,0.3c1,0.1,2-0.6,2.1-1.6l0.4-3.1c0.1-1-0.6-2-1.6-2.1l-2.3-0.3l10.1-70.8l0.8,0.1c1.8,0.3,3.5-1,3.8-2.9
				l0-0.1c0.3-1.8-1-3.5-2.9-3.8l-34.8-5l9.7-68.1l1.1,0.2c0.8,0.1,1.6-0.4,1.7-1.2l0.6-3.9c0.1-0.8-0.4-1.6-1.2-1.7l-115.8-16.6
				c-0.8-0.1-1.6,0.4-1.7,1.2l-0.6,3.9c-0.1,0.8,0.4,1.6,1.2,1.7l1.3,0.2l-9.7,68.1l-35-5c-1.8-0.3-3.5,1-3.8,2.9l0,0.1
				c-0.3,1.8,1,3.5,2.9,3.8l1.1,0.2l-10.1,70.8l-2.6-0.4c-1-0.1-2,0.6-2.1,1.6l-0.4,3.1c-0.1,1,0.6,2,1.6,2.1l2.6,0.4l-9.6,67.4
				l-1.1-0.2c-1.8-0.3-3.5,1-3.8,2.9l0,0.1c-0.3,1.8,1,3.5,2.9,3.8l1.1,0.2l-10,70l-1.1-0.2c-1.8-0.3-3.5,1-3.8,2.9l0,0.1
				c-0.3,1.8,1,3.5,2.9,3.8l1.1,0.2l-10.1,70.8l-1.1-0.2c-1.8-0.3-3.5,1-3.8,2.9l0,0.1c-0.3,1.8,1,3.5,2.9,3.8l1.1,0.2l-9.7,68.2
				l-9.4-1.3c-1.1-0.2-2.2,0.6-2.4,1.8l-0.6,4.4c-0.2,1.1,0.6,2.2,1.8,2.4l2.4,0.3L988.1,855l195,27.9l14.2-99.3l2.2,0.3
				c1.1,0.2,2.2-0.6,2.4-1.8l0.6-4.4c0.2-1.1-0.6-2.2-1.8-2.4l-9-1.3l9.7-68.2l0.8,0.1c1.8,0.3,3.5-1,3.8-2.9l0-0.1
				c0.3-1.8-1-3.5-2.9-3.8L1202.4,699.2z"/>
		</g>
	</g>
	<g id="XMLID_166_">
		<g id="XMLID_517_">
			<g id="XMLID_520_">
				<g id="XMLID_3274_">
					<path d="M1136.4,334.7c1.3-1.1,2.2-2.8,2.5-4.7c0.6-4.1-2-7.8-5.8-8.3c-3.8-0.5-7.3,2.3-7.9,6.4c-0.3,1.9,0.2,3.7,1.1,5.2
						l-0.1,0l-3,6.6l-5,35.1l14.4,2.1l4.9-34.6L1136.4,334.7z"/>
				</g>
			</g>
		</g>
		<g id="XMLID_513_">
			<g id="XMLID_516_">
				<g id="XMLID_3268_">
					<path d="M1166.3,339c1.3-1.1,2.2-2.8,2.5-4.7c0.6-4.1-2-7.8-5.8-8.3c-3.8-0.5-7.3,2.3-7.9,6.4c-0.3,1.9,0.2,3.7,1.1,5.2l-0.1,0
						l-3,6.6l-5,35.1l14.4,2.1l4.9-34.6L1166.3,339z"/>
				</g>
			</g>
		</g>
		<g id="XMLID_454_">
			<g id="XMLID_512_">
				<g id="XMLID_3262_">
					<path d="M1196.2,343.2c1.3-1.1,2.2-2.8,2.5-4.7c0.6-4.1-2-7.8-5.8-8.3c-3.8-0.5-7.3,2.3-7.9,6.4c-0.3,1.9,0.2,3.7,1.1,5.2
						l-0.1,0l-3,6.6l-5,35.1l14.4,2.1l4.9-34.6L1196.2,343.2z"/>
				</g>
			</g>
		</g>
	</g>
	<g id="XMLID_422_">
		<g id="XMLID_439_">
			<g id="XMLID_442_">
				<g id="XMLID_3251_">
					<path d="M1091.8,402.3c1.4-1.2,2.4-2.9,2.7-4.9c0.6-4.3-2.1-8.2-6.1-8.8c-4-0.6-7.7,2.4-8.3,6.7c-0.3,2,0.2,3.9,1.1,5.4l-0.1,0
						l-3.2,7l-5.3,37.1l15.2,2.2l5.2-36.5L1091.8,402.3z"/>
				</g>
			</g>
		</g>
		<g id="XMLID_435_">
			<g id="XMLID_438_">
				<g id="XMLID_3245_">
					<path d="M1123.4,406.8c1.4-1.2,2.4-2.9,2.7-4.9c0.6-4.3-2.1-8.2-6.1-8.8c-4-0.6-7.7,2.4-8.3,6.7c-0.3,2,0.2,3.9,1.1,5.4l-0.1,0
						l-3.2,7l-5.3,37.1l15.2,2.2l5.2-36.5L1123.4,406.8z"/>
				</g>
			</g>
		</g>
		<g id="XMLID_431_">
			<g id="XMLID_434_">
				<g id="XMLID_3239_">
					<path d="M1154.9,411.3c1.4-1.2,2.4-2.9,2.7-4.9c0.6-4.3-2.1-8.2-6.1-8.8c-4-0.6-7.7,2.4-8.3,6.7c-0.3,2,0.2,3.9,1.1,5.4l-0.1,0
						l-3.2,7l-5.3,37.1l15.2,2.2l5.2-36.5L1154.9,411.3z"/>
				</g>
			</g>
		</g>
		<g id="XMLID_427_">
			<g id="XMLID_430_">
				<g id="XMLID_3233_">
					<path d="M1186.5,415.9c1.4-1.2,2.4-2.9,2.7-4.9c0.6-4.3-2.1-8.2-6.1-8.8c-4-0.6-7.7,2.4-8.3,6.7c-0.3,2,0.2,3.9,1.1,5.4l-0.1,0
						l-3.2,7l-5.3,37.1l15.2,2.2l5.2-36.5L1186.5,415.9z"/>
				</g>
			</g>
		</g>
		<g id="XMLID_423_">
			<g id="XMLID_426_">
				<g id="XMLID_3227_">
					<path d="M1218.1,420.4c1.4-1.2,2.4-2.9,2.7-4.9c0.6-4.3-2.1-8.2-6.1-8.8c-4-0.6-7.7,2.4-8.3,6.7c-0.3,2,0.2,3.9,1.1,5.4l-0.1,0
						l-3.2,7l-5.3,37.1l15.2,2.2l5.2-36.5L1218.1,420.4z"/>
				</g>
			</g>
		</g>
	</g>
	<g id="XMLID_399_">
		<g id="XMLID_416_">
			<g id="XMLID_419_">
				<g id="XMLID_3216_">
					<path d="M1080.3,477.2c1.4-1.2,2.4-2.9,2.7-5c0.6-4.3-2.1-8.3-6.2-8.9c-4-0.6-7.8,2.5-8.4,6.8c-0.3,2,0.2,3.9,1.1,5.5l-0.1,0
						l-3.2,7l-5.3,37.4l15.3,2.2l5.3-36.8L1080.3,477.2z"/>
				</g>
			</g>
		</g>
		<g id="XMLID_412_">
			<g id="XMLID_415_">
				<g id="XMLID_3210_">
					<path d="M1112.1,481.8c1.4-1.2,2.4-2.9,2.7-5c0.6-4.3-2.1-8.3-6.2-8.9c-4-0.6-7.8,2.5-8.4,6.8c-0.3,2,0.2,3.9,1.1,5.5l-0.1,0
						l-3.2,7l-5.3,37.4l15.3,2.2l5.3-36.8L1112.1,481.8z"/>
				</g>
			</g>
		</g>
		<g id="XMLID_408_">
			<g id="XMLID_411_">
				<g id="XMLID_3204_">
					<path d="M1143.9,486.3c1.4-1.2,2.4-2.9,2.7-5c0.6-4.3-2.1-8.3-6.2-8.9c-4-0.6-7.8,2.5-8.4,6.8c-0.3,2,0.2,3.9,1.1,5.5l-0.1,0
						l-3.2,7l-5.3,37.4l15.3,2.2l5.3-36.8L1143.9,486.3z"/>
				</g>
			</g>
		</g>
		<g id="XMLID_404_">
			<g id="XMLID_407_">
				<g id="XMLID_3198_">
					<path d="M1175.8,490.9c1.4-1.2,2.4-2.9,2.7-5c0.6-4.3-2.1-8.3-6.2-8.9c-4-0.6-7.8,2.5-8.4,6.8c-0.3,2,0.2,3.9,1.1,5.5l-0.1,0
						l-3.2,7l-5.3,37.4l15.3,2.2l5.3-36.8L1175.8,490.9z"/>
				</g>
			</g>
		</g>
		<g id="XMLID_400_">
			<g id="XMLID_403_">
				<g id="XMLID_3192_">
					<path d="M1207.6,495.4c1.4-1.2,2.4-2.9,2.7-5c0.6-4.3-2.1-8.3-6.2-8.9c-4-0.6-7.8,2.5-8.4,6.8c-0.3,2,0.2,3.9,1.1,5.5l-0.1,0
						l-3.2,7l-5.3,37.4l15.3,2.2l5.3-36.8L1207.6,495.4z"/>
				</g>
			</g>
		</g>
	</g>
	<g id="XMLID_376_">
		<g id="XMLID_393_">
			<g id="XMLID_396_">
				<g id="XMLID_3181_">
					<path d="M1069.9,553.8c1.4-1.2,2.4-2.9,2.7-5c0.6-4.3-2.1-8.2-6.1-8.8c-4-0.6-7.7,2.4-8.4,6.7c-0.3,2,0.2,3.9,1.1,5.5l-0.1,0
						l-3.2,7l-5.3,37.2l15.2,2.2l5.2-36.6L1069.9,553.8z"/>
				</g>
			</g>
		</g>
		<g id="XMLID_389_">
			<g id="XMLID_392_">
				<g id="XMLID_3175_">
					<path d="M1101.6,558.4c1.4-1.2,2.4-2.9,2.7-5c0.6-4.3-2.1-8.2-6.1-8.8c-4-0.6-7.7,2.4-8.4,6.7c-0.3,2,0.2,3.9,1.1,5.5l-0.1,0
						l-3.2,7l-5.3,37.2l15.2,2.2l5.2-36.6L1101.6,558.4z"/>
				</g>
			</g>
		</g>
		<g id="XMLID_385_">
			<g id="XMLID_388_">
				<g id="XMLID_3169_">
					<path d="M1133.3,562.9c1.4-1.2,2.4-2.9,2.7-5c0.6-4.3-2.1-8.2-6.1-8.8c-4-0.6-7.7,2.4-8.4,6.7c-0.3,2,0.2,3.9,1.1,5.5l-0.1,0
						l-3.2,7l-5.3,37.2l15.2,2.2l5.2-36.6L1133.3,562.9z"/>
				</g>
			</g>
		</g>
		<g id="XMLID_381_">
			<g id="XMLID_384_">
				<g id="XMLID_3163_">
					<path d="M1165,567.4c1.4-1.2,2.4-2.9,2.7-5c0.6-4.3-2.1-8.2-6.1-8.8c-4-0.6-7.7,2.4-8.4,6.7c-0.3,2,0.2,3.9,1.1,5.5l-0.1,0
						l-3.2,7l-5.3,37.2l15.2,2.2l5.2-36.6L1165,567.4z"/>
				</g>
			</g>
		</g>
		<g id="XMLID_377_">
			<g id="XMLID_380_">
				<g id="XMLID_3157_">
					<path d="M1196.6,572c1.4-1.2,2.4-2.9,2.7-5c0.6-4.3-2.1-8.2-6.1-8.8c-4-0.6-7.7,2.4-8.4,6.7c-0.3,2,0.2,3.9,1.1,5.5l-0.1,0
						l-3.2,7l-5.3,37.2l15.2,2.2l5.2-36.6L1196.6,572z"/>
				</g>
			</g>
		</g>
	</g>
	<g id="XMLID_167_">
		<g id="XMLID_370_">
			<g id="XMLID_373_">
				<g id="XMLID_3146_">
					<path d="M1059.1,630.7c1.4-1.2,2.4-2.9,2.7-4.9c0.6-4.3-2.1-8.2-6.1-8.8c-4-0.6-7.7,2.4-8.3,6.7c-0.3,2,0.2,3.9,1.1,5.4l-0.1,0
						l-3.2,7l-5.3,37.1l15.2,2.2l5.2-36.5L1059.1,630.7z"/>
				</g>
			</g>
		</g>
		<g id="XMLID_180_">
			<g id="XMLID_369_">
				<g id="XMLID_3140_">
					<path d="M1090.7,635.3c1.4-1.2,2.4-2.9,2.7-4.9c0.6-4.3-2.1-8.2-6.1-8.8c-4-0.6-7.7,2.4-8.3,6.7c-0.3,2,0.2,3.9,1.1,5.4l-0.1,0
						l-3.2,7l-5.3,37.1l15.2,2.2l5.2-36.5L1090.7,635.3z"/>
				</g>
			</g>
		</g>
		<g id="XMLID_176_">
			<g id="XMLID_179_">
				<g id="XMLID_3134_">
					<path d="M1122.3,639.8c1.4-1.2,2.4-2.9,2.7-4.9c0.6-4.3-2.1-8.2-6.1-8.8c-4-0.6-7.7,2.4-8.3,6.7c-0.3,2,0.2,3.9,1.1,5.4l-0.1,0
						l-3.2,7l-5.3,37.1l15.2,2.2l5.2-36.5L1122.3,639.8z"/>
				</g>
			</g>
		</g>
		<g id="XMLID_172_">
			<g id="XMLID_175_">
				<g id="XMLID_3128_">
					<path d="M1153.9,644.3c1.4-1.2,2.4-2.9,2.7-4.9c0.6-4.3-2.1-8.2-6.1-8.8c-4-0.6-7.7,2.4-8.3,6.7c-0.3,2,0.2,3.9,1.1,5.4l-0.1,0
						l-3.2,7l-5.3,37.1l15.2,2.2l5.2-36.5L1153.9,644.3z"/>
				</g>
			</g>
		</g>
		<g id="XMLID_168_">
			<g id="XMLID_171_">
				<g id="XMLID_3122_">
					<path d="M1185.5,648.8c1.4-1.2,2.4-2.9,2.7-4.9c0.6-4.3-2.1-8.2-6.1-8.8c-4-0.6-7.7,2.4-8.3,6.7c-0.3,2,0.2,3.9,1.1,5.4l-0.1,0
						l-3.2,7l-5.3,37.1l15.2,2.2l5.2-36.5L1185.5,648.8z"/>
				</g>
			</g>
		</g>
	</g>
	<g id="XMLID_148_">
		<g id="XMLID_143_">
			<g id="XMLID_146_">
				<g id="XMLID_3111_">
					<path d="M1047.8,708c1.4-1.2,2.4-2.9,2.7-5c0.6-4.3-2.1-8.3-6.1-8.8c-4-0.6-7.8,2.4-8.4,6.8c-0.3,2,0.2,3.9,1.1,5.5l-0.1,0
						l-3.2,7l-5.3,37.3l15.3,2.2l5.2-36.7L1047.8,708z"/>
				</g>
			</g>
		</g>
		<g id="XMLID_149_">
			<g id="XMLID_152_">
				<g id="XMLID_3105_">
					<path d="M1079.5,712.6c1.4-1.2,2.4-2.9,2.7-5c0.6-4.3-2.1-8.3-6.1-8.8c-4-0.6-7.8,2.4-8.4,6.8c-0.3,2,0.2,3.9,1.1,5.5l-0.1,0
						l-3.2,7l-5.3,37.3l15.3,2.2l5.2-36.7L1079.5,712.6z"/>
				</g>
			</g>
		</g>
		<g id="XMLID_153_">
			<g id="XMLID_156_">
				<g id="XMLID_3099_">
					<path d="M1111.2,717.1c1.4-1.2,2.4-2.9,2.7-5c0.6-4.3-2.1-8.3-6.1-8.8c-4-0.6-7.8,2.4-8.4,6.8c-0.3,2,0.2,3.9,1.1,5.5l-0.1,0
						l-3.2,7l-5.3,37.3l15.3,2.2l5.2-36.7L1111.2,717.1z"/>
				</g>
			</g>
		</g>
		<g id="XMLID_157_">
			<g id="XMLID_160_">
				<g id="XMLID_3093_">
					<path d="M1143,721.7c1.4-1.2,2.4-2.9,2.7-5c0.6-4.3-2.1-8.3-6.1-8.8c-4-0.6-7.8,2.4-8.4,6.8c-0.3,2,0.2,3.9,1.1,5.5l-0.1,0
						l-3.2,7l-5.3,37.3l15.3,2.2l5.2-36.7L1143,721.7z"/>
				</g>
			</g>
		</g>
		<g id="XMLID_161_">
			<g id="XMLID_164_">
				<g id="XMLID_3087_">
					<path d="M1174.7,726.2c1.4-1.2,2.4-2.9,2.7-5c0.6-4.3-2.1-8.3-6.1-8.8c-4-0.6-7.8,2.4-8.4,6.8c-0.3,2,0.2,3.9,1.1,5.5l-0.1,0
						l-3.2,7l-5.3,37.3l15.3,2.2l5.2-36.7L1174.7,726.2z"/>
				</g>
			</g>
		</g>
	</g>
	<g id="XMLID_121_">
		<g id="XMLID_117_">
			<g id="XMLID_3078_">
				<path d="M1002.3,857l10.3-72.3c1-6.9,7.4-11.7,14.2-10.7l0,0c6.9,1,11.7,7.4,10.7,14.2l-10.3,72.3"/>
			</g>
		</g>
	</g>
	<g id="XMLID_123_">
		<g id="XMLID_127_">
			<g id="XMLID_3069_">
				<path d="M1062.3,865.6l-24.9-3.6l10.3-72.3c1-6.9,7.4-11.7,14.2-10.7l0,0c6.9,1,11.7,7.4,10.7,14.2L1062.3,865.6z"/>
			</g>
		</g>
	</g>
	<g id="XMLID_128_">
		<g id="XMLID_132_">
			<g id="XMLID_3060_">
				<path d="M1097.3,870.6l-24.9-3.6l10.3-72.3c1-6.9,7.4-11.7,14.2-10.7l0,0c6.9,1,11.7,7.4,10.7,14.2L1097.3,870.6z"/>
			</g>
		</g>
	</g>
	<g id="XMLID_133_">
		<g id="XMLID_137_">
			<g id="XMLID_3051_">
				<path d="M1132.3,875.6l-24.9-3.6l10.3-72.3c1-6.9,7.4-11.7,14.2-10.7l0,0c6.9,1,11.7,7.4,10.7,14.2L1132.3,875.6z"/>
			</g>
		</g>
	</g>
	<g id="XMLID_138_">
		<g id="XMLID_142_">
			<g id="XMLID_3042_">
				<path d="M1167.4,880.6l-24.9-3.6l10.3-72.3c1-6.9,7.4-11.7,14.2-10.7l0,0c6.9,1,11.7,7.4,10.7,14.2L1167.4,880.6z"/>
			</g>
		</g>
	</g>
	<line fill="none" stroke="#000000" stroke-width="2.5" stroke-miterlimit="10" x1="1064" y1="374" x2="1246" y2="400.1"/>
	<line fill="none" stroke="#000000" stroke-width="2.5" stroke-miterlimit="10" x1="1052.9" y1="451.6" x2="1234.1" y2="477.5"/>
	<line fill="none" stroke="#000000" stroke-width="2.5" stroke-miterlimit="10" x1="1042.3" y1="525.7" x2="1223.5" y2="551.6"/>
	<line fill="none" stroke="#000000" stroke-width="2.5" stroke-miterlimit="10" x1="1212.5" y1="628.4" x2="1031.3" y2="602.5"/>
	<line fill="none" stroke="#000000" stroke-width="2.5" stroke-miterlimit="10" x1="1020.2" y1="680" x2="1202.2" y2="706.1"/>
	<line fill="none" stroke="#000000" stroke-width="2.5" stroke-miterlimit="10" x1="1002.3" y1="755.7" x2="1197.3" y2="783.6"/>
</g>
<g>
	<g>
		<path fill="#FFFFFF" d="M1137.5,922.5c0,0-51.2,35.4-62.6,34.5c-11.4-0.9-36.5-52.4-68.4-37.2c-32.6,15.5-25,55.8,27.9,73.2
			c0,0-26,59.4,9.7,65.4c33.2,5.5,45.7-29.2,45.7-42.2c0-25,80.7-36,80.7-36L1137.5,922.5z"/>
		<path d="M1054.3,1059.9c-3.3,0.3-6.7,0.1-10.2-0.5c-7.6-1.3-13.1-4.9-16.3-10.9c-9.4-17.3,2.6-48.4,5.3-54.9
			c-27.8-9.4-45.8-26.6-47-45c-0.8-12.6,6.5-23.5,20.1-29.9c22.3-10.6,40.9,9.7,54.5,24.6c6,6.6,11.2,12.2,14.5,12.5
			c9,0.7,47.7-24.5,61.8-34.3c0.3-0.2,0.6-0.2,0.9-0.2c0.3,0.1,0.6,0.3,0.7,0.5l33.1,57.6c0.2,0.3,0.2,0.7,0,1.1
			c-0.2,0.3-0.5,0.6-0.9,0.6c-0.8,0.1-79.8,11.1-79.7,34.9c0,8.8-5.2,25.6-17,35.6C1068.3,1056.5,1061.6,1059.3,1054.3,1059.9z
			 M1016.4,918.2c-3.1,0.2-6.2,1.1-9.4,2.6c-12.7,6-19.5,16.1-18.8,27.7c0.9,13.9,13.6,32.5,46.6,43.4c0.3,0.1,0.6,0.3,0.7,0.6
			c0.1,0.3,0.1,0.6,0,0.9c-0.2,0.4-15.6,36-5.8,54c2.9,5.4,7.9,8.7,14.7,9.8c10.9,1.8,20.4-0.7,28.2-7.3
			c11.2-9.5,16.2-25.5,16.2-33.8c0-24,68.1-35.1,80-36.9l-31.6-55.1c-7.5,5.1-51.4,34.9-62.3,34c-4.2-0.3-9.4-6-16-13.2
			C1047.8,932.7,1033.2,916.8,1016.4,918.2z"/>
	</g>
	<path d="M1046.3,1023.1c-0.2,0-0.4,0-0.6-0.1c-0.5-0.3-0.8-1-0.4-1.5c0.1-0.1,5.5-10.3,2-18.3c-2-4.4-6.3-7.5-12.9-9.1
		c-0.6-0.1-1-0.8-0.8-1.4c0.1-0.6,0.8-1,1.4-0.8c7.4,1.8,12.2,5.3,14.5,10.4c4,9.1-1.8,19.9-2.1,20.3
		C1047,1022.9,1046.6,1023.1,1046.3,1023.1z"/>
	<path d="M1111.6,931.9c0,0,15.7-18.6,76.6-150.1c24.8-53.6,92.2-106.6,173-66.6c80.8,40,134.9,169.6,58.6,246
		c-76.3,76.4-205.2,36.8-237.8,33.2c-28.3-3.1-44.6-1.1-44.6-1.1l3.4-20.6l-19.3-9l12.1-20.6L1111.6,931.9z"/>
	<path fill="#FFFFFF" d="M1252.5,889.9c40,66.3,108.3,98.3,152.6,71.6c44.3-26.7,56.7-105.6,16.8-171.9
		c-40-66.3-117.2-94.8-161.5-68.1C1216,748.2,1212.5,823.6,1252.5,889.9z"/>
	<path d="M1334.3,847.3c9.2,14.6,22.9,22.5,30.6,17.6c7.7-4.9,6.6-20.6-2.6-35.2c-9.2-14.6-22.9-22.5-30.6-17.6
		C1324,816.9,1325.2,832.7,1334.3,847.3z"/>
	<path fill="#FFFFFF" d="M1311.2,971c-0.2,0-0.5,0-0.7-0.2c-64.7-40.5-89.7-90-99.3-124.4c-10.4-37.3-5.4-65.5-5.3-65.8
		c0.1-0.6,0.7-1,1.3-0.9c0.6,0.1,1,0.7,0.9,1.3c-0.1,0.3-5,28,5.3,64.9c9.5,34,34.2,82.9,98.3,123c0.5,0.3,0.7,1,0.4,1.6
		C1311.9,970.8,1311.5,971,1311.2,971z"/>
</g>
</svg>
