<?xml version="1.0" encoding="utf-8"?>
<!-- Generator: Adobe Illustrator 26.0.1, SVG Export Plug-In . SVG Version: 6.00 Build 0)  -->
<svg version="1.0" id="Ebene_1" xmlns="http://www.w3.org/2000/svg" xmlns:xlink="http://www.w3.org/1999/xlink" x="0px" y="0px"
	 viewBox="0 0 1500 980" enable-background="new 0 0 1500 980" xml:space="preserve">
<g>
	<path fill="#FFFFFF" d="M839.2,457.9H495.6c-9.4,0-17-7.6-17-17V330.6c0-9.4,7.6-17,17-17h343.7c9.4,0,17,7.6,17,17v110.3
		C856.2,450.3,848.6,457.9,839.2,457.9z"/>
	<g>
		<path fill="#FFFFFF" d="M767,356.3H560.9c-4.1,0-7.4-3.3-7.4-7.4c0-4.1,3.3-7.4,7.4-7.4H767c4.1,0,7.4,3.3,7.4,7.4
			C774.5,353,771.1,356.3,767,356.3z"/>
		<path d="M767,357.5H560.9c-4.7,0-8.6-3.9-8.6-8.6c0-4.7,3.9-8.6,8.6-8.6H767c4.7,0,8.6,3.9,8.6,8.6
			C775.6,353.6,771.8,357.5,767,357.5z M560.9,342.6c-3.5,0-6.3,2.8-6.3,6.3c0,3.5,2.8,6.3,6.3,6.3H767c3.5,0,6.3-2.8,6.3-6.3
			c0-3.5-2.8-6.3-6.3-6.3H560.9z"/>
	</g>
</g>
<g>
	<g>
		<path d="M544.4,404.1l-16.2-2.4l-7.2-14.7c-1.6-3.2-6.1-3.2-7.6,0l-7.2,14.7l-16.2,2.4c-3.5,0.5-4.9,4.8-2.4,7.2l11.7,11.4
			l-2.8,16.1c-0.6,3.5,3,6.1,6.2,4.5l14.5-7.6l14.5,7.6c3.1,1.6,6.8-1,6.2-4.5l-2.8-16.1l11.7-11.4
			C549.2,408.9,547.8,404.6,544.4,404.1z"/>
		<path d="M619.2,404.1l-16.2-2.4l-7.2-14.7c-1.6-3.2-6.1-3.2-7.6,0l-7.2,14.7l-16.2,2.4c-3.5,0.5-4.9,4.8-2.4,7.2l11.7,11.4
			l-2.8,16.1c-0.6,3.5,3,6.1,6.2,4.5l14.5-7.6l14.5,7.6c3.1,1.6,6.8-1,6.2-4.5l-2.8-16.1l11.7-11.4
			C624,408.9,622.6,404.6,619.2,404.1z"/>
		<path d="M694,404.1l-16.2-2.4l-7.2-14.7c-1.6-3.2-6.1-3.2-7.6,0l-7.2,14.7l-16.2,2.4c-3.5,0.5-4.9,4.8-2.4,7.2l11.7,11.4
			l-2.8,16.1c-0.6,3.5,3,6.1,6.2,4.5l14.5-7.6l14.5,7.6c3.1,1.6,6.8-1,6.2-4.5l-2.8-16.1l11.7-11.4
			C698.8,408.9,697.5,404.6,694,404.1z"/>
		<path d="M768.8,404.1l-16.2-2.4l-7.2-14.7c-1.6-3.2-6.1-3.2-7.6,0l-7.2,14.7l-16.2,2.4c-3.5,0.5-4.9,4.8-2.4,7.2l11.7,11.4
			l-2.8,16.1c-0.6,3.5,3,6.1,6.2,4.5l14.5-7.6l14.5,7.6c3.1,1.6,6.8-1,6.2-4.5l-2.8-16.1l11.7-11.4
			C773.6,408.9,772.3,404.6,768.8,404.1z"/>
		<path d="M843.6,404.1l-16.2-2.4l-7.2-14.7c-1.6-3.2-6.1-3.2-7.6,0l-7.2,14.7l-16.2,2.4c-3.5,0.5-4.9,4.8-2.4,7.2l11.7,11.4
			l-2.8,16.1c-0.6,3.5,3,6.1,6.2,4.5l14.5-7.6l14.5,7.6c3.1,1.6,6.8-1,6.2-4.5l-2.8-16.1l11.7-11.4
			C848.5,408.9,847.1,404.6,843.6,404.1z"/>
	</g>
	<g>
		<g>
			<path d="M806.2,234.3l-35.3,11.4l-29.4-22.6c-6.3-4.9-15.5-0.4-15.5,7.6l-0.1,37.1l-30.6,21c-6.6,4.5-5.1,14.6,2.5,17.1
				l35.3,11.5l10.5,35.6c2.3,7.7,12.3,9.4,17,2.9l21.9-30l37.1,1c8,0.2,12.7-8.8,8.1-15.3l-21.8-30.1l12.4-35
				C820.9,239.2,813.8,231.9,806.2,234.3z"/>
		</g>
		<path d="M836.8,392.5c-0.3,0-0.5-0.1-0.8-0.3c-0.5-0.4-0.5-1.2-0.1-1.6c14.5-16.8,21.1-34.6,19.4-52.9c-3-33.5-32.7-57.8-33-58.1
			c-0.5-0.4-0.6-1.1-0.2-1.6c0.4-0.5,1.1-0.6,1.6-0.2c0.3,0.2,30.8,25.1,33.9,59.6c1.7,19-5,37.4-20,54.7
			C837.4,392.4,837.1,392.5,836.8,392.5z"/>
		<path d="M795.7,397.9c-0.2,0-0.3,0-0.5-0.1c-0.6-0.3-0.9-0.9-0.6-1.5c13-30.2-8.5-54.8-8.7-55.1c-0.4-0.5-0.4-1.2,0.1-1.6
			c0.5-0.4,1.2-0.4,1.6,0.1c0.2,0.3,22.7,26,9.1,57.6C796.5,397.6,796.1,397.9,795.7,397.9z"/>
	</g>
</g>
<g>
	<path d="M836.4,459h-338c-11.6,0-21-9.4-21-21V333.4c0-11.6,9.4-21,21-21h175.4c0.6,0,1.2,0.5,1.2,1.2c0,0.6-0.5,1.2-1.2,1.2H498.4
		c-10.3,0-18.6,8.4-18.6,18.6v104.7c0,10.3,8.4,18.6,18.6,18.6h338c10.3,0,18.6-8.4,18.6-18.6v-36.2c0-0.6,0.5-1.2,1.2-1.2
		c0.6,0,1.2,0.5,1.2,1.2v36.2C857.4,449.6,848,459,836.4,459z"/>
</g>
<g>
	<g>
		<g>
			<g>
				<polygon fill="#FFFFFF" points="242.7,700.3 237.7,735.4 225,735.4 224.4,701 				"/>
				<path d="M225,736.6c-0.6,0-1.2-0.5-1.2-1.1l-0.6-34.5c0-0.6,0.5-1.2,1.1-1.2l18.4-0.6c0.3,0,0.7,0.1,0.9,0.4
					c0.2,0.3,0.3,0.6,0.3,0.9l-5,35.1c-0.1,0.6-0.6,1-1.1,1L225,736.6C225,736.6,225,736.6,225,736.6z M225.6,702.1l0.6,32.2l10.6,0
					l4.7-32.7L225.6,702.1z"/>
			</g>
			<path d="M238.2,768.9c-5,0.5-12.5,0.7-22.5-0.1c-3.6-0.3-6.1-3.6-5.5-7.2c1.5-9.5,5.9-26.3,12.7-34l3.4,4.8l2-5
				c0.3-0.5,8.8-0.9,9,0.1l0.5,4.8l4.8-5.4l-0.3,17.7c0,2,0.2,3.9,0.6,5.8l1.3,6.1c0.8,3.7-0.2,7.6-2.8,10.3
				C240.3,768.1,239.2,768.8,238.2,768.9z"/>
		</g>
		<g>
			<g>
				<polygon fill="#FFFFFF" points="334.5,703.5 339,744.3 356.2,747.9 355.1,700 				"/>
				<path d="M356.2,749.1c-0.1,0-0.2,0-0.2,0l-17.2-3.6c-0.5-0.1-0.9-0.5-0.9-1l-4.5-40.9c-0.1-0.6,0.4-1.2,1-1.3l20.6-3.5
					c0.3-0.1,0.7,0,0.9,0.3c0.3,0.2,0.4,0.5,0.4,0.9l1,47.9c0,0.4-0.1,0.7-0.4,0.9C356.7,749,356.4,749.1,356.2,749.1z M340,743.4
					l14.9,3.1l-1-45.1l-18.2,3L340,743.4z"/>
			</g>
			<g>
				<path d="M331.7,763.8c-0.4-7.2-0.4-20.4,4-26.7l13.8,4.9v-2.9c0-0.9,0.7-1.7,1.5-1.8l7.7-0.4c2.9-0.2,5.7,0.4,8.3,1.7
					c7.7,3.8,31.2,13.5,34.4,24.4c1,3.2-1.6,6.5-4.9,6.5c-7.7,0.2-26.3,0.5-59.6-0.7C334.1,768.8,331.8,766.6,331.7,763.8z"/>
				<path d="M381.1,770.9c-10.2,0-24.7-0.2-44.2-0.9c-3.4-0.1-6.1-2.8-6.3-6.2c-0.4-7.4-0.4-20.8,4.2-27.4c0.3-0.4,0.9-0.6,1.4-0.4
					l12.2,4.3v-1.3c0-1.6,1.2-2.9,2.6-2.9l7.7-0.4c3-0.2,6.1,0.5,8.9,1.8c0.9,0.5,2.1,1,3.4,1.6c10,4.7,28.6,13.4,31.7,23.6
					c0.5,1.8,0.2,3.8-0.9,5.4c-1.2,1.6-3.1,2.6-5.1,2.7C393.2,770.8,388.1,770.9,381.1,770.9z M332.9,763.8c0.1,2.2,1.9,3.9,4,4
					c33,1.1,51.4,0.9,59.5,0.7c1.3,0,2.5-0.7,3.3-1.7c0.7-1,0.9-2.2,0.6-3.3c-2.7-9.1-21.4-17.9-30.4-22.1c-1.3-0.6-2.5-1.2-3.4-1.6
					c-2.4-1.2-5.1-1.7-7.7-1.6l-7.7,0.4c-0.2,0-0.4,0.3-0.4,0.6v2.9c0,0.4-0.2,0.7-0.5,1c-0.3,0.2-0.7,0.3-1.1,0.1l-12.9-4.6
					C332.5,744.8,332.5,756.9,332.9,763.8z"/>
			</g>
		</g>
		<path d="M336.8,421.1c0,0,27.6,186.2,22.4,299l-7.7,0.8c-4.1,0.4-8.3,0.5-12.4,0.3l-7.3-0.4c-32.8-191.1-41.1-200.1-47.4-221.2
			c0,0-36.5,173.7-38.1,215c0,0-17.7,1.8-24.8-0.8c-3.8-39.9-4.9-81.1-5.1-107c-0.5-74.1,6.5-107.8,10.4-123.8
			c3.6-14.7,7.4-26.6,10.2-34.6l9.3-26.6L336.8,421.1z"/>
		<path fill="#FFFFFF" d="M284.4,506.8c-0.1,0-0.1,0-0.2,0c-0.6-0.1-1-0.7-0.9-1.4l4.1-20.9c1.2-4.5,4.8-7.9,9.3-8.8l3.8-0.8
			c0.6-0.1,1.2,0.3,1.4,0.9c0.1,0.6-0.3,1.2-0.9,1.4l-3.8,0.8c-3.7,0.8-6.6,3.5-7.6,7.1l-4,20.8
			C285.4,506.4,284.9,506.8,284.4,506.8z"/>
		<path fill="#FFFFFF" d="M235.7,473.1c-0.6,0-1.1-0.4-1.1-1c-0.1-0.6,0.3-1.2,1-1.3c16.9-2.8,23-13.7,24.9-18.3
			c0.2-0.6,0.9-0.9,1.5-0.6c0.6,0.2,0.9,0.9,0.6,1.5c-2,4.9-8.7,16.7-26.7,19.7C235.8,473.1,235.8,473.1,235.7,473.1z"/>
		<path fill="#FFFFFF" d="M336.6,462c-0.2,0-0.3,0-0.5-0.1c-13.3-5.8-14.8-17.5-14.9-18c-0.1-0.6,0.4-1.2,1-1.3
			c0.6-0.1,1.2,0.4,1.3,1c0.1,0.5,1.5,10.9,13.5,16.1c0.6,0.3,0.9,0.9,0.6,1.5C337.5,461.7,337,462,336.6,462z"/>
	</g>
	<g>
		<g>
			<path fill="#FFFFFF" d="M218.3,289c4.8-5.4,14.5-11.2,21.6-12.9c13.4-3.1,30.6-4.9,46-5.9l8.7-0.9c4.5-0.3,8.7-0.4,12.7-0.2
				c2.7-0.1,5.3-0.2,7.4-0.2c6.8-0.2,17.7,2,23.4,5.6c5.6,3.4,10.9,7.7,15.8,12.4c18.9,15.2,28.4,34.8,40.2,35.9
				c4.8,0.5,14.4-28.6,18.1-40.4c2.4-7.7,11.4-11.1,18.2-6.9c0.3,0.2,0.7,0.4,0.9,0.6c8.7,6.2,6.1,20.3,6.1,20.3
				s-4.8,78.3-26.7,81.5c-24.5,3.5-61.5-26.2-69.2-28.3l5.7,33.6l9.5,47c1.4,9.1-10.4,12-17,11.9c-0.2,0-2.3-16.5-2.5-16.5
				c-21.2-4.4-48.6,8.2-69.9,19.6c-27.4,14.5-52.3,4.8-54.2-2.7c-1.9-7.5,3.2-52.9,3.2-52.9l-28.8-2.4c-5.4-0.4-9.6-5-9.6-10.4
				C178.1,339.7,204.2,305.1,218.3,289z"/>
			<path d="M238.6,454c-7.1,0-13.3-1.4-17.9-3.5c-4.7-2.1-7.9-4.9-8.6-7.6c-1.8-7,2.2-44.7,3.1-52.1l-27.6-2.3
				c-6-0.5-10.7-5.6-10.7-11.6c0.1-37.2,25.5-71.5,40.6-88.7l0.9,0.8l-0.9-0.8c4.9-5.6,14.9-11.5,22.2-13.2c11.5-2.7,27-4.7,46.1-6
				l8.7-0.9c4.4-0.3,8.7-0.4,12.8-0.2c2.7-0.1,5.2-0.2,7.3-0.2c6.8-0.2,17.9,2,24.1,5.7c5.4,3.3,10.8,7.5,16,12.5
				c7.9,6.3,14.1,13.4,19.7,19.7c7.5,8.5,13.5,15.3,19.9,15.9c0,0,0,0,0,0c1.8,0,7.7-10.5,16.8-39.5c1.3-4,4.3-7.2,8.2-8.7
				c3.9-1.5,8.2-1,11.7,1.1c0.4,0.2,0.7,0.4,1,0.7c9,6.4,6.8,20.1,6.5,21.4c-0.3,4.1-5.2,79.3-27.6,82.5
				c-18.2,2.6-43-12.6-57.9-21.7c-4.2-2.6-7.7-4.7-10-5.8l5.4,31.5l9.5,47c0.5,3-0.3,5.5-2.1,7.6c-4,4.6-12,5.7-16.1,5.7
				c-1.1,0-1.1,0-2.4-9.4c-0.4-2.7-0.8-5.9-1.1-7.3c-20.6-3.8-47.3,8.4-68.4,19.6C257.5,451.9,247.3,454,238.6,454z M302.3,270.2
				c-2.5,0-5,0.1-7.6,0.3l-8.7,0.9c-19,1.3-34.4,3.3-45.8,5.9c-6.8,1.6-16.4,7.3-21,12.5c-14.9,16.9-40,50.7-40,87.1
				c0,4.8,3.7,8.9,8.5,9.3l28.8,2.4c0.3,0,0.6,0.2,0.8,0.4c0.2,0.2,0.3,0.6,0.3,0.9c-1.8,15.6-4.7,46.7-3.3,52.5
				c0.5,2,3.3,4.3,7.3,6.1c9.9,4.4,27,5.6,45.3-4.1c21.7-11.5,49.3-24.1,70.7-19.7c0.9,0.2,0.9,0.2,2.2,9.1c0.4,2.7,0.8,5.9,1.1,7.4
				c4.7-0.1,10.6-1.7,13.3-4.9c1.4-1.6,1.9-3.5,1.6-5.7l-9.5-46.9l-5.7-33.6c-0.1-0.4,0.1-0.8,0.4-1.1c0.3-0.3,0.7-0.4,1.1-0.3
				c2.3,0.6,6.5,3.2,12.4,6.8c14.6,8.9,39,23.9,56.3,21.4c20.7-3,25.6-79.6,25.7-80.4c0,0,0-0.1,0-0.1c0-0.1,2.4-13.4-5.6-19.1
				c-0.3-0.2-0.6-0.4-0.9-0.6c-2.9-1.8-6.5-2.1-9.7-0.9c-3.3,1.2-5.8,3.8-6.8,7.2c-13.1,41.8-17.8,41.3-19.3,41.2
				c-7.3-0.7-13.5-7.8-21.4-16.7c-5.5-6.2-11.7-13.2-19.5-19.5c-5.2-5-10.4-9.1-15.7-12.3c-5.6-3.4-16.3-5.5-22.8-5.4
				c-2.2,0.1-4.7,0.1-7.4,0.2C305.6,270.3,303.9,270.2,302.3,270.2z"/>
		</g>
		<g>
			<path fill="#FFFFFF" d="M244.4,328.2c-2.5,3.4-5.4,6.4-8.8,8.9c-11.2,8.6-38,29.3-44.3,36.4c-8.1,9.1-12.1,12.6-2,31.9
				c16.6,31.3,61.2-61,61.2-61s16.9,0.7,18.6-14.2c0,0,8.8,0.4,12.2-1.6c2.6-1.6,1.8-6.2-1.9-6.2l-24.3-1.2
				c-3.3-0.1-6.6,1.4-8.5,4.1L244.4,328.2z"/>
			<path d="M198.1,413.1c-4,0-7.3-2.4-9.8-7.1c-10.2-19.4-6.3-23.7,1.4-32.4l0.7-0.8c6.4-7.2,33.3-28,44.5-36.6
				c3.2-2.5,6.1-5.4,8.5-8.7l2.2-2.9c2.2-3,5.8-4.7,9.5-4.6l24.4,1.2c2.1,0,3.8,1.3,4.4,3.3c0.6,2-0.2,4.1-1.9,5.1
				c-3,1.8-9.2,1.9-11.8,1.8c-2.2,12.9-15.5,14.1-18.9,14.2c-3.6,7.4-33.5,67.1-53,67.5C198.2,413.1,198.2,413.1,198.1,413.1z
				 M245.4,328.9c-2.6,3.4-5.6,6.5-9,9.1c-11.2,8.6-37.9,29.2-44.2,36.3l-0.7,0.8c-7.5,8.4-10.6,11.8-1.1,29.7
				c2.1,4,4.7,5.9,7.9,5.9c18.9-0.3,51-66.1,51.3-66.8c0.2-0.4,0.6-0.7,1.1-0.7c0.6,0,15.9,0.5,17.4-13.2c0.1-0.6,0.6-1.1,1.2-1
				c2.4,0.1,9,0.1,11.5-1.4c0.9-0.6,1.1-1.7,0.9-2.5c-0.1-0.5-0.6-1.6-2.2-1.6l-24.4-1.2c-3-0.1-5.8,1.2-7.6,3.6L245.4,328.9z"/>
		</g>
		<g>
			<path fill="#FFFFFF" d="M339.9,442.2c20.6-1.4,24.1-11.9-2.5-16.5L339.9,442.2z"/>
			<path d="M339.9,443.4c-0.6,0-1.1-0.4-1.2-1l-2.5-16.5c-0.1-0.4,0.1-0.7,0.3-1c0.3-0.3,0.6-0.4,1-0.3c12.9,2.2,20.2,6.1,19.9,10.7
				C357.2,439.6,350.5,442.7,339.9,443.4C339.9,443.4,339.9,443.4,339.9,443.4z M338.8,427.2l2.1,13.8c9.2-0.8,14.2-3.5,14.3-5.8
				C355.3,432.7,350.2,429.4,338.8,427.2z"/>
		</g>
	</g>
	<g>
		<g>
			<g>
				<path d="M409.1,227l15.2,73.2c1.1,5.4,4.7,9.1,8,8.3l5.5-1.3c3.3-0.8,5.1-5.7,4-11.1L426.6,223L409.1,227z"/>
				<path d="M431.5,309.8c-1.1,0-2.2-0.3-3.2-1c-2.4-1.5-4.3-4.7-5.1-8.3L408,227.3c-0.1-0.6,0.3-1.2,0.9-1.4l17.5-4
					c0.3-0.1,0.6,0,0.9,0.2c0.3,0.2,0.4,0.4,0.5,0.7L443,296c1.3,6.1-0.9,11.5-4.9,12.5l-5.5,1.3
					C432.3,309.8,431.9,309.8,431.5,309.8z M410.5,227.9l15,72.1c0.6,3,2.2,5.7,4,6.9c0.9,0.6,1.8,0.8,2.6,0.6l5.5-1.3
					c2.7-0.6,4.1-5.1,3.1-9.7l-15-72.1L410.5,227.9z"/>
			</g>
			<g>
				<path fill="#FFFFFF" d="M414.1,300.6c-2.7-1.1-4.1-4.2-3.2-6.9c2.7-8.4,4.7-16.3,1.5-20.9c-2.7-4-5.3-7.9-4.7-12.6l0.9-7
					c0.2-1.1-0.2-5.1,2.8-4.4c2.3,0.5,3.2,2.5,4.6,11.4c0.7,4.4,2.4,6.5,5.4,8.3c-0.1-0.6-0.2-1.4-0.1-2.2c0.2-3.8,2.2-7.3,5.4-9.4
					c3.9-2.6,10.5-6.1,14.5-1.7c2.7,3.1,3.8,9.9-1,16.7c-1.1,1.6-7.4,8.4-7.4,8.4c-1.2,1.6-3.8,18-3.8,18
					C427.5,306.8,420.9,303.4,414.1,300.6z"/>
				<path d="M423.9,304.8c-2.6,0-5.7-1.3-8.9-2.6l-1.3-0.5c0,0,0,0,0,0c-3.3-1.3-4.9-5-3.8-8.4c2.6-7.9,4.5-15.7,1.7-19.9
					c-2.6-3.8-5.6-8.1-4.9-13.4l0.9-7c0-0.2,0-0.4,0-0.6c0.1-1.2,0.2-3.3,1.6-4.4c0.5-0.4,1.4-0.7,2.7-0.4c3.2,0.8,4.2,3.7,5.5,12.3
					c0.5,3,1.4,4.8,2.9,6.1c0.2-4.1,2.4-7.9,5.9-10.2c7.2-4.8,12.6-5.3,16-1.5c3.2,3.6,4,11.2-0.9,18.1c-1.1,1.5-6.7,7.7-7.4,8.4
					c-0.7,1.2-2.4,9.8-3.6,17.5c-0.5,3-1.7,4.9-3.4,5.8C425.9,304.6,424.9,304.8,423.9,304.8z M414.5,299.5l1.3,0.5
					c3.9,1.7,7.7,3.2,9.8,2.1c1.1-0.6,1.8-2,2.2-4.1c0.6-3.9,2.8-16.8,4-18.5c1.8-2,6.5-7.1,7.3-8.4c4.7-6.6,3.2-12.9,1.1-15.2
					c-2.5-2.8-6.8-2.1-12.9,1.9c-2.9,1.9-4.7,5.1-4.9,8.4c0,0.7,0,1.4,0.1,2c0.1,0.5-0.1,0.9-0.5,1.2c-0.4,0.3-0.9,0.3-1.3,0
					c-3-1.9-5.2-4.1-5.9-9.1c-1.3-8.5-2.1-10-3.7-10.4c-0.3-0.1-0.6-0.1-0.7,0c-0.5,0.4-0.6,1.9-0.6,2.6c0,0.3,0,0.6-0.1,0.8l-0.9,7
					c-0.6,4.1,1.6,7.6,4.5,11.7c3.3,4.7,1.8,12.2-1.4,21.9C411.3,296.2,412.4,298.6,414.5,299.5z"/>
			</g>
			<g>
				<path d="M427.9,229.5l13.9,66.7c1.1,5.4-0.7,10.3-4,11.1l-5.5,1.3c-3.3,0.8-6.9-3-8-8.3l-14.3-68.6L427.9,229.5z"/>
				<g>
					<path fill="#FFFFFF" d="M427.5,273.1c2.7,0.3,7-0.3,11.6-3.5c4.9-3.3,4.8-11.5,2.1-14.6c-3.9-4.4-10.5-0.9-14.4,1.7
						c-3.2,2.1-6.2,6.3-6.1,9.3C420.8,270.5,422.4,272.6,427.5,273.1z"/>
					<path d="M437.5,276.3c-0.3,0-0.5-0.1-0.7-0.3c-0.5-0.4-0.6-1.1-0.1-1.6c2.2-2.7,2.6-3.3,2.7-3.3c4.7-6.7,3.2-12.9,1.1-15.2
						c-0.2-0.2-0.7-0.6-0.7-0.6c-2.5-2-6.6-1.2-12.2,2.5c-3,2-5.7,5.9-5.6,8.3c0.1,4.1,1.5,5.5,5.8,6c2.4,0.2,5.6-0.5,8.5-1.9
						c0.6-0.3,1.3-0.1,1.6,0.5c0.3,0.6,0.1,1.3-0.5,1.6c-4.7,2.3-8.4,2.3-9.8,2.1c-5.5-0.6-7.7-2.9-7.9-8.2
						c-0.1-3.5,3.4-8.1,6.7-10.3c6.5-4.3,11.6-5.1,15-2.4c0,0,0.7,0.6,0.9,0.9c3.2,3.6,4,11.2-0.9,18.1c-0.2,0.3-1.1,1.4-2.8,3.4
						C438.1,276.1,437.8,276.3,437.5,276.3z"/>
				</g>
			</g>
		</g>
	</g>
	<g>
		<g>
			<path fill="#FFFFFF" d="M444.5,141.6l-74.1,27.2l-31,18.4l-14.1,14.2l-0.1,0.1c-2.7,2.4-3.4,9.4-1.8,17.1
				c1.6,7.7,5.2,13.7,8.6,14.9l-0.1,0l17.7,7l35.6,3.9l79.4-6l85.6,40.1l0.6,0.2c-21.5-10.4-43.7-48.9-54.1-97.7
				c-10.4-48.7-5.9-92.8,9.5-111l0,0l-61,70.7L444.5,141.6z"/>
			<path d="M550.8,279.9c-0.1,0-0.3,0-0.4-0.1l-0.6-0.2c-0.1,0-0.1,0-0.2-0.1l-85.3-39.9l-79.1,6c-0.1,0-0.2,0-0.2,0l-35.6-3.9
				c-0.1,0-0.2,0-0.3-0.1l-17.7-7c-0.1-0.1-0.3-0.1-0.4-0.2c-3.7-1.8-7.2-7.9-8.9-15.6c-1.7-8.2-0.9-15.5,2.1-18.3l0-0.1l14.1-14.2
				c0.1-0.1,0.2-0.1,0.3-0.2l31-18.4c0.1,0,0.1-0.1,0.2-0.1l74-27.2c0-0.2,0.1-0.4,0.3-0.5l61-70.7c0.5-0.6,1.3-0.6,1.9-0.2
				c0.3,0.2,0.5,0.6,0.5,0.9c0,0.4-0.1,0.7-0.3,1c-15.6,18.4-19.3,62.5-9.3,109.8c10.1,47.4,31.5,86.3,53.4,96.8
				c0.6,0.3,0.9,1,0.7,1.7C551.8,279.6,551.3,279.9,550.8,279.9z M464.5,237c0.2,0,0.4,0,0.6,0.1l73.2,34.3
				c-18.1-16.8-34.4-50.6-42.9-90.2c-8.4-39.3-7.3-76.6,2.2-99.2l-51.4,59.6c-0.1,0.2-0.3,0.3-0.5,0.4c-0.1,0.4-0.4,0.8-0.8,0.9
				l-74,27.2l-30.8,18.3l-14,14.1c0,0-0.1,0.1-0.1,0.1c-2,1.8-3.1,7.8-1.4,15.9c1.7,7.9,5.2,13,7.7,13.9c0.1,0.1,0.3,0.1,0.4,0.2
				l17,6.7l35.3,3.9l79.3-6C464.5,237,464.5,237,464.5,237z"/>
		</g>
		<g>
			
				<ellipse transform="matrix(0.9779 -0.2093 0.2093 0.9779 -23.8464 117.3101)" fill="#FFFFFF" cx="542.4" cy="171.3" rx="46.8" ry="111.7"/>
			<path d="M561.6,282.3c-11.6,0-24.3-9.1-36.2-26.2c-13.2-19-23.8-45.6-30.1-74.9c-9.5-44.5-6.8-86.7,6.8-107.7
				c4.6-7.1,10.3-11.4,16.8-12.7c12.8-2.7,27.2,6.5,40.6,25.8c13.2,19,23.8,45.6,30.1,74.9c9.5,44.5,6.8,86.7-6.8,107.7
				c-4.6,7.1-10.3,11.4-16.8,12.7C564.5,282.2,563.1,282.3,561.6,282.3z M523.4,63c-1.3,0-2.6,0.1-4,0.4
				c-5.8,1.2-10.9,5.1-15.1,11.6c-13.3,20.4-15.8,61.8-6.5,105.7c12.7,59.5,43,103.7,67.6,98.6c5.8-1.2,10.9-5.1,15.1-11.6
				c13.3-20.4,15.8-61.8,6.5-105.7C575,105.7,547.2,63,523.4,63z"/>
		</g>
		<g>
			
				<ellipse transform="matrix(0.9779 -0.2093 0.2093 0.9779 -24.706 114.6926)" fill="#FFFFFF" cx="529.6" cy="174.1" rx="10.2" ry="24.4"/>
			<path d="M533.9,199.4c-6.1,0-12.7-9.7-15.6-23c-2.1-10-1.5-19.6,1.6-24.4c1.2-1.8,2.6-2.9,4.3-3.2c6.4-1.3,13.7,8.7,16.7,22.8
				c2.1,10,1.5,19.6-1.6,24.4c-1.2,1.8-2.6,2.9-4.3,3.2C534.6,199.4,534.3,199.4,533.9,199.4z M525.4,151.4c-0.2,0-0.4,0-0.6,0.1
				c-1,0.2-1.9,0.9-2.6,2.1c-2.7,4.2-3.2,13.2-1.3,22.3c2.8,13.3,9.4,21.7,13.6,20.8c1-0.2,1.9-0.9,2.6-2.1
				c2.7-4.2,3.2-13.2,1.3-22.3C535.7,159.6,529.6,151.4,525.4,151.4z"/>
		</g>
		<path d="M558.7,264.3c-9.8,0-20.4-7.7-30.4-22c-11-15.9-19.9-38.1-25.2-62.7c-7.9-37.2-5.7-72.6,5.7-90.1c3.9-6,8.6-9.6,14.1-10.7
			c14.5-3,31.7,12.5,44.9,40.6c0.3,0.7,0,1.5-0.6,1.8c-0.7,0.3-1.5,0-1.8-0.6c-12.7-26.9-28.7-41.9-42-39.1c-4.8,1-9,4.2-12.4,9.6
			c-11,17-13.2,51.6-5.4,88.1c10,47,33.2,82.6,52.9,82.6c1.1,0,2.2-0.1,3.3-0.3c18.5-3.9,27.1-40.7,20-85.7
			c-0.1-0.7,0.4-1.4,1.1-1.5c0.7-0.1,1.4,0.4,1.5,1.1c7.4,47.2-1.9,84.5-22.1,88.8C561.2,264.1,559.9,264.3,558.7,264.3z"/>
		<path d="M550.8,279.9c-0.1,0-0.3,0-0.4-0.1l-0.6-0.2c-0.1,0-0.1,0-0.2-0.1l-85.3-39.9l-79.1,6c-0.1,0-0.2,0-0.2,0l-35.6-3.9
			c-0.1,0-0.2,0-0.3-0.1l-17.7-7c-0.1-0.1-0.3-0.1-0.4-0.2c-3.7-1.8-7.2-7.9-8.9-15.6c-1.7-8.2-0.9-15.5,2.1-18.3l0-0.1l14.1-14.2
			c0.1-0.1,0.2-0.1,0.3-0.2l31-18.4c0.1,0,0.1-0.1,0.2-0.1l73.8-27.1l61.6-71.3c0.5-0.6,1.3-0.6,1.9-0.2c0.3,0.2,0.5,0.6,0.5,0.9
			c0,0.4-0.1,0.7-0.3,1c-15.6,18.4-19.3,62.5-9.3,109.8c10.1,47.4,31.5,86.3,53.4,96.8c0.6,0.3,0.9,1,0.7,1.7
			C551.8,279.6,551.3,279.9,550.8,279.9z M464.5,237c0.2,0,0.4,0,0.6,0.1l73.2,34.3c-18.1-16.8-34.4-50.6-42.9-90.2
			c-8.4-39.3-7.3-76.6,2.2-99.2l-52.2,60.5c-0.1,0.2-0.3,0.3-0.5,0.4l-74,27.2l-30.8,18.3l-14,14.1c0,0-0.1,0.1-0.1,0.1
			c-2,1.8-3.1,7.8-1.4,15.9c1.7,7.9,5.2,13,7.7,13.9c0.1,0.1,0.3,0.1,0.4,0.2l17,6.7l35.3,3.9l79.3-6C464.5,237,464.5,237,464.5,237
			z"/>
		<path d="M444.6,141.3L506.2,70l0,0c-15.4,18.1-19.9,62.2-9.5,111c10.4,48.8,32.6,87.3,54.1,97.7l-0.6-0.2l-85.5-40l-2-0.9
			c-9.9-4.7-20.1-22.1-24.8-44.2c-4.8-22.7-1.1-42.9,6-51.1L444.6,141.3z"/>
		<path d="M348.6,241.4c-0.2,0-0.3,0-0.5-0.1l-16.7-6.6c-0.1-0.1-0.3-0.1-0.4-0.2c-3.7-1.8-7.2-7.9-8.9-15.6
			c-1.7-8.2-0.9-15.5,2.1-18.3l0-0.1l14.1-14.2c0.5-0.5,1.4-0.5,1.9,0c0.5,0.5,0.5,1.4,0,1.9l-14.1,14.2c0,0-0.1,0.1-0.1,0.1
			c-2,1.8-3.1,7.8-1.4,15.9c1.7,7.9,5.2,13,7.7,13.9c0.1,0.1,0.3,0.1,0.4,0.2l16.2,6.4c0.7,0.3,1,1,0.8,1.7
			C349.6,241.1,349.1,241.4,348.6,241.4z"/>
		<path d="M349.7,240.4c-5.5-1.9-11.1-12-13.8-24.5c-2.8-13.3-0.9-25.7,3.9-28.9l-14.6,14.4l-0.1,0.1c-2.7,2.4-3.4,9.4-1.8,17.1
			c1.6,7.7,5.2,13.7,8.6,14.9l-0.1,0L349.7,240.4z"/>
		<g>
			<path fill="#FFFFFF" d="M383.8,244.2l1.5,0.1c-8.3-0.5-17.4-15.7-21.5-35c-4.2-19.6-1.2-37.2,6.5-40.6l-1,0.6l-29.4,17.5
				c-4.9,3.2-6.8,15.7-4,29c2.7,12.9,8.8,23.2,14.4,24.7L383.8,244.2z"/>
			<path d="M385.3,245.6C385.3,245.6,385.3,245.6,385.3,245.6c-0.1,0-0.2,0-0.2,0l-1.4-0.1c0,0,0,0-0.1,0l-33.5-3.7
				c-0.1,0-0.1,0-0.2,0c-6.2-1.7-12.5-12.2-15.4-25.7c-2.9-13.7-1-26.8,4.6-30.4l28.8-17.1c0.6-0.4,1.2-0.8,1.9-1.1
				c0.6-0.3,1.4,0,1.7,0.6c0.3,0.6,0.1,1.4-0.5,1.8l-1.6,1c-6,4.7-7.9,21-4.3,38.2c3.9,18.5,12.8,33.3,20.2,33.9l0.1,0
				c0.7,0.1,1.3,0.7,1.2,1.4C386.6,245.1,386,245.6,385.3,245.6z M350.6,239.2l27.5,3c-6.4-5.6-12.4-17.7-15.6-32.6
				c-3.1-14.3-2.4-27.5,1.2-35.4L340.6,188c-3.9,2.5-6.3,13.8-3.4,27.6C339.8,227.6,345.5,237.7,350.6,239.2z"/>
		</g>
		<g>
			<path d="M524.6,150.2c-5.5,1.2-8,12.9-4.9,26c5.1,22.1,14,22.1,15.1,22c0,0,0,0,0,0l-21.8,9.5c-3.2-8.8-6-18.3-8.1-28.4
				c-2.1-9.7-3.4-19.1-4.1-28.1L524.6,150.2z"/>
			<path d="M512.9,209c-0.2,0-0.4,0-0.5-0.1c-0.3-0.1-0.6-0.4-0.7-0.8c-3.3-9-6.1-18.7-8.2-28.6c-2-9.5-3.4-19-4.1-28.3
				c0-0.4,0.1-0.7,0.3-1c0.2-0.3,0.6-0.4,0.9-0.4l23.9-1c0.7,0,1.3,0.5,1.4,1.2s-0.4,1.3-1,1.5c-1,0.2-1.9,1-2.7,2.2
				c-2.8,4.3-3.2,13.2-1.2,22.2c5,21.4,13.3,21,13.7,20.9c0.6-0.1,1.2,0.4,1.4,1c0.2,0.6-0.2,1.3-0.8,1.6l-21.8,9.5
				C513.3,209,513.1,209,512.9,209z M502.1,152.4c0.7,8.7,2.1,17.6,4,26.5c2,9.3,4.5,18.4,7.6,26.9l16.9-7.4
				c-3.7-1.9-8.9-7.2-12.3-22c-2.3-9.7-1.7-19.3,1.5-24.2c0.1-0.2,0.3-0.4,0.4-0.6L502.1,152.4z"/>
		</g>
	</g>
	<g>
		<g>
			<path fill="#FFFFFF" d="M265.2,271.5l-4.2-34l29.5,9.1l3,19.9c0.7,5.3-3.2,9.1-3.2,9.1c-4.8,5.1-12.7,5.7-19.1,2.7l-1.5-0.7
				C267.2,276.5,265.5,274.2,265.2,271.5z"/>
			<path d="M279.1,281.3c-2.8,0-5.7-0.6-8.5-1.9l-1.5-0.7c-2.8-1.3-4.8-4-5.2-7.1l-4.2-34c0-0.4,0.1-0.8,0.4-1
				c0.3-0.3,0.7-0.3,1.1-0.2l29.5,9.1c0.4,0.1,0.7,0.5,0.8,0.9l3,19.9c0.8,5.9-3.4,9.9-3.6,10.1C288,279.7,283.7,281.3,279.1,281.3z
				 M262.3,239.2l4,32.2c0.3,2.3,1.7,4.3,3.8,5.3l1.5,0.7c6.3,2.9,13.6,1.9,17.7-2.5c0.1-0.1,3.6-3.5,2.9-8.1l-2.9-19.1L262.3,239.2
				z"/>
		</g>
		<path d="M287.5,187.1c-7.2,1.6,3.8,6.4-24.6,6.1c-11.3-0.1-2.6,10.6-5.5,10.6c-10.8-0.1-10.4-0.1-15,2.6c-3,1.8-3.4,8.3-1.6,12.6
			c2.5,5.7,7.7,5.8,15.5,17c5.5,7.9,6.2,13.4,10.1,13.7c3.9,0.3,5.2-5.2,9.4-5.2c5.5,0,7,9.2,13,11.5c3.8,1.4,11.4,0.4,21.6-8.6
			c1.6-1.5,2-3.9,0.9-5.8c-1.5-2.4-3.3-5.5-5.3-8.3c-9.6-13.2-15.8-15.1-15-19.4c1.3-6.7,13.3-6.4,13.8-11.8
			C305.4,196.6,297.4,184.9,287.5,187.1z"/>
		<g>
			<path fill="#FFFFFF" d="M269.9,219.5l3.1,3.2c1.5,1.5,2.8,3.1,4,4.8c2.3,3.2,6.3,8.7,8.8,11.5c3.6,4.2,17.5-6.1,17.5-6.1l0.1-3.3
				l1.6-1.2c0.3-0.2,0.6-0.5,0.7-0.9c0.4-0.9,0.1-1.9-0.6-2.5c-3.8-3.2-12-10.6-16.2-18.1C289,206.9,276.6,207.2,269.9,219.5z"/>
			<path d="M288.5,241.2c-1.4,0-2.6-0.4-3.5-1.4c-2.5-2.9-6.6-8.5-8.9-11.6c-1.2-1.7-2.5-3.2-3.9-4.7l-3.1-3.2
				c-0.4-0.4-0.4-0.9-0.2-1.4c6.9-12.7,19.5-13.2,20-13.2c0.4,0,0.8,0.2,1,0.6c4.3,7.4,12.6,14.9,16,17.8c1.1,0.9,1.5,2.5,0.9,3.8
				c-0.2,0.5-0.6,1-1.1,1.4l-1.2,0.9l-0.1,2.7c0,0.4-0.2,0.7-0.5,0.9C302.1,235.3,293.9,241.2,288.5,241.2z M271.4,219.3l2.5,2.6
				c1.5,1.5,2.9,3.2,4.1,5c2.2,3,6.3,8.6,8.8,11.5c1.9,2.3,10.2-2.1,15.5-6l0.1-2.7c0-0.3,0.2-0.7,0.4-0.9l1.6-1.2
				c0.2-0.1,0.3-0.3,0.4-0.4c0.2-0.4,0.1-0.9-0.3-1.2c-4.2-3.6-11.8-10.5-16.1-17.8C285.8,208.4,276.9,209.9,271.4,219.3z"/>
		</g>
		<path fill="#FFFFFF" d="M276.5,231.9c0,0-7.4-7.7-10.2-3.6C263.5,232.4,271.9,240.8,276.5,231.9z"/>
	</g>
</g>
<g>
	<g>
		<g>
			<path d="M959,276c-0.3-1.5,0.2-3,1.4-3.9c1.7-1.3,2.9-2.8,3.5-4.7c3.1-8.6-6.9-20.1-22.3-25.7c-15.4-5.6-30.4-3.1-33.6,5.5
				c-0.7,1.9-0.7,3.8-0.3,5.9c0.3,1.5-0.2,3-1.4,3.9c-1.7,1.3-2.9,2.8-3.5,4.7c-1.5,4.1,0,8.8,3.6,13.3c-0.3,0.4-0.5,0.9-0.7,1.4
				c-2.3,6.4,5.1,14.9,16.5,19c11.4,4.1,22.5,2.3,24.8-4.1c0.2-0.5,0.3-1,0.4-1.5c5.6-1.1,9.8-3.8,11.2-7.9
				C959.4,280,959.5,278,959,276z"/>
			<g>
				<path fill="#FFFFFF" d="M1055.1,165c16-44.2-4.9-94.3-46.3-109.3c-41.3-14.9-88.6,9.5-104.8,53.5c-8.2,22.4-5.6,47,2.9,66.6
					c6.2,14.1,8.7,29.9,7,45.7l-0.1,0.8c-1.7,15.3,6.7,29.4,20.3,34.4l5.6,2c13.6,4.9,29.1-0.6,37.6-13.5l0.3-0.4
					c8.7-13.1,20.5-23.8,34.2-30.6C1031,204.6,1047,187.5,1055.1,165z"/>
				<path d="M939.2,260.1l-5.6-2c-14.3-5.2-23.1-20-21.4-36l0.1-0.8c1.6-15.2-0.7-30.8-6.9-44.9c-9.6-22-10.7-46.7-2.9-67.8
					c16.7-45.3,64.6-69.7,106.8-54.4c41.9,15.1,63.5,66.1,47.2,111.3c-8,22.1-23.6,39.9-44.1,50c-13.3,6.6-24.9,17-33.6,30.1
					l-0.3,0.4C969.7,259.5,953.5,265.3,939.2,260.1z M1008.3,57.3c-40.6-14.7-86.7,8.9-102.8,52.5c-7.5,20.3-6.4,44.1,2.9,65.4
					c6.4,14.6,8.8,30.7,7.1,46.5l-0.1,0.8c-1.6,14.6,6.4,28,19.3,32.7l5.6,2c12.9,4.7,27.6-0.6,35.7-12.8l0.3-0.4
					c9-13.6,21-24.4,34.8-31.2c19.7-9.7,34.8-26.9,42.5-48.2C1069.3,120.9,1048.6,71.8,1008.3,57.3z"/>
			</g>
		</g>
		<g>
			<path d="M943.9,248.9C943.9,248.9,943.9,248.8,943.9,248.9c-0.8-0.3-1.2-1.2-0.9-2c15.7-43,56.8-83,64.9-90.6
				c4.8-4.5,7.6-8.7,8.3-12.8c1.1-6-0.2-10.6-4.1-13.7c-2.8-2.2-7.7-4.1-12.8-3c3.3,7.7,3.4,18.6-1.8,26.1c-2,2.9-5.3,4.3-8.7,3.7
				c-3.8-0.6-7.1-3.6-8.3-7.5c-1.1-3.7-1.3-11.2,9.4-20.9c1.6-1.4,3.2-2.5,4.8-3.2c-0.1-0.2-0.3-0.4-0.5-0.7
				c-2.3-3.1-6.7-6.5-12.3-6.4c-1.8,0-3.7,0.4-5.5,1.1c4.2,6.3,3.1,18.6-0.4,24.5c-2.6,4.4-6.5,6.9-10.6,6.7
				c-3.4-0.1-6.3-2.1-7.8-5.2c-2.2-4.6-1-10.7,3.4-16.8c3.5-4.8,6.9-8,10.1-10.1c-4.1-3-7.9-3.5-10.4-3.4c-3.2,0.2-6,1.5-7.9,3.7
				c-3.7,4.3-5.2,10.6-3.8,16.2c3.1,13,8.1,49.6-12,107.8c-0.3,0.8-1.2,1.3-2,1c-0.8-0.3-1.3-1.2-1-2
				c19.9-57.5,14.9-93.3,11.9-106.1c-1.6-6.8,0.1-13.9,4.5-19c2.4-2.8,6-4.5,10.1-4.7c3.3-0.2,8.4,0.5,13.6,4.9
				c3-1.4,5.6-1.8,7.8-1.8c6.8,0,12.2,4,14.9,7.7c0.3,0.5,0.6,0.9,0.9,1.4c6.5-1.7,12.7,0.7,16.2,3.5c4.8,3.8,6.6,9.6,5.2,16.7
				c-0.9,4.8-3.9,9.4-9.3,14.5c-8,7.5-48.6,47.1-64,89.4C945.6,248.7,944.7,249.1,943.9,248.9z M973.5,120.3c-3.4,2-6.8,5.3-9.9,9.7
				c-3.7,5.1-4.8,10-3.1,13.6c1,2,2.9,3.3,5,3.4c2.9,0.1,5.7-1.8,7.7-5.2C976.2,136.7,977.3,125.1,973.5,120.3z M996.2,127.7
				c-1.4,0.6-2.9,1.6-4.2,2.8c-6.9,6.2-10,12.7-8.5,17.7c0.8,2.8,3.1,4.8,5.7,5.3c2.2,0.4,4.3-0.5,5.6-2.4
				C999.5,144.3,999.3,134.5,996.2,127.7z"/>
			<path d="M995.3,201.9c-0.5-0.2-0.9-0.6-1-1.1c-0.2-0.8,0.3-1.7,1.2-1.9c16.7-4.2,31.6-15.3,41-30.6c0.5-0.7,1.4-1,2.2-0.5
				c0.7,0.5,1,1.4,0.5,2.2c-9.8,16-25.4,27.6-42.9,32C995.9,202,995.6,202,995.3,201.9z"/>
			<path d="M917.1,163.2c-0.4-0.2-0.8-0.5-1-0.9c-5.7-15.8-5.7-33.5,0.2-49.8c9.2-25.4,30.7-43.5,56.2-47.1c0.9-0.1,1.7,0.5,1.8,1.3
				c0.1,0.9-0.5,1.7-1.3,1.8c-24.3,3.4-44.8,20.7-53.6,45c-5.6,15.6-5.7,32.5-0.2,47.7c0.3,0.8-0.1,1.7-0.9,2
				C917.8,163.3,917.4,163.3,917.1,163.2z"/>
			<path fill="#FFFFFF" d="M937.3,268.8c-0.7-0.3-1.1-1-1-1.7c0.1-0.9,1-1.4,1.8-1.3c2.7,0.5,5.4,0.8,8,0.9c0.9,0,1.5,0.8,1.5,1.7
				c0,0.9-0.8,1.5-1.7,1.5c-2.7-0.1-5.5-0.5-8.3-0.9C937.5,268.9,937.4,268.9,937.3,268.8z"/>
			<path fill="#FFFFFF" d="M920,279.9c-0.8-0.3-1.2-1.2-1-2c0.3-0.8,1.2-1.3,2-1c5.8,2,14.5,4.2,23.3,3.2c0.9-0.1,1.7,0.5,1.8,1.4
				c0.1,0.9-0.5,1.7-1.4,1.8C935.3,284.4,926.1,282.1,920,279.9C920,279.9,920,279.9,920,279.9z"/>
		</g>
	</g>
	<g>
		<path d="M1015.6,38.1C1015.6,38.1,1015.6,38.1,1015.6,38.1c-0.8-0.3-1.3-1.2-0.9-2.1L1028.1,1c0.3-0.8,1.2-1.2,2-0.9
			c0.8,0.3,1.2,1.2,0.9,2l-13.4,35.1C1017.3,38,1016.4,38.4,1015.6,38.1z"/>
		<path d="M893.7,75.5C893.7,75.5,893.7,75.5,893.7,75.5l-21.1-7.6c-0.8-0.3-1.2-1.2-0.9-2c0.3-0.8,1.2-1.2,2-0.9c0,0,0,0,0,0
			l21.1,7.6c0.8,0.3,1.2,1.2,0.9,2C895.4,75.4,894.5,75.8,893.7,75.5z"/>
		<path d="M930.2,35.4c-0.3-0.1-0.5-0.2-0.7-0.5l-18.9-22.4c-0.6-0.7-0.5-1.7,0.2-2.2c0.7-0.6,1.7-0.5,2.2,0.2L932,32.9
			c0.6,0.7,0.5,1.7-0.2,2.2C931.3,35.5,930.7,35.5,930.2,35.4z"/>
		<path d="M1084.8,144.5c-0.8-0.3-1.2-1.2-1-2c0.3-0.8,1.2-1.2,2-1l21.1,7.6c0,0,0,0,0,0c0.8,0.3,1.2,1.2,1,2c-0.3,0.8-1.2,1.2-2,1
			L1084.8,144.5C1084.8,144.5,1084.8,144.5,1084.8,144.5z"/>
		<path d="M1082.3,90.3c-0.5-0.2-0.9-0.6-1-1.2c-0.2-0.9,0.4-1.7,1.3-1.8l28.8-5.2c0.9-0.2,1.7,0.4,1.8,1.3c0.2,0.9-0.4,1.7-1.3,1.8
			l-28.8,5.2C1082.9,90.4,1082.6,90.4,1082.3,90.3z"/>
	</g>
</g>
<path d="M1283.9,292.1l-320,96c-15.6,4.7-20.9,24.3-9.6,36.2l52.2,55.4L827.4,650.4c-18.7,17.9-48.4,17.1-66.2-1.7l-75.9-80.2
	c-69.9-73.9-186.3-76.9-259.9-6.7L274.9,705.3c-5.4,5.1-8.4,12.2-8.3,19.6c0,7.4,3.1,14.5,8.5,19.6c23.9,22.5,48.4,46,72.6,69.6
	c10.4,10.1,26.9,10.2,37.4,0.1l134.3-128.5c18.7-17.8,48.3-17.1,66.1,1.6l76.7,80.5c70,73.4,186,76.2,259.4,6.2l190.9-182l55,58.3
	c11.3,12,31.2,7.7,36.6-7.9L1314,323.5C1320.5,304.7,1303,286.4,1283.9,292.1z"/>
<path d="M629.8,77.7c0.9-0.5,1.8-1,2.8-1.2c4.5-1.3,10,1,15.2,3.3c4.6,2,9.4,4,12.2,3.1c4.3-1.5,7.6-6.7,10.8-11.6
	c3.3-5.1,6.7-10.4,11.6-12.4c5.6-2.3,12.3-1.3,18.2-0.5c4.6,0.7,9,1.3,11.6,0.2c9.7-4.3,11.5-16.6,11.5-16.7
	c0.2-1.4,1.4-2.3,2.8-2.1c1.4,0.2,2.3,1.4,2.1,2.8c-0.1,0.6-2.2,15.1-14.4,20.6c-3.9,1.7-9,1-14.4,0.2c-5.5-0.8-11.2-1.6-15.6,0.1
	c-3.4,1.4-6.3,5.8-9.3,10.5c-3.7,5.7-7.5,11.6-13.4,13.6c-4.6,1.6-10.3-0.8-15.7-3.2c-4.5-1.9-9.1-3.9-11.9-3.1
	c-3.6,1-6.4,5.7-8.9,9.8c-1.9,3.1-3.5,5.8-5.6,7.2c-1.1,0.8-2.7,0.5-3.4-0.6c-0.8-1.1-0.5-2.7,0.6-3.4c1.2-0.8,2.7-3.3,4.2-5.7
	C623.1,84.6,625.9,80.1,629.8,77.7z"/>
<path d="M641.5,118.7c1-0.3,1.9-0.6,3-0.7c4.7-0.4,9.6,3,14.3,6.2c4.1,2.8,8.4,5.8,11.3,5.4c4.5-0.6,8.8-5,12.9-9.3
	c4.2-4.4,8.6-8.9,13.8-9.9c6-1.1,12.3,1.1,17.9,3.1c4.4,1.6,8.6,3.1,11.4,2.4c10.3-2.3,14.5-14,14.6-14.2c0.5-1.3,1.9-2,3.2-1.5
	c1.3,0.5,2,1.9,1.5,3.2c-0.2,0.6-5.1,14.4-18.2,17.4c-4.2,0.9-9-0.8-14.1-2.6c-5.2-1.9-10.7-3.8-15.3-2.9c-3.7,0.7-7.3,4.5-11.2,8.4
	c-4.7,4.9-9.6,9.9-15.8,10.7c-4.8,0.7-9.9-2.8-14.8-6.2c-4-2.8-8.2-5.6-11.1-5.4c-3.7,0.3-7.4,4.3-10.6,7.8c-2.5,2.7-4.6,5-6.9,6
	c-1.3,0.5-2.7,0-3.3-1.3c-0.5-1.3,0-2.7,1.3-3.3c1.3-0.6,3.3-2.7,5.2-4.8C633.6,124.2,637.2,120.3,641.5,118.7z"/>
<path d="M649.5,159.4c1-0.2,2-0.2,3-0.2c4.7,0.4,8.9,4.6,13,8.6c3.6,3.5,7.3,7.2,10.2,7.2c4.6,0.1,9.5-3.4,14.3-6.9
	c4.9-3.6,10-7.3,15.3-7.3c6.1-0.1,11.9,3.2,17.1,6.1c4.1,2.3,7.9,4.5,10.8,4.3c10.6-0.5,16.7-11.3,16.8-11.4c0.7-1.2,2.2-1.6,3.4-1
	c1.2,0.7,1.6,2.2,1,3.4c-0.3,0.5-7.5,13.3-20.9,14c-4.3,0.2-8.7-2.3-13.5-5c-4.8-2.7-9.8-5.6-14.6-5.5c-3.7,0.1-8,3.1-12.4,6.4
	c-5.5,4-11.1,8.1-17.4,7.9c-4.9-0.2-9.3-4.5-13.5-8.7c-3.5-3.4-7.1-7-10-7.2c-3.7-0.3-8,3-11.8,5.9c-2.9,2.2-5.4,4.1-7.8,4.7
	c-1.3,0.3-2.7-0.5-3-1.8c-0.3-1.3,0.5-2.7,1.8-3c1.4-0.3,3.7-2.1,6-3.8C640.8,163.4,645,160.2,649.5,159.4z"/>
<g>
	<g>
		<path d="M1140.6,731.4c-0.1,0-0.2,0-0.2,0c-0.6,0-1.2-0.5-1.2-1.1l-2.9-56.3c-1-20.3,12.3-39.2,31.7-45.1c0.6-0.2,1.3,0.2,1.5,0.8
			c0.2,0.6-0.2,1.3-0.8,1.5c-18.4,5.6-31.1,23.6-30.1,42.8l2.9,56.3C1141.5,730.8,1141.2,731.3,1140.6,731.4z"/>
		<path d="M1231.6,702.9C1231.6,702.9,1231.5,702.9,1231.6,702.9c-0.7,0.1-1.3-0.3-1.5-0.9l-7.5-38.4c-2.3-11.7-9.1-21.6-19.3-27.9
			c-5.7-3.5-11.8-5.6-18.3-6.2c-0.6-0.1-1.1-0.6-1.1-1.3c0.1-0.6,0.6-1.1,1.3-1.1c6.9,0.6,13.4,2.9,19.4,6.6
			c10.7,6.6,17.9,17.1,20.3,29.4l7.5,38.4C1232.5,702.1,1232.2,702.7,1231.6,702.9z"/>
		<g>
			<g>
				<path d="M1183.8,955.5l-71.1-7.7c-0.6-0.1-1-0.5-1-1.1l-13.8-218.2l18.7-7.3C1116.8,720.8,1184,955.5,1183.8,955.5z"/>
			</g>
		</g>
		<g>
			<g>
				<path fill="#FFFFFF" d="M1183.6,955.4c-0.3-0.1-0.5-0.4-0.5-0.7l-66.9-232.2c-0.1-0.3,0-0.6,0.1-0.9c0.2-0.3,0.4-0.5,0.7-0.5
					l166-42.4c1.5-0.4,3.1,0.3,3.9,1.7l118.4,205.4c1.4,2.4,0.2,5.5-2.5,6.2l-218.3,63.5c0,0,0,0,0,0
					C1184.2,955.6,1183.9,955.5,1183.6,955.4z"/>
				<path d="M1184.8,956.6c-0.6,0.2-1.2,0.1-1.7-0.2c-0.5-0.3-0.9-0.8-1.1-1.4l-66.9-232.2c-0.2-0.6-0.1-1.2,0.2-1.8
					c0.3-0.5,0.8-0.9,1.4-1.1l166-42.4c2-0.5,4.2,0.4,5.2,2.2l118.4,205.4c0.8,1.5,1,3.2,0.3,4.7c-0.6,1.6-1.9,2.7-3.5,3.2
					L1184.8,956.6C1184.8,956.6,1184.8,956.6,1184.8,956.6z M1184.2,954.4C1184.2,954.4,1184.2,954.4,1184.2,954.4L1184.2,954.4z
					 M1117.3,722.2l66.9,232.2l218.3-63.5c0.9-0.3,1.7-0.9,2-1.8c0.4-0.9,0.3-1.9-0.2-2.7l-118.4-205.4c-0.5-0.9-1.6-1.4-2.6-1.1
					L1117.3,722.2z"/>
			</g>
			<path d="M1265.3,684.3C1265.3,684.3,1265.3,684.3,1265.3,684.3l-51.2,12.8c-0.6,0.2-1.3-0.2-1.4-0.8c-0.2-0.6,0.2-1.3,0.8-1.4
				l51.1-12.8c0.6-0.2,1.3,0.2,1.4,0.8C1266.3,683.5,1266,684.2,1265.3,684.3z"/>
		</g>
		<path d="M1262.3,709.4c-4.8,1.3-9.7-1.5-11-6.3c-1.3-4.8,1.5-9.7,6.3-11c4.8-1.3,9.7,1.5,11,6.3
			C1269.9,703.1,1267,708.1,1262.3,709.4z M1258.2,694.4c-3.5,1-5.6,4.6-4.6,8.1c1,3.5,4.6,5.6,8.1,4.6c3.5-1,5.6-4.6,4.6-8.1
			C1265.3,695.5,1261.7,693.4,1258.2,694.4z"/>
		<path d="M1172.5,733.9c-4.8,1.3-9.7-1.5-11-6.3c-1.3-4.8,1.5-9.7,6.3-11c4.8-1.3,9.7,1.5,11,6.3
			C1180,727.7,1177.2,732.6,1172.5,733.9z M1168.4,718.9c-3.5,1-5.6,4.6-4.6,8.1c1,3.5,4.6,5.6,8.1,4.6c3.5-1,5.6-4.6,4.6-8.1
			C1175.5,720,1171.9,717.9,1168.4,718.9z"/>
		<path d="M1170.2,726.4c-0.6,0.2-1.2-0.2-1.4-0.7l-15.2-43.1c-4.2-11.9-3.3-24.5,2.3-35.6c5.7-11.1,15.3-19,27.2-22.2
			c3.7-1,7.4-1.5,11.2-1.5c0.6,0,1.2,0.5,1.2,1.2c0,0.6-0.5,1.2-1.2,1.2c-3.6,0-7.2,0.5-10.6,1.4c-11.3,3.1-20.4,10.5-25.8,21.1
			c-5.4,10.5-6.2,22.5-2.2,33.8l15.2,43.1C1171.2,725.5,1170.9,726.2,1170.2,726.4C1170.2,726.4,1170.2,726.4,1170.2,726.4z"/>
		<path d="M1229.6,643.5c-0.5,0.1-1,0-1.3-0.4c-7.9-10.9-20.6-17.5-34-17.5c-0.6,0-1.2-0.5-1.2-1.2c0-0.6,0.5-1.2,1.2-1.2
			c14.1,0,27.5,6.9,35.8,18.5c0.4,0.5,0.3,1.2-0.3,1.6C1229.8,643.4,1229.7,643.5,1229.6,643.5z"/>
		<path d="M1260.2,701.7c-0.5,0.1-1.1-0.1-1.3-0.6l-27.1-52.6c-1-1.9-2.1-3.7-3.3-5.4c-0.4-0.5-0.3-1.2,0.3-1.6
			c0.5-0.4,1.2-0.3,1.6,0.3c1.3,1.8,2.5,3.7,3.5,5.7l27.1,52.6c0.3,0.6,0.1,1.3-0.5,1.6C1260.3,701.6,1260.2,701.6,1260.2,701.7z"/>
		<path fill="#FFFFFF" d="M1121.3,941.3c-0.4,0.1-0.8,0-1.1-0.3c-0.5-0.5-0.5-1.2,0-1.6l24.5-24.9l-36.2-170.2
			c-0.1-0.6,0.3-1.2,0.9-1.4c0.6-0.1,1.2,0.3,1.4,0.9l36.2,170.3c0.1,0.8-0.1,1.5-0.6,2.1l-24.5,24.9
			C1121.7,941.1,1121.5,941.2,1121.3,941.3z"/>
	</g>
</g>
<g>
	<path d="M1414.9,239.7c14.4,21.1,26.7,43.8,36.7,67.8c11.9,28.5,20.3,58.4,24.9,88.7c0.1,0.6-0.3,1.2-1,1.3c-0.6,0.1-1.2-0.3-1.3-1
		c-4.6-30.1-12.9-59.7-24.7-88.1c-28.4-68.2-75.6-125.9-136.6-166.9c-0.5-0.4-0.7-1.1-0.3-1.6c0.4-0.5,1.1-0.7,1.6-0.3
		C1354.1,166.4,1388.1,200.4,1414.9,239.7z"/>
	<path d="M1314.5,139.9c0.3,0.4,0.3,0.9,0,1.3c-0.4,0.5-1.1,0.7-1.6,0.3c-2.8-1.9-5.7-3.8-8.6-5.6c-0.5-0.3-0.7-1.1-0.4-1.6
		c0.3-0.5,1.1-0.7,1.6-0.4c2.9,1.8,5.8,3.7,8.6,5.6C1314.3,139.6,1314.4,139.8,1314.5,139.9z"/>
	<path d="M1435.4,215c20.4,30,37.1,62.6,49.6,97.2c0.2,0.6-0.1,1.3-0.7,1.5c-0.6,0.2-1.3-0.1-1.5-0.7
		c-33.1-91.5-96.3-169.4-178.1-219.5c-0.5-0.3-0.7-1.1-0.4-1.6c0.3-0.5,1.1-0.7,1.6-0.4c40.4,24.7,76.2,55.9,106.4,92.7
		C1420.5,194.2,1428.1,204.4,1435.4,215z"/>
	<path d="M1498.1,330.4c0.4,0.6,0.8,1.3,1.1,2c2.3,5.6-0.3,12-5.9,14.3c-2.7,1.1-5.7,1.1-8.4,0c-2.7-1.1-4.8-3.2-5.9-5.9
		c-2.3-5.6,0.3-12,5.9-14.3C1489.7,324.4,1495.2,326.2,1498.1,330.4z M1481.9,341.5c0.9,1.4,2.3,2.4,3.8,3.1c2.1,0.9,4.5,0.9,6.6,0
		c4.4-1.8,6.5-6.9,4.6-11.3c-1.8-4.4-6.9-6.5-11.3-4.6c-4.4,1.8-6.5,6.9-4.6,11.3C1481.3,340.5,1481.6,341,1481.9,341.5z"/>
	<path d="M1296.5,119.6c0,0.1,0.1,0.1,0.1,0.2c0.2,0.3,0.1,0.7,0,1.1l-8.1,13.9c-0.2,0.4-0.6,0.6-1,0.6c-0.4,0-0.8-0.2-1-0.6
		l-9.8-16.9c-0.2-0.4-0.2-0.9,0.1-1.2c0.3-0.4,0.7-0.6,1.1-0.5l17.8,2.9C1296,119.2,1296.3,119.4,1296.5,119.6z M1287.4,131.9
		l6.2-10.7l-13.7-2.3L1287.4,131.9z"/>
</g>
<g>
	<path d="M74.4,797.1c-0.4,0.3-0.9,0.3-1.3,0.1c-0.6-0.3-0.7-1-0.4-1.6c31.7-53.4,47.8-112.3,46.6-170.4c0-0.6,0.5-1.2,1.1-1.2
		c0.6,0,1.2,0.5,1.2,1.1c1.2,58.6-15.1,117.9-47,171.7C74.6,796.9,74.5,797,74.4,797.1z"/>
	<path d="M110.3,552.4c-0.1,0.1-0.2,0.2-0.4,0.2c-0.6,0.2-1.3-0.2-1.4-0.8c-17.4-62.3-54.8-117-108.1-158.2
		c-0.5-0.4-0.6-1.1-0.2-1.6c0.4-0.5,1.1-0.6,1.6-0.2c53.7,41.5,91.3,96.6,108.9,159.4C110.9,551.6,110.7,552.1,110.3,552.4z"/>
	<path d="M135.6,695c-0.3,0.2-0.6,0.3-0.9,0.2c-0.6-0.1-1.1-0.7-0.9-1.4c8.7-47.4,6.6-94.6-6.1-140.2
		c-17-60.9-52.7-115.4-103.2-157.6c-0.5-0.4-0.6-1.1-0.1-1.6c0.4-0.5,1.1-0.6,1.6-0.1c50.8,42.5,86.8,97.3,104,158.7
		c12.9,46,14.9,93.5,6.2,141.2C136,694.5,135.9,694.8,135.6,695z"/>
	<path d="M104,463.1c-0.2,0.2-0.5,0.3-0.8,0.2c-0.4,0-0.7-0.3-0.9-0.6l-6.9-13.2c-0.2-0.4-0.2-0.8,0.1-1.2c0.2-0.4,0.7-0.5,1.1-0.5
		l15,1.7c0.4,0,0.7,0.3,0.9,0.7c0.2,0.4,0.1,0.8-0.1,1.1c-3.8,5.9-8.1,11.5-8.1,11.5C104.1,462.9,104,463,104,463.1z M101.1,455.5
		l0.1,0.1c1.1,2,3.9,2.2,5.2,0.4c0,0,0-0.1,0.1-0.1c1.3-1.9,0.2-4.6-2.2-4.8l-0.1,0C101.7,450.8,99.9,453.3,101.1,455.5z"/>
	<path d="M99.7,433.6c-0.1,0.1-0.2,0.1-0.4,0.2c-0.3,0.1-6.9,2.1-11.6-2c-1.5-1.3-2.2-3.6-2.9-6.1c-0.8-2.5-1.5-5.1-3.2-6.6
		c-1.3-1.2-3.7-1.5-6.3-1.9c-3.1-0.4-6.4-0.9-8.5-3c-1.6-1.6-1.7-4.5-1.8-7.3c-0.1-2.3-0.1-4.7-1-5.7c-1.2-1.3-3.7-1.6-5.9-1.8
		c-1.7-0.2-3.2-0.4-4.2-1c-0.6-0.3-0.7-1-0.4-1.6c0.3-0.6,1-0.7,1.6-0.4c0.6,0.3,1.9,0.5,3.3,0.6c2.5,0.3,5.7,0.6,7.4,2.6
		c1.4,1.6,1.5,4.4,1.6,7.1c0.1,2.4,0.1,4.8,1.1,5.8c1.5,1.5,4.3,1.9,7.1,2.3c2.8,0.4,5.7,0.8,7.6,2.5c2.1,1.9,3,5,3.8,7.6
		c0.6,2.1,1.2,4.1,2.2,5c3.8,3.3,9.4,1.6,9.4,1.6c0.6-0.2,1.3,0.2,1.5,0.8C100.3,432.8,100.1,433.3,99.7,433.6z"/>
</g>
</svg>
