<?xml version="1.0" encoding="utf-8"?>
<!-- Generator: Adobe Illustrator 26.0.1, SVG Export Plug-In . SVG Version: 6.00 Build 0)  -->
<svg version="1.0" id="Ebene_1" xmlns="http://www.w3.org/2000/svg" xmlns:xlink="http://www.w3.org/1999/xlink" x="0px" y="0px"
	 viewBox="0 0 1502.7 830.1" enable-background="new 0 0 1502.7 830.1" xml:space="preserve">
<linearGradient id="SVGID_1_" gradientUnits="userSpaceOnUse" x1="751.372" y1="2.2588" x2="751.372" y2="828.5521">
	<stop  offset="0" style="stop-color:#CCE0FB"/>
	<stop  offset="1" style="stop-color:#FFFFFF"/>
</linearGradient>
<path fill="url(#SVGID_1_)" d="M1428,317.8c-60.7-59-148.9-80.7-215.2-133.2c-26.3-20.8-48.9-46.3-76.8-64.9
	C1061.5,70.2,963.7,78.2,875.7,94c-18.3,3.3-36.8,6.8-55.4,5.1c-30.1-2.7-57.1-18.9-84.2-32.4C654.4,25.9,558.1,7.1,470.8,34
	c-83.1,25.7-148.7,89.1-205.9,154.5c-15.6,17.8-31.1,36.4-39.5,58.6c-7.2,18.9-8.9,39.4-15,58.7C176.9,411,25,447.2,2.6,555.3
	C-7.7,605,13.9,655.8,41.2,698.6c38.7,60.8,93.9,111.9,165.4,129.2c5.1,1.2,10.6,1.9,16.1,2.3h830.6c52.3-1.3,104.5-2.9,156.7-4.8
	c27.8-1,56-2.1,82.7-10.3c35.6-10.9,66.5-33.7,93.4-59.5c59.1-56.6,103-131.2,114-212.3S1486.7,374.9,1428,317.8z"/>
</svg>
