<?xml version="1.0" encoding="utf-8"?>
<!-- Generator: Adobe Illustrator 26.0.1, SVG Export Plug-In . SVG Version: 6.00 Build 0)  -->
<svg version="1.0" id="Ebene_1" xmlns="http://www.w3.org/2000/svg" xmlns:xlink="http://www.w3.org/1999/xlink" x="0px" y="0px"
	 viewBox="0 0 63.9 43.1" enable-background="new 0 0 63.9 43.1" xml:space="preserve">
<g>
	<g>
		<path fill="#334CA9" d="M61.8,26.5c0.1,0.6-0.4,1.1-1,1c-2.8-0.7-6.1-2.1-7.6-2.7c-0.3-0.1-0.7,0.1-0.6,0.5
			c0.6,2.6,3.2,10.3,4.2,13.2c0.2,0.6-0.2,1.3-0.8,1.4c-3.9,0.5-14.4,2-32.5,0c-11.3-1.2-15.3-4.7-19.3-6.4c-2.2-1-3.2-2.3-3.7-3.2
			c-0.3-0.6,0.3-1.1,0.9-1.3c0.8-0.3,1.5-0.8,1.5-0.8c-1.6-0.6-1.3-1.7-1.3-1.7C4,24.6,7.8,15,7.8,15C10.5,6.9,18.2,4.4,18.2,4.4
			C50.5-6.4,63.9,6,63.9,6C55.6,2.7,52.2,3.6,51,4.3c-0.5,0.3-0.6,0.8-0.6,1.4l0.8,9.4c0,0.3,0.4,0.4,0.5,0.2c0.9-1.2,3-3.7,5.3-4.8
			c0.6-0.3,1.3,0.1,1.5,0.8L61.8,26.5z"/>
		<linearGradient id="SVGID_1_" gradientUnits="userSpaceOnUse" x1="0.4007" y1="20.4059" x2="63.9244" y2="20.4059">
			<stop  offset="0" style="stop-color:#F7931E"/>
			<stop  offset="0.139" style="stop-color:#DB8F30"/>
			<stop  offset="0.4398" style="stop-color:#93855E"/>
			<stop  offset="0.8763" style="stop-color:#2176A7"/>
			<stop  offset="1" style="stop-color:#0071BC"/>
		</linearGradient>
		<path opacity="0.69" fill="url(#SVGID_1_)" d="M61.8,26.5c0.1,0.6-0.4,1.1-1,1c-2.8-0.7-6.1-2.1-7.6-2.7c-0.3-0.1-0.7,0.1-0.6,0.5
			c0.6,2.6,3.2,10.3,4.2,13.2c0.2,0.6-0.2,1.3-0.8,1.4c-3.9,0.5-14.4,2-32.5,0c-11.3-1.2-15.3-4.7-19.3-6.4c-2.2-1-3.2-2.3-3.7-3.2
			c-0.3-0.6,0.3-1.1,0.9-1.3c0.8-0.3,1.5-0.8,1.5-0.8c-1.6-0.6-1.3-1.7-1.3-1.7C4,24.6,7.8,15,7.8,15C10.5,6.9,18.2,4.4,18.2,4.4
			C50.5-6.4,63.9,6,63.9,6C55.6,2.7,52.2,3.6,51,4.3c-0.5,0.3-0.6,0.8-0.6,1.4l0.8,9.4c0,0.3,0.4,0.4,0.5,0.2c0.9-1.2,3-3.7,5.3-4.8
			c0.6-0.3,1.3,0.1,1.5,0.8L61.8,26.5z"/>
		
			<linearGradient id="SVGID_00000032613659603191220620000017578954434502648474_" gradientUnits="userSpaceOnUse" x1="0.4007" y1="20.4059" x2="63.9244" y2="20.4059">
			<stop  offset="0" style="stop-color:#F7931E"/>
			<stop  offset="0.139" style="stop-color:#DB8F30"/>
			<stop  offset="0.4398" style="stop-color:#93855E"/>
			<stop  offset="0.8763" style="stop-color:#2176A7"/>
			<stop  offset="1" style="stop-color:#0071BC"/>
		</linearGradient>
		<path opacity="0.69" fill="url(#SVGID_00000032613659603191220620000017578954434502648474_)" d="M61.8,26.5c0.1,0.6-0.4,1.1-1,1
			c-2.8-0.7-6.1-2.1-7.6-2.7c-0.3-0.1-0.7,0.1-0.6,0.5c0.6,2.6,3.2,10.3,4.2,13.2c0.2,0.6-0.2,1.3-0.8,1.4c-3.9,0.5-14.4,2-32.5,0
			c-11.3-1.2-15.3-4.7-19.3-6.4c-2.2-1-3.2-2.3-3.7-3.2c-0.3-0.6,0.3-1.1,0.9-1.3c0.8-0.3,1.5-0.8,1.5-0.8c-1.6-0.6-1.3-1.7-1.3-1.7
			C4,24.6,7.8,15,7.8,15C10.5,6.9,18.2,4.4,18.2,4.4C50.5-6.4,63.9,6,63.9,6C55.6,2.7,52.2,3.6,51,4.3c-0.5,0.3-0.6,0.8-0.6,1.4
			l0.8,9.4c0,0.3,0.4,0.4,0.5,0.2c0.9-1.2,3-3.7,5.3-4.8c0.6-0.3,1.3,0.1,1.5,0.8L61.8,26.5z"/>
		<path opacity="0.2" d="M39.4,40.8c-1.6-0.7-3.4-1.7-4.3-2.7C34.6,37.6,34,37,33.2,37H23c-0.3,0-0.4,0.4-0.1,0.6
			c1.5,0.7,4.3,1.9,7.9,2.9C34,40.7,36.8,40.8,39.4,40.8z"/>
		<path fill="#FFDD50" d="M25.5,2.3C32,1.6,44.8,0.9,53.6,3.6c2-0.1,5.3,0.4,10.3,2.4C63.9,6,52.5-4.5,25.5,2.3z"/>
		<path opacity="0.18" fill="#FFF3AE" d="M14.6,22.4c0.6-5,1.9-10-1-12.7c-0.7-0.6-1.4-0.8-2.1-0.8C10,10.4,8.7,12.4,7.8,15
			c0,0-3.8,9.6-6.3,11.4c0,0-0.2,1.1,1.3,1.7c0,0-0.6,0.5-1.5,0.8c-0.6,0.2-1.1,0.8-0.9,1.3c0.4,0.9,1.4,2.2,3.7,3.2
			c3,1.3,6,3.6,12.2,5.2C17.9,34.6,14,27.3,14.6,22.4z"/>
		<g>
			<path fill="#4674A9" d="M9.8,22.5c0,0.9-0.8,1.7-1.7,1.7c-0.9,0-1.7-0.8-1.7-1.7s0.8-1.7,1.7-1.7C9,20.8,9.8,21.6,9.8,22.5z"/>
			<path opacity="0.69" fill="#FFE700" d="M7.9,21.6c-0.7,0-1.3,0.4-1.6,1c0.1,0.9,0.8,1.6,1.7,1.6c0.7,0,1.3-0.4,1.6-1
				C9.6,22.3,8.8,21.6,7.9,21.6z"/>
			<path fill="#191713" d="M9.3,23c0,0.4-0.6,0.7-1.3,0.7c-0.7,0-1.3-0.3-1.3-0.7c0-0.4,0.6-0.7,1.3-0.7C8.7,22.3,9.3,22.6,9.3,23z"
				/>
		</g>
		<path opacity="0.11" d="M24.2,9.7c-0.5,1.1-5,8.2-6,10.7c-0.3,0.8-0.6,1.5-0.9,2.1c-0.3,0.5,0,1.2,0.6,1.4c1.2,0.4,2,1.3,1.9,2.3
			c0,0.2-0.1,0.5-0.2,0.7c-0.2,0.5-0.2,1.1,0.3,1.2c3.1,0.6,4.8-1.1,5.9-5.9C27.3,16.1,24.7,8.7,24.2,9.7z"/>
		<path fill="#EAD157" d="M1.2,26.5c0,0,0.3,1.1,1.6,1.6c0,0-0.6,0.5-1.5,0.7c-0.7,0.2-1.7,0.7-1.2,1.3c0.1,0.1,0.3,0.3,0.5,0.4
			C3.9,30.1,4,28.3,4,28.3c-0.7-1.5-1.3-2.3-1.7-2.6C1.2,25.7,1.1,26.3,1.2,26.5z"/>
		<g>
			<defs>
				<path id="SVGID_00000049223937407262217050000009632792749124610944_" d="M53.2,24.8c1.5,0.6,4.8,2,7.6,2.7c0.6,0.1,1.1-0.4,1-1
					l-3.3-15.3c-0.1-0.7-0.8-1.1-1.5-0.8c-2.2,1.1-4.3,3.6-5.3,4.8c-0.1,0.1-0.1,0.1-0.2,0.1c1.1,1.6,2.1,4.9,1.3,9.4
					C53,24.7,53.1,24.7,53.2,24.8z"/>
			</defs>
			<use xlink:href="#SVGID_00000049223937407262217050000009632792749124610944_"  overflow="visible" fill="#EAD157"/>
			<clipPath id="SVGID_00000142877103602752423140000002006733984803850158_">
				<use xlink:href="#SVGID_00000049223937407262217050000009632792749124610944_"  overflow="visible"/>
			</clipPath>
			<g clip-path="url(#SVGID_00000142877103602752423140000002006733984803850158_)">
				<g>
					
						<rect x="51" y="14.1" transform="matrix(0.8108 -0.5854 0.5854 0.8108 2.1214 35.1534)" fill="#D3B94C" width="8.9" height="0.4"/>
				</g>
				<g>
					
						<rect x="51.3" y="15.3" transform="matrix(0.8796 -0.4756 0.4756 0.8796 -0.6669 28.3917)" fill="#D3B94C" width="9" height="0.4"/>
				</g>
				<g>
					
						<rect x="51.5" y="17.8" transform="matrix(0.9513 -0.3081 0.3081 0.9513 -2.8409 18.1293)" fill="#D3B94C" width="8.9" height="0.4"/>
				</g>
				<g>
					
						<rect x="52.1" y="19.6" transform="matrix(0.9885 -0.1515 0.1515 0.9885 -2.3475 8.7772)" fill="#D3B94C" width="8.6" height="0.4"/>
				</g>
				<g>
					
						<rect x="56.9" y="17.4" transform="matrix(0.1403 -0.9901 0.9901 0.1403 27.2094 75.6527)" fill="#D3B94C" width="0.4" height="9.5"/>
				</g>
				<g>
					<polygon fill="#D3B94C" points="61.8,25.3 52.7,23.3 52.8,22.9 61.9,24.8 					"/>
				</g>
			</g>
		</g>
		<g opacity="0.15">
			<path d="M55.9,39.8c0.6-0.1,1.1-0.7,0.8-1.4c-0.9-2.6-3.1-9.1-4-12.3C27.2,36.4,7.3,32.3,0.9,31c0.6,0.8,1.5,1.7,3.2,2.4
				c4,1.8,8,5.2,19.3,6.4C41.5,41.8,52.1,40.3,55.9,39.8z"/>
		</g>
		<g>
			<defs>
				<path id="SVGID_00000047054204047322234720000009418513286537611451_" d="M32.9,38.1c-0.5-0.6-1.1-1.1-1.9-1.1H20.9
					c-0.3,0-0.4,0.4-0.1,0.6c2.8,1.3,10.4,4.5,19.3,4.4C40.1,41.9,34.8,40.1,32.9,38.1z"/>
			</defs>
			<use xlink:href="#SVGID_00000047054204047322234720000009418513286537611451_"  overflow="visible" fill="#D3B94C"/>
			<clipPath id="SVGID_00000108998095773602370770000016584434501814074026_">
				<use xlink:href="#SVGID_00000047054204047322234720000009418513286537611451_"  overflow="visible"/>
			</clipPath>
			<g clip-path="url(#SVGID_00000108998095773602370770000016584434501814074026_)">
				<g>
					<path fill="#BCA442" d="M37.4,43.1c-8.4-1.9-15.1-6.4-15.2-6.4l0.2-0.4c0.1,0,6.8,4.5,15,6.3L37.4,43.1z"/>
				</g>
				<g>
					<path fill="#BCA442" d="M37.7,42.5c-5.7-1.7-11.4-5.7-11.4-5.7l0.3-0.4c0.1,0,5.6,4,11.3,5.7L37.7,42.5z"/>
				</g>
				<g>
					<path fill="#BCA442" d="M38.9,42.8c-4.4-1.5-9.2-6.2-9.3-6.2l0.3-0.3c0,0,4.8,4.6,9.1,6.2L38.9,42.8z"/>
				</g>
			</g>
		</g>
		<path opacity="0.19" fill="#FFFFFF" d="M47.6,6.7c0-1.7-1.2-3.3-2.9-3.6C30.6,0.7,19.1,5,16,6.4c-0.5,0.2-0.7,0.7-0.5,1.2
			c0.2,0.5,0.7,0.7,1.2,0.6c3.3-0.8,16-3.3,28.1,0.5C46.2,9.1,47.6,8.1,47.6,6.7z"/>
		<path fill="#FFFFFF" d="M31.5,9.8c0,0.4-0.1,0.7-0.3,0.7c-0.1,0-0.3-0.3-0.3-0.7c0-0.4,0.1-0.7,0.3-0.7
			C31.4,9.1,31.5,9.4,31.5,9.8z"/>
		<path fill="#FFFFFF" d="M36.2,14c0,0.4-0.1,0.7-0.3,0.7c-0.1,0-0.3-0.3-0.3-0.7c0-0.4,0.1-0.7,0.3-0.7
			C36.1,13.2,36.2,13.6,36.2,14z"/>
		<path fill="#FFFFFF" d="M47.2,10.8c0,0.4-0.1,0.7-0.3,0.7c-0.1,0-0.3-0.3-0.3-0.7c0-0.4,0.1-0.7,0.3-0.7
			C47.1,10.1,47.2,10.4,47.2,10.8z"/>
		<path fill="#FFFFFF" d="M34.2,11.6c0,0.2-0.1,0.4-0.1,0.4c-0.1,0-0.1-0.2-0.1-0.4c0-0.2,0.1-0.4,0.1-0.4
			C34.1,11.2,34.2,11.4,34.2,11.6z"/>
		<path fill="#FFFFFF" d="M40,19.3c0,0.2-0.1,0.4-0.1,0.4c-0.1,0-0.1-0.2-0.1-0.4c0-0.2,0.1-0.4,0.1-0.4C39.9,18.9,40,19.1,40,19.3z
			"/>
		<path fill="#FFFFFF" d="M42.4,11.7c0,0.2-0.1,0.4-0.1,0.4s-0.1-0.2-0.1-0.4c0-0.2,0.1-0.4,0.1-0.4S42.4,11.4,42.4,11.7z"/>
		<path fill="#FFFFFF" d="M37.6,7c0,0.2-0.1,0.4-0.1,0.4S37.3,7.2,37.3,7c0-0.2,0.1-0.4,0.1-0.4S37.6,6.7,37.6,7z"/>
		<path fill="#FFFFFF" d="M29.1,5c0,0.2-0.1,0.4-0.1,0.4c-0.1,0-0.1-0.2-0.1-0.4c0-0.2,0.1-0.4,0.1-0.4C29,4.6,29.1,4.8,29.1,5z"/>
		<path fill="#FFFFFF" d="M29.1,14c0,0.2-0.1,0.4-0.1,0.4s-0.1-0.2-0.1-0.4c0-0.2,0.1-0.4,0.1-0.4S29.1,13.8,29.1,14z"/>
		<path fill="#FFFFFF" d="M20.7,9.1c0,0.2-0.1,0.4-0.1,0.4s-0.1-0.2-0.1-0.4c0-0.2,0.1-0.4,0.1-0.4S20.7,8.9,20.7,9.1z"/>
		<path fill="#2D4891" d="M30.5,27.2c0,0.3-0.1,0.5-0.1,0.5s-0.1-0.2-0.1-0.5c0-0.3,0.1-0.5,0.1-0.5S30.5,26.9,30.5,27.2z"/>
		<path fill="#2D4891" d="M27.7,33.2c0,0.3-0.1,0.5-0.1,0.5c-0.1,0-0.1-0.2-0.1-0.5c0-0.3,0.1-0.5,0.1-0.5
			C27.6,32.7,27.7,33,27.7,33.2z"/>
		<path fill="#2D4891" d="M38.2,32.1c0,0.3-0.1,0.5-0.1,0.5c-0.1,0-0.1-0.2-0.1-0.5c0-0.3,0.1-0.5,0.1-0.5
			C38.1,31.6,38.2,31.9,38.2,32.1z"/>
		<path fill="#2D4891" d="M52.2,23.6c0,0.3-0.1,0.5-0.1,0.5c-0.1,0-0.1-0.2-0.1-0.5c0-0.3,0.1-0.5,0.1-0.5
			C52.2,23.1,52.2,23.4,52.2,23.6z"/>
		<path fill="#2D4891" d="M25.5,27.2c0,0.3-0.1,0.5-0.1,0.5c-0.1,0-0.1-0.2-0.1-0.5c0-0.3,0.1-0.5,0.1-0.5
			C25.5,26.7,25.5,26.9,25.5,27.2z"/>
		<path fill="#2D4891" d="M19.3,32.9c0,0.3-0.1,0.5-0.1,0.5c-0.1,0-0.1-0.2-0.1-0.5c0-0.3,0.1-0.5,0.1-0.5
			C19.3,32.4,19.3,32.7,19.3,32.9z"/>
		<path fill="#2D4891" d="M16.5,30.1c0,0.3-0.1,0.5-0.1,0.5c-0.1,0-0.1-0.2-0.1-0.5s0.1-0.5,0.1-0.5C16.5,29.6,16.5,29.9,16.5,30.1z
			"/>
		<path fill="#2D4891" d="M37.4,23.2c0,0.4-0.1,0.6-0.2,0.6c-0.1,0-0.2-0.3-0.2-0.6c0-0.4,0.1-0.6,0.2-0.6
			C37.3,22.6,37.4,22.9,37.4,23.2z"/>
		<path fill="#2D4891" d="M52.1,36c0,0.4-0.1,0.6-0.2,0.6c-0.1,0-0.2-0.3-0.2-0.6c0-0.3,0.1-0.6,0.2-0.6C52,35.4,52.1,35.7,52.1,36z
			"/>
		<path fill="#2D4891" d="M42.1,27.8c0,0.4-0.1,0.6-0.2,0.6c-0.1,0-0.2-0.3-0.2-0.6c0-0.3,0.1-0.6,0.2-0.6
			C42.1,27.1,42.1,27.4,42.1,27.8z"/>
		<path fill="#2D4891" d="M40.8,28.6c0,0.4-0.1,0.6-0.2,0.6c-0.1,0-0.2-0.3-0.2-0.6c0-0.4,0.1-0.6,0.2-0.6
			C40.7,27.9,40.8,28.2,40.8,28.6z"/>
		<path fill="#2D4891" d="M34.2,29.1c0,0.5-0.1,0.8-0.2,0.8c-0.1,0-0.2-0.4-0.2-0.8c0-0.5,0.1-0.8,0.2-0.8
			C34.1,28.2,34.2,28.6,34.2,29.1z"/>
		<path fill="#2D4891" d="M45.3,33.7c0,0.5-0.1,0.8-0.2,0.8c-0.1,0-0.2-0.4-0.2-0.8c0-0.5,0.1-0.8,0.2-0.8
			C45.2,32.9,45.3,33.3,45.3,33.7z"/>
		<path fill="#FFFFFF" d="M31.9,18.8c0,0.4-0.1,0.7-0.3,0.7c-0.1,0-0.3-0.3-0.3-0.7c0-0.4,0.1-0.7,0.3-0.7
			C31.8,18.1,31.9,18.4,31.9,18.8z"/>
		<path fill="#FFFFFF" d="M46.7,20.5c0,0.4-0.1,0.7-0.3,0.7c-0.1,0-0.3-0.3-0.3-0.7c0-0.4,0.1-0.7,0.3-0.7
			C46.6,19.8,46.7,20.1,46.7,20.5z"/>
		<path fill="#FFFFFF" d="M19.8,12.3c0,0.4-0.1,0.7-0.3,0.7c-0.1,0-0.3-0.3-0.3-0.7c0-0.4,0.1-0.7,0.3-0.7
			C19.7,11.6,19.8,11.9,19.8,12.3z"/>
		<g>
			<defs>
				<path id="SVGID_00000152240623827946376620000018385186508839274388_" d="M22.7,9.4c-0.4,1.1-4.4,8.5-5.2,11.1
					c-0.2,0.8-0.5,1.5-0.8,2.1c-0.2,0.6,0.1,1.2,0.7,1.3c1.2,0.3,2.1,1.2,2.1,2.2c0,0.2-0.1,0.5-0.1,0.7c-0.2,0.5-0.1,1.1,0.4,1.2
					c3.1,0.4,4.7-1.4,5.5-6.3C26.3,15.5,23.2,8.3,22.7,9.4z"/>
			</defs>
			<use xlink:href="#SVGID_00000152240623827946376620000018385186508839274388_"  overflow="visible" fill="#EAD157"/>
			<clipPath id="SVGID_00000020362412861911550060000010323210432881365634_">
				<use xlink:href="#SVGID_00000152240623827946376620000018385186508839274388_"  overflow="visible"/>
			</clipPath>
			<g clip-path="url(#SVGID_00000020362412861911550060000010323210432881365634_)">
				<g>
					<path fill="#D3B94C" d="M17.1,24.4l-0.4-0.2c1.2-2,6.9-14.3,6.9-14.4L24,9.9C23.8,10.4,18.3,22.4,17.1,24.4z"/>
				</g>
				<g>
					
						<rect x="13.9" y="18.3" transform="matrix(0.5014 -0.8652 0.8652 0.5014 -5.4865 27.4861)" fill="#D3B94C" width="14.4" height="0.4"/>
				</g>
				<g>
					
						<rect x="16" y="20.1" transform="matrix(0.5936 -0.8048 0.8048 0.5936 -7.3492 25.9988)" fill="#D3B94C" width="12.2" height="0.4"/>
				</g>
				<g>
					
						<rect x="17.4" y="21.9" transform="matrix(0.6888 -0.7249 0.7249 0.6888 -9.0935 23.1321)" fill="#D3B94C" width="10" height="0.4"/>
				</g>
				<g>
					
						<rect x="18.6" y="24.6" transform="matrix(0.8977 -0.4405 0.4405 0.8977 -8.6429 12.4738)" fill="#D3B94C" width="7.8" height="0.4"/>
				</g>
				<g>
					
						<rect x="18.9" y="26.7" transform="matrix(0.9784 -0.2068 0.2068 0.9784 -5.1002 5.0456)" fill="#D3B94C" width="5.4" height="0.4"/>
				</g>
			</g>
		</g>
	</g>
	<path opacity="0.25" fill="#FFFFFF" d="M12.6,10.2c-0.5-0.3-1.1-0.2-1.5,0.3c-0.6,0.8-1.5,2.1-2.1,3.5c-0.6,1.6-1.4,3.2-1.8,4
		c-0.1,0.3,0,0.6,0.2,0.7c0.3,0.1,0.6,0,0.7-0.2c0.7-1.4,3-5.6,4.4-7.1C12.9,10.9,13,10.4,12.6,10.2z"/>
</g>
</svg>
