<?xml version="1.0" encoding="utf-8"?>
<!-- Generator: Adobe Illustrator 26.0.1, SVG Export Plug-In . SVG Version: 6.00 Build 0)  -->
<svg version="1.0" id="Ebene_1" xmlns="http://www.w3.org/2000/svg" xmlns:xlink="http://www.w3.org/1999/xlink" x="0px" y="0px"
	 viewBox="0 0 672.6 579" enable-background="new 0 0 672.6 579" xml:space="preserve">
<g id="XMLID_495_">
	<g id="XMLID_166_">
		<g id="XMLID_522_">
			<g id="XMLID_3278_">
				
					<rect id="XMLID_2373_" x="536.6" y="7.2" transform="matrix(0.9968 7.948955e-02 -7.948955e-02 0.9968 5.1415 -46.6591)" fill="#EDEDED" width="104" height="68"/>
			</g>
		</g>
		<g id="XMLID_521_">
			<g id="XMLID_3276_">
				<path id="XMLID_2372_" fill="#BDC2C9" d="M644.2,14.7L537.8,6.2c-0.6,0-1.1-0.6-1-1.2l0.3-3.9c0-0.6,0.6-1.1,1.2-1l106.3,8.5
					c0.6,0,1.1,0.6,1,1.2l-0.3,3.9C645.3,14.3,644.8,14.7,644.2,14.7z"/>
			</g>
		</g>
		<g id="XMLID_517_">
			<g id="XMLID_520_">
				<g id="XMLID_3274_">
					<path fill="#BDC2C9" d="M563.4,26.7c1.3-1.3,2.1-3,2.3-5c0.3-4.2-2.6-7.9-6.5-8.3c-4-0.3-7.4,2.9-7.8,7.1
						c-0.2,2,0.4,3.8,1.5,5.3l-0.1,0l-2.7,7.1l-2.9,36.8l15,1.2l2.9-36.2L563.4,26.7z"/>
				</g>
			</g>
			<g id="XMLID_518_" opacity="0.12">
				<g id="XMLID_519_">
					<g id="XMLID_3272_">
						<path fill="#020202" d="M552.1,22.6c0.3-4.2,3.8-7.4,7.8-7.1c2.4,0.2,4.5,1.7,5.6,3.8c-0.7-3.1-3.2-5.6-6.4-5.8
							c-4-0.3-7.4,2.9-7.8,7.1c-0.1,1.6,0.2,3.1,0.9,4.3C552.1,24.2,552,23.4,552.1,22.6z"/>
					</g>
				</g>
			</g>
		</g>
		<g id="XMLID_513_">
			<g id="XMLID_516_">
				<g id="XMLID_3268_">
					<path fill="#BDC2C9" d="M594.7,29.2c1.3-1.3,2.1-3,2.3-5c0.3-4.2-2.6-7.9-6.5-8.3c-4-0.3-7.4,2.9-7.8,7.1
						c-0.2,2,0.4,3.8,1.5,5.3l-0.1,0l-2.7,7.1l-2.9,36.8l15,1.2l2.9-36.2L594.7,29.2z"/>
				</g>
			</g>
			<g id="XMLID_514_" opacity="0.12">
				<g id="XMLID_515_">
					<g id="XMLID_3266_">
						<path fill="#020202" d="M583.4,25.1c0.3-4.2,3.8-7.4,7.8-7.1c2.4,0.2,4.5,1.7,5.6,3.8c-0.7-3.1-3.2-5.6-6.4-5.8
							c-4-0.3-7.4,2.9-7.8,7.1c-0.1,1.6,0.2,3.1,0.9,4.3C583.4,26.7,583.3,25.9,583.4,25.1z"/>
					</g>
				</g>
			</g>
		</g>
		<g id="XMLID_454_">
			<g id="XMLID_512_">
				<g id="XMLID_3262_">
					<path fill="#BDC2C9" d="M626,31.7c1.3-1.3,2.1-3,2.3-5c0.3-4.2-2.6-7.9-6.5-8.3c-4-0.3-7.4,2.9-7.8,7.1c-0.2,2,0.4,3.8,1.5,5.3
						l-0.1,0l-2.7,7.1l-2.9,36.8l15,1.2l2.9-36.2L626,31.7z"/>
				</g>
			</g>
			<g id="XMLID_510_" opacity="0.12">
				<g id="XMLID_511_">
					<g id="XMLID_3260_">
						<path fill="#020202" d="M614.7,27.6c0.3-4.2,3.8-7.4,7.8-7.1c2.4,0.2,4.5,1.7,5.6,3.8c-0.7-3.1-3.2-5.6-6.4-5.8
							c-4-0.3-7.4,2.9-7.8,7.1c-0.1,1.6,0.2,3.1,0.9,4.3C614.7,29.2,614.6,28.4,614.7,27.6z"/>
					</g>
				</g>
			</g>
		</g>
	</g>
	<g id="XMLID_422_">
		<g id="XMLID_444_">
			<g id="XMLID_3255_">
				
					<rect id="XMLID_2371_" x="500.1" y="75.7" transform="matrix(0.9968 7.948988e-02 -7.948988e-02 0.9968 10.5652 -46.0132)" fill="#EDEDED" width="166.2" height="68"/>
			</g>
		</g>
		<g id="XMLID_443_">
			<g id="XMLID_3253_">
				<path fill="#BDC2C9" d="M669.2,85.6L501.8,72.2c-1.7-0.1-2.9-1.6-2.8-3.3l0-0.1c0.1-1.7,1.6-2.9,3.3-2.8l167.4,13.4
					c1.7,0.1,2.9,1.6,2.8,3.3l0,0.1C672.4,84.4,670.9,85.7,669.2,85.6z"/>
			</g>
		</g>
		<g id="XMLID_439_">
			<g id="XMLID_442_">
				<g id="XMLID_3251_">
					<path fill="#BDC2C9" d="M525.5,92.6c1.3-1.3,2.1-3,2.3-5c0.3-4.2-2.6-7.9-6.5-8.3s-7.4,2.9-7.8,7.1c-0.2,2,0.4,3.8,1.5,5.3
						l-0.1,0l-2.7,7.1l-2.9,36.8l15,1.2l2.9-36.2L525.5,92.6z"/>
				</g>
			</g>
			<g id="XMLID_440_" opacity="0.12">
				<g id="XMLID_441_">
					<g id="XMLID_3249_">
						<path fill="#020202" d="M514.2,88.4c0.3-4.2,3.8-7.4,7.8-7.1c2.4,0.2,4.5,1.7,5.6,3.8c-0.7-3.1-3.2-5.6-6.4-5.8
							c-4-0.3-7.4,2.9-7.8,7.1c-0.1,1.6,0.2,3.1,0.9,4.3C514.2,90,514.1,89.2,514.2,88.4z"/>
					</g>
				</g>
			</g>
		</g>
		<g id="XMLID_435_">
			<g id="XMLID_438_">
				<g id="XMLID_3245_">
					<path fill="#BDC2C9" d="M556.8,95.1c1.3-1.3,2.1-3,2.3-5c0.3-4.2-2.6-7.9-6.5-8.3c-4-0.3-7.4,2.9-7.8,7.1
						c-0.2,2,0.4,3.8,1.5,5.3l-0.1,0l-2.7,7.1l-2.9,36.8l15,1.2l2.9-36.2L556.8,95.1z"/>
				</g>
			</g>
			<g id="XMLID_436_" opacity="0.12">
				<g id="XMLID_437_">
					<g id="XMLID_3243_">
						<path fill="#020202" d="M545.5,90.9c0.3-4.2,3.8-7.4,7.8-7.1c2.4,0.2,4.5,1.7,5.6,3.8c-0.7-3.1-3.2-5.6-6.4-5.8
							c-4-0.3-7.4,2.9-7.8,7.1c-0.1,1.6,0.2,3.1,0.9,4.3C545.5,92.5,545.4,91.7,545.5,90.9z"/>
					</g>
				</g>
			</g>
		</g>
		<g id="XMLID_431_">
			<g id="XMLID_434_">
				<g id="XMLID_3239_">
					<path fill="#BDC2C9" d="M588.1,97.6c1.3-1.3,2.1-3,2.3-5c0.3-4.2-2.6-7.9-6.5-8.3c-4-0.3-7.4,2.9-7.8,7.1
						c-0.2,2,0.4,3.8,1.5,5.3l-0.1,0l-2.7,7.1l-2.9,36.8l15,1.2l2.9-36.2L588.1,97.6z"/>
				</g>
			</g>
			<g id="XMLID_432_" opacity="0.12">
				<g id="XMLID_433_">
					<g id="XMLID_3237_">
						<path fill="#020202" d="M576.8,93.4c0.3-4.2,3.8-7.4,7.8-7.1c2.4,0.2,4.5,1.7,5.6,3.8c-0.7-3.1-3.2-5.6-6.4-5.8
							c-4-0.3-7.4,2.9-7.8,7.1c-0.1,1.6,0.2,3.1,0.9,4.3C576.8,95,576.7,94.2,576.8,93.4z"/>
					</g>
				</g>
			</g>
		</g>
		<g id="XMLID_427_">
			<g id="XMLID_430_">
				<g id="XMLID_3233_">
					<path fill="#BDC2C9" d="M619.4,100.1c1.3-1.3,2.1-3,2.3-5c0.3-4.2-2.6-7.9-6.5-8.3c-4-0.3-7.4,2.9-7.8,7.1
						c-0.2,2,0.4,3.8,1.5,5.3l-0.1,0l-2.7,7.1l-2.9,36.8l15,1.2L621,108L619.4,100.1z"/>
				</g>
			</g>
			<g id="XMLID_428_" opacity="0.12">
				<g id="XMLID_429_">
					<g id="XMLID_3231_">
						<path fill="#020202" d="M608.1,95.9c0.3-4.2,3.8-7.4,7.8-7.1c2.4,0.2,4.5,1.7,5.6,3.8c-0.7-3.1-3.2-5.6-6.4-5.8
							c-4-0.3-7.4,2.9-7.8,7.1c-0.1,1.6,0.2,3.1,0.9,4.3C608.1,97.5,608,96.7,608.1,95.9z"/>
					</g>
				</g>
			</g>
		</g>
		<g id="XMLID_423_">
			<g id="XMLID_426_">
				<g id="XMLID_3227_">
					<path fill="#BDC2C9" d="M650.7,102.6c1.3-1.3,2.1-3,2.3-5c0.3-4.2-2.6-7.9-6.5-8.3c-4-0.3-7.4,2.9-7.8,7.1
						c-0.2,2,0.4,3.8,1.5,5.3l-0.1,0l-2.7,7.1l-2.9,36.8l15,1.2l2.9-36.2L650.7,102.6z"/>
				</g>
			</g>
			<g id="XMLID_424_" opacity="0.12">
				<g id="XMLID_425_">
					<g id="XMLID_3225_">
						<path fill="#020202" d="M639.4,98.4c0.3-4.2,3.8-7.4,7.8-7.1c2.4,0.2,4.5,1.7,5.6,3.8c-0.7-3.1-3.2-5.6-6.4-5.8
							c-4-0.3-7.4,2.9-7.8,7.1c-0.1,1.6,0.2,3.1,0.9,4.3C639.4,100,639.3,99.2,639.4,98.4z"/>
					</g>
				</g>
			</g>
		</g>
	</g>
	<g id="XMLID_399_">
		<g id="XMLID_421_">
			<g id="XMLID_3220_">
				
					<rect id="XMLID_2370_" x="494.5" y="146.6" transform="matrix(0.9968 7.948989e-02 -7.948989e-02 0.9968 16.1833 -45.3394)" fill="#EDEDED" width="166.2" height="68"/>
			</g>
		</g>
		<g id="XMLID_420_">
			<g id="XMLID_3218_">
				<path id="XMLID_2369_" fill="#BDC2C9" d="M665.2,156.6L494.5,143c0.1-0.8-0.5-1.5-1.3-1.5l0.3-3.3c0.8,0.1,1.5-0.5,1.5-1.3
					l170.7,13.6c-0.1,0.8,0.5,1.5,1.3,1.5l-0.3,3.3C666,155.2,665.3,155.8,665.2,156.6z"/>
			</g>
		</g>
		<g id="XMLID_416_">
			<g id="XMLID_419_">
				<g id="XMLID_3216_">
					<path fill="#BDC2C9" d="M519.8,163.5c1.3-1.3,2.1-3,2.3-5c0.3-4.2-2.6-7.9-6.5-8.3c-4-0.3-7.4,2.9-7.8,7.1
						c-0.2,2,0.4,3.8,1.5,5.3l-0.1,0l-2.7,7.1l-2.9,36.8l15,1.2l2.9-36.2L519.8,163.5z"/>
				</g>
			</g>
			<g id="XMLID_417_" opacity="0.12">
				<g id="XMLID_418_">
					<g id="XMLID_3214_">
						<path fill="#020202" d="M508.5,159.3c0.3-4.2,3.8-7.4,7.8-7.1c2.4,0.2,4.5,1.7,5.6,3.8c-0.7-3.1-3.2-5.6-6.4-5.8
							c-4-0.3-7.4,2.9-7.8,7.1c-0.1,1.6,0.2,3.1,0.9,4.3C508.5,160.9,508.4,160.1,508.5,159.3z"/>
					</g>
				</g>
			</g>
		</g>
		<g id="XMLID_412_">
			<g id="XMLID_415_">
				<g id="XMLID_3210_">
					<path fill="#BDC2C9" d="M551.1,166c1.3-1.3,2.1-3,2.3-5c0.3-4.2-2.6-7.9-6.5-8.3c-4-0.3-7.4,2.9-7.8,7.1
						c-0.2,2,0.4,3.8,1.5,5.3l-0.1,0l-2.7,7.1l-2.9,36.8l15,1.2l2.9-36.2L551.1,166z"/>
				</g>
			</g>
			<g id="XMLID_413_" opacity="0.12">
				<g id="XMLID_414_">
					<g id="XMLID_3208_">
						<path fill="#020202" d="M539.8,161.8c0.3-4.2,3.8-7.4,7.8-7.1c2.4,0.2,4.5,1.7,5.6,3.8c-0.7-3.1-3.2-5.6-6.4-5.8
							c-4-0.3-7.4,2.9-7.8,7.1c-0.1,1.6,0.2,3.1,0.9,4.3C539.8,163.4,539.7,162.6,539.8,161.8z"/>
					</g>
				</g>
			</g>
		</g>
		<g id="XMLID_408_">
			<g id="XMLID_411_">
				<g id="XMLID_3204_">
					<path fill="#BDC2C9" d="M582.4,168.5c1.3-1.3,2.1-3,2.3-5c0.3-4.2-2.6-7.9-6.5-8.3c-4-0.3-7.4,2.9-7.8,7.1
						c-0.2,2,0.4,3.8,1.5,5.3l-0.1,0l-2.7,7.1l-2.9,36.8l15,1.2l2.9-36.2L582.4,168.5z"/>
				</g>
			</g>
			<g id="XMLID_409_" opacity="0.12">
				<g id="XMLID_410_">
					<g id="XMLID_3202_">
						<path fill="#020202" d="M571.1,164.3c0.3-4.2,3.8-7.4,7.8-7.1c2.4,0.2,4.5,1.7,5.6,3.8c-0.7-3.1-3.2-5.6-6.4-5.8
							c-4-0.3-7.4,2.9-7.8,7.1c-0.1,1.6,0.2,3.1,0.9,4.3C571.1,165.9,571,165.1,571.1,164.3z"/>
					</g>
				</g>
			</g>
		</g>
		<g id="XMLID_404_">
			<g id="XMLID_407_">
				<g id="XMLID_3198_">
					<path fill="#BDC2C9" d="M613.7,171c1.3-1.3,2.1-3,2.3-5c0.3-4.2-2.6-7.9-6.5-8.3c-4-0.3-7.4,2.9-7.8,7.1
						c-0.2,2,0.4,3.8,1.5,5.3l-0.1,0l-2.7,7.1l-2.9,36.8l15,1.2l2.9-36.2L613.7,171z"/>
				</g>
			</g>
			<g id="XMLID_405_" opacity="0.12">
				<g id="XMLID_406_">
					<g id="XMLID_3196_">
						<path fill="#020202" d="M602.4,166.8c0.3-4.2,3.8-7.4,7.8-7.1c2.4,0.2,4.5,1.7,5.6,3.8c-0.7-3.1-3.2-5.6-6.4-5.8
							c-4-0.3-7.4,2.9-7.8,7.1c-0.1,1.6,0.2,3.1,0.9,4.3C602.4,168.4,602.3,167.6,602.4,166.8z"/>
					</g>
				</g>
			</g>
		</g>
		<g id="XMLID_400_">
			<g id="XMLID_403_">
				<g id="XMLID_3192_">
					<path fill="#BDC2C9" d="M645,173.5c1.3-1.3,2.1-3,2.3-5c0.3-4.2-2.6-7.9-6.5-8.3s-7.4,2.9-7.8,7.1c-0.2,2,0.4,3.8,1.5,5.3
						l-0.1,0l-2.7,7.1l-2.9,36.8l15,1.2l2.9-36.2L645,173.5z"/>
				</g>
			</g>
			<g id="XMLID_401_" opacity="0.12">
				<g id="XMLID_402_">
					<g id="XMLID_3190_">
						<path fill="#020202" d="M633.7,169.3c0.3-4.2,3.8-7.4,7.8-7.1c2.4,0.2,4.5,1.7,5.6,3.8c-0.7-3.1-3.2-5.6-6.4-5.8
							c-4-0.3-7.4,2.9-7.8,7.1c-0.1,1.6,0.2,3.1,0.9,4.3C633.7,170.9,633.6,170.1,633.7,169.3z"/>
					</g>
				</g>
			</g>
		</g>
	</g>
	<g id="XMLID_376_">
		<g id="XMLID_398_">
			<g id="XMLID_3185_">
				
					<rect id="XMLID_2368_" x="489.1" y="214.4" transform="matrix(0.9968 7.948986e-02 -7.948986e-02 0.9968 21.5559 -44.695)" fill="#EDEDED" width="166.2" height="68"/>
			</g>
		</g>
		<g id="XMLID_397_">
			<g id="XMLID_3183_">
				<path fill="#BDC2C9" d="M658.2,224.3l-167.4-13.4c-1.7-0.1-2.9-1.6-2.8-3.3l0-0.1c0.1-1.7,1.6-2.9,3.3-2.8l167.4,13.4
					c1.7,0.1,2.9,1.6,2.8,3.3l0,0.1C661.3,223.1,659.9,224.4,658.2,224.3z"/>
			</g>
		</g>
		<g id="XMLID_393_">
			<g id="XMLID_396_">
				<g id="XMLID_3181_">
					<path fill="#BDC2C9" d="M514.4,231.3c1.3-1.3,2.1-3,2.3-5c0.3-4.2-2.6-7.9-6.5-8.3c-4-0.3-7.4,2.9-7.8,7.1
						c-0.2,2,0.4,3.8,1.5,5.3l-0.1,0l-2.7,7.1l-2.9,36.8l15,1.2l2.9-36.2L514.4,231.3z"/>
				</g>
			</g>
			<g id="XMLID_394_" opacity="0.12">
				<g id="XMLID_395_">
					<g id="XMLID_3179_">
						<path fill="#020202" d="M503.1,227.1c0.3-4.2,3.8-7.4,7.8-7.1c2.4,0.2,4.5,1.7,5.6,3.8c-0.7-3.1-3.2-5.6-6.4-5.8
							c-4-0.3-7.4,2.9-7.8,7.1c-0.1,1.6,0.2,3.1,0.9,4.3C503.1,228.7,503,227.9,503.1,227.1z"/>
					</g>
				</g>
			</g>
		</g>
		<g id="XMLID_389_">
			<g id="XMLID_392_">
				<g id="XMLID_3175_">
					<path fill="#BDC2C9" d="M545.7,233.8c1.3-1.3,2.1-3,2.3-5c0.3-4.2-2.6-7.9-6.5-8.3c-4-0.3-7.4,2.9-7.8,7.1
						c-0.2,2,0.4,3.8,1.5,5.3l-0.1,0l-2.7,7.1l-2.9,36.8l15,1.2l2.9-36.2L545.7,233.8z"/>
				</g>
			</g>
			<g id="XMLID_390_" opacity="0.12">
				<g id="XMLID_391_">
					<g id="XMLID_3173_">
						<path fill="#020202" d="M534.4,229.6c0.3-4.2,3.8-7.4,7.8-7.1c2.4,0.2,4.5,1.7,5.6,3.8c-0.7-3.1-3.2-5.6-6.4-5.8
							c-4-0.3-7.4,2.9-7.8,7.1c-0.1,1.6,0.2,3.1,0.9,4.3C534.4,231.2,534.3,230.4,534.4,229.6z"/>
					</g>
				</g>
			</g>
		</g>
		<g id="XMLID_385_">
			<g id="XMLID_388_">
				<g id="XMLID_3169_">
					<path fill="#BDC2C9" d="M577,236.3c1.3-1.3,2.1-3,2.3-5c0.3-4.2-2.6-7.9-6.5-8.3c-4-0.3-7.4,2.9-7.8,7.1
						c-0.2,2,0.4,3.8,1.5,5.3l-0.1,0l-2.7,7.1l-2.9,36.8l15,1.2l2.9-36.2L577,236.3z"/>
				</g>
			</g>
			<g id="XMLID_386_" opacity="0.12">
				<g id="XMLID_387_">
					<g id="XMLID_3167_">
						<path fill="#020202" d="M565.7,232.1c0.3-4.2,3.8-7.4,7.8-7.1c2.4,0.2,4.5,1.7,5.6,3.8c-0.7-3.1-3.2-5.6-6.4-5.8
							c-4-0.3-7.4,2.9-7.8,7.1c-0.1,1.6,0.2,3.1,0.9,4.3C565.7,233.7,565.6,232.9,565.7,232.1z"/>
					</g>
				</g>
			</g>
		</g>
		<g id="XMLID_381_">
			<g id="XMLID_384_">
				<g id="XMLID_3163_">
					<path fill="#BDC2C9" d="M608.3,238.8c1.3-1.3,2.1-3,2.3-5c0.3-4.2-2.6-7.9-6.5-8.3c-4-0.3-7.4,2.9-7.8,7.1
						c-0.2,2,0.4,3.8,1.5,5.3l-0.1,0l-2.7,7.1l-2.9,36.8l15,1.2l2.9-36.2L608.3,238.8z"/>
				</g>
			</g>
			<g id="XMLID_382_" opacity="0.12">
				<g id="XMLID_383_">
					<g id="XMLID_3161_">
						<path fill="#020202" d="M597,234.6c0.3-4.2,3.8-7.4,7.8-7.1c2.4,0.2,4.5,1.7,5.6,3.8c-0.7-3.1-3.2-5.6-6.4-5.8
							c-4-0.3-7.4,2.9-7.8,7.1c-0.1,1.6,0.2,3.1,0.9,4.3C597,236.2,596.9,235.4,597,234.6z"/>
					</g>
				</g>
			</g>
		</g>
		<g id="XMLID_377_">
			<g id="XMLID_380_">
				<g id="XMLID_3157_">
					<path fill="#BDC2C9" d="M639.6,241.3c1.3-1.3,2.1-3,2.3-5c0.3-4.2-2.6-7.9-6.5-8.3c-4-0.3-7.4,2.9-7.8,7.1
						c-0.2,2,0.4,3.8,1.5,5.3l-0.1,0l-2.7,7.1l-2.9,36.8l15,1.2l2.9-36.2L639.6,241.3z"/>
				</g>
			</g>
			<g id="XMLID_378_" opacity="0.12">
				<g id="XMLID_379_">
					<g id="XMLID_3155_">
						<path fill="#020202" d="M628.3,237.1c0.3-4.2,3.8-7.4,7.8-7.1c2.4,0.2,4.5,1.7,5.6,3.8c-0.7-3.1-3.2-5.6-6.4-5.8
							c-4-0.3-7.4,2.9-7.8,7.1c-0.1,1.6,0.2,3.1,0.9,4.3C628.3,238.7,628.2,237.9,628.3,237.1z"/>
					</g>
				</g>
			</g>
		</g>
	</g>
	<g id="XMLID_167_">
		<g id="XMLID_375_">
			<g id="XMLID_3150_">
				
					<rect id="XMLID_2367_" x="483.5" y="284.6" transform="matrix(0.9968 7.948988e-02 -7.948988e-02 0.9968 27.1178 -44.028)" fill="#EDEDED" width="166.2" height="68"/>
			</g>
		</g>
		<g id="XMLID_374_">
			<g id="XMLID_3148_">
				<path fill="#BDC2C9" d="M652.6,294.5l-167.4-13.4c-1.7-0.1-2.9-1.6-2.8-3.3l0-0.1c0.1-1.7,1.6-2.9,3.3-2.8l167.4,13.4
					c1.7,0.1,2.9,1.6,2.8,3.3l0,0.1C655.7,293.3,654.3,294.6,652.6,294.5z"/>
			</g>
		</g>
		<g id="XMLID_370_">
			<g id="XMLID_373_">
				<g id="XMLID_3146_">
					<path fill="#BDC2C9" d="M508.8,301.5c1.3-1.3,2.1-3,2.3-5c0.3-4.2-2.6-7.9-6.5-8.3c-4-0.3-7.4,2.9-7.8,7.1
						c-0.2,2,0.4,3.8,1.5,5.3l-0.1,0l-2.7,7.1l-2.9,36.8l15,1.2l2.9-36.2L508.8,301.5z"/>
				</g>
			</g>
			<g id="XMLID_371_" opacity="0.12">
				<g id="XMLID_372_">
					<g id="XMLID_3144_">
						<path fill="#020202" d="M497.5,297.3c0.3-4.2,3.8-7.4,7.8-7.1c2.4,0.2,4.5,1.7,5.6,3.8c-0.7-3.1-3.2-5.6-6.4-5.8
							c-4-0.3-7.4,2.9-7.8,7.1c-0.1,1.6,0.2,3.1,0.9,4.3C497.5,298.9,497.4,298.1,497.5,297.3z"/>
					</g>
				</g>
			</g>
		</g>
		<g id="XMLID_180_">
			<g id="XMLID_369_">
				<g id="XMLID_3140_">
					<path fill="#BDC2C9" d="M540.1,304c1.3-1.3,2.1-3,2.3-5c0.3-4.2-2.6-7.9-6.5-8.3c-4-0.3-7.4,2.9-7.8,7.1
						c-0.2,2,0.4,3.8,1.5,5.3l-0.1,0l-2.7,7.1l-2.9,36.8l15,1.2l2.9-36.2L540.1,304z"/>
				</g>
			</g>
			<g id="XMLID_181_" opacity="0.12">
				<g id="XMLID_182_">
					<g id="XMLID_3138_">
						<path fill="#020202" d="M528.8,299.8c0.3-4.2,3.8-7.4,7.8-7.1c2.4,0.2,4.5,1.7,5.6,3.8c-0.7-3.1-3.2-5.6-6.4-5.8
							c-4-0.3-7.4,2.9-7.8,7.1c-0.1,1.6,0.2,3.1,0.9,4.3C528.8,301.4,528.7,300.6,528.8,299.8z"/>
					</g>
				</g>
			</g>
		</g>
		<g id="XMLID_176_">
			<g id="XMLID_179_">
				<g id="XMLID_3134_">
					<path fill="#BDC2C9" d="M571.4,306.5c1.3-1.3,2.1-3,2.3-5c0.3-4.2-2.6-7.9-6.5-8.3c-4-0.3-7.4,2.9-7.8,7.1
						c-0.2,2,0.4,3.8,1.5,5.3l-0.1,0l-2.7,7.1l-2.9,36.8l15,1.2l2.9-36.2L571.4,306.5z"/>
				</g>
			</g>
			<g id="XMLID_177_" opacity="0.12">
				<g id="XMLID_178_">
					<g id="XMLID_3132_">
						<path fill="#020202" d="M560.1,302.3c0.3-4.2,3.8-7.4,7.8-7.1c2.4,0.2,4.5,1.7,5.6,3.8c-0.7-3.1-3.2-5.6-6.4-5.8
							c-4-0.3-7.4,2.9-7.8,7.1c-0.1,1.6,0.2,3.1,0.9,4.3C560.1,303.9,560,303.1,560.1,302.3z"/>
					</g>
				</g>
			</g>
		</g>
		<g id="XMLID_172_">
			<g id="XMLID_175_">
				<g id="XMLID_3128_">
					<path fill="#BDC2C9" d="M602.7,309c1.3-1.3,2.1-3,2.3-5c0.3-4.2-2.6-7.9-6.5-8.3c-4-0.3-7.4,2.9-7.8,7.1
						c-0.2,2,0.4,3.8,1.5,5.3l-0.1,0l-2.7,7.1l-2.9,36.8l15,1.2l2.9-36.2L602.7,309z"/>
				</g>
			</g>
			<g id="XMLID_173_" opacity="0.12">
				<g id="XMLID_174_">
					<g id="XMLID_3126_">
						<path fill="#020202" d="M591.4,304.8c0.3-4.2,3.8-7.4,7.8-7.1c2.4,0.2,4.5,1.7,5.6,3.8c-0.7-3.1-3.2-5.6-6.4-5.8
							c-4-0.3-7.4,2.9-7.8,7.1c-0.1,1.6,0.2,3.1,0.9,4.3C591.4,306.4,591.3,305.6,591.4,304.8z"/>
					</g>
				</g>
			</g>
		</g>
		<g id="XMLID_168_">
			<g id="XMLID_171_">
				<g id="XMLID_3122_">
					<path fill="#BDC2C9" d="M634,311.4c1.3-1.3,2.1-3,2.3-5c0.3-4.2-2.6-7.9-6.5-8.3c-4-0.3-7.4,2.9-7.8,7.1
						c-0.2,2,0.4,3.8,1.5,5.3l-0.1,0l-2.7,7.1l-2.9,36.8l15,1.2l2.9-36.2L634,311.4z"/>
				</g>
			</g>
			<g id="XMLID_169_" opacity="0.12">
				<g id="XMLID_170_">
					<g id="XMLID_3120_">
						<path fill="#020202" d="M622.7,307.3c0.3-4.2,3.8-7.4,7.8-7.1c2.4,0.2,4.5,1.7,5.6,3.8c-0.7-3.1-3.2-5.6-6.4-5.8
							c-4-0.3-7.4,2.9-7.8,7.1c-0.1,1.6,0.2,3.1,0.9,4.3C622.7,308.9,622.6,308.1,622.7,307.3z"/>
					</g>
				</g>
			</g>
		</g>
	</g>
	<g id="XMLID_148_">
		<g id="XMLID_144_">
			<g id="XMLID_3115_">
				
					<rect id="XMLID_2366_" x="477.8" y="355.5" transform="matrix(0.9968 7.948988e-02 -7.948988e-02 0.9968 32.7359 -43.3542)" fill="#EDEDED" width="166.2" height="68"/>
			</g>
		</g>
		<g id="XMLID_165_">
			<g id="XMLID_3113_">
				<path fill="#BDC2C9" d="M646.9,365.4L479.5,352c-1.7-0.1-2.9-1.6-2.8-3.3l0-0.1c0.1-1.7,1.6-2.9,3.3-2.8l167.4,13.4
					c1.7,0.1,2.9,1.6,2.8,3.3l0,0.1C650.1,364.2,648.6,365.5,646.9,365.4z"/>
			</g>
		</g>
		<g id="XMLID_143_">
			<g id="XMLID_146_">
				<g id="XMLID_3111_">
					<path fill="#BDC2C9" d="M503.1,372.4c1.3-1.3,2.1-3,2.3-5c0.3-4.2-2.6-7.9-6.5-8.3c-4-0.3-7.4,2.9-7.8,7.1
						c-0.2,2,0.4,3.8,1.5,5.3l-0.1,0l-2.7,7.1l-2.9,36.8l15,1.2l2.9-36.2L503.1,372.4z"/>
				</g>
			</g>
			<g id="XMLID_145_" opacity="0.12">
				<g id="XMLID_147_">
					<g id="XMLID_3109_">
						<path fill="#020202" d="M491.8,368.2c0.3-4.2,3.8-7.4,7.8-7.1c2.4,0.2,4.5,1.7,5.6,3.8c-0.7-3.1-3.2-5.6-6.4-5.8
							c-4-0.3-7.4,2.9-7.8,7.1c-0.1,1.6,0.2,3.1,0.9,4.3C491.9,369.8,491.8,369,491.8,368.2z"/>
					</g>
				</g>
			</g>
		</g>
		<g id="XMLID_149_">
			<g id="XMLID_152_">
				<g id="XMLID_3105_">
					<path fill="#BDC2C9" d="M534.4,374.9c1.3-1.3,2.1-3,2.3-5c0.3-4.2-2.6-7.9-6.5-8.3c-4-0.3-7.4,2.9-7.8,7.1
						c-0.2,2,0.4,3.8,1.5,5.3l-0.1,0l-2.7,7.1l-2.9,36.8l15,1.2l2.9-36.2L534.4,374.9z"/>
				</g>
			</g>
			<g id="XMLID_150_" opacity="0.12">
				<g id="XMLID_151_">
					<g id="XMLID_3103_">
						<path fill="#020202" d="M523.1,370.7c0.3-4.2,3.8-7.4,7.8-7.1c2.4,0.2,4.5,1.7,5.6,3.8c-0.7-3.1-3.2-5.6-6.4-5.8
							c-4-0.3-7.4,2.9-7.8,7.1c-0.1,1.6,0.2,3.1,0.9,4.3C523.2,372.3,523.1,371.5,523.1,370.7z"/>
					</g>
				</g>
			</g>
		</g>
		<g id="XMLID_153_">
			<g id="XMLID_156_">
				<g id="XMLID_3099_">
					<path fill="#BDC2C9" d="M565.7,377.4c1.3-1.3,2.1-3,2.3-5c0.3-4.2-2.6-7.9-6.5-8.3c-4-0.3-7.4,2.9-7.8,7.1
						c-0.2,2,0.4,3.8,1.5,5.3l-0.1,0l-2.7,7.1l-2.9,36.8l15,1.2l2.9-36.2L565.7,377.4z"/>
				</g>
			</g>
			<g id="XMLID_154_" opacity="0.12">
				<g id="XMLID_155_">
					<g id="XMLID_3097_">
						<path fill="#020202" d="M554.4,373.2c0.3-4.2,3.8-7.4,7.8-7.1c2.4,0.2,4.5,1.7,5.6,3.8c-0.7-3.1-3.2-5.6-6.4-5.8
							c-4-0.3-7.4,2.9-7.8,7.1c-0.1,1.6,0.2,3.1,0.9,4.3C554.5,374.8,554.4,374,554.4,373.2z"/>
					</g>
				</g>
			</g>
		</g>
		<g id="XMLID_157_">
			<g id="XMLID_160_">
				<g id="XMLID_3093_">
					<path fill="#BDC2C9" d="M597,379.9c1.3-1.3,2.1-3,2.3-5c0.3-4.2-2.6-7.9-6.5-8.3c-4-0.3-7.4,2.9-7.8,7.1
						c-0.2,2,0.4,3.8,1.5,5.3l-0.1,0l-2.7,7.1l-2.9,36.8l15,1.2l2.9-36.2L597,379.9z"/>
				</g>
			</g>
			<g id="XMLID_158_" opacity="0.12">
				<g id="XMLID_159_">
					<g id="XMLID_3091_">
						<path fill="#020202" d="M585.7,375.7c0.3-4.2,3.8-7.4,7.8-7.1c2.4,0.2,4.5,1.7,5.6,3.8c-0.7-3.1-3.2-5.6-6.4-5.8
							c-4-0.3-7.4,2.9-7.8,7.1c-0.1,1.6,0.2,3.1,0.9,4.3C585.8,377.3,585.7,376.5,585.7,375.7z"/>
					</g>
				</g>
			</g>
		</g>
		<g id="XMLID_161_">
			<g id="XMLID_164_">
				<g id="XMLID_3087_">
					<path fill="#BDC2C9" d="M628.3,382.4c1.3-1.3,2.1-3,2.3-5c0.3-4.2-2.6-7.9-6.5-8.3c-4-0.3-7.4,2.9-7.8,7.1
						c-0.2,2,0.4,3.8,1.5,5.3l-0.1,0l-2.7,7.1l-2.9,36.8l15,1.2l2.9-36.2L628.3,382.4z"/>
				</g>
			</g>
			<g id="XMLID_162_" opacity="0.12">
				<g id="XMLID_163_">
					<g id="XMLID_3085_">
						<path fill="#020202" d="M617,378.2c0.3-4.2,3.8-7.4,7.8-7.1c2.4,0.2,4.5,1.7,5.6,3.8c-0.7-3.1-3.2-5.6-6.4-5.8
							c-4-0.3-7.4,2.9-7.8,7.1c-0.1,1.6,0.2,3.1,0.9,4.3C617.1,379.8,617,379,617,378.2z"/>
					</g>
				</g>
			</g>
		</g>
	</g>
	<g id="XMLID_445_">
		<g id="XMLID_116_">
			<g id="XMLID_3080_">
				
					<rect id="XMLID_2365_" x="464.8" y="427.3" transform="matrix(0.9968 7.948991e-02 -7.948991e-02 0.9968 39.3904 -42.5524)" fill="#EDEDED" width="178.8" height="92.5"/>
			</g>
		</g>
		<g id="XMLID_121_">
			<g id="XMLID_117_">
				<g id="XMLID_3078_">
					<path fill="#BDC2C9" d="M491.7,514.9l-25.1-2l5.8-72.8c0.6-6.9,6.6-12.1,13.5-11.5l0,0c6.9,0.6,12.1,6.6,11.5,13.5L491.7,514.9
						z"/>
				</g>
			</g>
			<g id="XMLID_119_">
				<g id="XMLID_1405_">
					
						<rect id="XMLID_41_" x="481.1" y="453.1" transform="matrix(7.952943e-02 -0.9968 0.9968 7.952943e-02 -19.5591 910.1495)" fill="#EDEDED" width="3.9" height="25.2"/>
				</g>
			</g>
			<g id="XMLID_120_">
				<g id="XMLID_1404_">
					
						<rect id="XMLID_42_" x="478.8" y="482" transform="matrix(7.933435e-02 -0.9968 0.9968 7.933435e-02 -50.3667 934.5295)" fill="#EDEDED" width="3.9" height="25.2"/>
				</g>
			</g>
			<g id="XMLID_118_">
				<g id="XMLID_3072_">
					<polygon fill="#EDEDED" points="483.7,456.9 477.7,445.5 485.5,435.2 491.5,446.6 					"/>
				</g>
			</g>
		</g>
		<g id="XMLID_123_">
			<g id="XMLID_127_">
				<g id="XMLID_3069_">
					<path fill="#BDC2C9" d="M527,517.7l-25.1-2l5.8-72.8c0.6-6.9,6.6-12.1,13.5-11.5l0,0c6.9,0.6,12.1,6.6,11.5,13.5L527,517.7z"/>
				</g>
			</g>
			<g id="XMLID_126_">
				<g id="XMLID_1403_">
					
						<rect id="XMLID_43_" x="516.4" y="455.9" transform="matrix(7.952024e-02 -0.9968 0.9968 7.952024e-02 10.1289 947.9291)" fill="#EDEDED" width="3.9" height="25.2"/>
				</g>
			</g>
			<g id="XMLID_125_">
				<g id="XMLID_1402_">
					
						<rect id="XMLID_44_" x="514.1" y="484.8" transform="matrix(7.932666e-02 -0.9968 0.9968 7.932666e-02 -20.6727 972.3098)" fill="#EDEDED" width="3.9" height="25.2"/>
				</g>
			</g>
			<g id="XMLID_124_">
				<g id="XMLID_3063_">
					<polygon fill="#EDEDED" points="519,459.7 513,448.3 520.8,438 526.8,449.4 					"/>
				</g>
			</g>
		</g>
		<g id="XMLID_128_">
			<g id="XMLID_132_">
				<g id="XMLID_3060_">
					<path fill="#BDC2C9" d="M562.3,520.5l-25.1-2l5.8-72.8c0.6-6.9,6.6-12.1,13.5-11.5l0,0c6.9,0.6,12.1,6.6,11.5,13.5L562.3,520.5
						z"/>
				</g>
			</g>
			<g id="XMLID_131_">
				<g id="XMLID_1401_">
					
						<rect id="XMLID_45_" x="551.7" y="458.7" transform="matrix(7.952936e-02 -0.9968 0.9968 7.952936e-02 39.808 985.6995)" fill="#EDEDED" width="3.9" height="25.2"/>
				</g>
			</g>
			<g id="XMLID_130_">
				<g id="XMLID_1400_">
					
						<rect id="XMLID_46_" x="549.4" y="487.6" transform="matrix(7.933510e-02 -0.9968 0.9968 7.933510e-02 9.0136 1010.0812)" fill="#EDEDED" width="3.9" height="25.2"/>
				</g>
			</g>
			<g id="XMLID_129_">
				<g id="XMLID_3054_">
					<polygon fill="#EDEDED" points="554.3,462.5 548.3,451.1 556.1,440.8 562.1,452.2 					"/>
				</g>
			</g>
		</g>
		<g id="XMLID_133_">
			<g id="XMLID_137_">
				<g id="XMLID_3051_">
					<path fill="#BDC2C9" d="M597.6,523.3l-25.1-2l5.8-72.8c0.6-6.9,6.6-12.1,13.5-11.5l0,0c6.9,0.6,12.1,6.6,11.5,13.5L597.6,523.3
						z"/>
				</g>
			</g>
			<g id="XMLID_136_">
				<g id="XMLID_1399_">
					
						<rect id="XMLID_47_" x="587" y="461.5" transform="matrix(7.952091e-02 -0.9968 0.9968 7.952091e-02 69.4962 1023.4788)" fill="#EDEDED" width="3.9" height="25.2"/>
				</g>
			</g>
			<g id="XMLID_135_">
				<g id="XMLID_1398_">
					
						<rect id="XMLID_48_" x="584.7" y="490.4" transform="matrix(7.932607e-02 -0.9968 0.9968 7.932607e-02 38.709 1047.8622)" fill="#EDEDED" width="3.9" height="25.2"/>
				</g>
			</g>
			<g id="XMLID_134_">
				<g id="XMLID_3045_">
					<polygon fill="#EDEDED" points="589.6,465.3 583.6,453.9 591.4,443.6 597.4,455 					"/>
				</g>
			</g>
		</g>
		<g id="XMLID_138_">
			<g id="XMLID_142_">
				<g id="XMLID_3042_">
					<path fill="#BDC2C9" d="M632.9,526.1l-25.1-2l5.8-72.8c0.6-6.9,6.6-12.1,13.5-11.5l0,0c6.9,0.6,12.1,6.6,11.5,13.5L632.9,526.1
						z"/>
				</g>
			</g>
			<g id="XMLID_141_">
				<g id="XMLID_1397_">
					
						<rect id="XMLID_49_" x="622.3" y="464.3" transform="matrix(7.952859e-02 -0.9968 0.9968 7.952859e-02 99.1755 1061.2498)" fill="#EDEDED" width="3.9" height="25.2"/>
				</g>
			</g>
			<g id="XMLID_140_">
				<g id="XMLID_1396_">
					
						<rect id="XMLID_50_" x="620" y="493.2" transform="matrix(7.952936e-02 -0.9968 0.9968 7.952936e-02 68.279 1085.5278)" fill="#EDEDED" width="3.9" height="25.2"/>
				</g>
			</g>
			<g id="XMLID_139_">
				<g id="XMLID_3036_">
					<polygon fill="#EDEDED" points="624.9,468.2 618.9,456.8 626.7,446.5 632.7,457.9 					"/>
				</g>
			</g>
		</g>
		<g id="XMLID_122_">
			<g id="XMLID_3033_">
				<path id="XMLID_2364_" fill="#BDC2C9" d="M649.2,436.1l-183-14.6c-0.9-0.1-1.5-0.8-1.5-1.7l0.4-4.6c0.1-0.9,0.8-1.5,1.7-1.5
					l183,14.6c0.9,0.1,1.5,0.8,1.5,1.7l-0.4,4.6C650.8,435.5,650,436.1,649.2,436.1z"/>
			</g>
		</g>
	</g>
</g>
<g>
	<path fill="#E3F5FF" d="M527.3,313.5c-0.1,37-7.8,73.5-28.2,103.9c-19.1,28.5-48.2,49.4-79.8,62.8c-31.6,13.4-65.8,19.6-100,22.9
		c-42.8,4.1-88.2,3.2-126-17.3c-43.7-23.7-64.6-55.8-82.1-102.4c-5.5-14.7-9.1-30.4-11.3-45.6c-1.7-11.9-2.6-23.5-3-34.3
		c-0.1-3.4-0.2-6.7-0.2-9.9c-0.2-21,3.4-53.7,11.2-73.7c9-22.8,25.4-45.2,44.1-63.9c9.7-9.7,20-18.4,30.3-25.6
		c19.1-13.5,40.5-23.8,62.9-30.4c44.6-13,92.8-11.3,137.2,2.6c13.4,4.2,26.5,9.4,39,15.8c29.2,14.7,56.1,35.3,73.8,62.8
		c9.9,15.5,16.7,32.7,21.5,50.5c2.7,10.2,4.8,20.5,6.5,30.9C525.8,279.2,527.3,296.3,527.3,313.5z"/>
	<path fill="#54A371" d="M527.3,313.5c-6.8-6.6-9-16.3-14.5-23.7c-8.2-11-22.7-21.8-35.1-27.5c-13.1-6.1-29.4-7.1-41.3,0.9
		c-9,6.1-14.2,16.3-19,26c-4.5,9.2-9.1,18.3-13.6,27.5c-2.1,4.1-5.2,9-9.8,8.6c-3.3-0.3-5.7-3.1-7.6-5.7
		c-7.9-10.4-17.1-20.3-21.6-32.5c-3.8-10.4-5.6-20.3-12.2-29.8c-2.9-4.1-6.3-8-8.1-12.5c-1.8-4.5-1.5-10.1,2.4-13.5
		c1.8-1.5,4.2-2.4,6.1-3.9c6.8-5.2,4.5-15.6-2.5-20.6c-7-5-16.8-5.6-25.8-5c-9,0.6-18,2.2-27,1c-8.9-1.2-18-6.3-19.7-14
		c-2.6-11.5,11.7-20.5,24.7-23.3c13-2.9,27.9-3.5,37.2-12c-6.3,3.9-16,1.3-19.8-4.6c-3.8-5.9-2.2-13.6,2.6-18.9
		c13.3-14.6,31.2-2.6,43.6-14.7c4.8-4.7,9.1-10.7,15.6-12.5c0.1,0,0.3-0.1,0.4-0.1c13.4,4.2,26.5,9.4,39,15.8
		c29.2,14.7,56.1,35.3,73.8,62.8c9.9,15.5,16.7,32.7,21.5,50.5c2.7,10.2,4.8,20.5,6.5,30.9C525.8,279.2,527.3,296.3,527.3,313.5z"/>
	<path fill="#54A371" d="M264.1,414c-1.7,1.2-3.5,2.2-5.3,3c-6.3,2.8-12.9,4.7-19,7.9c-6.1,3.1-11.8,7.8-14.2,14.2
		c-2.3,6.2-1.3,13.1-1.6,19.7c-0.3,6.6-2.9,14.1-9,16.4c-7.5,2.9-15.3-3.3-20.3-9.6c-11.9-15.1-19-33.8-20.2-53
		c-0.5-8.3-0.2-17.6-5.7-23.9c-5.5-6.3-14.8-7.3-21.8-11.8c-9-5.9-13.2-17.6-11.9-28.4c0-0.1,0-0.2,0-0.3
		c1.4-10.6,7.5-20.1,15.1-27.6c5.9-5.8,15.8-15.8,24.8-14.9c9.2,0.8,20.3,10.2,28.3,14.6c4.4,2.5,9,5,12.4,8.7
		c8.2,8.9,8.5,22.3,13.2,33.4c4.4,10.3,12.8,18.8,23.1,23.2c8,3.4,18.5,6.1,19.9,14.7C272.8,405.8,269,410.6,264.1,414z"/>
	<path opacity="0.5" fill="#BBD7F0" d="M499,417.3c-19.1,28.5-48.2,49.4-79.8,62.8c-31.6,13.4-65.8,19.6-100,22.9
		c-42.8,4.1-88.2,3.2-126-17.3c-43.7-23.7-64.6-55.8-82.1-102.4c-5.5-14.7-9.1-30.4-11.3-45.6c13.9,31.7,37,59.5,66,78.6
		c49.8,32.8,114.6,40.1,171.7,23.2c57.2-16.9,106.4-56.8,138.5-107.1c19.6-30.7,33-65.1,40.5-100.9c2.7,10.2,4.8,20.5,6.5,30.9
		C531.6,315.3,528.9,372.9,499,417.3z"/>
	<path fill="#54A371" d="M195,295.3c-13.1-9.9-33.6-8.2-44.9,3.6c-5.5,5.7-9.1,13.5-16,17.6c-12.5,7.4-28.2-1.4-37.2-13.1
		c-0.1-3.4-0.2-6.7-0.2-9.9c-0.2-21,3.4-53.7,11.2-73.7c9-22.8,25.4-45.2,44.1-63.9c0.8,6.6,0.5,13.7,0.4,19.1
		c-0.2,16.6,1.3,31.8,10,46.5c7.2,12.1,17.6,22,25.3,33.8C195.3,267.2,200.3,282.3,195,295.3z"/>
	<g>
		<path fill="#ADD4D1" d="M384.2,347.8c-3.8,0-7.6-0.7-11.2-2.2c-10.9-4.6-18.5-16-18.4-27.9c0-0.2,0.2-0.4,0.4-0.4c0,0,0,0,0,0
			c0.2,0,0.4,0.2,0.4,0.4c-0.1,11.5,7.2,22.7,17.9,27.1c10.6,4.4,23.7,1.8,31.8-6.4c5.6-5.7,8.6-13.5,11.5-21
			c2.7-6.9,5.4-14.1,10.3-19.7c8.4-9.9,22.9-14,35.3-9.9c0.2,0.1,0.3,0.3,0.3,0.5c-0.1,0.2-0.3,0.3-0.5,0.3
			c-12-3.9-26.2,0.1-34.4,9.7c-4.7,5.6-7.5,12.6-10.1,19.5c-2.9,7.6-6,15.4-11.7,21.2C400.2,344.7,392.2,347.8,384.2,347.8z"/>
	</g>
	<g>
		<path fill="#ADD4D1" d="M445.1,359.6c-0.1,0-0.1,0-0.2-0.1c-0.2-0.1-0.3-0.4-0.2-0.6c3.8-6.6,8.5-14.8,8.1-23.4
			c-0.2-4.8-2.6-9.7-6.3-12.8c-1.9-1.6-5.1-3.4-9.1-2.8c-6.9,1.1-10.7,8.2-12,11.2c-1,2.3-1.8,4.6-2.5,7c-1,3.2-2.1,6.5-3.7,9.5
			c-0.1,0.2-0.4,0.3-0.6,0.2c-0.2-0.1-0.3-0.4-0.2-0.6c1.6-2.9,2.7-6.2,3.7-9.4c0.8-2.3,1.5-4.7,2.5-7c1.4-3.1,5.3-10.6,12.7-11.7
			c3.4-0.5,6.7,0.5,9.7,2.9c3.9,3.2,6.4,8.3,6.6,13.4c0.4,8.8-4.4,17.2-8.2,23.9C445.3,359.5,445.2,359.6,445.1,359.6z"/>
	</g>
	<g>
		<path fill="#ADD4D1" d="M349.7,408.5c-13.2,0-26.3-4.3-36.6-12.6c-6.5-5.3-11.8-12-17-18.5c-6.6-8.2-13.4-16.7-22.4-22.2
			c-5.9-3.5-12.7-5.8-19.4-8c-11.1-3.7-22.5-7.4-29-17.1c-5.3-7.9-6.6-18.9-3.8-32.9c0.7-3.3,1.5-6.6,2.3-9.8
			c1.9-7.5,3.8-15.3,3.8-23.2c0-10.6-4.8-23-15.4-27.2c-0.2-0.1-0.3-0.3-0.2-0.5c0.1-0.2,0.3-0.3,0.5-0.2
			c10.9,4.3,15.9,17.1,15.9,27.9c0,7.9-1.9,15.8-3.8,23.4c-0.8,3.2-1.6,6.5-2.3,9.8c-2.8,13.7-1.5,24.6,3.7,32.2
			c6.4,9.4,17.2,13,28.6,16.8c6.7,2.2,13.6,4.5,19.5,8c9.2,5.5,16.1,14.1,22.7,22.4c5.1,6.5,10.5,13.1,16.9,18.3
			c18.4,15,46.4,16.6,66.4,3.9c0.2-0.1,0.4-0.1,0.6,0.1c0.1,0.2,0.1,0.4-0.1,0.6C371.3,405.6,360.5,408.5,349.7,408.5z"/>
	</g>
	<g>
		<path fill="#ADD4D1" d="M309.4,347.8C309.3,347.8,309.3,347.8,309.4,347.8c-10.6-0.1-19.1-9.1-25.4-26.8
			c-1.8-5.1-3.6-10.3-5.3-15.3c-6.6-19.2-13.4-39.1-23.3-57.2c-10-18.2-27.7-42.2-55.1-52.5c-0.2-0.1-0.3-0.3-0.2-0.5
			c0.1-0.2,0.3-0.3,0.5-0.2c27.6,10.5,45.4,34.6,55.5,52.9c9.9,18.1,16.8,38,23.4,57.3c1.7,5,3.5,10.2,5.3,15.3
			c6.2,17.4,14.4,26.2,24.5,26.3c6.6,0,13.2-4.3,17-11c3-5.4,4.4-12.2,4.2-20.7c-0.3-13.8-4.1-27.4-11-39.4c-4-6.8-8.3-10.3-13-10.3
			c0,0,0,0,0,0c-3.5,0-5.9,2-7.3,3.7c-2.7,3.2-3.9,7.9-3.2,12c1.3,7.4,7,13.4,11.6,18.3c0.2,0.2,0.1,0.4,0,0.6
			c-0.2,0.2-0.4,0.1-0.6,0c-4.6-4.9-10.4-11-11.8-18.7c-0.8-4.3,0.6-9.3,3.4-12.6c2.1-2.6,5-4,7.9-4c0,0,0,0,0,0
			c5,0,9.6,3.6,13.8,10.7c7,12.1,10.8,25.8,11.1,39.7c0.2,8.8-1.3,15.7-4.4,21.2C323.1,343.4,316.2,347.8,309.4,347.8z"/>
	</g>
	<g>
		<path fill="#ADD4D1" d="M299.4,249c-0.5,0-1,0-1.4,0c-16.1-1-28.3-13.4-35.8-23.7c-3.4-4.6-6.5-9.6-9.4-14.4
			c-4.6-7.5-9.4-15.2-15.4-21.8c-8.9-9.8-23.8-19-38.6-15c-0.2,0.1-0.4-0.1-0.5-0.3c-0.1-0.2,0.1-0.4,0.3-0.5
			c15.2-4.1,30.3,5.2,39.4,15.2c6,6.6,10.8,14.4,15.5,21.9c3,4.8,6,9.8,9.4,14.4c7.4,10.1,19.4,22.4,35.2,23.4
			c9.3,0.6,19.6-4.8,20.2-13.7c0-0.2,0.2-0.4,0.4-0.4c0.2,0,0.4,0.2,0.4,0.4C318.5,243.4,308.7,249,299.4,249z"/>
	</g>
	<g>
		<path fill="#ADD4D1" d="M232.2,144.2C232.2,144.2,232.2,144.2,232.2,144.2c-0.3,0-0.4-0.2-0.4-0.4c0.4-6.1,4.8-11.5,13.6-16.6
			c19.8-11.6,43.3-17.5,66.2-16.9c0.2,0,0.4,0.2,0.4,0.4c0,0.2-0.2,0.4-0.4,0.4c-22.7-0.7-46.1,5.3-65.8,16.7
			c-8.5,5-12.8,10.2-13.2,15.9C232.6,144,232.4,144.2,232.2,144.2z"/>
	</g>
	<g>
		<path fill="#ADD4D1" d="M256,157.1c-0.1,0-0.3-0.1-0.4-0.2c-0.1-0.2,0-0.4,0.1-0.6c11.8-6.9,27.2-7.2,39.2-0.7
			c0.2,0.1,0.3,0.4,0.2,0.6c-0.1,0.2-0.4,0.3-0.6,0.2c-11.8-6.3-26.9-6-38.4,0.7C256.1,157,256,157.1,256,157.1z"/>
	</g>
	<g>
		<path fill="#ADD4D1" d="M195.1,261.4c-0.1,0-0.3-0.1-0.4-0.2C173,220,179,166.4,209.2,130.9c0.1-0.2,0.4-0.2,0.6,0
			c0.2,0.1,0.2,0.4,0,0.6c-30,35.2-35.9,88.4-14.4,129.4c0.1,0.2,0,0.4-0.2,0.6C195.2,261.4,195.2,261.4,195.1,261.4z"/>
	</g>
	<path opacity="0.5" fill="#BBD7F0" d="M242.7,117c-17.2,6.2-33.9,14.6-47.1,27.2c-13.2,12.6-22.5,30-22.7,48.3
		c-0.2,18.3,10.1,37,26.9,44.1c9,3.8,21,3.5,26.8-4.4c5.1-7,3.3-16.9-0.5-24.7c-3.8-7.8-9.5-14.7-11.9-23c-2.4-8.3-0.3-19,7.6-22.5
		c9.9-4.4,21.8,4.9,31.9,0.9c6.5-2.6,9.8-9.7,13.3-15.8c14.7-25.8,40.4-35.9,68.3-39.6C331.7,90.7,255,112.6,242.7,117z"/>
	<path opacity="0.5" fill="#BBD7F0" d="M293,227.2c7.8,0.2,15.3-3.3,23-4.2c7.8-1,17.3,2,19.1,9.7c1.1,4.8-1.3,9.7-2.8,14.4
		c-6.7,20.7,4,42.7,14.3,61.9c7.5,13.9,15.7,28.5,29.4,36.3c20.7,11.8,46.5,4.4,69.1-3.2c-5.1,24.9-24.7,46.4-49,53.8
		c-24.4,7.4-52.5,0.4-70.6-17.4c-10.4-10.3-18.1-24.1-31.5-30.1c-16.5-7.4-37.7-0.8-52.7-10.9c-13-8.8-16-26.6-15.9-42.3
		c0.1-18.1,2.8-36.1,7.9-53.4c3-10,7.1-20.3,15.2-26.8C271.3,196.5,274.8,226.7,293,227.2z"/>
	<path fill="#2A825D" d="M380.9,238.3c0.9-19-14.2-37.4-33-40.2c-4.9-0.7-9.9-0.5-14.5-2.2c-4.6-1.7-8.8-6-8.2-10.9
		c1.1-8.4,13.1-9,19.8-14.1c7.2-5.5,7.7-16,11.5-24.3c9.1-19.9,37.4-24,56.9-14.2c19.5,9.8,32.2,29.1,44,47.5
		c3.2,5,6.5,10.3,7.5,16.2c1,5.9-0.9,12.7-6.1,15.7c-4.6,2.7-10.5,1.7-15.7,3c-24.1,5.7-24.4,48-40.5,64.2c-6.4,6.4-14,12.4-22,5.6
		C368.5,274.1,380.3,250.7,380.9,238.3z"/>
	<path fill="#2A825D" d="M199.9,363.7c2.5,6.4,7.8,11.2,13,15.7c5.2,4.5,10.5,9.2,13.4,15.4c2.9,6.2,2.4,14.5-2.9,18.9
		c-5.8,4.7-14.8,2.7-20.4-2.1c-13.9-12-15.1-26.8-32.5-35.6c-10-5-15.2-6.9-13.5-20.3c1.2-9,7.3-20.4,16.8-22.8
		C194.2,327.7,195,351.4,199.9,363.7z"/>
	<path fill="#2A825D" d="M136.1,195.7c3.1-1.2,6.4,1.7,7.4,5c0.9,3.2,0.4,6.7,1,9.9c1.5,7.8,8.7,12.8,14.8,17.8
		c6.1,5,12.1,12.5,9.7,20c-14.7,4.9-31.3-5.1-39.9-17C123.3,223.3,125.6,199.9,136.1,195.7z"/>
	<path fill="#2A825D" d="M123.1,277.8c9.6,2.7,19.6-6.3,29.1-3.3c0.7,0.2,1.3,0.5,1.8,1c1.4,1.4,0.7,3.7-0.2,5.4
		c-2.6,4.6-7,8.2-12,10c-2.6,0.9-5.4,1.3-7.5,3.1c-2,1.7-2.8,4.4-4.5,6.4c-3.9,4.7-11.8,4.4-16.6,0.6c-4.8-3.8-7-10-7.8-16.1
		c-0.6-4.5-2-16.9,5.2-16.9C114.4,267.9,118.5,276.5,123.1,277.8z"/>
	<path fill="#2A825D" d="M500.1,209c5.6,8.3,9.5,17.9,9.4,27.9c-0.1,6-2.1,12.6-7.4,15.4c-3,1.6-6.6,1.7-10,1.7
		c-7.8,0.1-16.2,0-22.4-4.6c-2.7-2-4.9-4.9-5.3-8.2c-0.4-3.3,1.5-7,4.8-7.9c2.2-0.6,4.5-0.1,6.7-0.6c4.9-1.3,6.4-7.4,6.5-12.5
		c0.1-8.8-1.7-17.7-5.2-25.8c-4.1-9.5,1.1-7.6,6-4.6C489.6,193.6,495.9,202.9,500.1,209z"/>
	<g>
		<path fill="#FF5945" d="M240.3,317.2c0,10.9-17.3,48.5-21.4,57.3c-0.3,0.7-1.4,0.7-1.7,0c-4.1-8.8-21.4-46.4-21.4-57.3
			c0-12.3,10-22.3,22.3-22.3C230.3,294.9,240.3,304.9,240.3,317.2z"/>
		<path fill="#FFFFFF" d="M229.6,316.2c0,6.4-5.2,11.6-11.6,11.6c-6.4,0-11.6-5.2-11.6-11.6c0-6.4,5.2-11.6,11.6-11.6
			C224.4,304.6,229.6,309.8,229.6,316.2z"/>
	</g>
	<g>
		<path fill="#FF5945" d="M425.9,169.7c0,10.9-17.3,48.5-21.4,57.3c-0.3,0.7-1.4,0.7-1.7,0c-4.1-8.8-21.4-46.4-21.4-57.3
			c0-12.3,10-22.3,22.3-22.3C416,147.4,425.9,157.4,425.9,169.7z"/>
		<path fill="#FFFFFF" d="M415.3,168.8c0,6.4-5.2,11.6-11.6,11.6c-6.4,0-11.6-5.2-11.6-11.6c0-6.4,5.2-11.6,11.6-11.6
			C410.1,157.1,415.3,162.3,415.3,168.8z"/>
	</g>
</g>
<g id="XMLID_20_">
	<g id="XMLID_1027_">
		<g id="XMLID_1037_">
			<path id="XMLID_1074_" fill="#E0DDDC" d="M164.5,134.4l-9-5.7c0.2-0.4,23.3-37.6,14.1-68.5c-1.9-6.2-5.1-7.9-7.4-8.6
				c-13.7-4.5-40.6,12.4-49.7,19.3l-6.4-8.5c3.8-2.9,38.1-27.9,59.5-20.9c4.9,1.6,11.3,5.6,14.3,15.7
				C190.4,92.7,165.6,132.7,164.5,134.4z"/>
		</g>
		<g id="XMLID_1036_">
			<path id="XMLID_1972_" fill="#EFECEA" d="M159.6,111.6c-35.4-10.3-44.7-54.8-44.7-77.8l-58.4,7.1c11.6,23,8.6,63-26.5,86.4
				c-24.1,16.1-45,70,36.7,136.7c4.5,3.7,10.4,5.5,16.2,4.8l29.5-3.6l29.5-3.6c5.8-0.7,11.1-3.8,14.6-8.5
				C220,168.8,187.4,119.8,159.6,111.6z"/>
		</g>
		<g id="XMLID_1034_">
			<g id="XMLID_1035_">
				<path id="XMLID_1970_" fill="#D8B903" d="M171.2,124.3c-43.7,29.6-99.3,36.4-148.8,18.2c-4.5,6.6-8.1,15.3-8.6,26
					c-1,20,8,52,56.2,91.4c3.5,2.8,7.9,4.1,12.2,3.6l59-7.1c4.3-0.5,8.3-2.9,11-6.4c40.6-54,37.8-88.8,32.4-104.8
					C181.6,135.8,176.6,129,171.2,124.3z"/>
			</g>
		</g>
		<g id="XMLID_1033_" opacity="0.12">
			<path id="XMLID_1967_" d="M53.8,52.1"/>
		</g>
		<g id="XMLID_1031_" opacity="6.000000e-02">
			<g id="XMLID_1032_">
				<path id="XMLID_1965_" d="M159.6,111.6c-35.4-10.3-44.7-54.8-44.7-77.8l-58.4,7.1c2,4,3.6,8.6,4.6,13.4c14.4-3.1,33.5-11.1,43,3
					c7.8,11.4,6.4,33.1,13.1,45.4c7.2,13.3,16.3,25.7,27.4,36.2c21.2,20,9.6,95.2-28,125.8l25.4-3.1c5.8-0.7,11.1-3.8,14.6-8.5
					C220,168.8,187.4,119.8,159.6,111.6z"/>
			</g>
		</g>
		<g id="XMLID_1030_">
			<path id="XMLID_1962_" fill="#E0DDDC" d="M120.8,37.9l-66.1,8c-0.9,0.1-1.7-0.5-1.8-1.4l-0.7-6c-0.1-0.9,0.5-1.7,1.4-1.8l66.1-8
				c0.9-0.1,1.7,0.5,1.8,1.4l0.7,6C122.4,36.9,121.7,37.8,120.8,37.9z"/>
		</g>
		<g id="XMLID_1029_" opacity="0.4">
			<path id="XMLID_1072_" fill="#FFFFFF" d="M58.5,119.1c0,0-1.8,2-4.9,5.4c-1.5,1.7-3.3,3.9-5.3,6.2c-2,2.4-4.1,5.2-6.4,8.2
				c-2.2,3-4.4,6.5-6.4,10.1c-2,3.6-3.8,7.5-4.8,11.5c-1.1,4-1.5,8-1,11.8l0.3,1.4c0,0.1,0.1,0.7,0.1,0.4l0.2,0.9l0.5,1.9l0.5,1.4
				c0.7,1.9,1.5,4.2,2.5,6.3c3.9,8.6,9.2,17.3,14.1,25.3c5.1,8.1,9.9,15.8,14,22.3c4.2,6.5,7.6,12.2,9.9,16.2c2.4,4,3.6,6.4,3.6,6.4
				s-2.3-1.4-6.1-4.1c-3.8-2.8-9-6.9-14.8-12.3c-5.9-5.4-12.3-12.1-18.6-20c-3.1-4-6.2-8.2-9-12.7c-2.9-4.5-5.6-9.3-7.8-14.6
				c-1.1-2.7-2.1-5.2-3-8.3l-0.6-2.3l-0.4-1.9l-0.2-0.9c-0.2-0.9-0.1-0.9-0.2-1.5l-0.3-2.4c-0.3-6.4,1-12.6,3.3-17.8
				c4.5-10.4,11.6-17.5,17.7-22.8c3.1-2.7,6.2-4.8,8.9-6.6c2.7-1.8,5.3-3.2,7.3-4.3C56,120,58.5,119.1,58.5,119.1z"/>
		</g>
		<g id="XMLID_1028_" opacity="0.4">
			<path id="XMLID_1071_" fill="#FFFFFF" d="M144.6,114.8c0,0,4.3,1.1,9.6,4.7c2.7,1.7,5.6,4,8.4,6.9c2.8,2.8,5.4,6.2,7.7,9.9
				c1.1,1.9,2,3.8,2.9,5.8c0.8,2,1.5,4,2,6c0.4,2.1,0.9,4,1,5.9c0.1,1.9,0.1,3.7-0.1,5.4c-0.2,1.7-0.5,3.2-0.8,4.5
				c-0.3,1.3-0.9,2.4-1.2,3.3c-0.8,1.7-1.3,2.7-1.3,2.7s-0.3-1.1-0.8-2.9c-0.2-0.9-0.4-1.9-0.7-3.1c-0.4-1.2-0.9-2.4-1.2-3.8
				c-0.4-1.4-1.2-2.8-1.7-4.2c-0.5-1.5-1.4-3-2-4.5c-0.7-1.6-1.7-3.1-2.4-4.7c-0.9-1.6-1.8-3.2-2.8-4.8c-3.8-6.4-8.1-12.8-11.2-18
				C146.6,118.7,144.6,114.8,144.6,114.8z"/>
		</g>
	</g>
	<g id="XMLID_590_">
		<g id="XMLID_1026_">
			
				<ellipse id="XMLID_1955_" transform="matrix(0.2103 -0.9776 0.9776 0.2103 -223.3829 227.8271)" fill="#93AC1B" cx="29.3" cy="252.2" rx="21.4" ry="29.6"/>
		</g>
		<g id="XMLID_1024_" opacity="0.15">
			<g id="XMLID_840_">
				<path id="XMLID_1953_" fill="#040305" d="M54.2,243.5c-9.8,13.1-28.6,20.3-49.2,18.2c4.4,5.3,11.4,9.5,19.8,11.3
					c16,3.4,31-3.1,33.5-14.7C59.4,253.3,57.7,248.1,54.2,243.5z"/>
			</g>
		</g>
		<g id="XMLID_593_" opacity="0.4">
			<path id="XMLID_1070_" fill="#040305" d="M7.8,248.9c-0.4,1.8-1.7,3.1-2.9,2.8c-1.2-0.3-1.9-2-1.5-3.8c0.4-1.8,1.7-3.1,2.9-2.8
				C7.5,245.3,8.2,247,7.8,248.9z"/>
		</g>
		<g id="XMLID_591_" opacity="0.41">
			<g id="XMLID_592_">
				<path id="XMLID_1948_" fill="#FEFDFF" d="M10.1,238.3c0,0,2-1.6,5.6-2.8c3.6-1.3,8.7-2.4,13.9-1.8c1.3,0.1,2.6,0.3,3.8,0.6
					c1.3,0.2,2.4,0.7,3.6,1c1.2,0.3,2.2,0.9,3.2,1.4c1,0.4,1.9,1,2.7,1.5c1.7,0.9,2.8,2.1,3.6,2.8c0.8,0.7,1.3,1.2,1.3,1.2
					s-0.6-0.3-1.6-0.7c-1-0.5-2.4-1.2-4.1-1.8c-0.8-0.4-1.7-0.8-2.7-1c-1-0.3-2-0.7-3.1-0.9c-2.2-0.5-4.5-1-6.9-1.2
					c-2.4-0.3-4.8-0.2-7-0.1c-2.2,0.2-4.4,0.3-6.2,0.7C12.5,237.6,10.1,238.3,10.1,238.3z"/>
			</g>
		</g>
	</g>
	<g id="XMLID_192_">
		<g id="XMLID_505_">
			<path id="XMLID_1944_" fill="#8DA91B" d="M56.8,267.8c0,0,75.7-30.5,68-87.9c2.1,15.5-33.3,33.8-42.9,42.8
				C71.9,232.2,51.5,250.8,56.8,267.8z"/>
		</g>
		<g id="XMLID_193_" opacity="0.11">
			<g id="XMLID_504_">
				<path id="XMLID_1942_" fill="#040305" d="M56.1,263.2c0.1,1.6,0.3,3.1,0.8,4.6c0,0,57.5-23.1,67.2-67.1
					C106.2,228.6,73.2,252.5,56.1,263.2z"/>
			</g>
		</g>
	</g>
	<g id="XMLID_184_">
		<g id="XMLID_190_">
			
				<ellipse id="XMLID_1938_" transform="matrix(0.9928 -0.12 0.12 0.9928 -32.0183 8.903)" fill="#25202D" cx="57.9" cy="270.2" rx="29.6" ry="21.4"/>
		</g>
		<g id="XMLID_188_" opacity="0.18">
			<g id="XMLID_189_">
				<path id="XMLID_1936_" fill="#040305" d="M78.6,253.9c-5,15.5-20.4,28.5-40.6,33.3c5.9,3.6,13.8,5.3,22.4,4.3
					c16.3-2,28.3-13.1,26.9-24.8C86.7,261.5,83.4,257.1,78.6,253.9z"/>
			</g>
		</g>
		<g id="XMLID_187_" opacity="0.4">
			<path id="XMLID_1053_" fill="#040305" d="M36.5,274.1c0.2,1.9-0.6,3.5-1.8,3.6c-1.2,0.1-2.4-1.2-2.6-3.1
				c-0.2-1.9,0.6-3.5,1.8-3.6C35.1,270.9,36.3,272.3,36.5,274.1z"/>
		</g>
		<g id="XMLID_185_" opacity="0.41">
			<g id="XMLID_186_">
				<path id="XMLID_1931_" fill="#FEFDFF" d="M35.2,263.4c0,0,1.4-2.1,4.4-4.5c2.9-2.4,7.5-5.1,12.5-6.3c1.2-0.3,2.5-0.5,3.8-0.7
					c1.3-0.2,2.5-0.2,3.7-0.2c1.2-0.1,2.4,0.2,3.5,0.3c1.1,0.1,2.1,0.3,3,0.6c1.9,0.3,3.3,1.1,4.4,1.5c1,0.4,1.6,0.7,1.6,0.7
					s-0.6-0.1-1.7-0.2c-1.1-0.2-2.6-0.3-4.4-0.4C65,254.1,64,254,63,254c-1,0.1-2.1,0-3.2,0.2c-2.2,0.2-4.6,0.5-6.9,1.2
					c-2.3,0.5-4.6,1.4-6.7,2.2c-2.1,0.9-4,1.7-5.6,2.7C37.2,261.9,35.2,263.4,35.2,263.4z"/>
			</g>
		</g>
	</g>
</g>
<g id="XMLID_2520_">
	<g id="XMLID_2528_">
		<path id="XMLID_2530_" fill="#FFDB06" d="M353.7,529.4c-37.3,44.7-103.7,50.7-148.4,13.4l-7.5,9c49.7,41.4,123.5,34.7,164.9-14.9
			c41.4-49.7,34.7-123.5-14.9-164.9l-7.5,9C385,418.3,391,484.7,353.7,529.4z"/>
		<path id="XMLID_2529_" fill="#FFF3B6" d="M353.7,529.4C391,484.7,385,418.3,340.3,381l-135,161.9
			C249.9,580.2,316.4,574.1,353.7,529.4z"/>
	</g>
	<path id="XMLID_2527_" fill="#FFDB06" d="M333,481.5c19.5,16.2,24.6,34.3,16.3,44.3c-8.3,10-27,8.2-46.5-8.1
		c-19.5-16.2-36.6-44.3-28.3-54.3C282.9,453.5,313.6,465.3,333,481.5z"/>
	<path id="XMLID_2526_" fill="#FFDB06" d="M347.5,442.3c19.9,8.5,28.8,21.6,24.6,31.3c-4.1,9.7-19.7,12.4-39.6,3.9
		c-19.9-8.5-41-26.8-36.9-36.5C299.7,431.3,327.5,433.9,347.5,442.3z"/>
	<path id="XMLID_2525_" fill="#FFDB06" d="M346.6,404.9c15.2,1.6,23.7,9.7,22.8,18.6c-0.9,8.9-10.9,15.1-26.1,13.6
		c-15.2-1.6-33-10.7-32.1-19.5C312.1,408.6,331.4,403.4,346.6,404.9z"/>
	<path id="XMLID_2524_" fill="#FFDB06" d="M267.4,538.4c11.9,18.1,26.4,24.4,35.2,18.6c8.8-5.8,8.7-21.6-3.3-39.7
		c-11.9-18.1-33.7-35.6-42.5-29.8C247.9,493.4,255.4,520.3,267.4,538.4z"/>
	<path id="XMLID_2523_" fill="#FFDB06" d="M230.4,544.2c4.2,14.6,13.8,21.6,22.4,19.1c8.6-2.5,12.9-13.5,8.7-28.1
		c-4.2-14.6-16.4-30.6-25-28.1C227.9,509.6,226.1,529.6,230.4,544.2z"/>
	<g id="XMLID_2521_" opacity="0.14">
		<path id="XMLID_2522_" d="M340.3,381l-6.7,8.1c25.7,39.4,23,108-8,177.4c13.9-7,26.6-16.8,37.2-29.5
			c41.4-49.7,34.7-123.5-14.9-164.9L340.3,381z"/>
	</g>
</g>
<g id="XMLID_2531_">
	<g id="XMLID_2537_">
		
			<ellipse id="XMLID_2541_" transform="matrix(0.495 -0.8689 0.8689 0.495 -177.939 673.6078)" fill="#562211" cx="490.5" cy="489.9" rx="40.4" ry="28.5"/>
		<path id="XMLID_2540_" fill="#87442D" d="M507.7,459.7c0.1,0.1-1.1,0.5-2.8,1.7c-1.7,1.1-3.9,3-5.8,5.6c-1.9,2.7-3.4,6.1-4.3,10.1
			c-0.5,2-0.7,4.1-0.9,6.2c-0.2,2.2-0.2,4.2-0.2,6.8c-0.1,2.4,0,4.6-0.5,7.2c-0.3,2.5-1,4.9-1.7,7.2c-0.7,2.3-1.8,4.4-3,6.2
			c-1.2,1.9-2.6,3.5-4,4.7c-1.4,1.3-2.9,2.3-4.3,2.9c-1.3,0.7-2.6,1.1-3.7,1.4c-2.1,0.5-3.3,0.4-3.3,0.4s1.1-0.4,2.8-1.6
			c0.8-0.6,1.8-1.3,2.8-2.2c1-0.9,2-2.1,2.9-3.4c0.9-1.3,1.8-2.9,2.5-4.5c0.7-1.7,1.3-3.6,1.8-5.5c0.4-2,0.8-4.1,0.9-6.2
			c0.3-2,0.2-4.5,0.3-6.8c0-2.2,0.1-4.9,0.4-7.3c0.3-2.5,0.9-4.8,1.7-7.1c1.5-4.5,4.1-8.5,7-11c2.9-2.6,5.9-3.8,8-4.3
			C506.5,459.7,507.7,459.8,507.7,459.7z"/>
		<g id="XMLID_2538_" opacity="0.13">
			<path id="XMLID_2539_" d="M519.9,465.7c-7.9,26.4-28.2,47.1-53.9,55.7c1.4,1.4,2.9,2.6,4.6,3.6c13.7,7.8,33.7-1.6,44.8-20.9
				C522.9,490.7,524.2,476,519.9,465.7z"/>
		</g>
	</g>
	<g id="XMLID_2532_">
		<path id="XMLID_2536_" fill="#6B2F15" d="M470.1,474.5c0.7,22.3-11.5,40.7-27.3,41.2c-15.8,0.5-29.1-17.2-29.8-39.4
			c-0.7-22.3,11.5-40.7,27.3-41.2C456.1,434.5,469.4,452.2,470.1,474.5z"/>
		<path id="XMLID_2535_" fill="#87442D" d="M440.5,440.7c0.1,0-0.7,1-1.5,2.9c-0.8,1.8-1.7,4.6-2,7.8c-0.2,3.3,0.3,7,1.6,10.8
			c0.6,1.9,1.5,3.9,2.5,5.8c1,2,2,3.7,3.3,5.9c1.1,2.1,2.4,3.9,3.3,6.4c1.1,2.3,1.7,4.7,2.3,7c0.6,2.3,0.7,4.7,0.7,6.9
			c0,2.2-0.4,4.3-0.9,6.1c-0.5,1.8-1.3,3.5-2.1,4.7c-0.8,1.3-1.7,2.3-2.4,3.1c-1.5,1.5-2.6,2.1-2.6,2.1s0.8-1,1.6-2.8
			c0.4-0.9,0.9-2,1.2-3.4c0.4-1.3,0.6-2.8,0.7-4.4c0.1-1.6,0-3.4-0.2-5.2c-0.3-1.8-0.8-3.7-1.4-5.6c-0.7-1.9-1.5-3.9-2.5-5.7
			c-0.8-1.8-2.2-3.9-3.3-5.9c-1.2-1.9-2.5-4.2-3.4-6.4c-1-2.3-1.7-4.6-2.3-6.9c-1.1-4.7-0.9-9.4,0.3-13c1.1-3.7,3-6.3,4.5-7.8
			C439.5,441.3,440.6,440.7,440.5,440.7z"/>
		<g id="XMLID_2533_" opacity="0.13">
			<path id="XMLID_2534_" d="M454,439.4c7,26.6,0.5,54.9-16.9,75.6c1.9,0.5,3.8,0.7,5.8,0.6c15.8-0.5,28-19,27.3-41.2
				C469.6,459.1,463.1,446,454,439.4z"/>
		</g>
	</g>
</g>
</svg>
