<?xml version="1.0" encoding="utf-8"?>
<!-- Generator: Adobe Illustrator 26.0.1, SVG Export Plug-In . SVG Version: 6.00 Build 0)  -->
<svg version="1.0" id="Ebene_1" xmlns="http://www.w3.org/2000/svg" xmlns:xlink="http://www.w3.org/1999/xlink" x="0px" y="0px"
	 viewBox="0 0 1311.5 524.5" enable-background="new 0 0 1311.5 524.5" xml:space="preserve">
<linearGradient id="SVGID_1_" gradientUnits="userSpaceOnUse" x1="655.7612" y1="524.4995" x2="655.7612" y2="-9.094947e-13">
	<stop  offset="0" style="stop-color:#CCE0FB"/>
	<stop  offset="1" style="stop-color:#FFFFFF"/>
</linearGradient>
<rect fill="url(#SVGID_1_)" width="1311.5" height="524.5"/>
<g>
	<path fill="#B9D9F2" d="M313.7,404.5c-0.5,37.5,2.8,71.8,22.4,104.9c3.1,5.2,6.4,10.2,9.9,15h38.2c-0.7-4-1.3-8-1.8-12.1
		C368,493,360,468.3,360.2,443.9c0.4-41.2,21.5-80.3,51.2-108.8c6.5-6.3,13.5-12,20.7-17.4c3.2-4.3,6.5-8.5,10-12.5
		c0.3-0.4,0.9-0.4,1.3-0.1c0.4,0.3,0.4,0.9,0.1,1.3c-2.1,2.5-4.2,5-6.2,7.6c24.4-17.2,52.1-30,80.2-40.1
		c27.7-10,200.6-59.4,208.4-21.6c-62.8,8.5-120.7,31.2-153.9,89.4c-2.4,4.2-4.8,8.7-7.3,13c23.1-7.3,49.2-5.3,70.6,6.2
		c0.4,0.2,0.6,0.8,0.4,1.3c-0.2,0.5-0.8,0.6-1.3,0.4c-21.6-11.5-48.1-13.3-71.2-5.4c-5.4,8.7-11.8,16.6-21.1,20.2
		c-22.7,8.9-49.6-12-72-2.1c-10.2,4.5-16.1,14.3-18.3,25.4c21.7,5.2,41.3,19.5,54.9,34.5c13.6,15,24.4,32.5,34.9,49.4
		c0.4,0.6,0.8,1.2,1.1,1.9c40.7-21.7,50.7,34.9,88.1,36.1c17.6,0.6,34.4-7.3,51.9-9.5c13.6-1.7,29.5,2,37.9,11.8h42.3
		c1-0.6,2-1.3,2.9-2c15.3-11.6,10.2-35.3-5.6-46.4c-15.8-11.2-37.8-12.7-58.1-11.3c-20.3,1.3-40.7,4.9-60.8,2.1
		c-20.1-2.8-40.5-14.1-44.4-31.5c-5.8-25.9,26.3-46.1,55.6-52.6c29.3-6.5,62.8-7.9,83.8-27c-14.1,8.9-36.2,2.9-44.7-10.4
		c-8.6-13.2-5-30.7,5.8-42.6c29.9-33,70.3-5.8,98.4-33.2c10.9-10.6,20.5-24.2,35.2-28.3c0.3-0.1,0.7-0.2,1-0.3
		c-100.2-31.2-208.8-35.1-309.3-5.8c-50.7,14.7-98.8,38.1-141.9,68.5c-23.1,16.3-46.4,35.8-68.2,57.7
		C314.7,376.4,313.8,392.3,313.7,404.5z"/>
	<path fill="#54A371" d="M796,269.6c-28.1,27.5-68.5,0.3-98.4,33.2c-10.8,11.9-14.4,29.4-5.8,42.6c8.6,13.2,30.6,19.2,44.7,10.4
		c-20.9,19.1-54.4,20.5-83.8,27c-29.3,6.5-61.4,26.7-55.6,52.6c3.9,17.4,24.3,28.8,44.4,31.5c20.1,2.8,40.5-0.8,60.8-2.1
		c20.3-1.3,42.3,0.2,58.1,11.3c15.8,11.1,20.9,34.8,5.6,46.4c-0.9,0.7-1.9,1.4-2.9,2h63.7c-8.2-33.9-37.3-62.8-72.1-68
		c-10.9-1.6-22.3-1.2-32.7-5c-10.4-3.7-19.9-13.5-18.5-24.5c2.4-19,29.5-20.2,44.7-31.8c16.3-12.4,17.4-36.1,25.9-54.7
		c20.5-44.8,84.3-54.2,128.3-32.1c44,22.1,72.7,65.5,99.2,107c7.3,11.4,14.7,23.1,17,36.4c2.2,13.3-2.1,28.7-13.7,35.5
		c-10.4,6.1-23.6,3.9-35.3,6.7c-16.4,3.9-28,15.4-37.1,30.5h121.5c2.6-5.4,3.7-12.2,3.7-18.3c0.2-19.9-3.8-39.9-11.6-58.2
		c-9.2-21.5,2.4-17.2,13.5-10.5c14.5,8.9,28.9,29.8,38.2,43.7c8.9,13.1,15.8,27.9,19.1,43.3h16c-10.6-37.5-25.4-73.6-46.4-106.3
		c-39.8-62-100.5-108.4-166.3-141.6c-28.2-14.2-57.7-26.1-87.9-35.5c-0.3,0.1-0.7,0.2-1,0.3C816.6,245.4,806.9,259,796,269.6z"/>
	<path fill="#54A371" d="M277.3,451.2c7-2.8,14.5,3.9,16.6,11.2c2.1,7.2,0.9,15,2.3,22.4c3.3,17.3,19.3,28.6,33,39.8H346
		c-3.5-4.9-6.8-9.9-9.9-15c-19.6-33.1-22.9-67.4-22.4-104.9c0.2-12.2,1-28.2-0.9-43.1c-42.2,42.1-79.2,92.6-99.4,144.1
		c-2.3,5.9-4.5,12.3-6.4,19h51C249.7,502.4,256.1,459.7,277.3,451.2z"/>
	<path fill="#ADD4D1" d="M510.8,518.2c0.3-0.6,0.7-1.1,1-1.7c-8.2-9.8-17.3-19.3-27.4-28.2c0.4,1.2,0.8,2.3,1.1,3.5
		C494.8,500.1,503.2,509.1,510.8,518.2z"/>
	<path fill="#ADD4D1" d="M505.5,436.2c13.5,14.8,24.2,32.3,34.7,49.1c0.4,0.6,0.7,1.2,1.1,1.8c0.5-0.3,1.1-0.6,1.6-0.9
		c-0.4-0.6-0.8-1.2-1.1-1.9c-10.5-16.9-21.3-34.4-34.9-49.4c-13.6-15-33.3-29.3-54.9-34.5c-0.1,0.6-0.2,1.2-0.3,1.8
		C472.8,407.4,492.1,421.4,505.5,436.2z"/>
	<path fill="#ADD4D1" d="M634.5,362.3c0.5,0.2,1,0.1,1.3-0.4c0.2-0.4,0.1-1-0.4-1.3c-21.4-11.4-47.5-13.4-70.6-6.2
		c-0.5,0.8-1,1.6-1.5,2.4C586.4,349.1,612.9,350.8,634.5,362.3z"/>
	<path fill="#ADD4D1" d="M443.4,306.3c0.3-0.4,0.3-1-0.1-1.3c-0.4-0.3-1-0.3-1.3,0.1c-3.5,4.1-6.8,8.3-10,12.5
		c1.7-1.3,3.5-2.5,5.2-3.8C439.3,311.3,441.3,308.8,443.4,306.3z"/>
	<path fill="#ADD4D1" d="M384.6,515.4c-0.8-1-1.5-1.9-2.2-2.9c0.5,4,1.1,8.1,1.8,12.1h1.9C385.5,521.5,385.1,518.4,384.6,515.4z"/>
	<path fill="#ADD4D1" d="M422.6,450.3c-0.5-0.2-1,0.1-1.2,0.5c-0.2,0.5,0.1,1,0.5,1.2c24.6,9.3,45.7,23.5,63.6,39.7
		c-0.3-1.2-0.7-2.3-1.1-3.5C466.9,472.8,446.4,459.3,422.6,450.3z"/>
	<path opacity="0.5" fill="#BBD7F0" d="M422.6,450.3c-0.5-0.2-1,0.1-1.2,0.5c-0.2,0.5,0.1,1,0.5,1.2c24.6,9.3,45.7,23.5,63.6,39.7
		c-0.3-1.2-0.7-2.3-1.1-3.5C466.9,472.8,446.4,459.3,422.6,450.3z"/>
	<path fill="#ADD4D1" d="M418.1,400.6c-0.5,0.1-0.8,0.6-0.7,1.1c0.1,0.5,0.6,0.8,1.1,0.7c11.2-3,22.4-2.7,33-0.1
		c0.1-0.6,0.2-1.2,0.3-1.8C441,397.8,429.6,397.5,418.1,400.6z"/>
	<path opacity="0.5" fill="#BBD7F0" d="M418.1,400.6c-0.5,0.1-0.8,0.6-0.7,1.1c0.1,0.5,0.6,0.8,1.1,0.7c11.2-3,22.4-2.7,33-0.1
		c0.1-0.6,0.2-1.2,0.3-1.8C441,397.8,429.6,397.5,418.1,400.6z"/>
	<path fill="#ADD4D1" d="M493.8,335.1C493.8,335.1,493.8,335.1,493.8,335.1c0.5,0,1-0.4,1-0.9c0.8-13,10.5-24.7,29.7-36
		c44.3-25.9,97-39.3,148.2-37.7c0.5,0,0.9-0.4,1-0.9c0-0.5-0.4-0.9-0.9-1c-51.6-1.6-104.6,11.9-149.2,38
		c-19.7,11.5-29.8,23.8-30.6,37.4C492.9,334.6,493.3,335.1,493.8,335.1z"/>
	<path opacity="0.5" fill="#BBD7F0" d="M493.8,335.1C493.8,335.1,493.8,335.1,493.8,335.1c0.5,0,1-0.4,1-0.9
		c0.8-13,10.5-24.7,29.7-36c44.3-25.9,97-39.3,148.2-37.7c0.5,0,0.9-0.4,1-0.9c0-0.5-0.4-0.9-0.9-1c-51.6-1.6-104.6,11.9-149.2,38
		c-19.7,11.5-29.8,23.8-30.6,37.4C492.9,334.6,493.3,335.1,493.8,335.1z"/>
	<path fill="#ADD4D1" d="M546.6,363.6c0.2,0.3,0.5,0.5,0.8,0.5c0.2,0,0.3,0,0.5-0.1c4.9-2.9,10.1-5.2,15.4-7c0.5-0.8,1-1.6,1.5-2.4
		c-6.2,1.9-12.2,4.6-17.8,7.8C546.5,362.6,546.3,363.2,546.6,363.6z"/>
	<path opacity="0.5" fill="#BBD7F0" d="M546.6,363.6c0.2,0.3,0.5,0.5,0.8,0.5c0.2,0,0.3,0,0.5-0.1c4.9-2.9,10.1-5.2,15.4-7
		c0.5-0.8,1-1.6,1.5-2.4c-6.2,1.9-12.2,4.6-17.8,7.8C546.5,362.6,546.3,363.2,546.6,363.6z"/>
	<path fill="#ADD4D1" d="M437.3,313.9c-1.8,1.2-3.5,2.5-5.2,3.8c-41.2,55.3-58.5,126.7-49.7,194.8c0.7,1,1.5,2,2.2,2.9
		C374.6,444.8,393,370.3,437.3,313.9z"/>
	<path opacity="0.5" fill="#BBD7F0" d="M437.3,313.9c-1.8,1.2-3.5,2.5-5.2,3.8c-41.2,55.3-58.5,126.7-49.7,194.8
		c0.7,1,1.5,2,2.2,2.9C374.6,444.8,393,370.3,437.3,313.9z"/>
	<path fill="#ADD4D1" d="M510.8,518.2c1.7,2.1,3.4,4.2,5.1,6.3h2.4c-2.1-2.7-4.2-5.3-6.5-8C511.5,517.1,511.1,517.6,510.8,518.2z"/>
	<path opacity="0.5" fill="#BBD7F0" d="M510.8,518.2c1.7,2.1,3.4,4.2,5.1,6.3h2.4c-2.1-2.7-4.2-5.3-6.5-8
		C511.5,517.1,511.1,517.6,510.8,518.2z"/>
	<path fill="#ADD4D1" d="M561.4,517.8c1.6,2.2,3.3,4.4,5.1,6.7h2.4c-2.1-2.6-4.1-5.2-6-7.8c-7.2-9.8-13.7-20.3-20-30.6
		c-0.5,0.3-1.1,0.6-1.6,0.9C547.6,497.3,554.2,507.9,561.4,517.8z"/>
	<path opacity="0.5" fill="#BBD7F0" d="M561.4,517.8c1.6,2.2,3.3,4.4,5.1,6.7h2.4c-2.1-2.6-4.1-5.2-6-7.8
		c-7.2-9.8-13.7-20.3-20-30.6c-0.5,0.3-1.1,0.6-1.6,0.9C547.6,497.3,554.2,507.9,561.4,517.8z"/>
	<path fill="#2A825D" d="M969.5,494c11.8-2.8,24.9-0.6,35.3-6.7c11.7-6.8,16-22.2,13.7-35.5c-2.2-13.3-9.7-25.1-17-36.4
		c-26.6-41.5-55.2-84.9-99.2-107c-44-22.1-107.9-12.7-128.3,32.1c-8.5,18.6-9.6,42.3-25.9,54.7c-15.2,11.6-42.3,12.9-44.7,31.8
		c-1.4,11,8.1,20.7,18.5,24.5c10.4,3.7,21.8,3.3,32.7,5c34.8,5.2,63.9,34.1,72.1,68h105.6C941.5,509.4,953,497.9,969.5,494z"/>
	<path fill="#2A825D" d="M296.2,484.7c-1.4-7.4-0.2-15.2-2.3-22.4c-2.1-7.2-9.6-14-16.6-11.2c-21.2,8.5-27.6,51.2-19.3,73.3h71.3
		C315.5,513.3,299.5,502,296.2,484.7z"/>
	<path fill="#2A825D" d="M1097.7,481.2c-9.4-13.9-23.7-34.9-38.2-43.7c-11.1-6.8-22.7-11-13.5,10.5c7.9,18.3,11.8,38.3,11.6,58.2
		c-0.1,6.1-1.1,12.9-3.7,18.3h62.9C1113.6,509.1,1106.6,494.3,1097.7,481.2z"/>
	<g>
		<path fill="#FF5945" d="M272.2,325.3c11.1,21.8,15,115.2,15.7,137c0.1,1.8-2,2.9-3.5,1.8c-17.2-13.4-90.6-71.3-101.8-93.1
			c-12.6-24.7-2.8-55,21.9-67.6C229.3,290.7,259.6,300.5,272.2,325.3z"/>
		<path fill="#FFFFFF" d="M249.8,334.2c6.6,12.9,1.5,28.7-11.4,35.3c-12.9,6.6-28.7,1.5-35.3-11.4c-6.6-12.9-1.5-28.7,11.4-35.3
			C227.4,316.2,243.2,321.3,249.8,334.2z"/>
	</g>
	<g>
		<path fill="#FF5945" d="M961.3,257.2c-8,23.1-72.7,90.6-87.9,106.3c-1.3,1.3-3.5,0.5-3.7-1.3c-2.3-21.7-11.4-114.7-3.4-137.9
			c9.1-26.2,37.7-40.1,63.9-31.1C956.5,202.3,970.4,230.9,961.3,257.2z"/>
		<path fill="#FFFFFF" d="M939.3,247.2c-4.7,13.7-19.7,20.9-33.4,16.2c-13.7-4.7-20.9-19.7-16.2-33.4c4.7-13.7,19.7-20.9,33.4-16.2
			C936.8,218.6,944,233.6,939.3,247.2z"/>
	</g>
</g>
</svg>
