<?xml version="1.0" encoding="utf-8"?>
<!-- Generator: Adobe Illustrator 26.0.1, SVG Export Plug-In . SVG Version: 6.00 Build 0)  -->
<svg version="1.0" id="Ebene_1" xmlns="http://www.w3.org/2000/svg" xmlns:xlink="http://www.w3.org/1999/xlink" x="0px" y="0px"
	 viewBox="0 0 1698.1 1317.1" enable-background="new 0 0 1698.1 1317.1" xml:space="preserve">
<g id="XMLID_495_">
	<g id="XMLID_166_">
		<g id="XMLID_522_">
			<g id="XMLID_3278_">
				
					<rect id="XMLID_2373_" x="1427.4" y="14.5" transform="matrix(0.9968 7.948955e-02 -7.948955e-02 0.9968 11.3827 -121.4336)" fill="#EDEDED" width="207.1" height="135.5"/>
			</g>
		</g>
		<g id="XMLID_521_">
			<g id="XMLID_3276_">
				<path id="XMLID_2372_" fill="#BDC2C9" d="M1642.7,29.4l-214-17.1c-0.6,0-1.1-0.6-1-1.2l0.8-10.1c0-0.6,0.6-1.1,1.2-1l214,17.1
					c0.6,0,1.1,0.6,1,1.2l-0.8,10.1C1643.8,29,1643.3,29.5,1642.7,29.4z"/>
			</g>
		</g>
		<g id="XMLID_517_">
			<g id="XMLID_520_">
				<g id="XMLID_3274_">
					<path fill="#BDC2C9" d="M1480.7,53.3c2.5-2.5,4.3-6,4.6-10c0.7-8.5-5.2-15.8-13-16.4c-7.9-0.6-14.8,5.7-15.5,14.2
						c-0.3,3.9,0.8,7.6,2.9,10.5l-0.2,0l-5.4,14.1l-5.8,73.2l30,2.4l5.7-72L1480.7,53.3z"/>
				</g>
			</g>
			<g id="XMLID_518_" opacity="0.12">
				<g id="XMLID_519_">
					<g id="XMLID_3272_">
						<path fill="#020202" d="M1458.1,45.1c0.7-8.5,7.6-14.8,15.5-14.2c4.9,0.4,9,3.4,11.2,7.6c-1.4-6.3-6.3-11.1-12.6-11.6
							c-7.9-0.6-14.8,5.7-15.5,14.2c-0.3,3.1,0.5,6.1,1.8,8.6C1458.2,48.2,1458,46.7,1458.1,45.1z"/>
					</g>
				</g>
			</g>
		</g>
		<g id="XMLID_513_">
			<g id="XMLID_516_">
				<g id="XMLID_3268_">
					<path fill="#BDC2C9" d="M1543,58.3c2.5-2.5,4.3-6,4.6-10c0.7-8.5-5.2-15.8-13-16.4c-7.9-0.6-14.8,5.7-15.5,14.2
						c-0.3,3.9,0.8,7.6,2.9,10.5l-0.2,0l-5.4,14.1l-5.8,73.2l30,2.4l5.7-72L1543,58.3z"/>
				</g>
			</g>
			<g id="XMLID_514_" opacity="0.12">
				<g id="XMLID_515_">
					<g id="XMLID_3266_">
						<path fill="#020202" d="M1520.5,50.1c0.7-8.5,7.6-14.8,15.5-14.2c4.9,0.4,9,3.4,11.2,7.6c-1.4-6.3-6.3-11.1-12.6-11.6
							c-7.9-0.6-14.8,5.7-15.5,14.2c-0.3,3.1,0.5,6.1,1.8,8.6C1520.5,53.2,1520.4,51.6,1520.5,50.1z"/>
					</g>
				</g>
			</g>
		</g>
		<g id="XMLID_454_">
			<g id="XMLID_512_">
				<g id="XMLID_3262_">
					<path fill="#BDC2C9" d="M1605.4,63.2c2.5-2.5,4.3-6,4.6-10c0.7-8.5-5.2-15.8-13-16.4c-7.9-0.6-14.8,5.7-15.5,14.2
						c-0.3,3.9,0.8,7.6,2.9,10.5l-0.2,0l-5.4,14.1l-5.8,73.2l30,2.4l5.7-72L1605.4,63.2z"/>
				</g>
			</g>
			<g id="XMLID_510_" opacity="0.12">
				<g id="XMLID_511_">
					<g id="XMLID_3260_">
						<path fill="#020202" d="M1582.8,55c0.7-8.5,7.6-14.8,15.5-14.2c4.9,0.4,9,3.4,11.2,7.6c-1.4-6.3-6.3-11.1-12.6-11.6
							c-7.9-0.6-14.8,5.7-15.5,14.2c-0.3,3.1,0.5,6.1,1.8,8.6C1582.9,58.2,1582.7,56.6,1582.8,55z"/>
					</g>
				</g>
			</g>
		</g>
	</g>
	<g id="XMLID_422_">
		<g id="XMLID_444_">
			<g id="XMLID_3255_">
				
					<rect id="XMLID_2371_" x="1354.7" y="150.8" transform="matrix(0.9968 7.948988e-02 -7.948988e-02 0.9968 22.1866 -120.1471)" fill="#EDEDED" width="331" height="135.5"/>
			</g>
		</g>
		<g id="XMLID_443_">
			<g id="XMLID_3253_">
				<path fill="#BDC2C9" d="M1691.5,170.5L1358,143.9c-3.3-0.3-5.9-3.2-5.6-6.6l0-0.2c0.3-3.3,3.2-5.9,6.6-5.6l333.5,26.6
					c3.3,0.3,5.9,3.2,5.6,6.6l0,0.2C1697.8,168.3,1694.9,170.8,1691.5,170.5z"/>
			</g>
		</g>
		<g id="XMLID_439_">
			<g id="XMLID_442_">
				<g id="XMLID_3251_">
					<path fill="#BDC2C9" d="M1405.1,184.5c2.5-2.5,4.3-6,4.6-10c0.7-8.5-5.2-15.8-13-16.4c-7.9-0.6-14.8,5.7-15.5,14.2
						c-0.3,3.9,0.8,7.6,2.9,10.5l-0.2,0l-5.4,14.1l-5.8,73.2l30,2.4l5.7-72L1405.1,184.5z"/>
				</g>
			</g>
			<g id="XMLID_440_" opacity="0.12">
				<g id="XMLID_441_">
					<g id="XMLID_3249_">
						<path fill="#020202" d="M1382.6,176.3c0.7-8.5,7.6-14.8,15.5-14.2c4.9,0.4,9,3.4,11.2,7.6c-1.4-6.3-6.3-11.1-12.6-11.6
							c-7.9-0.6-14.8,5.7-15.5,14.2c-0.3,3.1,0.5,6.1,1.8,8.6C1382.6,179.4,1382.5,177.9,1382.6,176.3z"/>
					</g>
				</g>
			</g>
		</g>
		<g id="XMLID_435_">
			<g id="XMLID_438_">
				<g id="XMLID_3245_">
					<path fill="#BDC2C9" d="M1467.5,189.4c2.5-2.5,4.3-6,4.6-10c0.7-8.5-5.2-15.8-13-16.4c-7.9-0.6-14.8,5.7-15.5,14.2
						c-0.3,3.9,0.8,7.6,2.9,10.5l-0.2,0l-5.4,14.1L1435,275l30,2.4l5.7-72L1467.5,189.4z"/>
				</g>
			</g>
			<g id="XMLID_436_" opacity="0.12">
				<g id="XMLID_437_">
					<g id="XMLID_3243_">
						<path fill="#020202" d="M1444.9,181.2c0.7-8.5,7.6-14.8,15.5-14.2c4.9,0.4,9,3.4,11.2,7.6c-1.4-6.3-6.3-11.1-12.6-11.6
							c-7.9-0.6-14.8,5.7-15.5,14.2c-0.3,3.1,0.5,6.1,1.8,8.6C1445,184.4,1444.8,182.8,1444.9,181.2z"/>
					</g>
				</g>
			</g>
		</g>
		<g id="XMLID_431_">
			<g id="XMLID_434_">
				<g id="XMLID_3239_">
					<path fill="#BDC2C9" d="M1529.8,194.4c2.5-2.5,4.3-6,4.6-10c0.7-8.5-5.2-15.8-13-16.4c-7.9-0.6-14.8,5.7-15.5,14.2
						c-0.3,3.9,0.8,7.6,2.9,10.5l-0.2,0l-5.4,14.1l-5.8,73.2l30,2.4l5.7-72L1529.8,194.4z"/>
				</g>
			</g>
			<g id="XMLID_432_" opacity="0.12">
				<g id="XMLID_433_">
					<g id="XMLID_3237_">
						<path fill="#020202" d="M1507.3,186.2c0.7-8.5,7.6-14.8,15.5-14.2c4.9,0.4,9,3.4,11.2,7.6c-1.4-6.3-6.3-11.1-12.6-11.6
							c-7.9-0.6-14.8,5.7-15.5,14.2c-0.3,3.1,0.5,6.1,1.8,8.6C1507.3,189.3,1507.2,187.8,1507.3,186.2z"/>
					</g>
				</g>
			</g>
		</g>
		<g id="XMLID_427_">
			<g id="XMLID_430_">
				<g id="XMLID_3233_">
					<path fill="#BDC2C9" d="M1592.2,199.4c2.5-2.5,4.3-6,4.6-10c0.7-8.5-5.2-15.8-13-16.4c-7.9-0.6-14.8,5.7-15.5,14.2
						c-0.3,3.9,0.8,7.6,2.9,10.5l-0.2,0l-5.4,14.1l-5.8,73.2l30,2.4l5.7-72L1592.2,199.4z"/>
				</g>
			</g>
			<g id="XMLID_428_" opacity="0.12">
				<g id="XMLID_429_">
					<g id="XMLID_3231_">
						<path fill="#020202" d="M1569.6,191.2c0.7-8.5,7.6-14.8,15.5-14.2c4.9,0.4,9,3.4,11.2,7.6c-1.4-6.3-6.3-11.1-12.6-11.6
							c-7.9-0.6-14.8,5.7-15.5,14.2c-0.3,3.1,0.5,6.1,1.8,8.6C1569.7,194.3,1569.5,192.8,1569.6,191.2z"/>
					</g>
				</g>
			</g>
		</g>
		<g id="XMLID_423_">
			<g id="XMLID_426_">
				<g id="XMLID_3227_">
					<path fill="#BDC2C9" d="M1654.5,204.4c2.5-2.5,4.3-6,4.6-10c0.7-8.5-5.2-15.8-13-16.4c-7.9-0.6-14.8,5.7-15.5,14.2
						c-0.3,3.9,0.8,7.6,2.9,10.5l-0.2,0l-5.4,14.1l-5.8,73.2l30,2.4l5.7-72L1654.5,204.4z"/>
				</g>
			</g>
			<g id="XMLID_424_" opacity="0.12">
				<g id="XMLID_425_">
					<g id="XMLID_3225_">
						<path fill="#020202" d="M1632,196.1c0.7-8.5,7.6-14.8,15.5-14.2c4.9,0.4,9,3.4,11.2,7.6c-1.4-6.3-6.3-11.1-12.6-11.6
							c-7.9-0.6-14.8,5.7-15.5,14.2c-0.3,3.1,0.5,6.1,1.8,8.6C1632,199.3,1631.9,197.7,1632,196.1z"/>
					</g>
				</g>
			</g>
		</g>
	</g>
	<g id="XMLID_399_">
		<g id="XMLID_421_">
			<g id="XMLID_3220_">
				
					<rect id="XMLID_2370_" x="1343.4" y="292.1" transform="matrix(0.9968 7.948989e-02 -7.948989e-02 0.9968 33.3777 -118.805)" fill="#EDEDED" width="331" height="135.5"/>
			</g>
		</g>
		<g id="XMLID_420_">
			<g id="XMLID_3218_">
				<path id="XMLID_2369_" fill="#BDC2C9" d="M1684.9,312.1l-342.8-27.3c0.1-0.8-0.5-1.5-1.3-1.5l0.8-9.5c0.8,0.1,1.5-0.5,1.5-1.3
					l342.8,27.3c-0.1,0.8,0.5,1.5,1.3,1.5l-0.8,9.5C1685.7,310.7,1685,311.3,1684.9,312.1z"/>
			</g>
		</g>
		<g id="XMLID_416_">
			<g id="XMLID_419_">
				<g id="XMLID_3216_">
					<path fill="#BDC2C9" d="M1393.8,325.7c2.5-2.5,4.3-6,4.6-10c0.7-8.5-5.2-15.8-13-16.4c-7.9-0.6-14.8,5.7-15.5,14.2
						c-0.3,3.9,0.8,7.6,2.9,10.5l-0.2,0l-5.4,14.1l-5.8,73.2l30,2.4l5.7-72L1393.8,325.7z"/>
				</g>
			</g>
			<g id="XMLID_417_" opacity="0.12">
				<g id="XMLID_418_">
					<g id="XMLID_3214_">
						<path fill="#020202" d="M1371.3,317.5c0.7-8.5,7.6-14.8,15.5-14.2c4.9,0.4,9,3.4,11.2,7.6c-1.4-6.3-6.3-11.1-12.6-11.6
							c-7.9-0.6-14.8,5.7-15.5,14.2c-0.3,3.1,0.5,6.1,1.8,8.6C1371.4,320.6,1371.2,319.1,1371.3,317.5z"/>
					</g>
				</g>
			</g>
		</g>
		<g id="XMLID_412_">
			<g id="XMLID_415_">
				<g id="XMLID_3210_">
					<path fill="#BDC2C9" d="M1456.2,330.7c2.5-2.5,4.3-6,4.6-10c0.7-8.5-5.2-15.8-13-16.4c-7.9-0.6-14.8,5.7-15.5,14.2
						c-0.3,3.9,0.8,7.6,2.9,10.5l-0.2,0l-5.4,14.1l-5.8,73.2l30,2.4l5.7-72L1456.2,330.7z"/>
				</g>
			</g>
			<g id="XMLID_413_" opacity="0.12">
				<g id="XMLID_414_">
					<g id="XMLID_3208_">
						<path fill="#020202" d="M1433.7,322.5c0.7-8.5,7.6-14.8,15.5-14.2c4.9,0.4,9,3.4,11.2,7.6c-1.4-6.3-6.3-11.1-12.6-11.6
							c-7.9-0.6-14.8,5.7-15.5,14.2c-0.3,3.1,0.5,6.1,1.8,8.6C1433.7,325.6,1433.6,324.1,1433.7,322.5z"/>
					</g>
				</g>
			</g>
		</g>
		<g id="XMLID_408_">
			<g id="XMLID_411_">
				<g id="XMLID_3204_">
					<path fill="#BDC2C9" d="M1518.5,335.7c2.5-2.5,4.3-6,4.6-10c0.7-8.5-5.2-15.8-13-16.4c-7.9-0.6-14.8,5.7-15.5,14.2
						c-0.3,3.9,0.8,7.6,2.9,10.5l-0.2,0l-5.4,14.1l-5.8,73.2l30,2.4l5.7-72L1518.5,335.7z"/>
				</g>
			</g>
			<g id="XMLID_409_" opacity="0.12">
				<g id="XMLID_410_">
					<g id="XMLID_3202_">
						<path fill="#020202" d="M1496,327.4c0.7-8.5,7.6-14.8,15.5-14.2c4.9,0.4,9,3.4,11.2,7.6c-1.4-6.3-6.3-11.1-12.6-11.6
							c-7.9-0.6-14.8,5.7-15.5,14.2c-0.3,3.1,0.5,6.1,1.8,8.6C1496.1,330.6,1495.9,329,1496,327.4z"/>
					</g>
				</g>
			</g>
		</g>
		<g id="XMLID_404_">
			<g id="XMLID_407_">
				<g id="XMLID_3198_">
					<path fill="#BDC2C9" d="M1580.9,340.6c2.5-2.5,4.3-6,4.6-10c0.7-8.5-5.2-15.8-13-16.4c-7.9-0.6-14.8,5.7-15.5,14.2
						c-0.3,3.9,0.8,7.6,2.9,10.5l-0.2,0l-5.4,14.1l-5.8,73.2l30,2.4l5.7-72L1580.9,340.6z"/>
				</g>
			</g>
			<g id="XMLID_405_" opacity="0.12">
				<g id="XMLID_406_">
					<g id="XMLID_3196_">
						<path fill="#020202" d="M1558.4,332.4c0.7-8.5,7.6-14.8,15.5-14.2c4.9,0.4,9,3.4,11.2,7.6c-1.4-6.3-6.3-11.1-12.6-11.6
							c-7.9-0.6-14.8,5.7-15.5,14.2c-0.3,3.1,0.5,6.1,1.8,8.6C1558.4,335.5,1558.3,334,1558.4,332.4z"/>
					</g>
				</g>
			</g>
		</g>
		<g id="XMLID_400_">
			<g id="XMLID_403_">
				<g id="XMLID_3192_">
					<path fill="#BDC2C9" d="M1643.2,345.6c2.5-2.5,4.3-6,4.6-10c0.7-8.5-5.2-15.8-13-16.4c-7.9-0.6-14.8,5.7-15.5,14.2
						c-0.3,3.9,0.8,7.6,2.9,10.5l-0.2,0l-5.4,14.1l-5.8,73.2l30,2.4l5.7-72L1643.2,345.6z"/>
				</g>
			</g>
			<g id="XMLID_401_" opacity="0.12">
				<g id="XMLID_402_">
					<g id="XMLID_3190_">
						<path fill="#020202" d="M1620.7,337.4c0.7-8.5,7.6-14.8,15.5-14.2c4.9,0.4,9,3.4,11.2,7.6c-1.4-6.3-6.3-11.1-12.6-11.6
							c-7.9-0.6-14.8,5.7-15.5,14.2c-0.3,3.1,0.5,6.1,1.8,8.6C1620.8,340.5,1620.6,339,1620.7,337.4z"/>
					</g>
				</g>
			</g>
		</g>
	</g>
	<g id="XMLID_376_">
		<g id="XMLID_398_">
			<g id="XMLID_3185_">
				
					<rect id="XMLID_2368_" x="1332.6" y="427.1" transform="matrix(0.9968 7.948986e-02 -7.948986e-02 0.9968 44.0799 -117.5214)" fill="#EDEDED" width="331" height="135.5"/>
			</g>
		</g>
		<g id="XMLID_397_">
			<g id="XMLID_3183_">
				<path fill="#BDC2C9" d="M1669.5,446.8L1336,420.2c-3.3-0.3-5.9-3.2-5.6-6.6l0-0.2c0.3-3.3,3.2-5.9,6.6-5.6l333.5,26.6
					c3.3,0.3,5.9,3.2,5.6,6.6l0,0.2C1675.8,444.6,1672.8,447.1,1669.5,446.8z"/>
			</g>
		</g>
		<g id="XMLID_393_">
			<g id="XMLID_396_">
				<g id="XMLID_3181_">
					<path fill="#BDC2C9" d="M1383.1,460.8c2.5-2.5,4.3-6,4.6-10c0.7-8.5-5.2-15.8-13-16.4c-7.9-0.6-14.8,5.7-15.5,14.2
						c-0.3,3.9,0.8,7.6,2.9,10.5l-0.2,0l-5.4,14.1l-5.8,73.2l30,2.4l5.7-72L1383.1,460.8z"/>
				</g>
			</g>
			<g id="XMLID_394_" opacity="0.12">
				<g id="XMLID_395_">
					<g id="XMLID_3179_">
						<path fill="#020202" d="M1360.6,452.6c0.7-8.5,7.6-14.8,15.5-14.2c4.9,0.4,9,3.4,11.2,7.6c-1.4-6.3-6.3-11.1-12.6-11.6
							c-7.9-0.6-14.8,5.7-15.5,14.2c-0.3,3.1,0.5,6.1,1.8,8.6C1360.6,455.7,1360.4,454.2,1360.6,452.6z"/>
					</g>
				</g>
			</g>
		</g>
		<g id="XMLID_389_">
			<g id="XMLID_392_">
				<g id="XMLID_3175_">
					<path fill="#BDC2C9" d="M1445.4,465.7c2.5-2.5,4.3-6,4.6-10c0.7-8.5-5.2-15.8-13-16.4c-7.9-0.6-14.8,5.7-15.5,14.2
						c-0.3,3.9,0.8,7.6,2.9,10.5l-0.2,0l-5.4,14.1l-5.8,73.2l30,2.4l5.7-72L1445.4,465.7z"/>
				</g>
			</g>
			<g id="XMLID_390_" opacity="0.12">
				<g id="XMLID_391_">
					<g id="XMLID_3173_">
						<path fill="#020202" d="M1422.9,457.5c0.7-8.5,7.6-14.8,15.5-14.2c4.9,0.4,9,3.4,11.2,7.6c-1.4-6.3-6.3-11.1-12.6-11.6
							c-7.9-0.6-14.8,5.7-15.5,14.2c-0.3,3.1,0.5,6.1,1.8,8.6C1422.9,460.7,1422.8,459.1,1422.9,457.5z"/>
					</g>
				</g>
			</g>
		</g>
		<g id="XMLID_385_">
			<g id="XMLID_388_">
				<g id="XMLID_3169_">
					<path fill="#BDC2C9" d="M1507.8,470.7c2.5-2.5,4.3-6,4.6-10c0.7-8.5-5.2-15.8-13-16.4c-7.9-0.6-14.8,5.7-15.5,14.2
						c-0.3,3.9,0.8,7.6,2.9,10.5l-0.2,0l-5.4,14.1l-5.8,73.2l30,2.4l5.7-72L1507.8,470.7z"/>
				</g>
			</g>
			<g id="XMLID_386_" opacity="0.12">
				<g id="XMLID_387_">
					<g id="XMLID_3167_">
						<path fill="#020202" d="M1485.3,462.5c0.7-8.5,7.6-14.8,15.5-14.2c4.9,0.4,9,3.4,11.2,7.6c-1.4-6.3-6.3-11.1-12.6-11.6
							c-7.9-0.6-14.8,5.7-15.5,14.2c-0.3,3.1,0.5,6.1,1.8,8.6C1485.3,465.6,1485.1,464.1,1485.3,462.5z"/>
					</g>
				</g>
			</g>
		</g>
		<g id="XMLID_381_">
			<g id="XMLID_384_">
				<g id="XMLID_3163_">
					<path fill="#BDC2C9" d="M1570.1,475.7c2.5-2.5,4.3-6,4.6-10c0.7-8.5-5.2-15.8-13-16.4c-7.9-0.6-14.8,5.7-15.5,14.2
						c-0.3,3.9,0.8,7.6,2.9,10.5l-0.2,0l-5.4,14.1l-5.8,73.2l30,2.4l5.7-72L1570.1,475.7z"/>
				</g>
			</g>
			<g id="XMLID_382_" opacity="0.12">
				<g id="XMLID_383_">
					<g id="XMLID_3161_">
						<path fill="#020202" d="M1547.6,467.5c0.7-8.5,7.6-14.8,15.5-14.2c4.9,0.4,9,3.4,11.2,7.6c-1.4-6.3-6.3-11.1-12.6-11.6
							c-7.9-0.6-14.8,5.7-15.5,14.2c-0.3,3.1,0.5,6.1,1.8,8.6C1547.7,470.6,1547.5,469.1,1547.6,467.5z"/>
					</g>
				</g>
			</g>
		</g>
		<g id="XMLID_377_">
			<g id="XMLID_380_">
				<g id="XMLID_3157_">
					<path fill="#BDC2C9" d="M1632.5,480.7c2.5-2.5,4.3-6,4.6-10c0.7-8.5-5.2-15.8-13-16.4c-7.9-0.6-14.8,5.7-15.5,14.2
						c-0.3,3.9,0.8,7.6,2.9,10.5l-0.2,0l-5.4,14.1l-5.8,73.2l30,2.4l5.7-72L1632.5,480.7z"/>
				</g>
			</g>
			<g id="XMLID_378_" opacity="0.12">
				<g id="XMLID_379_">
					<g id="XMLID_3155_">
						<path fill="#020202" d="M1610,472.4c0.7-8.5,7.6-14.8,15.5-14.2c4.9,0.4,9,3.4,11.2,7.6c-1.4-6.3-6.3-11.1-12.6-11.6
							c-7.9-0.6-14.8,5.7-15.5,14.2c-0.3,3.1,0.5,6.1,1.8,8.6C1610,475.6,1609.8,474,1610,472.4z"/>
					</g>
				</g>
			</g>
		</g>
	</g>
	<g id="XMLID_167_">
		<g id="XMLID_375_">
			<g id="XMLID_3150_">
				
					<rect id="XMLID_2367_" x="1321.5" y="567" transform="matrix(0.9968 7.948988e-02 -7.948988e-02 0.9968 55.1591 -116.1927)" fill="#EDEDED" width="331" height="135.5"/>
			</g>
		</g>
		<g id="XMLID_374_">
			<g id="XMLID_3148_">
				<path fill="#BDC2C9" d="M1658.4,586.6L1324.8,560c-3.3-0.3-5.9-3.2-5.6-6.6l0-0.2c0.3-3.3,3.2-5.9,6.6-5.6l333.5,26.6
					c3.3,0.3,5.9,3.2,5.6,6.6l0,0.2C1664.6,584.4,1661.7,586.9,1658.4,586.6z"/>
			</g>
		</g>
		<g id="XMLID_370_">
			<g id="XMLID_373_">
				<g id="XMLID_3146_">
					<path fill="#BDC2C9" d="M1371.9,600.6c2.5-2.5,4.3-6,4.6-10c0.7-8.5-5.2-15.8-13-16.4c-7.9-0.6-14.8,5.7-15.5,14.2
						c-0.3,3.9,0.8,7.6,2.9,10.5l-0.2,0l-5.4,14.1l-5.8,73.2l30,2.4l5.7-72L1371.9,600.6z"/>
				</g>
			</g>
			<g id="XMLID_371_" opacity="0.12">
				<g id="XMLID_372_">
					<g id="XMLID_3144_">
						<path fill="#020202" d="M1349.4,592.4c0.7-8.5,7.6-14.8,15.5-14.2c4.9,0.4,9,3.4,11.2,7.6c-1.4-6.3-6.3-11.1-12.6-11.6
							c-7.9-0.6-14.8,5.7-15.5,14.2c-0.3,3.1,0.5,6.1,1.8,8.6C1349.4,595.5,1349.3,594,1349.4,592.4z"/>
					</g>
				</g>
			</g>
		</g>
		<g id="XMLID_180_">
			<g id="XMLID_369_">
				<g id="XMLID_3140_">
					<path fill="#BDC2C9" d="M1434.3,605.6c2.5-2.5,4.3-6,4.6-10c0.7-8.5-5.2-15.8-13-16.4c-7.9-0.6-14.8,5.7-15.5,14.2
						c-0.3,3.9,0.8,7.6,2.9,10.5l-0.2,0l-5.4,14.1l-5.8,73.2l30,2.4l5.7-72L1434.3,605.6z"/>
				</g>
			</g>
			<g id="XMLID_181_" opacity="0.12">
				<g id="XMLID_182_">
					<g id="XMLID_3138_">
						<path fill="#020202" d="M1411.8,597.4c0.7-8.5,7.6-14.8,15.5-14.2c4.9,0.4,9,3.4,11.2,7.6c-1.4-6.3-6.3-11.1-12.6-11.6
							c-7.9-0.6-14.8,5.7-15.5,14.2c-0.3,3.1,0.5,6.1,1.8,8.6C1411.8,600.5,1411.6,598.9,1411.8,597.4z"/>
					</g>
				</g>
			</g>
		</g>
		<g id="XMLID_176_">
			<g id="XMLID_179_">
				<g id="XMLID_3134_">
					<path fill="#BDC2C9" d="M1496.6,610.5c2.5-2.5,4.3-6,4.6-10c0.7-8.5-5.2-15.8-13-16.4c-7.9-0.6-14.8,5.7-15.5,14.2
						c-0.3,3.9,0.8,7.6,2.9,10.5l-0.2,0l-5.4,14.1l-5.8,73.2l30,2.4l5.7-72L1496.6,610.5z"/>
				</g>
			</g>
			<g id="XMLID_177_" opacity="0.12">
				<g id="XMLID_178_">
					<g id="XMLID_3132_">
						<path fill="#020202" d="M1474.1,602.3c0.7-8.5,7.6-14.8,15.5-14.2c4.9,0.4,9,3.4,11.2,7.6c-1.4-6.3-6.3-11.1-12.6-11.6
							c-7.9-0.6-14.8,5.7-15.5,14.2c-0.3,3.1,0.5,6.1,1.8,8.6C1474.2,605.5,1474,603.9,1474.1,602.3z"/>
					</g>
				</g>
			</g>
		</g>
		<g id="XMLID_172_">
			<g id="XMLID_175_">
				<g id="XMLID_3128_">
					<path fill="#BDC2C9" d="M1559,615.5c2.5-2.5,4.3-6,4.6-10c0.7-8.5-5.2-15.8-13-16.4c-7.9-0.6-14.8,5.7-15.5,14.2
						c-0.3,3.9,0.8,7.6,2.9,10.5l-0.2,0l-5.4,14.1l-5.8,73.2l30,2.4l5.7-72L1559,615.5z"/>
				</g>
			</g>
			<g id="XMLID_173_" opacity="0.12">
				<g id="XMLID_174_">
					<g id="XMLID_3126_">
						<path fill="#020202" d="M1536.5,607.3c0.7-8.5,7.6-14.8,15.5-14.2c4.9,0.4,9,3.4,11.2,7.6c-1.4-6.3-6.3-11.1-12.6-11.6
							c-7.9-0.6-14.8,5.7-15.5,14.2c-0.3,3.1,0.5,6.1,1.8,8.6C1536.5,610.4,1536.3,608.9,1536.5,607.3z"/>
					</g>
				</g>
			</g>
		</g>
		<g id="XMLID_168_">
			<g id="XMLID_171_">
				<g id="XMLID_3122_">
					<path fill="#BDC2C9" d="M1621.3,620.5c2.5-2.5,4.3-6,4.6-10c0.7-8.5-5.2-15.8-13-16.4c-7.9-0.6-14.8,5.7-15.5,14.2
						c-0.3,3.9,0.8,7.6,2.9,10.5l-0.2,0l-5.4,14.1l-5.8,73.2l30,2.4l5.7-72L1621.3,620.5z"/>
				</g>
			</g>
			<g id="XMLID_169_" opacity="0.12">
				<g id="XMLID_170_">
					<g id="XMLID_3120_">
						<path fill="#020202" d="M1598.8,612.3c0.7-8.5,7.6-14.8,15.5-14.2c4.9,0.4,9,3.4,11.2,7.6c-1.4-6.3-6.3-11.1-12.6-11.6
							c-7.9-0.6-14.8,5.7-15.5,14.2c-0.3,3.1,0.5,6.1,1.8,8.6C1598.9,615.4,1598.7,613.9,1598.8,612.3z"/>
					</g>
				</g>
			</g>
		</g>
	</g>
	<g id="XMLID_148_">
		<g id="XMLID_144_">
			<g id="XMLID_3115_">
				
					<rect id="XMLID_2366_" x="1310.2" y="708.2" transform="matrix(0.9968 7.948988e-02 -7.948988e-02 0.9968 66.3501 -114.8505)" fill="#EDEDED" width="331" height="135.5"/>
			</g>
		</g>
		<g id="XMLID_165_">
			<g id="XMLID_3113_">
				<path fill="#BDC2C9" d="M1647.1,727.9l-333.5-26.6c-3.3-0.3-5.9-3.2-5.6-6.6l0-0.2c0.3-3.3,3.2-5.9,6.6-5.6l333.5,26.6
					c3.3,0.3,5.9,3.2,5.6,6.6l0,0.2C1653.4,725.6,1650.4,728.1,1647.1,727.9z"/>
			</g>
		</g>
		<g id="XMLID_143_">
			<g id="XMLID_146_">
				<g id="XMLID_3111_">
					<path fill="#BDC2C9" d="M1360.7,741.8c2.5-2.5,4.3-6,4.6-10c0.7-8.5-5.2-15.8-13-16.4c-7.9-0.6-14.8,5.7-15.5,14.2
						c-0.3,3.9,0.8,7.6,2.9,10.5l-0.2,0l-5.4,14.1l-5.8,73.2l30,2.4l5.7-72L1360.7,741.8z"/>
				</g>
			</g>
			<g id="XMLID_145_" opacity="0.12">
				<g id="XMLID_147_">
					<g id="XMLID_3109_">
						<path fill="#020202" d="M1338.1,733.6c0.7-8.5,7.6-14.8,15.5-14.2c4.9,0.4,9,3.4,11.2,7.6c-1.4-6.3-6.3-11.1-12.6-11.6
							c-7.9-0.6-14.8,5.7-15.5,14.2c-0.3,3.1,0.5,6.1,1.8,8.6C1338.2,736.7,1338,735.2,1338.1,733.6z"/>
					</g>
				</g>
			</g>
		</g>
		<g id="XMLID_149_">
			<g id="XMLID_152_">
				<g id="XMLID_3105_">
					<path fill="#BDC2C9" d="M1423,746.8c2.5-2.5,4.3-6,4.6-10c0.7-8.5-5.2-15.8-13-16.4c-7.9-0.6-14.8,5.7-15.5,14.2
						c-0.3,3.9,0.8,7.6,2.9,10.5l-0.2,0l-5.4,14.1l-5.8,73.2l30,2.4l5.7-72L1423,746.8z"/>
				</g>
			</g>
			<g id="XMLID_150_" opacity="0.12">
				<g id="XMLID_151_">
					<g id="XMLID_3103_">
						<path fill="#020202" d="M1400.5,738.6c0.7-8.5,7.6-14.8,15.5-14.2c4.9,0.4,9,3.4,11.2,7.6c-1.4-6.3-6.3-11.1-12.6-11.6
							c-7.9-0.6-14.8,5.7-15.5,14.2c-0.3,3.1,0.5,6.1,1.8,8.6C1400.5,741.7,1400.4,740.2,1400.5,738.6z"/>
					</g>
				</g>
			</g>
		</g>
		<g id="XMLID_153_">
			<g id="XMLID_156_">
				<g id="XMLID_3099_">
					<path fill="#BDC2C9" d="M1485.4,751.8c2.5-2.5,4.3-6,4.6-10c0.7-8.5-5.2-15.8-13-16.4c-7.9-0.6-14.8,5.7-15.5,14.2
						c-0.3,3.9,0.8,7.6,2.9,10.5l-0.2,0l-5.4,14.1l-5.8,73.2l30,2.4l5.7-72L1485.4,751.8z"/>
				</g>
			</g>
			<g id="XMLID_154_" opacity="0.12">
				<g id="XMLID_155_">
					<g id="XMLID_3097_">
						<path fill="#020202" d="M1462.8,743.6c0.7-8.5,7.6-14.8,15.5-14.2c4.9,0.4,9,3.4,11.2,7.6c-1.4-6.3-6.3-11.1-12.6-11.6
							c-7.9-0.6-14.8,5.7-15.5,14.2c-0.3,3.1,0.5,6.1,1.8,8.6C1462.9,746.7,1462.7,745.2,1462.8,743.6z"/>
					</g>
				</g>
			</g>
		</g>
		<g id="XMLID_157_">
			<g id="XMLID_160_">
				<g id="XMLID_3093_">
					<path fill="#BDC2C9" d="M1547.7,756.7c2.5-2.5,4.3-6,4.6-10c0.7-8.5-5.2-15.8-13-16.4c-7.9-0.6-14.8,5.7-15.5,14.2
						c-0.3,3.9,0.8,7.6,2.9,10.5l-0.2,0l-5.4,14.1l-5.8,73.2l30,2.4l5.7-72L1547.7,756.7z"/>
				</g>
			</g>
			<g id="XMLID_158_" opacity="0.12">
				<g id="XMLID_159_">
					<g id="XMLID_3091_">
						<path fill="#020202" d="M1525.2,748.5c0.7-8.5,7.6-14.8,15.5-14.2c4.9,0.4,9,3.4,11.2,7.6c-1.4-6.3-6.3-11.1-12.6-11.6
							c-7.9-0.6-14.8,5.7-15.5,14.2c-0.3,3.1,0.5,6.1,1.8,8.6C1525.2,751.7,1525.1,750.1,1525.2,748.5z"/>
					</g>
				</g>
			</g>
		</g>
		<g id="XMLID_161_">
			<g id="XMLID_164_">
				<g id="XMLID_3087_">
					<path fill="#BDC2C9" d="M1610.1,761.7c2.5-2.5,4.3-6,4.6-10c0.7-8.5-5.2-15.8-13-16.4c-7.9-0.6-14.8,5.7-15.5,14.2
						c-0.3,3.9,0.8,7.6,2.9,10.5l-0.2,0l-5.4,14.1l-5.8,73.2l30,2.4l5.7-72L1610.1,761.7z"/>
				</g>
			</g>
			<g id="XMLID_162_" opacity="0.12">
				<g id="XMLID_163_">
					<g id="XMLID_3085_">
						<path fill="#020202" d="M1587.5,753.5c0.7-8.5,7.6-14.8,15.5-14.2c4.9,0.4,9,3.4,11.2,7.6c-1.4-6.3-6.3-11.1-12.6-11.6
							c-7.9-0.6-14.8,5.7-15.5,14.2c-0.3,3.1,0.5,6.1,1.8,8.6C1587.6,756.6,1587.4,755.1,1587.5,753.5z"/>
					</g>
				</g>
			</g>
		</g>
	</g>
	<g id="XMLID_445_">
		<g id="XMLID_116_">
			<g id="XMLID_3080_">
				
					<rect id="XMLID_2365_" x="1284.2" y="851.2" transform="matrix(0.9968 7.948991e-02 -7.948991e-02 0.9968 79.6059 -113.2533)" fill="#EDEDED" width="356.2" height="184.2"/>
			</g>
		</g>
		<g id="XMLID_121_">
			<g id="XMLID_117_">
				<g id="XMLID_3078_">
					<path fill="#BDC2C9" d="M1338,1025.7l-50-4l11.6-145.1c1.1-13.8,13.2-24.1,27-23l0,0c13.8,1.1,24.1,13.2,23,27L1338,1025.7z"/>
				</g>
			</g>
			<g id="XMLID_119_">
				<g id="XMLID_1405_">
					
						<rect id="XMLID_41_" x="1316.8" y="902.6" transform="matrix(7.952943e-02 -0.9968 0.9968 7.952943e-02 290.8594 2170.3545)" fill="#EDEDED" width="7.7" height="50.1"/>
				</g>
			</g>
			<g id="XMLID_120_">
				<g id="XMLID_1404_">
					
						<rect id="XMLID_42_" x="1312.2" y="960.1" transform="matrix(7.933435e-02 -0.9968 0.9968 7.933435e-02 229.5612 2218.9246)" fill="#EDEDED" width="7.7" height="50.1"/>
				</g>
			</g>
			<g id="XMLID_118_">
				<g id="XMLID_3072_">
					<polygon fill="#EDEDED" points="1322,910.2 1310,887.5 1325.5,867 1337.4,889.7 					"/>
				</g>
			</g>
		</g>
		<g id="XMLID_123_">
			<g id="XMLID_127_">
				<g id="XMLID_3069_">
					<path fill="#BDC2C9" d="M1408.3,1031.3l-50-4l11.6-145.1c1.1-13.8,13.2-24.1,27-23l0,0c13.8,1.1,24.1,13.2,23,27L1408.3,1031.3
						z"/>
				</g>
			</g>
			<g id="XMLID_126_">
				<g id="XMLID_1403_">
					
						<rect id="XMLID_43_" x="1387.1" y="908.2" transform="matrix(7.952024e-02 -0.9968 0.9968 7.952024e-02 350.0007 2245.6111)" fill="#EDEDED" width="7.7" height="50.1"/>
				</g>
			</g>
			<g id="XMLID_125_">
				<g id="XMLID_1402_">
					
						<rect id="XMLID_44_" x="1382.5" y="965.7" transform="matrix(7.932666e-02 -0.9968 0.9968 7.932666e-02 288.714 2294.1824)" fill="#EDEDED" width="7.7" height="50.1"/>
				</g>
			</g>
			<g id="XMLID_124_">
				<g id="XMLID_3063_">
					<polygon fill="#EDEDED" points="1392.3,915.8 1380.4,893.1 1395.8,872.6 1407.8,895.3 					"/>
				</g>
			</g>
		</g>
		<g id="XMLID_128_">
			<g id="XMLID_132_">
				<g id="XMLID_3060_">
					<path fill="#BDC2C9" d="M1478.6,1036.9l-50-4l11.6-145.1c1.1-13.8,13.2-24.1,27-23l0,0c13.8,1.1,24.1,13.2,23,27L1478.6,1036.9
						z"/>
				</g>
			</g>
			<g id="XMLID_131_">
				<g id="XMLID_1401_">
					
						<rect id="XMLID_45_" x="1457.4" y="913.8" transform="matrix(7.952936e-02 -0.9968 0.9968 7.952936e-02 409.1176 2320.8486)" fill="#EDEDED" width="7.7" height="50.1"/>
				</g>
			</g>
			<g id="XMLID_130_">
				<g id="XMLID_1400_">
					
						<rect id="XMLID_46_" x="1452.8" y="971.3" transform="matrix(7.933510e-02 -0.9968 0.9968 7.933510e-02 347.8455 2369.4221)" fill="#EDEDED" width="7.7" height="50.1"/>
				</g>
			</g>
			<g id="XMLID_129_">
				<g id="XMLID_3054_">
					<polygon fill="#EDEDED" points="1462.6,921.4 1450.7,898.7 1466.1,878.2 1478.1,900.9 					"/>
				</g>
			</g>
		</g>
		<g id="XMLID_133_">
			<g id="XMLID_137_">
				<g id="XMLID_3051_">
					<path fill="#BDC2C9" d="M1548.9,1042.5l-50-4l11.6-145.1c1.1-13.8,13.2-24.1,27-23l0,0c13.8,1.1,24.1,13.2,23,27L1548.9,1042.5
						z"/>
				</g>
			</g>
			<g id="XMLID_136_">
				<g id="XMLID_1399_">
					
						<rect id="XMLID_47_" x="1527.7" y="919.4" transform="matrix(7.952091e-02 -0.9968 0.9968 7.952091e-02 468.259 2396.1045)" fill="#EDEDED" width="7.7" height="50.1"/>
				</g>
			</g>
			<g id="XMLID_135_">
				<g id="XMLID_1398_">
					
						<rect id="XMLID_48_" x="1523.1" y="976.9" transform="matrix(7.932607e-02 -0.9968 0.9968 7.932607e-02 407.0014 2444.6814)" fill="#EDEDED" width="7.7" height="50.1"/>
				</g>
			</g>
			<g id="XMLID_134_">
				<g id="XMLID_3045_">
					<polygon fill="#EDEDED" points="1533,927 1521,904.3 1536.4,883.8 1548.4,906.5 					"/>
				</g>
			</g>
		</g>
		<g id="XMLID_138_">
			<g id="XMLID_142_">
				<g id="XMLID_3042_">
					<path fill="#BDC2C9" d="M1619.2,1048.1l-50-4l11.6-145.1c1.1-13.8,13.2-24.1,27-23l0,0c13.8,1.1,24.1,13.2,23,27L1619.2,1048.1
						z"/>
				</g>
			</g>
			<g id="XMLID_141_">
				<g id="XMLID_1397_">
					
						<rect id="XMLID_49_" x="1598" y="925" transform="matrix(7.952859e-02 -0.9968 0.9968 7.952859e-02 527.3769 2471.3435)" fill="#EDEDED" width="7.7" height="50.1"/>
				</g>
			</g>
			<g id="XMLID_140_">
				<g id="XMLID_1396_">
					
						<rect id="XMLID_50_" x="1593.4" y="982.6" transform="matrix(7.952936e-02 -0.9968 0.9968 7.952936e-02 465.8313 2519.7046)" fill="#EDEDED" width="7.7" height="50.1"/>
				</g>
			</g>
			<g id="XMLID_139_">
				<g id="XMLID_3036_">
					<polygon fill="#EDEDED" points="1603.3,932.7 1591.3,909.9 1606.7,889.4 1618.7,912.1 					"/>
				</g>
			</g>
		</g>
		<g id="XMLID_122_">
			<g id="XMLID_3033_">
				<path id="XMLID_2364_" fill="#BDC2C9" d="M1653.1,868.8l-367.8-29.3c-0.9-0.1-1.5-0.8-1.5-1.7l1-12.3c0.1-0.9,0.8-1.5,1.7-1.5
					l367.8,29.3c0.9,0.1,1.5,0.8,1.5,1.7l-1,12.3C1654.8,868.2,1654,868.9,1653.1,868.8z"/>
			</g>
		</g>
	</g>
</g>
<path fill="#E3F5FF" d="M1392.9,677.9c-0.3,95.3-20.2,189.5-72.8,267.9c-49.3,73.5-124.3,127.5-205.8,161.9
	c-81.5,34.5-169.8,50.5-257.9,59c-110.5,10.6-227.3,8.3-324.9-44.6c-112.7-61.1-166.7-144-211.7-264c-14.3-38-23.5-78.3-29.2-117.6
	c-4.4-30.6-6.8-60.6-7.8-88.5c-0.3-8.8-0.5-17.3-0.6-25.6c-0.4-54.2,8.6-138.6,28.9-190c23.2-58.9,65.5-116.6,113.7-164.8
	c25-25,51.7-47.4,78.1-66c49.3-34.8,104.4-61.5,162.3-78.4c115-33.5,239.3-29,353.9,6.7c34.6,10.7,68.3,24.4,100.6,40.6
	c75.3,37.9,144.7,91.1,190.2,162c25.7,39.9,43.1,84.3,55.4,130.2c7.1,26.2,12.4,52.9,16.7,79.6C1389,589.5,1393,633.8,1392.9,677.9z
	"/>
<path fill="#264AB5" d="M1392.9,677.9c-17.5-17.1-23.2-41.9-37.5-61.1c-21.2-28.3-58.6-56.2-90.4-71c-33.7-15.6-75.8-18.4-106.6,2.4
	c-23.2,15.7-36.6,42-49.1,67.1c-11.7,23.6-23.4,47.2-35.1,70.8c-5.3,10.7-13.4,23.1-25.3,22.2c-8.5-0.7-14.6-8-19.7-14.8
	c-20.3-26.8-44.2-52.2-55.6-83.9c-9.7-26.8-14.5-52.3-31.4-76.7c-7.3-10.6-16.3-20.5-20.9-32.3c-4.6-11.7-3.9-26.1,6.3-34.7
	c4.7-4,10.9-6.3,15.8-10c17.5-13.3,11.7-40.3-6.4-53.1c-18.1-12.8-43.3-14.5-66.5-13c-23.2,1.5-46.5,5.7-69.5,2.5
	c-23-3.2-46.3-16.2-50.8-36.1c-6.6-29.6,30.1-52.8,63.7-60.2c33.5-7.4,71.9-9.1,95.8-30.9c-16.2,10.1-41.4,3.3-51.2-11.8
	c-9.8-15.1-5.7-35.1,6.7-48.7c34.2-37.7,80.4-6.6,112.5-38c12.5-12.2,23.5-27.7,40.3-32.4c0.4-0.1,0.8-0.2,1.1-0.3
	c34.6,10.7,68.3,24.4,100.6,40.6c75.3,37.9,144.7,91.1,190.2,162c25.7,39.9,43.1,84.3,55.4,130.2c7.1,26.2,12.4,52.9,16.7,79.6
	C1389,589.5,1393,633.8,1392.9,677.9z"/>
<path fill="#264AB5" d="M714.2,937.1c-4.4,3-9.1,5.6-13.7,7.7c-16.1,7.2-33.3,12.2-49,20.3c-15.7,8.1-30.4,20.2-36.6,36.7
	c-6,16-3.3,33.7-4.2,50.8c-0.9,17.1-7.4,36.3-23.3,42.4c-19.4,7.4-39.5-8.6-52.3-24.9c-30.6-38.9-49-87.2-52-136.6
	c-1.3-21.5-0.6-45.4-14.8-61.6c-14.2-16.2-38.3-18.7-56.3-30.5c-23.3-15.2-34-45.5-30.6-73.1c0-0.3,0.1-0.6,0.1-0.9
	c3.7-27.3,19.3-51.9,38.9-71.2c15.2-15,40.7-40.6,64-38.5c23.8,2.2,52.4,26.2,73,37.6c11.5,6.4,23.1,12.9,32,22.5
	c21.1,22.9,21.9,57.4,34.1,86c11.2,26.5,33,48.4,59.5,59.7c20.5,8.8,47.7,15.8,51.3,37.8C736.7,915.9,726.8,928.4,714.2,937.1z"/>
<path opacity="0.5" fill="#BBD7F0" d="M1320.1,945.8c-49.3,73.5-124.3,127.5-205.8,161.9c-81.5,34.5-169.8,50.5-257.9,59
	c-110.5,10.6-227.3,8.3-324.9-44.6c-112.7-61.1-166.7-144-211.7-264c-14.3-38-23.5-78.3-29.2-117.6
	c35.9,81.8,95.4,153.3,170.3,202.7c128.4,84.6,295.4,103.4,442.9,59.8c147.5-43.6,274.5-146.6,357.2-276.2
	c50.6-79.3,85-168,104.4-260.1c7.1,26.2,12.4,52.9,16.7,79.6C1404,682.6,1397,831.2,1320.1,945.8z"/>
<path fill="#264AB5" d="M535.9,631.1c-33.9-25.5-86.5-21.2-115.9,9.3c-14.2,14.8-23.6,34.8-41.2,45.3c-32.1,19.1-72.8-3.5-96.1-33.8
	c-0.3-8.8-0.5-17.3-0.6-25.6c-0.4-54.2,8.6-138.6,28.9-190c23.2-58.9,65.5-116.6,113.7-164.8c2.2,17.1,1.2,35.3,1,49.3
	c-0.6,42.9,3.2,82.1,25.7,120c18.5,31.3,45.4,56.8,65.4,87.2C536.8,558.5,549.7,597.5,535.9,631.1z"/>
<g>
	<path fill="#ADD4D1" d="M1024,766.5c-9.9,0-19.7-1.8-28.9-5.7c-28.2-11.8-47.7-41.3-47.4-71.9c0-0.6,0.5-1.1,1.1-1.1c0,0,0,0,0,0
		c0.6,0,1.1,0.5,1,1.1c-0.3,29.7,18.7,58.5,46.1,69.9c27.4,11.4,61.2,4.6,82.1-16.5c14.6-14.7,22.3-34.7,29.7-54.1
		c6.9-17.8,14-36.3,26.5-50.9c21.7-25.5,59.1-36,90.9-25.6c0.6,0.2,0.9,0.8,0.7,1.3c-0.2,0.6-0.8,0.9-1.3,0.7
		c-31-10.1-67.5,0.2-88.6,25c-12.2,14.4-19.3,32.6-26.1,50.3c-7.5,19.5-15.3,39.8-30.2,54.8C1065.1,758.6,1044.5,766.5,1024,766.5z"
		/>
</g>
<g>
	<path fill="#ADD4D1" d="M1180.9,796.9c-0.2,0-0.4,0-0.5-0.1c-0.5-0.3-0.7-0.9-0.4-1.4c9.7-17,21.8-38.2,20.9-60.4
		c-0.5-12.4-6.8-25-16.3-32.9c-5-4.1-13.1-8.7-23.4-7.1c-17.8,2.7-27.6,21.2-31,29c-2.5,5.8-4.5,12-6.5,18
		c-2.7,8.2-5.4,16.8-9.6,24.5c-0.3,0.5-0.9,0.7-1.4,0.4c-0.5-0.3-0.7-0.9-0.4-1.4c4.1-7.6,6.8-16,9.5-24.2c2-6,4-12.2,6.5-18.2
		c3.5-8.1,13.8-27.3,32.6-30.2c8.7-1.3,17.4,1.3,25,7.6c10,8.2,16.5,21.4,17.1,34.4c0.9,22.8-11.3,44.3-21.2,61.5
		C1181.6,796.7,1181.2,796.9,1180.9,796.9z"/>
</g>
<g>
	<path fill="#ADD4D1" d="M935,922.9c-34,0-67.9-11-94.4-32.5c-16.7-13.6-30.5-30.9-43.9-47.6c-16.9-21.2-34.4-43.2-57.9-57.2
		c-15.1-9-32.8-14.9-49.9-20.5c-28.5-9.4-58-19.1-74.9-44c-13.7-20.3-17-48.8-9.8-84.8c1.7-8.5,3.8-17,5.9-25.3
		c4.8-19.4,9.8-39.5,9.7-59.7c-0.1-27.2-12.4-59.4-39.7-70.1c-0.5-0.2-0.8-0.8-0.6-1.4c0.2-0.5,0.8-0.8,1.4-0.6
		c28.2,11,40.9,44.1,41,72c0.1,20.5-4.9,40.7-9.8,60.2c-2,8.2-4.1,16.8-5.8,25.2c-7.1,35.4-3.9,63.3,9.5,83.2
		c16.4,24.3,44.3,33.5,73.8,43.2c17.2,5.7,35,11.6,50.3,20.7c23.8,14.2,41.4,36.3,58.4,57.7c13.3,16.6,27,33.8,43.5,47.3
		c47.6,38.6,119.6,42.8,171.3,9.9c0.5-0.3,1.2-0.2,1.5,0.3c0.3,0.5,0.2,1.1-0.3,1.5C990.7,915.5,962.9,922.9,935,922.9z"/>
</g>
<g>
	<path fill="#ADD4D1" d="M830.9,766.6c-0.1,0-0.2,0-0.2,0c-27-0.2-48.9-23.4-65.2-69.1c-4.6-13.1-9.2-26.4-13.7-39.4
		c-17-49.6-34.6-100.8-60.1-147.4c-25.8-47-71.4-108.7-142-135.5c-0.5-0.2-0.8-0.8-0.6-1.4c0.2-0.5,0.8-0.8,1.4-0.6
		c71.3,27,117.2,89.1,143.2,136.5c25.6,46.7,43.2,98.1,60.2,147.8c4.4,12.9,9,26.3,13.6,39.3c15.9,44.8,37.2,67.5,63.2,67.7
		c16.9,0.1,34.1-11,43.8-28.3c7.8-13.8,11.4-31.3,10.9-53.5c-0.7-35.6-10.5-70.7-28.3-101.5c-10.2-17.6-21.5-26.5-33.6-26.5
		c0,0,0,0,0,0c-9,0-15.2,5.1-18.8,9.5c-6.9,8.2-10.2,20.3-8.3,30.8c3.4,19.1,18,34.7,29.8,47.1c0.4,0.4,0.4,1.1,0,1.5
		c-0.4,0.4-1.1,0.4-1.5,0c-12-12.7-26.9-28.5-30.3-48.2c-2-11.1,1.5-23.9,8.8-32.6c5.5-6.6,12.8-10.2,20.4-10.2c0,0,0,0,0,0
		c12.9,0,24.9,9.3,35.5,27.5c18,31.1,27.9,66.6,28.6,102.5c0.4,22.6-3.3,40.4-11.2,54.6C866.4,755.1,848.5,766.6,830.9,766.6z"/>
</g>
<g>
	<path fill="#ADD4D1" d="M805.2,511.7c-1.2,0-2.5,0-3.7-0.1c-41.4-2.6-73-34.7-92.3-61.1c-8.7-12-16.7-24.8-24.3-37.2
		c-11.9-19.3-24.2-39.2-39.7-56.2c-23.1-25.4-61.3-48.9-99.4-38.7c-0.6,0.2-1.1-0.2-1.3-0.8c-0.2-0.6,0.2-1.1,0.8-1.3
		c39.1-10.4,78.1,13.5,101.6,39.3c15.5,17.1,27.9,37.1,39.9,56.5c7.7,12.4,15.6,25.2,24.3,37.1c19,26.1,50.1,57.7,90.7,60.2
		c23.9,1.5,50.7-12.4,52.2-35.4c0-0.6,0.6-1,1.1-1c0.6,0,1,0.5,1,1.1C854.4,497.3,829.2,511.7,805.2,511.7z"/>
</g>
<g>
	<path fill="#ADD4D1" d="M632,241.5C631.9,241.5,631.9,241.5,632,241.5c-0.6,0-1.1-0.5-1.1-1.1c1-15.6,12.5-29.6,35-42.8
		c51-29.8,111.7-45.2,170.7-43.5c0.6,0,1,0.5,1,1.1c0,0.6-0.5,1-1.1,1c-58.7-1.8-118.9,13.6-169.6,43.2
		c-21.9,12.8-33.1,26.3-34,41.1C633,241.1,632.5,241.5,632,241.5z"/>
</g>
<g>
	<path fill="#ADD4D1" d="M693.2,274.6c-0.4,0-0.7-0.2-0.9-0.5c-0.3-0.5-0.1-1.2,0.4-1.5c30.4-17.7,70.1-18.5,101.1-1.9
		c0.5,0.3,0.7,0.9,0.4,1.4c-0.3,0.5-0.9,0.7-1.4,0.4c-30.4-16.2-69.3-15.5-99.1,1.9C693.6,274.6,693.4,274.6,693.2,274.6z"/>
</g>
<g>
	<path fill="#ADD4D1" d="M536.3,543.8c-0.4,0-0.7-0.2-0.9-0.6c-56-106.4-40.6-244.5,37.3-336c0.4-0.4,1-0.5,1.5-0.1
		c0.4,0.4,0.5,1,0.1,1.5c-77.4,90.8-92.7,228-37.1,333.6c0.3,0.5,0.1,1.2-0.4,1.4C536.6,543.7,536.5,543.8,536.3,543.8z"/>
</g>
<path opacity="0.5" fill="#BBD7F0" d="M659,171.3c-44.3,16-87.4,37.6-121.4,70.2c-34,32.6-58.1,77.4-58.6,124.5
	c-0.4,47.1,26,95.3,69.3,113.8c23.2,9.9,54.3,9,69.2-11.4c13.2-18,8.5-43.7-1.4-63.7c-9.9-20-24.5-37.9-30.8-59.4
	c-6.3-21.4-0.9-49.1,19.5-58.1c25.6-11.3,56.3,12.7,82.3,2.4c16.9-6.6,25.2-25,34.2-40.8c37.9-66.5,104.2-92.5,176-102.2
	C888.5,103.4,690.7,159.8,659,171.3z"/>
<path opacity="0.5" fill="#BBD7F0" d="M788.8,455.6c20.2,0.6,39.4-8.4,59.4-10.9c20-2.5,44.6,5.3,49.2,24.9
	c2.9,12.5-3.4,25-7.3,37.2C872.8,560.4,900.3,617,927,666.5c19.3,35.9,40.4,73.6,75.8,93.7c53.3,30.3,119.9,11.4,178.1-8.1
	c-13.2,64.3-63.6,119.5-126.4,138.6c-62.8,19.1-135.4,1.1-182.1-45c-26.9-26.5-46.7-62.2-81.2-77.7c-42.7-19.1-97.2-1.9-136-28.1
	c-33.6-22.6-41.4-68.5-41.1-109c0.3-46.6,7.2-93.1,20.3-137.7c7.6-25.8,18.2-52.2,39.1-69.1C732.8,376.3,741.9,454.1,788.8,455.6z"
	/>
<path fill="#203D84" d="M1015.4,484.1c2.4-49-36.5-96.5-85-103.7c-12.5-1.9-25.5-1.4-37.4-5.7c-11.9-4.3-22.8-15.4-21.2-28
	c2.8-21.7,33.8-23.2,51.2-36.4c18.7-14.2,19.9-41.3,29.7-62.6c23.4-51.3,96.4-62,146.8-36.7c50.4,25.3,83.1,74.9,113.5,122.4
	c8.3,13,16.8,26.5,19.4,41.7c2.6,15.2-2.4,32.8-15.7,40.6c-11.9,7-27,4.5-40.4,7.7c-62.1,14.7-63,123.7-104.5,165.6
	c-16.4,16.6-36.1,32-56.8,14.3C983.4,576.5,1013.8,516.1,1015.4,484.1z"/>
<path fill="#203D84" d="M548.7,807.6c6.5,16.4,20.1,28.8,33.4,40.5c13.3,11.6,27.1,23.6,34.5,39.7c7.4,16.1,6.3,37.5-7.4,48.7
	c-14.9,12.1-38.2,7.1-52.7-5.5c-35.9-31-39-69.2-83.9-91.7c-25.7-12.9-39.3-17.7-34.8-52.3c3-23.2,18.9-52.7,43.3-58.9
	C534,714.6,535.9,775.7,548.7,807.6z"/>
<path fill="#203D84" d="M384.2,374.3c8-3.2,16.6,4.5,19,12.8c2.4,8.3,1.1,17.2,2.7,25.6c3.8,20,22.4,33,38.2,45.8
	c15.7,12.9,31.1,32.2,25,51.6c-38,12.7-80.7-13.2-102.8-43.9C351.2,445.3,357,385.2,384.2,374.3z"/>
<path fill="#203D84" d="M350.6,586c24.7,6.9,50.6-16.2,75.1-8.6c1.7,0.5,3.4,1.2,4.6,2.5c3.5,3.6,1.8,9.6-0.6,14
	c-6.8,11.9-18.1,21.3-31.1,25.7c-6.6,2.3-14,3.4-19.2,8.1c-5,4.5-7.2,11.3-11.5,16.5c-10.1,12.1-30.4,11.4-42.8,1.7
	c-12.4-9.8-18.2-25.9-20.1-41.6c-1.4-11.6-5.2-43.5,13.5-43.6C328.1,560.5,338.7,582.7,350.6,586z"/>
<path fill="#203D84" d="M1322.8,408.6c14.4,21.3,24.5,46.3,24.1,71.9c-0.2,15.4-5.4,32.4-19,39.6c-7.8,4.1-17,4.3-25.9,4.4
	c-20,0.2-41.7,0-57.8-11.9c-7-5.1-12.7-12.6-13.6-21.2c-0.9-8.6,4-18,12.3-20.5c5.6-1.7,11.7-0.1,17.3-1.6
	c12.6-3.3,16.6-19.2,16.7-32.2c0.3-22.8-4.3-45.7-13.3-66.6c-10.6-24.6,2.8-19.7,15.5-12C1295.6,368.7,1312.1,392.7,1322.8,408.6z"
	/>
<g>
	<path fill="#FC614A" d="M652.8,687.6c0,28-44.7,125.2-55.3,147.8c-0.9,1.9-3.6,1.9-4.4,0c-10.6-22.6-55.3-119.8-55.3-147.8
		c0-31.8,25.7-57.5,57.5-57.5C627,630.1,652.8,655.8,652.8,687.6z"/>
	<path fill="#FFFFFF" d="M625.3,685.1c0,16.6-13.4,30-30,30c-16.6,0-30-13.4-30-30c0-16.6,13.4-30,30-30
		C611.9,655.1,625.3,668.5,625.3,685.1z"/>
</g>
<g>
	<path fill="#FC614A" d="M1131.6,307.3c0,28-44.7,125.2-55.3,147.8c-0.9,1.9-3.6,1.9-4.4,0c-10.6-22.6-55.3-119.8-55.3-147.8
		c0-31.8,25.7-57.5,57.5-57.5C1105.8,249.8,1131.6,275.6,1131.6,307.3z"/>
	<path fill="#FFFFFF" d="M1104.1,304.8c0,16.6-13.4,30-30,30c-16.6,0-30-13.4-30-30c0-16.6,13.4-30,30-30
		C1090.6,274.8,1104.1,288.3,1104.1,304.8z"/>
</g>
<g id="XMLID_20_">
	<g id="XMLID_1027_">
		<g id="XMLID_1037_">
			<path id="XMLID_1074_" fill="#E0DDDC" d="M372.8,1007.8l-17.4-14.2c0.6-0.7,58.3-72.7,46.7-139.5c-2.3-13.3-8.7-17.7-13.3-19.9
				c-27.5-12.9-87.8,15.6-108.7,27.7l-11.2-19.4c8.7-5,86.6-48.7,129.4-28.6c9.7,4.6,22.1,14.6,25.9,36.4
				C437.5,927.3,375.4,1004.5,372.8,1007.8z"/>
		</g>
		<g id="XMLID_1036_">
			<path id="XMLID_1972_" fill="#EFECEA" d="M368.3,959c-71.3-30.5-79.5-125.8-73.8-173.7H170.7c18.5,51,2.1,133.7-77.1,173.7
				c-54.4,27.5-111.6,134.8,42.1,294.7c8.6,8.9,20.3,14.1,32.7,14.1H231h62.6c12.4,0,24.1-5.2,32.7-14.1
				C480,1093.6,424.4,983,368.3,959z"/>
		</g>
		<g id="XMLID_1034_">
			<g id="XMLID_1035_">
				<path id="XMLID_1970_" fill="#D8B903" d="M389.4,988.4c-98.7,50.7-216.5,50.9-315.4,0.4c-11.1,12.6-20.7,29.9-24.5,52.1
					c-7.1,41.5,3.6,110.7,94.3,205c6.5,6.8,15.5,10.7,24.6,10.7h125.1c9.1,0,18.1-3.9,24.6-10.7c98.4-102.5,101.3-176,94.2-210.7
					C408.3,1015,399.5,999.6,389.4,988.4z"/>
			</g>
		</g>
		<g id="XMLID_1033_" opacity="0.12">
			<path id="XMLID_1967_" d="M162.3,808"/>
		</g>
		<g id="XMLID_1031_" opacity="6.000000e-02">
			<g id="XMLID_1032_">
				<path id="XMLID_1965_" d="M368.3,959c-71.3-30.5-79.5-125.8-73.8-173.7H170.7c3.2,8.9,5.3,18.8,6.3,29.2
					c30.9-2.8,72.7-14.7,89,17.1c13.3,25.9,5,70.8,15.8,98.1c11.7,29.7,27.6,57.8,48,82.4c39.1,47.2-3.9,201.3-90.2,255.6h53.9
					c12.4,0,24.1-5.2,32.7-14.1C480,1093.6,424.4,983,368.3,959z"/>
			</g>
		</g>
		<g id="XMLID_1030_">
			<path id="XMLID_1962_" fill="#E0DDDC" d="M307.8,795.2H164c-0.9,0-1.7-0.7-1.7-1.7v-16.4c0-0.9,0.7-1.7,1.7-1.7h143.8
				c0.9,0,1.7,0.7,1.7,1.7v16.4C309.5,794.4,308.7,795.2,307.8,795.2z"/>
		</g>
		<g id="XMLID_1029_" opacity="0.4">
			<path id="XMLID_1072_" fill="#FFFFFF" d="M155.3,949.1c0,0-4.2,3.7-11.5,10.1c-3.6,3.1-7.8,7.2-12.7,11.7
				c-4.8,4.5-9.9,9.9-15.4,15.6c-5.5,5.7-10.7,12.4-15.9,19.4c-5,7.1-9.8,14.7-13,22.8c-3.4,8-5.2,16.3-5.1,24.3l0.2,3
				c0,0.3,0.1,1.5,0,1l0.3,2l0.5,4l0.7,3c0.9,4.1,2.2,9.1,3.6,13.8c6,19,14.8,38.4,23.1,56.5c8.6,18.3,16.7,35.4,23.6,50.1
				c7.1,14.7,12.8,27.4,16.7,36.3c3.9,8.9,6,14.2,6,14.2s-4.5-3.4-11.7-10.2c-7.2-6.7-17.1-16.6-27.8-29.5
				c-10.9-12.7-22.6-28.4-33.7-46.4c-5.5-9-10.8-18.6-15.7-28.8c-4.8-10.2-9.3-20.9-12.6-32.4c-1.6-5.9-3.2-11.5-4.1-18.1l-0.7-5
				l-0.3-4.1l-0.1-2c-0.1-1.9,0-2-0.1-3.1l0.1-5.1c1-13.6,5.3-26.1,11.4-36.3C73.3,995,89.7,982,104,972.4
				c7.1-4.9,14.1-8.4,20.3-11.6c6.1-3.2,11.8-5.3,16.3-7.1C149.8,950.3,155.3,949.1,155.3,949.1z"/>
		</g>
		<g id="XMLID_1028_" opacity="0.4">
			<path id="XMLID_1071_" fill="#FFFFFF" d="M336.1,961.9c0,0,8.7,3.4,18.9,12.2c5.1,4.3,10.7,9.8,15.7,16.5
				c5.2,6.6,9.8,14.4,13.6,22.7c1.8,4.2,3.3,8.6,4.7,12.8c1.1,4.5,2.1,8.8,2.6,13.1c0.3,4.4,0.8,8.6,0.5,12.6
				c-0.4,4.1-0.7,7.8-1.5,11.2c-0.9,3.4-1.9,6.5-2.8,9.1c-0.9,2.6-2.4,4.7-3.4,6.5c-2.1,3.4-3.5,5.2-3.5,5.2s-0.4-2.4-0.9-6.2
				c-0.3-1.9-0.3-4.1-0.8-6.6c-0.6-2.5-1.2-5.3-1.6-8.2c-0.6-2.9-1.8-6.1-2.4-9.3c-0.7-3.2-2.2-6.6-3.1-10
				c-1.1-3.4-2.7-6.9-3.8-10.5c-1.5-3.5-3-7.1-4.6-10.7c-6.3-14.4-13.7-28.8-18.9-40.4C339.3,970.5,336.1,961.9,336.1,961.9z"/>
		</g>
	</g>
	<g id="XMLID_590_">
		<g id="XMLID_1026_">
			
				<ellipse id="XMLID_1955_" transform="matrix(0.3261 -0.9453 0.9453 0.3261 -1112.0559 879.3805)" fill="#93AC1B" cx="60.8" cy="1219.7" rx="44.9" ry="62.3"/>
		</g>
		<g id="XMLID_1024_" opacity="0.15">
			<g id="XMLID_840_">
				<path id="XMLID_1953_" fill="#040305" d="M115,1207.8c-23.7,24.8-64.8,35.2-107.3,25.7c7.9,12.1,21.3,22.8,38.5,28.7
					c32.6,11.2,65.5,1.3,73.6-22.2C123.3,1229.5,121.1,1218.2,115,1207.8z"/>
			</g>
		</g>
		<g id="XMLID_593_" opacity="0.4">
			<path id="XMLID_1070_" fill="#040305" d="M16.7,1207.3c-1.3,3.7-4.3,6-6.8,5.2c-2.5-0.8-3.4-4.5-2.1-8.3c1.3-3.7,4.3-6,6.8-5.2
				C17,1199.9,17.9,1203.6,16.7,1207.3z"/>
		</g>
		<g id="XMLID_591_" opacity="0.41">
			<g id="XMLID_592_">
				<path id="XMLID_1948_" fill="#FEFDFF" d="M24.1,1185.8c0,0,4.7-2.7,12.5-4.5c7.8-1.9,18.8-2.7,29.5-0.3c2.7,0.5,5.3,1.3,7.8,2.2
					c2.6,0.7,4.9,2,7.2,3c2.4,0.9,4.3,2.5,6.3,3.7c2,1.2,3.7,2.6,5.2,3.9c3.2,2.4,5.3,5.1,6.9,6.8c1.5,1.7,2.3,2.8,2.3,2.8
					s-1.1-0.7-3.1-1.9c-1.9-1.3-4.6-3-8-4.9c-1.7-1-3.4-2-5.5-2.8c-2-0.8-4-1.9-6.3-2.7c-4.4-1.7-9.2-3.3-14.1-4.2
					c-4.9-1.2-9.9-1.6-14.7-2.1c-4.7-0.2-9.2-0.5-13.1-0.1C29.3,1184.9,24.1,1185.8,24.1,1185.8z"/>
			</g>
		</g>
	</g>
	<g id="XMLID_192_">
		<g id="XMLID_505_">
			<path id="XMLID_1944_" fill="#8DA91B" d="M114.2,1259.2c0,0,165.8-44.5,164.2-166.4c0.4,33-78.1,62.3-100.4,78.7
				C154.6,1188.7,107.4,1222.4,114.2,1259.2z"/>
		</g>
		<g id="XMLID_193_" opacity="0.11">
			<g id="XMLID_504_">
				<path id="XMLID_1942_" fill="#040305" d="M113.8,1249.4c-0.2,3.3-0.2,6.6,0.4,9.9c0,0,125.9-33.8,157.2-123.1
					C227.3,1189.9,152.4,1231.3,113.8,1249.4z"/>
			</g>
		</g>
	</g>
	<g id="XMLID_184_">
		<g id="XMLID_190_">
			<ellipse id="XMLID_1938_" fill="#25202D" cx="115.9" cy="1264.6" rx="62.3" ry="44.9"/>
		</g>
		<g id="XMLID_188_" opacity="0.18">
			<g id="XMLID_189_">
				<path id="XMLID_1936_" fill="#040305" d="M163.3,1235.7c-14.3,31.2-49.8,54.4-93.1,59.3c11.4,8.9,27.6,14.6,45.7,14.6
					c34.4,0,62.3-20.1,62.3-44.9C178.2,1253.5,172.5,1243.6,163.3,1235.7z"/>
			</g>
		</g>
		<g id="XMLID_187_" opacity="0.4">
			<path id="XMLID_1053_" fill="#040305" d="M70.2,1267.3c0,3.9-2.1,7.1-4.7,7.1c-2.6,0-4.7-3.2-4.7-7.1s2.1-7.1,4.7-7.1
				C68.1,1260.2,70.2,1263.4,70.2,1267.3z"/>
		</g>
		<g id="XMLID_185_" opacity="0.41">
			<g id="XMLID_186_">
				<path id="XMLID_1931_" fill="#FEFDFF" d="M70.2,1244.5c0,0,3.5-4.1,10.4-8.3c6.7-4.3,16.9-8.7,27.7-9.9c2.7-0.4,5.4-0.4,8.1-0.5
					c2.7-0.2,5.3,0.3,7.8,0.5c2.5,0.1,4.9,0.9,7.2,1.4c2.3,0.5,4.3,1.3,6.2,2c3.8,1.2,6.7,3.1,8.7,4.2c2,1.2,3.1,1.9,3.1,1.9
					s-1.3-0.3-3.6-0.8c-2.2-0.6-5.4-1.3-9.2-2c-1.9-0.4-3.9-0.8-6.1-0.9c-2.2-0.1-4.4-0.5-6.8-0.5c-4.7-0.1-9.8-0.1-14.7,0.7
					c-5,0.4-9.9,1.7-14.5,2.8c-4.5,1.4-8.9,2.6-12.4,4.1C74.8,1242,70.2,1244.5,70.2,1244.5z"/>
			</g>
		</g>
	</g>
</g>
<g id="XMLID_2871_">
	<g id="XMLID_3001_">
		<path id="XMLID_3002_" fill="#6C7A17" d="M1159.4,1258c-8.9-6.2-15.5-16.7-19.8-31.4c-7.3-25.6-4.8-51.1,6.8-70.1
			c3.6-5.9,9.8-11.2,16.5-8.6c1.6,0.6,2.3,2.4,1.7,3.9c-0.6,1.6-2.4,2.3-3.9,1.7c-3.4-1.3-7.4,3.2-9.1,6.1
			c-10.7,17.5-13,41.3-6.1,65.2c4.1,14.4,10.7,24.3,19.3,29.3c9.5,5.6,21.4,5.1,32,3.4c-2.1-12.9,2-26.3,10.7-34.7
			c5.2-5,11.4-7.4,17-6.5c5,0.8,9.2,4.2,11.5,9.4c2.9,6.7,2.2,15-1.7,20.7c-6.6,9.6-18.4,13.3-29.2,15.7c-0.3,0.1-0.6,0.1-0.9,0.2
			c3.6,10.9,12.2,20.5,23.8,26.5c19.7,10.2,45.1,8,63.2-5.4c17.9-13.2,27.8-36.3,25.4-58.8c-0.2-1.7,1-3.2,2.7-3.3
			c1.7-0.2,3.1,1,3.3,2.7c2.7,24.7-8.2,49.9-27.8,64.4c-20,14.7-48,17.1-69.6,5.9c-13.2-6.8-23-18-27-30.7c-11.7,2-25.2,2.5-36.4-4
			C1160.9,1259,1160.2,1258.5,1159.4,1258z M1226.8,1223.6c-0.9-0.6-2-1.1-3.3-1.3c-5.2-0.8-10,3.2-11.8,4.9
			c-7.3,7.1-10.7,18.4-9,29.2c0.3-0.1,0.7-0.1,1-0.2c9.6-2.1,20-5.3,25.5-13.2c2.7-4,3.2-10.1,1.2-14.9
			C1229.8,1226.9,1228.7,1224.9,1226.8,1223.6z"/>
	</g>
	<g id="XMLID_2981_">
		<g id="XMLID_2999_">
			<path id="XMLID_3000_" fill="#8DA91B" d="M1226.1,1080.4l-8.8-6.3c0,0,21-28.5,15.5-58.1l-13.4,6.7c0,0,16.7-34.4,8.8-48
				c-7.9-13.6-86.1-101-78.7-122.1l0.7-2.1c-7.4,21.1-122.9,41-137.5,46.8c-14.6,5.8-22.9,43.1-22.9,43.1l-6.3-13.6
				c-22.6,19.8-23.9,55.2-23.9,55.2l-10.8-0.5c-23.9,55.2,9.8,84.9,9.8,84.9c54.9,55,107.3,26.5,107.3,26.5l-0.7,2.1
				c0,0,23.4,54.9,100.5,45.9C1165.7,1140.8,1210.6,1138.5,1226.1,1080.4z"/>
		</g>
		<g id="XMLID_2996_" opacity="0.42">
			<g id="XMLID_2997_">
				<path id="XMLID_2998_" fill="#6C7A17" d="M1065.9,1092.9c0,0,0.8-2.8,2.1-7.8c1.4-4.9,3.3-12,5.9-20.3
					c2.6-8.3,5.5-18.1,8.9-28.5c3.4-10.4,7.1-21.4,10.9-32.5c3.9-11,7.8-22,11.6-32.2c3.8-10.3,7.6-19.7,10.7-27.9
					c3.1-8.2,6.1-14.9,8-19.6c2-4.7,3.2-7.4,3.2-7.4s-0.8,2.8-2.1,7.8c-1.4,4.9-3.3,12-5.9,20.3c-2.6,8.3-5.5,18.2-8.9,28.5
					c-3.4,10.4-7.1,21.4-10.9,32.5c-3.9,11-7.8,22-11.6,32.2c-3.8,10.3-7.6,19.7-10.7,27.9c-3.1,8.2-6.1,14.9-8,19.6
					C1067,1090.2,1065.9,1092.9,1065.9,1092.9z"/>
			</g>
		</g>
		<g id="XMLID_2992_" opacity="0.42">
			<g id="XMLID_2993_">
				<path id="XMLID_2995_" fill="#6C7A17" d="M1077.5,1059.6c0,0,4.4-1.7,11.1-3.3c6.7-1.7,15.8-3.5,24.9-4.9
					c9.1-1.3,18.3-2.1,25.2-2.3c6.9-0.3,11.6,0.1,11.6,0.1s-4.4,1.7-11.1,3.4c-6.7,1.7-15.8,3.5-24.9,4.9
					c-9.1,1.3-18.3,2.1-25.2,2.3C1082.2,1059.9,1077.5,1059.6,1077.5,1059.6z"/>
			</g>
		</g>
		<g id="XMLID_2988_" opacity="0.42">
			<g id="XMLID_2989_">
				<path id="XMLID_2991_" fill="#6C7A17" d="M1088.6,1027.6c0,0-4.6-3.8-10.7-10c-6.1-6.2-13.7-15-20.8-24.1
					c-7.1-9.2-13.6-18.7-18.1-26.2c-4.6-7.4-7-12.8-7-12.8s4.6,3.8,10.7,10c6.1,6.2,13.7,15,20.8,24.1c7.1,9.2,13.6,18.7,18.1,26.2
					C1086.1,1022.2,1088.6,1027.6,1088.6,1027.6z"/>
			</g>
		</g>
		<g id="XMLID_2985_" opacity="0.42">
			<g id="XMLID_2986_">
				<path id="XMLID_2987_" fill="#6C7A17" d="M1106.8,975.3c0,0,3.3-2,8.6-4.3c5.2-2.3,12.3-5,19.6-7.2c7.2-2.1,14.6-3.8,20.3-4.7
					c5.6-0.9,9.5-1,9.5-1s-3.3,2.1-8.6,4.4c-5.2,2.4-12.3,5-19.6,7.1c-7.2,2.1-14.6,3.8-20.3,4.7
					C1110.7,975.2,1106.8,975.3,1106.8,975.3z"/>
			</g>
		</g>
		<g id="XMLID_2982_" opacity="0.11">
			<g id="XMLID_2983_">
				<path id="XMLID_2984_" d="M1226.1,1080.4l-8.8-6.3c0,0,21-28.5,15.5-58.1l-13.4,6.7c0,0,14.7-30.2,10-45.2
					c-55.6,80.7-150.2,124.3-243.8,109.9c43.9,25.2,80.2,5.5,80.2,5.5l-0.7,2.1c0,0,23.4,54.9,100.5,45.9
					C1165.7,1140.8,1210.6,1138.5,1226.1,1080.4z"/>
			</g>
		</g>
	</g>
	<g id="XMLID_2967_">
		<g id="XMLID_2979_">
			<path id="XMLID_2980_" fill="#8B9E1B" d="M1240,1217.2l-1.8-7c0,0,22.8-5.7,32.6-23.1l-9.7-2.2c0,0,23.1-10.5,24.8-20.8
				c1.7-10.3-1.2-88,11.5-95.7l1.2-0.8c-12.7,7.7-80.2-31.1-90.1-34.4c-9.9-3.2-29.9,12.3-29.9,12.3l2.5-9.6
				c-20,0.5-35.6,18.1-35.6,18.1l-5.3-4.9c-35.6,18.1-31,47.5-31,47.5c4.7,51.3,43.6,59,43.6,59l-1.2,0.8c0,0-11.3,37.9,31.9,66
				C1183.5,1222.5,1207.4,1240.3,1240,1217.2z"/>
		</g>
		<g id="XMLID_2977_">
			<path id="XMLID_2978_" fill="#6C7A17" d="M1152.9,1155.7c0,0,6.3-4.5,16-11c4.9-3.1,10.5-7,16.7-10.8c6.2-3.8,12.7-7.9,19.3-12
				c6.7-3.9,13.3-7.8,19.6-11.5c6.2-3.7,12.2-6.9,17.3-9.7c10.2-5.6,17.1-9,17.1-9s-6.3,4.6-16,11c-4.9,3.1-10.5,7-16.7,10.8
				c-6.2,3.8-12.7,7.9-19.3,12c-6.7,3.9-13.3,7.8-19.6,11.5c-6.2,3.7-12.2,6.9-17.3,9.7C1159.8,1152.2,1152.9,1155.7,1152.9,1155.7z
				"/>
		</g>
		<g id="XMLID_2975_">
			<path id="XMLID_2976_" fill="#6C7A17" d="M1172.9,1143.6c0,0,2.9,1.1,7.1,3c4.2,2,9.6,4.9,14.8,8.1c5.2,3.2,10.2,6.7,13.9,9.5
				c3.6,2.8,5.9,5,5.9,5s-2.9-1.1-7.1-3c-4.2-2-9.6-4.9-14.8-8.1c-5.2-3.2-10.2-6.7-13.9-9.5
				C1175.2,1145.7,1172.9,1143.6,1172.9,1143.6z"/>
		</g>
		<g id="XMLID_2973_">
			<path id="XMLID_2974_" fill="#6C7A17" d="M1192.1,1132c0,0-0.7-3.9-1.2-9.6c-0.5-5.8-0.7-13.5-0.4-21.1c0.3-7.7,1-15.3,1.8-21.1
				c0.9-5.7,1.8-9.5,1.8-9.5s0.7,3.9,1.2,9.6c0.5,5.8,0.7,13.5,0.4,21.1c-0.3,7.7-1,15.3-1.8,21.1
				C1193.1,1128.2,1192.1,1132,1192.1,1132z"/>
		</g>
		<g id="XMLID_2971_">
			<path id="XMLID_2972_" fill="#6C7A17" d="M1223.6,1113c0,0,2.5,0.4,6.2,1.4c3.7,1,8.4,2.7,13,4.6c4.6,2,9.1,4.3,12.3,6.2
				c3.3,2,5.3,3.5,5.3,3.5s-2.6-0.4-6.2-1.4c-3.7-1-8.4-2.7-13-4.6c-4.6-2-9.1-4.3-12.3-6.2C1225.7,1114.5,1223.6,1113,1223.6,1113z
				"/>
		</g>
		<g id="XMLID_2968_" opacity="0.11">
			<g id="XMLID_2969_">
				<path id="XMLID_2970_" d="M1240,1217.2l-1.8-7c0,0,22.8-5.7,32.6-23.1l-9.7-2.2c0,0,20.3-9.2,24.3-18.8
					c-62.6,17.7-129.4-0.2-171.1-47.2c11.7,31.4,38.7,36.8,38.7,36.8l-1.2,0.8c0,0-11.3,37.9,31.9,66
					C1183.5,1222.5,1207.4,1240.3,1240,1217.2z"/>
			</g>
		</g>
	</g>
	<g id="XMLID_2959_">
		<g id="XMLID_2965_">
			<path id="XMLID_2966_" fill="#6B152E" d="M1045.2,1097.9c-13.7,19.8-38.7,26.1-55.9,14.2c-17.2-11.9-20.1-37.5-6.4-57.3
				c13.7-19.8,38.7-26.1,55.9-14.2C1056,1052.5,1058.9,1078.1,1045.2,1097.9z"/>
		</g>
		<g id="XMLID_2962_" opacity="0.17">
			<g id="XMLID_2963_">
				<path id="XMLID_2964_" fill="#050505" d="M1053.6,1075.1c-24.3,19.1-54,25.5-78.3,15.7c1.9,8.6,6.6,16.2,14,21.3
					c17.2,11.9,42.2,5.5,55.9-14.2C1050.1,1090.7,1052.9,1082.9,1053.6,1075.1z"/>
			</g>
		</g>
		<g id="XMLID_2960_" opacity="0.33">
			<path id="XMLID_2961_" fill="#FFFAFC" d="M1007.4,1065.1c-6.1,5.5-13.8,6.4-17.3,1.9c-3.5-4.4-1.4-12.5,4.6-18
				c6.1-5.5,13.8-6.4,17.3-1.9C1015.6,1051.5,1013.5,1059.5,1007.4,1065.1z"/>
		</g>
	</g>
	<g id="XMLID_2951_">
		<g id="XMLID_2957_">
			<path id="XMLID_2958_" fill="#6B152E" d="M1159.6,1176.9c-13.7,19.8-38.7,26.1-55.9,14.2c-17.2-11.9-20.1-37.5-6.4-57.3
				c13.7-19.8,38.7-26.1,55.9-14.2C1170.4,1131.5,1173.2,1157.2,1159.6,1176.9z"/>
		</g>
		<g id="XMLID_2954_" opacity="0.17">
			<g id="XMLID_2955_">
				<path id="XMLID_2956_" fill="#050505" d="M1168,1154.2c-24.3,19.1-54,25.5-78.3,15.7c1.9,8.6,6.6,16.2,14,21.3
					c17.2,11.9,42.2,5.5,55.9-14.2C1164.5,1169.8,1167.2,1161.9,1168,1154.2z"/>
			</g>
		</g>
		<g id="XMLID_2952_" opacity="0.33">
			<path id="XMLID_2953_" fill="#FFFAFC" d="M1121.8,1144.1c-6.1,5.5-13.8,6.4-17.3,1.9c-3.5-4.4-1.4-12.5,4.6-18s13.8-6.4,17.3-1.9
				C1129.9,1130.5,1127.9,1138.6,1121.8,1144.1z"/>
		</g>
	</g>
	<g id="XMLID_2943_">
		<g id="XMLID_2949_">
			<path id="XMLID_2950_" fill="#6B152E" d="M1217,1216.6c-13.7,19.8-38.7,26.1-55.9,14.2c-17.2-11.9-20.1-37.5-6.4-57.3
				c13.7-19.8,38.7-26.1,55.9-14.2C1227.8,1171.2,1230.6,1196.8,1217,1216.6z"/>
		</g>
		<g id="XMLID_2946_" opacity="0.17">
			<g id="XMLID_2947_">
				<path id="XMLID_2948_" fill="#050505" d="M1225.4,1193.9c-24.3,19.1-54,25.5-78.3,15.7c1.9,8.6,6.6,16.2,14,21.3
					c17.2,11.9,42.2,5.5,55.9-14.2C1221.9,1209.5,1224.6,1201.6,1225.4,1193.9z"/>
			</g>
		</g>
		<g id="XMLID_2944_" opacity="0.33">
			<path id="XMLID_2945_" fill="#FFFAFC" d="M1179.2,1183.8c-6.1,5.5-13.8,6.4-17.3,1.9c-3.5-4.4-1.4-12.5,4.6-18
				c6.1-5.5,13.8-6.4,17.3-1.9C1187.3,1170.2,1185.3,1178.3,1179.2,1183.8z"/>
		</g>
	</g>
	<g id="XMLID_2935_">
		<g id="XMLID_2941_">
			<path id="XMLID_2942_" fill="#6B152E" d="M1100.2,1139.8c-13.7,19.8-38.7,26.1-55.9,14.2c-17.2-11.9-20.1-37.5-6.4-57.3
				c13.7-19.8,38.7-26.1,55.9-14.2C1111,1094.4,1113.9,1120.1,1100.2,1139.8z"/>
		</g>
		<g id="XMLID_2938_" opacity="0.17">
			<g id="XMLID_2939_">
				<path id="XMLID_2940_" fill="#050505" d="M1108.6,1117.1c-24.3,19.1-54,25.5-78.3,15.7c1.9,8.6,6.6,16.2,14,21.3
					c17.2,11.9,42.2,5.5,55.9-14.2C1105.2,1132.7,1107.9,1124.8,1108.6,1117.1z"/>
			</g>
		</g>
		<g id="XMLID_2936_" opacity="0.33">
			<path id="XMLID_2937_" fill="#FFFAFC" d="M1062.5,1107c-6.1,5.5-13.8,6.4-17.3,1.9c-3.5-4.4-1.4-12.5,4.6-18s13.8-6.4,17.3-1.9
				C1070.6,1093.4,1068.5,1101.5,1062.5,1107z"/>
		</g>
	</g>
	<g id="XMLID_2923_">
		<g id="XMLID_2933_">
			
				<ellipse id="XMLID_2934_" transform="matrix(0.5687 -0.8226 0.8226 0.5687 -520.023 1453.673)" fill="#6B152E" cx="1126.1" cy="1222.7" rx="43.5" ry="37.8"/>
		</g>
		<g id="XMLID_2928_" opacity="0.17">
			<g id="XMLID_2930_">
				<path id="XMLID_2932_" fill="#050505" d="M1165.6,1221.5c-24.3,19.1-54,25.5-78.3,15.7c1.9,8.6,6.6,16.2,14,21.3
					c17.2,11.9,42.2,5.5,55.9-14.2C1162.1,1237.1,1164.9,1229.2,1165.6,1221.5z"/>
			</g>
		</g>
		<g id="XMLID_2925_" opacity="0.33">
			<path id="XMLID_2927_" fill="#FFFAFC" d="M1119.4,1211.4c-6.1,5.5-13.8,6.4-17.3,1.9c-3.5-4.4-1.4-12.5,4.6-18
				c6.1-5.5,13.8-6.4,17.3-1.9C1127.6,1197.8,1125.5,1205.9,1119.4,1211.4z"/>
		</g>
	</g>
	<g id="XMLID_2909_">
		<g id="XMLID_2919_">
			
				<ellipse id="XMLID_2921_" transform="matrix(0.5687 -0.8226 0.8226 0.5687 -515.0858 1388.8467)" fill="#6B152E" cx="1066.8" cy="1185.6" rx="43.5" ry="37.8"/>
		</g>
		<g id="XMLID_2913_" opacity="0.17">
			<g id="XMLID_2915_">
				<path id="XMLID_2917_" fill="#050505" d="M1106.3,1184.4c-24.3,19.1-54,25.5-78.3,15.7c1.9,8.6,6.6,16.2,14,21.3
					c17.2,11.9,42.2,5.5,55.9-14.2C1102.8,1200,1105.5,1192.1,1106.3,1184.4z"/>
			</g>
		</g>
		<g id="XMLID_2910_" opacity="0.33">
			<path id="XMLID_2911_" fill="#FFFAFC" d="M1060.1,1174.3c-6.1,5.5-13.8,6.4-17.3,1.9c-3.5-4.4-1.4-12.5,4.6-18
				c6.1-5.5,13.8-6.4,17.3-1.9C1068.3,1160.7,1066.2,1168.8,1060.1,1174.3z"/>
		</g>
	</g>
	<g id="XMLID_2896_">
		<g id="XMLID_2906_">
			
				<ellipse id="XMLID_2907_" transform="matrix(0.5687 -0.8226 0.8226 0.5687 -562.9484 1347.6042)" fill="#6B152E" cx="1003.5" cy="1210.6" rx="43.5" ry="37.8"/>
		</g>
		<g id="XMLID_2901_" opacity="0.17">
			<g id="XMLID_2903_">
				<path id="XMLID_2904_" fill="#050505" d="M1043,1209.4c-24.3,19.1-54,25.5-78.3,15.7c1.9,8.6,6.6,16.2,14,21.3
					c17.2,11.9,42.2,5.5,55.9-14.2C1039.5,1225,1042.3,1217.1,1043,1209.4z"/>
			</g>
		</g>
		<g id="XMLID_2898_" opacity="0.33">
			<path id="XMLID_2900_" fill="#FFFAFC" d="M996.8,1199.3c-6.1,5.5-13.8,6.4-17.3,1.9c-3.5-4.4-1.4-12.5,4.6-18
				c6.1-5.5,13.8-6.4,17.3-1.9C1005,1185.7,1002.9,1193.8,996.8,1199.3z"/>
		</g>
	</g>
	<g id="XMLID_2888_">
		<g id="XMLID_2894_">
			
				<ellipse id="XMLID_2895_" transform="matrix(0.5687 -0.8226 0.8226 0.5687 -570.8452 1412.019)" fill="#6B152E" cx="1061" cy="1250.3" rx="43.5" ry="37.8"/>
		</g>
		<g id="XMLID_2891_" opacity="0.17">
			<g id="XMLID_2892_">
				<path id="XMLID_2893_" fill="#050505" d="M1100.5,1249.1c-24.3,19.1-54,25.5-78.3,15.7c1.9,8.6,6.6,16.2,14,21.3
					c17.2,11.9,42.2,5.5,55.9-14.2C1097,1264.7,1099.7,1256.8,1100.5,1249.1z"/>
			</g>
		</g>
		<g id="XMLID_2889_" opacity="0.33">
			<path id="XMLID_2890_" fill="#FFFAFC" d="M1054.3,1239c-6.1,5.5-13.8,6.4-17.3,1.9c-3.5-4.4-1.4-12.5,4.6-18
				c6.1-5.5,13.8-6.4,17.3-1.9C1062.5,1225.4,1060.4,1233.5,1054.3,1239z"/>
		</g>
	</g>
	<g id="XMLID_2880_">
		<g id="XMLID_2886_">
			<path id="XMLID_2887_" fill="#6B152E" d="M1030.6,1296.9c-13.7,19.8-38.7,26.1-55.9,14.2c-17.2-11.9-20.1-37.5-6.4-57.3
				c13.7-19.8,38.7-26.1,55.9-14.2C1041.4,1251.5,1044.3,1277.2,1030.6,1296.9z"/>
		</g>
		<g id="XMLID_2883_" opacity="0.17">
			<g id="XMLID_2884_">
				<path id="XMLID_2885_" fill="#050505" d="M1039,1274.2c-24.3,19.1-54,25.5-78.3,15.7c1.9,8.6,6.6,16.2,14,21.3
					c17.2,11.9,42.2,5.5,55.9-14.2C1035.5,1289.8,1038.3,1281.9,1039,1274.2z"/>
			</g>
		</g>
		<g id="XMLID_2881_" opacity="0.33">
			<path id="XMLID_2882_" fill="#FFFAFC" d="M992.8,1264.1c-6.1,5.5-13.8,6.4-17.3,1.9c-3.5-4.4-1.4-12.5,4.6-18
				c6.1-5.5,13.8-6.4,17.3-1.9C1001,1250.5,998.9,1258.6,992.8,1264.1z"/>
		</g>
	</g>
	<g id="XMLID_2872_">
		<g id="XMLID_2878_">
			<path id="XMLID_2879_" fill="#6B152E" d="M1037.8,1169.3c-13.7,19.8-38.7,26.1-55.9,14.2c-17.2-11.9-20.1-37.5-6.4-57.3
				c13.7-19.8,38.7-26.1,55.9-14.2C1048.6,1123.9,1051.4,1149.5,1037.8,1169.3z"/>
		</g>
		<g id="XMLID_2875_" opacity="0.17">
			<g id="XMLID_2876_">
				<path id="XMLID_2877_" fill="#050505" d="M1046.2,1146.6c-24.3,19.1-54,25.5-78.3,15.7c1.9,8.6,6.6,16.2,14,21.3
					c17.2,11.9,42.2,5.5,55.9-14.2C1042.7,1162.2,1045.4,1154.3,1046.2,1146.6z"/>
			</g>
		</g>
		<g id="XMLID_2873_" opacity="0.33">
			<path id="XMLID_2874_" fill="#FFFAFC" d="M1000,1136.5c-6.1,5.5-13.8,6.4-17.3,1.9c-3.5-4.4-1.4-12.5,4.6-18
				c6.1-5.5,13.8-6.4,17.3-1.9C1008.2,1122.9,1006.1,1131,1000,1136.5z"/>
		</g>
	</g>
</g>
</svg>
