<?xml version="1.0" encoding="utf-8"?>
<!-- Generator: Adobe Illustrator 26.0.1, SVG Export Plug-In . SVG Version: 6.00 Build 0)  -->
<svg version="1.0" id="Layer_1" xmlns="http://www.w3.org/2000/svg" xmlns:xlink="http://www.w3.org/1999/xlink" x="0px" y="0px"
	 viewBox="0 0 180 29.3" enable-background="new 0 0 180 29.3" xml:space="preserve">
<g>
	<path fill="#295CA9" d="M0,1h8.6v20.5h10.6v6.9H0V1z"/>
	<path fill="#295CA9" d="M52.9,14.4c0,6.9-4.1,14.8-14.8,14.8c-11.2,0-14.6-8.3-14.6-14.5C23.5,6.9,28.4,0,38.2,0
		C49.1,0,52.9,7.9,52.9,14.4z M32.2,14.7c0,4.8,1.9,7.6,6,7.6c3.5,0,5.9-2.8,5.9-7.9c0-1.3-0.1-2.5-0.5-3.6C42.4,7,39,6.9,38.2,6.9
		C35.1,6.9,32.2,9,32.2,14.7z"/>
	<path fill="#295CA9" d="M85.6,21.3c-0.7,1.3-1.4,2.6-2.7,3.9c-2.8,2.8-6.7,4-10.6,4c-9.8,0-14.2-7.4-14.2-14.4
		C58.1,7.5,63,0,72.3,0c4.1,0,8.1,1.5,11,4.4c1.2,1.2,1.7,2.1,2.3,3.2l-7.2,3.6c-0.7-1.6-2-4.5-5.7-4.5c-1.9,0-3.1,0.9-3.7,1.5
		c-2.1,2-2.1,5.1-2.1,6.2c0,4.1,1.5,7.9,5.8,7.9c4,0,5.2-3.6,5.5-4.5L85.6,21.3z"/>
	<path fill="#295CA9" d="M153.8,1h13.6c2.6,0,5.1,0.2,6.7,0.9c3.6,1.6,4.7,5.3,4.7,7.9c0,1-0.1,3.5-2.1,5.5
		c-1.1,1.2-2.2,1.6-3.5,2.1l6.7,11h-9.6l-5.3-9.7h-2.6v9.7h-8.7V1z M162.5,6.8v6.4h3.6c1.4,0,4.2-0.1,4.2-3.2c0-3.1-2.7-3.2-4.2-3.2
		H162.5z"/>
	<polygon fill="#295CA9" points="133.7,7 146.7,7 146.7,1 125,1 125,11 133.7,11 	"/>
	<rect x="133.7" y="11" fill="#295CA9" width="12.1" height="6.9"/>
	<polygon fill="#295CA9" points="133.7,22.4 133.7,17.8 125,17.8 125,28.4 147.9,28.4 147.9,22.4 	"/>
	<g>
		<rect x="108.1" y="1" fill="#295CA9" width="8.7" height="10"/>
		<rect x="108.1" y="17.8" fill="#295CA9" width="8.7" height="10.5"/>
		<polygon fill="#295CA9" points="99.8,11 99.8,1 91.2,1 91.2,28.4 99.8,28.4 99.8,17.8 108.1,17.8 108.1,11 		"/>
	</g>
</g>
</svg>
