<?xml version="1.0" encoding="utf-8"?>
<!-- Generator: Adobe Illustrator 26.0.1, SVG Export Plug-In . SVG Version: 6.00 Build 0)  -->
<svg version="1.0" id="Ebene_1" xmlns="http://www.w3.org/2000/svg" xmlns:xlink="http://www.w3.org/1999/xlink" x="0px" y="0px"
	 viewBox="0 0 373.8 172.7" enable-background="new 0 0 373.8 172.7" xml:space="preserve">
<g>
	<polygon fill="#EB974E" points="159.1,68.7 98.2,68.7 98.2,124.1 110.2,124.1 159.1,75.2 	"/>
	<polygon fill="#FEAB62" points="159.1,75.2 110.2,124.1 159.1,124.1 	"/>
	<rect x="122.5" y="68.7" fill="#7F311F" width="12.3" height="17.1"/>
	<rect x="134.8" y="111.8" fill="#EBE3D4" width="18.8" height="7.8"/>
</g>
<g>
	<rect x="233.5" y="57.9" fill="#EB974E" width="21.6" height="66.3"/>
	<rect x="255.1" y="57.9" fill="#FEAB62" width="39.3" height="66.3"/>
	<rect x="257.8" y="57.9" fill="#7F311F" width="12.3" height="17.1"/>
	<rect x="270.1" y="111.8" fill="#EBE3D4" width="18.8" height="7.8"/>
</g>
<g>
	<rect x="166.8" fill="#EB974E" width="30.1" height="42.8"/>
	<rect x="196.9" fill="#FEAB62" width="16.1" height="42.8"/>
	<rect x="183.7" fill="#7F311F" width="12.3" height="17.1"/>
	<rect x="188.6" y="30.4" fill="#EBE3D4" width="18.8" height="7.8"/>
</g>
<g>
	<polygon fill="#FEAB62" points="215.1,42.8 159.1,98.8 159.1,124.1 233.5,124.1 233.5,42.8 	"/>
	<polygon fill="#EB974E" points="159.1,42.8 159.1,98.8 215.1,42.8 	"/>
	<polygon fill="#7F311F" points="202.4,42.8 190.2,42.8 190.2,59.9 198,59.9 202.4,55.4 	"/>
	<polygon fill="#944B3A" points="202.4,55.4 198,59.9 202.4,59.9 	"/>
	<rect x="209.2" y="111.8" fill="#EBE3D4" width="18.8" height="7.8"/>
</g>
<g>
	<rect x="8.2" y="84.9" fill="#D9D2C0" width="74.3" height="14.1"/>
	<rect x="8.2" y="99" fill="#C1BAAA" width="74.3" height="25.3"/>
	<polygon fill="#D9D2C0" points="327.1,55.6 328.8,55.6 329.9,106.4 325.9,106.4 	"/>
	<rect x="322.9" y="66.8" fill="#C1BAAA" width="10" height="1.7"/>
	<rect x="322.9" y="60.7" fill="#C1BAAA" width="5.5" height="1.7"/>
	<rect x="322.9" y="91.6" fill="#C1BAAA" width="5.5" height="1.7"/>
	<rect x="324.5" y="77.9" fill="#C1BAAA" width="6.9" height="4.6"/>
	<polygon fill="#D9D2C0" points="58.5,23.6 60.2,23.6 61.4,74.4 57.4,74.4 	"/>
	<rect x="50.5" y="34.8" fill="#C1BAAA" width="17.7" height="1.7"/>
	<rect x="54.4" y="28.7" fill="#C1BAAA" width="5.5" height="1.7"/>
	<rect x="59.4" y="47" fill="#C1BAAA" width="5.5" height="1.7"/>
	<rect x="55.9" y="38.8" fill="#C1BAAA" width="6.9" height="4.6"/>
	<g>
		<rect x="73" y="111.5" fill="#D9D2C0" width="2.1" height="12.8"/>
		<rect x="87.2" y="111.5" fill="#D9D2C0" width="2.1" height="12.8"/>
		<rect x="101.5" y="111.5" fill="#D9D2C0" width="2.1" height="12.8"/>
		<rect x="115.7" y="111.5" fill="#D9D2C0" width="2.1" height="12.8"/>
		<rect x="129.9" y="111.5" fill="#D9D2C0" width="2.1" height="12.8"/>
		<rect x="144.1" y="111.5" fill="#D9D2C0" width="2.1" height="12.8"/>
		<rect x="158.3" y="111.5" fill="#D9D2C0" width="2.1" height="12.8"/>
		<rect x="172.6" y="111.5" fill="#D9D2C0" width="2.1" height="12.8"/>
		<rect x="186.8" y="111.5" fill="#D9D2C0" width="2.1" height="12.8"/>
		<rect x="201" y="111.5" fill="#D9D2C0" width="2.1" height="12.8"/>
		<rect x="215.2" y="111.5" fill="#D9D2C0" width="2.1" height="12.8"/>
		<rect x="229.4" y="111.5" fill="#D9D2C0" width="2.1" height="12.8"/>
		<rect x="243.7" y="111.5" fill="#D9D2C0" width="2.1" height="12.8"/>
		<rect x="257.9" y="111.5" fill="#D9D2C0" width="2.1" height="12.8"/>
		<rect x="272.1" y="111.5" fill="#D9D2C0" width="2.1" height="12.8"/>
		<rect x="286.3" y="111.5" fill="#D9D2C0" width="2.1" height="12.8"/>
		<rect x="300.5" y="111.5" fill="#D9D2C0" width="2.1" height="12.8"/>
	</g>
	<g>
		<rect x="63.9" y="110.5" fill="#D9D2C0" width="256" height="2.1"/>
		<rect x="63.9" y="117.4" fill="#D9D2C0" width="256" height="2.1"/>
	</g>
	<polygon fill="#E53039" points="242.3,150 88.4,150 65.6,172.7 219.6,172.7 	"/>
	<path fill="#B3191A" d="M7.5,150c7.4,9.4,22.7,22.7,22.7,22.7h35.5L88.4,150H7.5z"/>
	<path fill="#B3191A" d="M242.3,150l-22.7,22.7h99.4c0,0,2.7-11.3,20.6-22.7H242.3z"/>
	<polygon fill="#24324C" points="268,124.3 114.1,124.3 88.4,150 242.3,150 	"/>
	<path fill="#152135" d="M73,124.3l-9.1-13.8H0c0,0,1,25.7,3.8,33.7c0.5,1.6,1.9,3.6,3.7,5.8h80.9l25.7-25.7H73z"/>
	<path fill="#152135" d="M316.8,110.5l-13.8,13.8H268L242.3,150h97.3c2.1-1.3,4.3-2.6,6.8-3.9c24-12.6,27.5-35.6,27.5-35.6H316.8z"
		/>
	<rect x="319.2" y="104.4" fill="#C1BAAA" width="37.1" height="6.1"/>
	<rect x="39.6" y="61.9" fill="#C1BAAA" width="39.8" height="23"/>
	<rect x="36.4" y="65" fill="#EDEDE0" width="46.1" height="8.7"/>
	<g>
		<rect x="14.3" y="89" fill="#C1BAAA" width="2.9" height="3.8"/>
		<rect x="21.8" y="89" fill="#C1BAAA" width="2.9" height="3.8"/>
		<rect x="29.4" y="89" fill="#C1BAAA" width="2.9" height="3.8"/>
		<rect x="36.9" y="89" fill="#C1BAAA" width="2.9" height="3.8"/>
		<rect x="44.4" y="89" fill="#C1BAAA" width="2.9" height="3.8"/>
		<rect x="52" y="89" fill="#C1BAAA" width="2.9" height="3.8"/>
		<rect x="59.5" y="89" fill="#C1BAAA" width="2.9" height="3.8"/>
		<rect x="67.1" y="89" fill="#C1BAAA" width="2.9" height="3.8"/>
		<rect x="74.6" y="89" fill="#C1BAAA" width="2.9" height="3.8"/>
	</g>
	<rect x="42.7" y="76.4" fill="#D9D2C0" width="33.3" height="2.1"/>
	<path fill="#24324C" d="M315.3,128.9c0,2.5,2.1,4.6,4.6,4.6c2.5,0,4.6-2.1,4.6-4.6c0-2.5-2.1-4.6-4.6-4.6
		C317.4,124.3,315.3,126.3,315.3,128.9z"/>
</g>
</svg>
