<?xml version="1.0" encoding="utf-8"?>
<!-- Generator: Adobe Illustrator 26.0.1, SVG Export Plug-In . SVG Version: 6.00 Build 0)  -->
<svg version="1.0" id="Ebene_1" xmlns="http://www.w3.org/2000/svg" xmlns:xlink="http://www.w3.org/1999/xlink" x="0px" y="0px"
	 viewBox="0 0 1502.7 830.1" enable-background="new 0 0 1502.7 830.1" xml:space="preserve">
<linearGradient id="SVGID_1_" gradientUnits="userSpaceOnUse" x1="750.8211" y1="21.4383" x2="750.8211" y2="830.1">
	<stop  offset="0" style="stop-color:#CCE0FB"/>
	<stop  offset="1" style="stop-color:#FFFFFF"/>
</linearGradient>
<path fill="url(#SVGID_1_)" d="M1428,317.8c-60.7-59-148.9-80.7-215.2-133.2c-26.3-20.8-48.9-46.3-76.8-64.9
	C1061.5,70.2,963.7,78.2,875.7,94c-18.3,3.3-36.8,6.8-55.4,5.1c-30.1-2.7-57.1-18.9-84.2-32.4C654.4,25.9,558.1,7.1,470.8,34
	c-83.1,25.7-148.7,89.1-205.9,154.5c-15.6,17.8-31.1,36.4-39.5,58.6c-7.2,18.9-8.9,39.4-15,58.7C176.9,411,25,447.2,2.6,555.3
	c-1.3,6.5-2.1,13-2.4,19.5l-1.2,0.1v255.3h223.7h830.6H1502V524.2C1507.1,448.7,1482.1,370.5,1428,317.8z"/>
</svg>
