<?xml version="1.0" encoding="utf-8"?>
<!-- Generator: Adobe Illustrator 26.0.1, SVG Export Plug-In . SVG Version: 6.00 Build 0)  -->
<svg version="1.0" id="Ebene_1" xmlns="http://www.w3.org/2000/svg" xmlns:xlink="http://www.w3.org/1999/xlink" x="0px" y="0px"
	 viewBox="0 0 81.7 47.2" enable-background="new 0 0 81.7 47.2" xml:space="preserve">
<g>
	<g>
		<path fill="#72528E" d="M61.5,4.2c0,0-4-3.5-9.9-4.1c-5.9-0.7-20.3,2.4-25.5,2.8C18.9,3.5,9,2,10.8,5.7c1.7,3.7,9.8,9.9,10,12.6
			C21,21,61.5,4.2,61.5,4.2z"/>
		<defs>
			<filter id="Adobe_OpacityMaskFilter" filterUnits="userSpaceOnUse" x="19.1" y="1" width="39.1" height="16.8">
				<feFlood  style="flood-color:white;flood-opacity:1" result="back"/>
				<feBlend  in="SourceGraphic" in2="back" mode="normal"/>
			</filter>
		</defs>
		<mask maskUnits="userSpaceOnUse" x="19.1" y="1" width="39.1" height="16.8" id="SVGID_1_">
			<g filter="url(#Adobe_OpacityMaskFilter)">
				<defs>
					
						<filter id="Adobe_OpacityMaskFilter_00000011001688948332905940000000606172637316905624_" filterUnits="userSpaceOnUse" x="19.1" y="1" width="39.1" height="16.8">
						<feFlood  style="flood-color:white;flood-opacity:1" result="back"/>
						<feBlend  in="SourceGraphic" in2="back" mode="normal"/>
					</filter>
				</defs>
				<mask maskUnits="userSpaceOnUse" x="19.1" y="1" width="39.1" height="16.8" id="SVGID_1_">
					<g filter="url(#Adobe_OpacityMaskFilter_00000011001688948332905940000000606172637316905624_)">
					</g>
				</mask>
				
					<linearGradient id="SVGID_00000048471672579983152520000006775832295965479598_" gradientUnits="userSpaceOnUse" x1="33.915" y1="1.2214" x2="38.9585" y2="9.5188">
					<stop  offset="0" style="stop-color:#ABABAB"/>
					<stop  offset="0.2812" style="stop-color:#CDCDCD"/>
					<stop  offset="0.5625" style="stop-color:#E9E9E9"/>
					<stop  offset="0.8112" style="stop-color:#F9F9F9"/>
					<stop  offset="1" style="stop-color:#FFFFFF"/>
				</linearGradient>
				<path mask="url(#SVGID_1_)" fill="url(#SVGID_00000048471672579983152520000006775832295965479598_)" d="M20.8,17.8
					c0,0-4.3-8.6,0.7-10.4c5-1.8,14.8-4.9,21.4-5.9C53-0.2,58.2,3,58.2,3L20.8,17.8z"/>
			</g>
		</mask>
		
			<linearGradient id="SVGID_00000039820366574923623750000005380249455880923783_" gradientUnits="userSpaceOnUse" x1="33.915" y1="1.2214" x2="38.9585" y2="9.5188">
			<stop  offset="0" style="stop-color:#545699"/>
			<stop  offset="0.1677" style="stop-color:#5C5596"/>
			<stop  offset="0.6404" style="stop-color:#6C5390"/>
			<stop  offset="1" style="stop-color:#72528E"/>
		</linearGradient>
		<path opacity="0.79" fill="url(#SVGID_00000039820366574923623750000005380249455880923783_)" d="M20.8,17.8c0,0-4.3-8.6,0.7-10.4
			c5-1.8,14.8-4.9,21.4-5.9C53-0.2,58.2,3,58.2,3L20.8,17.8z"/>
		<g>
			<defs>
				<path id="SVGID_00000177470012518114071370000011884043186195334064_" d="M61.5,4.2c0,0-4-3.5-9.9-4.1
					c-5.9-0.7-20.3,2.4-25.5,2.8C18.9,3.5,9,2,10.8,5.7c1.7,3.7,9.8,9.9,10,12.6C21,21,61.5,4.2,61.5,4.2z"/>
			</defs>
			<clipPath id="SVGID_00000137113413006415235380000003041756130949810316_">
				<use xlink:href="#SVGID_00000177470012518114071370000011884043186195334064_"  overflow="visible"/>
			</clipPath>
			<g clip-path="url(#SVGID_00000137113413006415235380000003041756130949810316_)">
				<g>
					<path fill="#543872" d="M22.1,17.7c0,0-2.2-4.9-12.8-13.6l0.4-0.5c10.7,8.9,12.9,13.7,12.9,13.9L22.1,17.7z"/>
				</g>
				<g>
					<path fill="#543872" d="M24,15c0-0.1-3.3-5.8-12.9-11.6l0.3-0.6c9.8,5.9,13,11.6,13.1,11.8L24,15z"/>
				</g>
				<g>
					<path fill="#543872" d="M25.9,12.1C25.9,12,20.7,4.9,13,3l0.2-0.6c7.9,2,13.2,9.3,13.3,9.4L25.9,12.1z"/>
				</g>
				<g>
					<path fill="#543872" d="M29.1,10.5C24.8,5.1,17.9,3,17.8,3L18,2.3c0.1,0,7.1,2.2,11.6,7.8L29.1,10.5z"/>
				</g>
				<g>
					<path fill="#543872" d="M32.8,7.4c-4.9-4.4-9.4-4.6-9.5-4.6l0-0.7c0.2,0,4.8,0.2,9.9,4.8L32.8,7.4z"/>
				</g>
				<g>
					<path fill="#543872" d="M38,5.4c-5.2-3-9.8-3-9.8-3l0-0.7c0.2,0,4.8,0,10.2,3.1L38,5.4z"/>
				</g>
				<g>
					<path fill="#543872" d="M41.7,4.2c-6.1-3.1-9.8-2.3-9.9-2.3l-0.1-0.6c0.2,0,4-0.9,10.3,2.4L41.7,4.2z"/>
				</g>
				<g>
					<path fill="#543872" d="M47.1,3.1c-2.8-2-6.8-2.2-6.8-2.2l0-0.6c0.2,0,4.2,0.3,7.2,2.3L47.1,3.1z"/>
				</g>
			</g>
		</g>
		<g>
			<defs>
				<path id="SVGID_00000029727864295601603990000005858009493660151694_" d="M63.8,35.6c0,0-1.7,2.8-3.5,4.4
					c-1.7,1.6-9,7.7-14.6,6.9c-3.4-0.4,2.8-3.3,3.8-4.7c1-1.4,0.2-3.4,1.5-4.7C52.3,36.3,63.8,35.6,63.8,35.6z"/>
			</defs>
			<use xlink:href="#SVGID_00000029727864295601603990000005858009493660151694_"  overflow="visible" fill="#8F98BE"/>
			<clipPath id="SVGID_00000083767517171463522760000016953381504699116729_">
				<use xlink:href="#SVGID_00000029727864295601603990000005858009493660151694_"  overflow="visible"/>
			</clipPath>
			<g clip-path="url(#SVGID_00000083767517171463522760000016953381504699116729_)">
				<g>
					<path fill="#7781A0" d="M45.1,47.2L45,46.8c10.9-2.6,15-9.5,15.1-9.5l0.3,0.2C60.3,37.6,56.1,44.6,45.1,47.2z"/>
				</g>
				<g>
					<path fill="#7781A0" d="M44.4,46.8l-0.1-0.3c6.9-1.9,12-8.2,12-8.3l0.3,0.2C56.6,38.4,51.5,44.9,44.4,46.8z"/>
				</g>
				<g>
					<path fill="#7781A0" d="M46.5,43.9l0-0.3c4.2-0.5,6-5.3,6-5.3l0.3,0.1C52.8,38.4,51,43.4,46.5,43.9z"/>
				</g>
			</g>
		</g>
		<path fill="#9B7B9B" d="M19.3,18.4c0,0-3-0.5-4.6-2.1C13.3,14.8,4.8,9.4,2,9.6c-2.8,0.2-0.2,3.1,1.5,6.5c1.7,3.4,1.6,5.6,1.6,7.2
			c0.1,3-2.1,4-1.8,6.8c0.3,3.7,4.8,4.2,9.2,1.2c3.7-2.5,4.9-3.6,6.7-3.6C20.6,27.7,19.3,18.4,19.3,18.4z"/>
		<path fill="#AC8DAB" d="M14.8,16.4C13.3,14.8,4.8,9.4,2,9.6c-0.1,0-0.1,0-0.2,0c-2,1.2,0.4,3.1,1.9,5.1c1.5,1.9,2.5,4.2,2.7,7.7
			c0.3,4.2-2.2,5.1-2,7.4c0.4,3.7,4.8,3.4,9.2,0.4c3.3-2.3,4.6-3.4,6.2-3.5c0.4-2.4-0.5-8.3-0.5-8.3S16.3,17.9,14.8,16.4z"/>
		<g>
			<defs>
				<path id="SVGID_00000116208803295676474350000016344527751963513241_" d="M19.3,18.4c0,0-3-0.5-4.6-2.1C13.3,14.8,4.8,9.4,2,9.6
					c-2.8,0.2-0.2,3.1,1.5,6.5c1.7,3.4,1.6,5.6,1.6,7.2c0.1,3-2.1,4-1.8,6.8c0.3,3.7,4.8,4.2,9.2,1.2c3.7-2.5,4.9-3.6,6.7-3.6
					C20.6,27.7,19.3,18.4,19.3,18.4z"/>
			</defs>
			<clipPath id="SVGID_00000007427287467929193880000007671277544090394299_">
				<use xlink:href="#SVGID_00000116208803295676474350000016344527751963513241_"  overflow="visible"/>
			</clipPath>
			<g clip-path="url(#SVGID_00000007427287467929193880000007671277544090394299_)">
				<g>
					<path fill="#9B7B9B" d="M17.8,20.8c-0.1-0.1-10.4-9.2-17.7-9.2c0,0-0.1,0-0.1,0l0-0.7c0,0,0.1,0,0.1,0c7.5,0,17.7,9,18.1,9.4
						L17.8,20.8z"/>
				</g>
				<g>
					<path fill="#9B7B9B" d="M17.4,21.7c-0.1-0.1-10.3-6.3-16.5-7.6L1,13.5c6.3,1.3,16.3,7.4,16.7,7.7L17.4,21.7z"/>
				</g>
				<g>
					<path fill="#9B7B9B" d="M17.7,23c-0.1,0-9.8-3.1-13.4-2.8l0-0.6c3.7-0.2,13.2,2.7,13.6,2.9L17.7,23z"/>
				</g>
				<g>
					<path fill="#9B7B9B" d="M17.9,24.4c-0.1,0-9.9-2.2-13.1-1.7l-0.1-0.6c3.4-0.5,13,1.6,13.4,1.7L17.9,24.4z"/>
				</g>
				<g>
					<path fill="#9B7B9B" d="M3.8,26.4l0-0.7c4.4-0.1,13.9-1,14-1.1l0.1,0.6C17.7,25.3,8.2,26.3,3.8,26.4z"/>
				</g>
				<g>
					<path fill="#9B7B9B" d="M2.6,29.6L2.6,29c3.4-0.3,15.7-3.4,15.8-3.4l0.2,0.6C18,26.3,6.1,29.3,2.6,29.6z"/>
				</g>
				<g>
					<path fill="#9B7B9B" d="M2.6,33.5l-0.1-0.6c3.5-0.6,15.8-6.2,15.9-6.2l0.3,0.6C18.2,27.5,6.2,33,2.6,33.5z"/>
				</g>
			</g>
		</g>
		<g>
			<defs>
				<path id="SVGID_00000081618321529281562450000018060743764307625872_" d="M45.2,38.6c0,0-3.5-0.1-8.4,2.1
					c-4.9,2.2-20.3,2.3-23.3-1c-2.9-3.1,0.2-6.1,3.7-7.5c1.8-0.7,3.7-4.8,7.4-3.8C28.2,29.4,45.2,38.6,45.2,38.6z"/>
			</defs>
			<use xlink:href="#SVGID_00000081618321529281562450000018060743764307625872_"  overflow="visible" fill="#545699"/>
			<clipPath id="SVGID_00000103981594746389526330000015951546208407209885_">
				<use xlink:href="#SVGID_00000081618321529281562450000018060743764307625872_"  overflow="visible"/>
			</clipPath>
			<g clip-path="url(#SVGID_00000103981594746389526330000015951546208407209885_)">
				<g>
					<path fill="#424677" d="M18.8,41.1c-1.8,0-3.8-0.1-5.8-0.2l0-0.7c18.1,1.1,26.3-3.3,26.4-3.4l0.3,0.6
						C39.5,37.7,33,41.1,18.8,41.1z"/>
				</g>
				<g>
					<path fill="#424677" d="M12.5,39.6l0-0.7c13.3-0.2,20.8-3.8,20.8-3.8l0.3,0.6C33.6,35.8,26,39.4,12.5,39.6z"/>
				</g>
				<g>
					<path fill="#424677" d="M11.9,37.9l0-0.7c9.8-0.2,17.2-4.3,17.3-4.4l0.3,0.6C29.4,33.6,21.9,37.7,11.9,37.9z"/>
				</g>
				<g>
					<path fill="#424677" d="M11.8,36.2l-0.1-0.6c8.3-1.7,14.6-4.7,14.6-4.8l0.3,0.6C26.5,31.4,20.2,34.5,11.8,36.2z"/>
				</g>
			</g>
		</g>
		<defs>
			
				<filter id="Adobe_OpacityMaskFilter_00000181777522201744475970000004756964834184587177_" filterUnits="userSpaceOnUse" x="6" y="18.2" width="19.4" height="9.7">
				<feFlood  style="flood-color:white;flood-opacity:1" result="back"/>
				<feBlend  in="SourceGraphic" in2="back" mode="normal"/>
			</filter>
		</defs>
		
			<mask maskUnits="userSpaceOnUse" x="6" y="18.2" width="19.4" height="9.7" id="SVGID_00000126296456605704433210000011869865218934112156_">
			<g filter="url(#Adobe_OpacityMaskFilter_00000181777522201744475970000004756964834184587177_)">
				<defs>
					
						<filter id="Adobe_OpacityMaskFilter_00000097481367478505439150000011018572577603387579_" filterUnits="userSpaceOnUse" x="6" y="18.2" width="19.4" height="9.7">
						<feFlood  style="flood-color:white;flood-opacity:1" result="back"/>
						<feBlend  in="SourceGraphic" in2="back" mode="normal"/>
					</filter>
				</defs>
				
					<mask maskUnits="userSpaceOnUse" x="6" y="18.2" width="19.4" height="9.7" id="SVGID_00000126296456605704433210000011869865218934112156_">
					<g filter="url(#Adobe_OpacityMaskFilter_00000097481367478505439150000011018572577603387579_)">
					</g>
				</mask>
				
					<radialGradient id="SVGID_00000137102619739944308760000000234027704264125371_" cx="238.1831" cy="127.2102" r="7.9756" gradientTransform="matrix(1.2171 0 0 0.6107 -274.1878 -54.6566)" gradientUnits="userSpaceOnUse">
					<stop  offset="0" style="stop-color:#FFFFFF"/>
					<stop  offset="0.1888" style="stop-color:#F9F9F9"/>
					<stop  offset="0.4375" style="stop-color:#E9E9E9"/>
					<stop  offset="0.7188" style="stop-color:#CDCDCD"/>
					<stop  offset="1" style="stop-color:#ABABAB"/>
				</radialGradient>
				
					<path mask="url(#SVGID_00000126296456605704433210000011869865218934112156_)" fill="url(#SVGID_00000137102619739944308760000000234027704264125371_)" d="
					M25.4,23c0,2.7-4.3,4.9-9.7,4.9S6,25.7,6,23c0-2.7,4.3-4.9,9.7-4.9S25.4,20.3,25.4,23z"/>
			</g>
		</mask>
		
			<radialGradient id="SVGID_00000175291728141265361460000014898421011261730744_" cx="238.1831" cy="127.2102" r="7.9756" gradientTransform="matrix(1.2171 0 0 0.6107 -274.1878 -54.6566)" gradientUnits="userSpaceOnUse">
			<stop  offset="0" style="stop-color:#D4145A"/>
			<stop  offset="0.1505" style="stop-color:#D21A5E"/>
			<stop  offset="0.3489" style="stop-color:#CD2A69"/>
			<stop  offset="0.5739" style="stop-color:#C4467B"/>
			<stop  offset="0.8168" style="stop-color:#B76C95"/>
			<stop  offset="1" style="stop-color:#AC8DAB"/>
		</radialGradient>
		<path opacity="0.34" fill="url(#SVGID_00000175291728141265361460000014898421011261730744_)" d="M25.4,23c0,2.7-4.3,4.9-9.7,4.9
			S6,25.7,6,23c0-2.7,4.3-4.9,9.7-4.9S25.4,20.3,25.4,23z"/>
		<path opacity="0.15" d="M19.3,18.4c0,0-0.9-0.2-2-0.6c-0.9,0.6-1.5,1.6-1.4,2.7l0.1,4.7c0,1,0.6,1.9,1.5,2.4
			c0.9-0.5,1.6-0.8,2.3-0.9C20.2,24.3,19.3,18.4,19.3,18.4z"/>
		<path opacity="0.15" d="M50.1,40.3c3.1,0,6.5-0.3,10.1-1.1c0,0,0.4-0.1,1.1-0.3c1.4-1.6,2.5-3.4,2.5-3.4S52.3,36.3,51,37.6
			C50.3,38.4,50.2,39.3,50.1,40.3z"/>
		<path opacity="0.15" d="M45.2,38.6c0,0-16.9-9.2-20.6-10.2c-1.6-0.4-2.8,0.1-3.9,0.9h0.2c1.2,0,2.3,0.6,3.1,1.4
			c2.2,2.3,7.6,6.8,16.7,8.6C43.4,38.5,45.2,38.6,45.2,38.6z"/>
		<path opacity="0.15" d="M47.3,1.1c0,0-20.6,2.5-25.3,13.3c-0.4,0.9-1.2,1.7-2.2,1.9c0.5,0.8,0.9,1.4,0.9,2
			C21,21,61.5,4.2,61.5,4.2s-1.7-1.4-4.4-2.6C54.1,1,50.9,0.7,47.3,1.1z"/>
		<path fill="#9D6DBF" d="M81.7,21.1c0-0.7-0.1-1.5-0.5-2.1C78.6,15.1,67.7,0.4,48.3,2.2c0,0-20.6,2.5-25.3,13.3
			c-0.4,1-1.3,1.8-2.4,2L20,17.5c-1.6,0.2-2.7,1.5-2.7,3.1l0.1,4.7c0,1.5,1.3,2.8,2.8,2.8h0.9c1.2,0,2.3,0.6,3.1,1.4
			C27.7,33,38.8,42,59.8,37.8c0,0,11.6-2.4,17.9-11.7c0,0,1.8-2.1,3-3.2C81.2,22.4,81.6,21.8,81.7,21.1z"/>
		<g>
			<path opacity="0.69" fill="#72528E" d="M30.7,30.5c0-0.5,0.1-1.1,0.3-1.5c-0.2-0.4-0.3-0.9-0.3-1.5c0-0.6,0.1-1.1,0.3-1.5
				c-0.2-0.4-0.3-1-0.3-1.5c0-0.5,0.1-1,0.3-1.4c-0.2-0.4-0.3-0.9-0.3-1.4c0-0.5,0.1-1.1,0.3-1.5c-0.2-0.4-0.3-0.9-0.3-1.5
				c0-0.6,0.1-1.1,0.3-1.5c-0.2-0.4-0.3-1-0.3-1.5c0-0.5,0.1-1.1,0.3-1.5c-0.2-0.4-0.3-0.9-0.3-1.5c0-1.2,0.5-2.2,1.3-2.5
				c-0.2-0.1-0.3-0.1-0.5-0.1c-1,0-1.8,1.2-1.8,2.7c0,0.5,0.1,1.1,0.3,1.5c-0.2,0.4-0.3,0.9-0.3,1.5c0,0.6,0.1,1.1,0.3,1.5
				c-0.2,0.4-0.3,1-0.3,1.5c0,0.5,0.1,1.1,0.3,1.5c-0.2,0.4-0.3,0.9-0.3,1.5c0,0.5,0.1,1,0.3,1.4c-0.2,0.4-0.3,0.9-0.3,1.4
				c0,0.6,0.1,1.1,0.3,1.5c-0.2,0.4-0.3,1-0.3,1.5c0,0.5,0.1,1.1,0.3,1.5c-0.2,0.4-0.3,0.9-0.3,1.5c0,1.5,0.8,2.7,1.8,2.7
				c0.2,0,0.3,0,0.5-0.1C31.3,32.7,30.7,31.7,30.7,30.5z"/>
			<path opacity="0.69" fill="#72528E" d="M55.8,30.5c0-0.5,0.1-1.1,0.3-1.5c-0.2-0.4-0.3-0.9-0.3-1.5c0-0.6,0.1-1.1,0.3-1.5
				c-0.2-0.4-0.3-1-0.3-1.5c0-0.5,0.1-1,0.3-1.4c-0.2-0.4-0.3-0.9-0.3-1.4c0-0.5,0.1-1.1,0.3-1.5c-0.2-0.4-0.3-0.9-0.3-1.5
				c0-0.6,0.1-1.1,0.3-1.5c-0.2-0.4-0.3-1-0.3-1.5c0-0.5,0.1-1.1,0.3-1.5c-0.2-0.4-0.3-0.9-0.3-1.5c0-1.2,0.5-2.2,1.3-2.5
				c-0.2-0.1-0.3-0.1-0.5-0.1c-1,0-1.8,1.2-1.8,2.7c0,0.5,0.1,1.1,0.3,1.5c-0.2,0.4-0.3,0.9-0.3,1.5c0,0.6,0.1,1.1,0.3,1.5
				c-0.2,0.4-0.3,1-0.3,1.5c0,0.5,0.1,1.1,0.3,1.5c-0.2,0.4-0.3,0.9-0.3,1.5c0,0.5,0.1,1,0.3,1.4c-0.2,0.4-0.3,0.9-0.3,1.4
				c0,0.6,0.1,1.1,0.3,1.5c-0.2,0.4-0.3,1-0.3,1.5c0,0.5,0.1,1.1,0.3,1.5c-0.2,0.4-0.3,0.9-0.3,1.5c0,1.5,0.8,2.7,1.8,2.7
				c0.2,0,0.3,0,0.5-0.1C56.3,32.7,55.8,31.7,55.8,30.5z"/>
			<path opacity="0.69" fill="#72528E" d="M27.2,27.7c0-0.4,0.1-0.7,0.2-1c-0.1-0.3-0.2-0.7-0.2-1c0-0.4,0.1-0.8,0.2-1.1
				c-0.1-0.3-0.2-0.7-0.2-1.1c0-0.4,0.1-0.7,0.2-1c-0.1-0.3-0.2-0.6-0.2-1c0-0.4,0.1-0.7,0.2-1c-0.1-0.3-0.2-0.7-0.2-1
				c0-0.4,0.1-0.8,0.2-1.1c-0.1-0.3-0.2-0.7-0.2-1.1c0-0.4,0.1-0.7,0.2-1c-0.1-0.3-0.2-0.7-0.2-1c0-0.8,0.4-1.6,0.9-1.8
				c-0.1,0-0.2-0.1-0.3-0.1c-0.7,0-1.3,0.8-1.3,1.9c0,0.4,0.1,0.7,0.2,1c-0.1,0.3-0.2,0.7-0.2,1c0,0.4,0.1,0.8,0.2,1.1
				c-0.1,0.3-0.2,0.7-0.2,1.1c0,0.4,0.1,0.7,0.2,1c-0.1,0.3-0.2,0.7-0.2,1c0,0.4,0.1,0.7,0.2,1c-0.1,0.3-0.2,0.6-0.2,1
				c0,0.4,0.1,0.8,0.2,1.1c-0.1,0.3-0.2,0.7-0.2,1.1c0,0.4,0.1,0.7,0.2,1c-0.1,0.3-0.2,0.7-0.2,1c0,1,0.6,1.9,1.3,1.9
				c0.1,0,0.2,0,0.3-0.1C27.6,29.3,27.2,28.6,27.2,27.7z"/>
			<path opacity="0.69" fill="#72528E" d="M60,27.7c0-0.4,0.1-0.7,0.2-1c-0.1-0.3-0.2-0.7-0.2-1c0-0.4,0.1-0.8,0.2-1.1
				c-0.1-0.3-0.2-0.7-0.2-1.1c0-0.4,0.1-0.7,0.2-1c-0.1-0.3-0.2-0.6-0.2-1c0-0.4,0.1-0.7,0.2-1c-0.1-0.3-0.2-0.7-0.2-1
				c0-0.4,0.1-0.8,0.2-1.1c-0.1-0.3-0.2-0.7-0.2-1.1c0-0.4,0.1-0.7,0.2-1c-0.1-0.3-0.2-0.7-0.2-1c0-0.8,0.4-1.6,0.9-1.8
				c-0.1,0-0.2-0.1-0.3-0.1c-0.7,0-1.3,0.8-1.3,1.9c0,0.4,0.1,0.7,0.2,1c-0.1,0.3-0.2,0.7-0.2,1c0,0.4,0.1,0.8,0.2,1.1
				c-0.1,0.3-0.2,0.7-0.2,1.1c0,0.4,0.1,0.7,0.2,1c-0.1,0.3-0.2,0.7-0.2,1c0,0.4,0.1,0.7,0.2,1c-0.1,0.3-0.2,0.6-0.2,1
				c0,0.4,0.1,0.8,0.2,1.1c-0.1,0.3-0.2,0.7-0.2,1.1c0,0.4,0.1,0.7,0.2,1c-0.1,0.3-0.2,0.7-0.2,1c0,1,0.6,1.9,1.3,1.9
				c0.1,0,0.2,0,0.3-0.1C60.4,29.3,60,28.6,60,27.7z"/>
			<path opacity="0.69" fill="#72528E" d="M34.4,32.2c0-0.7,0.1-1.3,0.3-1.8c-0.2-0.5-0.3-1.1-0.3-1.8c0-0.7,0.1-1.3,0.3-1.8
				c-0.2-0.5-0.3-1.1-0.3-1.8c0-0.6,0.1-1.2,0.2-1.7c-0.2-0.5-0.2-1-0.2-1.7c0-0.7,0.1-1.3,0.3-1.8c-0.2-0.5-0.3-1.1-0.3-1.8
				c0-0.7,0.1-1.3,0.3-1.8c-0.2-0.5-0.3-1.1-0.3-1.8c0-0.7,0.1-1.3,0.3-1.8c-0.2-0.5-0.3-1.1-0.3-1.8c0-1.4,0.5-2.7,1.2-3
				c-0.1-0.1-0.3-0.1-0.4-0.1c-0.9,0-1.6,1.4-1.6,3.2c0,0.7,0.1,1.3,0.3,1.8c-0.2,0.5-0.3,1.1-0.3,1.8c0,0.7,0.1,1.3,0.3,1.8
				c-0.2,0.5-0.3,1.1-0.3,1.8c0,0.7,0.1,1.3,0.3,1.8c-0.2,0.5-0.3,1.1-0.3,1.8c0,0.6,0.1,1.2,0.2,1.7c-0.2,0.5-0.2,1-0.2,1.7
				c0,0.7,0.1,1.3,0.3,1.8c-0.2,0.5-0.3,1.2-0.3,1.8c0,0.7,0.1,1.3,0.3,1.8c-0.2,0.5-0.3,1.1-0.3,1.8c0,1.7,0.7,3.2,1.6,3.2
				c0.2,0,0.3,0,0.4-0.1C34.9,34.8,34.4,33.6,34.4,32.2z"/>
			<path opacity="0.69" fill="#72528E" d="M51.4,32.2c0-0.7,0.1-1.3,0.3-1.8c-0.2-0.5-0.3-1.1-0.3-1.8c0-0.7,0.1-1.3,0.3-1.8
				c-0.2-0.5-0.3-1.1-0.3-1.8c0-0.6,0.1-1.2,0.2-1.7c-0.2-0.5-0.2-1-0.2-1.7c0-0.7,0.1-1.3,0.3-1.8c-0.2-0.5-0.3-1.1-0.3-1.8
				c0-0.7,0.1-1.3,0.3-1.8c-0.2-0.5-0.3-1.1-0.3-1.8c0-0.7,0.1-1.3,0.3-1.8c-0.2-0.5-0.3-1.1-0.3-1.8c0-1.4,0.5-2.7,1.2-3
				c-0.1-0.1-0.3-0.1-0.4-0.1c-0.9,0-1.6,1.4-1.6,3.2c0,0.7,0.1,1.3,0.3,1.8c-0.2,0.5-0.3,1.1-0.3,1.8c0,0.7,0.1,1.3,0.3,1.8
				c-0.2,0.5-0.3,1.1-0.3,1.8c0,0.7,0.1,1.3,0.3,1.8c-0.2,0.5-0.3,1.1-0.3,1.8c0,0.6,0.1,1.2,0.2,1.7c-0.2,0.5-0.2,1-0.2,1.7
				c0,0.7,0.1,1.3,0.3,1.8c-0.2,0.5-0.3,1.2-0.3,1.8c0,0.7,0.1,1.3,0.3,1.8c-0.2,0.5-0.3,1.1-0.3,1.8c0,1.7,0.7,3.2,1.6,3.2
				c0.2,0,0.3,0,0.4-0.1C51.8,34.8,51.4,33.6,51.4,32.2z"/>
			<path opacity="0.69" fill="#72528E" d="M39,32.6c0-0.7,0.1-1.4,0.3-1.9c-0.2-0.5-0.3-1.2-0.3-1.9c0-0.7,0.1-1.4,0.4-2
				c-0.2-0.6-0.4-1.2-0.4-2c0-0.7,0.1-1.3,0.3-1.8c-0.2-0.5-0.3-1.1-0.3-1.8c0-0.7,0.1-1.4,0.3-1.9c-0.2-0.5-0.3-1.2-0.3-1.9
				c0-0.7,0.1-1.4,0.4-2c-0.2-0.6-0.4-1.2-0.4-2c0-0.7,0.1-1.4,0.3-1.9c-0.2-0.5-0.3-1.2-0.3-1.9c0-1.6,0.6-2.9,1.4-3.3
				c-0.2-0.1-0.3-0.1-0.5-0.1c-1,0-1.9,1.5-1.9,3.4c0,0.7,0.1,1.4,0.3,1.9c-0.2,0.5-0.3,1.2-0.3,1.9c0,0.7,0.1,1.4,0.4,2
				c-0.2,0.6-0.4,1.2-0.4,2c0,0.7,0.1,1.4,0.3,1.9c-0.2,0.5-0.3,1.2-0.3,1.9c0,0.7,0.1,1.3,0.3,1.8c-0.2,0.5-0.3,1.1-0.3,1.8
				c0,0.7,0.1,1.4,0.4,2c-0.2,0.6-0.4,1.2-0.4,2c0,0.7,0.1,1.4,0.3,1.9c-0.2,0.5-0.3,1.2-0.3,1.9c0,1.9,0.8,3.4,1.9,3.4
				c0.2,0,0.4,0,0.5-0.1C39.6,35.5,39,34.1,39,32.6z"/>
			<path opacity="0.69" fill="#72528E" d="M47.5,32.6c0-0.7,0.1-1.4,0.3-1.9c-0.2-0.5-0.3-1.2-0.3-1.9c0-0.7,0.1-1.4,0.4-2
				c-0.2-0.6-0.4-1.2-0.4-2c0-0.7,0.1-1.3,0.3-1.8c-0.2-0.5-0.3-1.1-0.3-1.8c0-0.7,0.1-1.4,0.3-1.9c-0.2-0.5-0.3-1.2-0.3-1.9
				c0-0.7,0.1-1.4,0.4-2c-0.2-0.6-0.4-1.2-0.4-2c0-0.7,0.1-1.4,0.3-1.9c-0.2-0.5-0.3-1.2-0.3-1.9c0-1.6,0.6-2.9,1.4-3.3
				c-0.2-0.1-0.3-0.1-0.5-0.1c-1,0-1.9,1.5-1.9,3.4c0,0.7,0.1,1.4,0.3,1.9c-0.2,0.5-0.3,1.2-0.3,1.9c0,0.7,0.1,1.4,0.4,2
				c-0.2,0.6-0.4,1.2-0.4,2c0,0.7,0.1,1.4,0.3,1.9c-0.2,0.5-0.3,1.2-0.3,1.9c0,0.7,0.1,1.3,0.3,1.8c-0.2,0.5-0.3,1.1-0.3,1.8
				c0,0.7,0.1,1.4,0.4,2c-0.2,0.6-0.4,1.2-0.4,2c0,0.7,0.1,1.4,0.3,1.9c-0.2,0.5-0.3,1.2-0.3,1.9c0,1.9,0.8,3.4,1.9,3.4
				c0.2,0,0.4,0,0.5-0.1C48.1,35.5,47.5,34.1,47.5,32.6z"/>
			<path opacity="0.69" fill="#72528E" d="M43.3,33.5c0-0.8,0.1-1.5,0.3-2.1c-0.2-0.6-0.3-1.3-0.3-2.1c0-0.8,0.1-1.6,0.3-2.2
				c-0.2-0.6-0.3-1.4-0.3-2.2c0-0.7,0.1-1.4,0.3-2c-0.2-0.6-0.3-1.3-0.3-2c0-0.8,0.1-1.5,0.3-2.1c-0.2-0.6-0.3-1.3-0.3-2.1
				c0-0.8,0.1-1.6,0.3-2.2c-0.2-0.6-0.3-1.4-0.3-2.2c0-0.8,0.1-1.5,0.3-2.1c-0.2-0.6-0.3-1.3-0.3-2.1c0-1.7,0.5-3.2,1.2-3.6
				c-0.1-0.1-0.3-0.1-0.5-0.1c-0.9,0-1.7,1.7-1.7,3.8c0,0.8,0.1,1.5,0.3,2.1c-0.2,0.6-0.3,1.3-0.3,2.1c0,0.8,0.1,1.6,0.3,2.2
				c-0.2,0.6-0.3,1.4-0.3,2.2c0,0.8,0.1,1.5,0.3,2.1c-0.2,0.6-0.3,1.3-0.3,2.1c0,0.7,0.1,1.4,0.3,2c-0.2,0.6-0.3,1.3-0.3,2
				c0,0.8,0.1,1.6,0.3,2.2c-0.2,0.6-0.3,1.4-0.3,2.2c0,0.8,0.1,1.5,0.3,2.1c-0.2,0.6-0.3,1.3-0.3,2.1c0,2.1,0.8,3.8,1.7,3.8
				c0.2,0,0.3-0.1,0.5-0.1C43.8,36.7,43.3,35.2,43.3,33.5z"/>
		</g>
		
			<radialGradient id="SVGID_00000158011267308458472190000007187675733367544497_" cx="49.1668" cy="123.392" r="25.9308" gradientTransform="matrix(1 0 0 0.6107 0 -54.6566)" gradientUnits="userSpaceOnUse">
			<stop  offset="0" style="stop-color:#D4145A"/>
			<stop  offset="0.2157" style="stop-color:#D2175E"/>
			<stop  offset="0.4109" style="stop-color:#CC2169"/>
			<stop  offset="0.5981" style="stop-color:#C2317B"/>
			<stop  offset="0.7805" style="stop-color:#B44895"/>
			<stop  offset="0.9577" style="stop-color:#A265B6"/>
			<stop  offset="1" style="stop-color:#9D6DBF"/>
		</radialGradient>
		<path opacity="0.53" fill="url(#SVGID_00000158011267308458472190000007187675733367544497_)" d="M75.1,20.7
			c0,8.7-11.6,15.8-25.9,15.8c-14.3,0-25.9-7.1-25.9-15.8S34.8,4.9,49.2,4.9C63.5,4.9,75.1,12,75.1,20.7z"/>
		<path fill="#72528E" d="M66.6,14.7c0,0-6.5,12.7,6.7,16.3c0.5-0.4,0.9-0.8,1.3-1.2C72.8,30.6,62,28.8,66.6,14.7z"/>
		<path fill="#FFFFFF" d="M73,16.6c0,1-0.8,1.8-1.8,1.8c-1,0-1.8-0.8-1.8-1.8c0-1,0.8-1.8,1.8-1.8C72.2,14.8,73,15.6,73,16.6z"/>
		<path d="M72.6,16.5c0,0.7-0.6,1.4-1.4,1.4c-0.7,0-1.4-0.6-1.4-1.4c0-0.7,0.6-1.4,1.4-1.4C72,15.1,72.6,15.7,72.6,16.5z"/>
	</g>
	<path opacity="9.000000e-02" d="M77.7,26.1c0,0,1.8-2.1,3-3.2c0.5-0.5,0.9-1.1,0.9-1.8c0-0.7-0.1-1.5-0.5-2.1
		c-0.4-0.7-1.1-1.6-2-2.7c-3.7,4.3-23.5,25.1-53.6,9.7l-8.1-0.6v0c0,1.5,1.3,2.8,2.8,2.8h0.9c1.2,0,2.3,0.6,3.1,1.4
		C27.7,33,38.8,42,59.8,37.8C59.8,37.8,71.4,35.5,77.7,26.1z"/>
	<path opacity="0.1" fill="#F5F5F5" d="M67,7.4c0.5,0.3,0.7,1,0.3,1.4c-0.4,0.5-1.2,0.8-1.9,0.7C61,8.9,44,7.5,30.1,17.8
		c-1.4,1-3.4,0.8-4.4-0.6c-1.1-1.5-0.8-3.6,0.7-4.7C32.4,7.9,48.7-1.9,67,7.4z"/>
	<defs>
		
			<filter id="Adobe_OpacityMaskFilter_00000075128696405855026800000011968057539840477324_" filterUnits="userSpaceOnUse" x="65.3" y="11.9" width="12" height="17.4">
			<feFlood  style="flood-color:white;flood-opacity:1" result="back"/>
			<feBlend  in="SourceGraphic" in2="back" mode="normal"/>
		</filter>
	</defs>
	
		<mask maskUnits="userSpaceOnUse" x="65.3" y="11.9" width="12" height="17.4" id="SVGID_00000085946152870471501350000012029951908340465804_">
		<g filter="url(#Adobe_OpacityMaskFilter_00000075128696405855026800000011968057539840477324_)">
			<defs>
				
					<filter id="Adobe_OpacityMaskFilter_00000019666733603400548990000001939441670625954220_" filterUnits="userSpaceOnUse" x="65.3" y="11.9" width="12" height="17.4">
					<feFlood  style="flood-color:white;flood-opacity:1" result="back"/>
					<feBlend  in="SourceGraphic" in2="back" mode="normal"/>
				</filter>
			</defs>
			
				<mask maskUnits="userSpaceOnUse" x="65.3" y="11.9" width="12" height="17.4" id="SVGID_00000085946152870471501350000012029951908340465804_">
				<g filter="url(#Adobe_OpacityMaskFilter_00000019666733603400548990000001939441670625954220_)">
				</g>
			</mask>
			
				<radialGradient id="SVGID_00000163763073499025217080000013701737644108725668_" cx="71.2926" cy="20.6449" r="7.4836" gradientUnits="userSpaceOnUse">
				<stop  offset="0" style="stop-color:#ABABAB"/>
				<stop  offset="0.1546" style="stop-color:#A7A7A7"/>
				<stop  offset="0.3078" style="stop-color:#9B9B9B"/>
				<stop  offset="0.4606" style="stop-color:#878787"/>
				<stop  offset="0.6132" style="stop-color:#6B6B6B"/>
				<stop  offset="0.7657" style="stop-color:#474747"/>
				<stop  offset="0.916" style="stop-color:#1C1C1C"/>
				<stop  offset="1" style="stop-color:#000000"/>
			</radialGradient>
			
				<path mask="url(#SVGID_00000085946152870471501350000012029951908340465804_)" fill="url(#SVGID_00000163763073499025217080000013701737644108725668_)" d="
				M77.3,20.6c0,4.8-2.7,8.7-6,8.7c-3.3,0-6-3.9-6-8.7c0-4.8,2.7-8.7,6-8.7C74.6,11.9,77.3,15.8,77.3,20.6z"/>
		</g>
	</mask>
	
		<radialGradient id="SVGID_00000036950866011186788530000008323388133669201032_" cx="71.2926" cy="20.6449" r="7.4836" gradientUnits="userSpaceOnUse">
		<stop  offset="0" style="stop-color:#00FFFF"/>
		<stop  offset="0.1536" style="stop-color:#03FBFC"/>
		<stop  offset="0.3059" style="stop-color:#0AEFF5"/>
		<stop  offset="0.4578" style="stop-color:#18DBE8"/>
		<stop  offset="0.6094" style="stop-color:#2ABFD5"/>
		<stop  offset="0.7609" style="stop-color:#429BBE"/>
		<stop  offset="0.9104" style="stop-color:#5E70A1"/>
		<stop  offset="1" style="stop-color:#72528E"/>
	</radialGradient>
	<path opacity="0.4" fill="url(#SVGID_00000036950866011186788530000008323388133669201032_)" d="M77.3,20.6c0,4.8-2.7,8.7-6,8.7
		c-3.3,0-6-3.9-6-8.7c0-4.8,2.7-8.7,6-8.7C74.6,11.9,77.3,15.8,77.3,20.6z"/>
	<path fill="#72528E" d="M75.2,22.5c-4.5,0.8,2.8,0.4,5.4,0.5c0,0,0.1-0.1,0.1-0.1c0.3-0.2,0.5-0.5,0.6-0.8
		C80.9,22,79.4,21.7,75.2,22.5z"/>
</g>
</svg>
