<?xml version="1.0" encoding="utf-8"?>
<!-- Generator: Adobe Illustrator 26.0.1, SVG Export Plug-In . SVG Version: 6.00 Build 0)  -->
<svg version="1.0" id="Ebene_1" xmlns="http://www.w3.org/2000/svg" xmlns:xlink="http://www.w3.org/1999/xlink" x="0px" y="0px"
	 viewBox="0 0 237.3 200.8" enable-background="new 0 0 237.3 200.8" xml:space="preserve">
<g>
	<path fill="#FFFFFF" stroke="#000000" stroke-width="2.5" stroke-miterlimit="10" d="M217,45.8l-0.3-4.3c0.8-1.1,0.5-2.6-0.6-3.4
		c-1.1-0.8-2.6-0.5-3.4,0.6l-5.9,6.2c-0.1,0.2-42.2,33.8-78.3,49.2c-4.2,1.8-8.6,3.5-13.2,5.1c-5.1,12.1-9.9,41.2,18.3,71.9
		c0,0,0,0,0,0c17.7-10.1,33.7-22.8,46.9-38.3c21.5-25.2,39.4-76.3,42.3-78.7C224.3,52.9,221.7,48.6,217,45.8z"/>
	<path stroke="#000000" stroke-width="2.5" stroke-miterlimit="10" d="M115.3,99.2c-19.8,6.9-42.8,11.4-62.5,7.7
		c-0.2,0-1.2-0.3-1.2-0.3c-25.7-2.6-47.5,15.6-50.1,41.3c-2.6,25.7,14.9,48.8,40.6,51.5c4.4,0.4,8.8,0.2,13-0.5c0,0,0.1,0,0.2,0
		c5.1-0.9,10.1-1.9,15.1-3.1c22.1-5.4,43.7-13.5,63.2-24.6c0,0,0,0,0,0C105.3,140.3,110.2,111.3,115.3,99.2z"/>
</g>
<g>
	<g>
		<path stroke="#000000" stroke-width="2.5" stroke-miterlimit="10" d="M218.7,116c0,0.1-0.1,0.1-0.1,0.2c-2.7,3.5-7.4,2.6-9.9-0.4
			c-7.8-9.5-12.2-20.1-9.7-31.7c1.1-5.2,3.8-10.1,7.3-14.5c1.8-2.3,3.8-4.4,5.9-6.4c2.6-2.5,7.3-4.5,11.1-2.3
			c2.2,1.3,2.6,3.8,2.1,5.8c-0.8,3.3-3.7,5.6-6.1,8.1c-3.1,3.3-5.8,6.9-6.9,11c-1.1,4.3-0.2,8.8,1.6,12.9c1.7,3.9,4.6,7.5,5.5,11.7
			C220,112.3,219.8,114.4,218.7,116z"/>
	</g>
	<g>
		<path stroke="#000000" stroke-width="2.5" stroke-miterlimit="10" d="M211.5,122.3c0.1,0,0.1-0.1,0.2-0.1c4.1-1.7,7.7,1.5,8.4,5.3
			c2,12.1,0.5,23.5-7.5,32.3c-3.6,4-8.3,6.9-13.6,8.9c-2.7,1-5.5,1.9-8.3,2.6c-3.5,0.9-8.5,0.2-10.7-3.6c-1.3-2.2-0.4-4.6,1.1-6.1
			c2.3-2.5,6-3,9.3-4c4.3-1.3,8.5-3.1,11.5-6.1c3.1-3.2,4.6-7.5,5.1-12c0.5-4.2-0.2-8.8,1.1-12.9
			C208.5,124.9,209.7,123.2,211.5,122.3z"/>
	</g>
</g>
<g>
	<path stroke="#000000" stroke-width="2.5" stroke-miterlimit="10" d="M230.3,57.8c0,0.1-0.1,0.1-0.1,0.2c-2.2,3.6-6.3,2.6-8.4-0.4
		c-6.6-9.5-10.3-20.3-8.2-31.9c1-5.3,3.2-10.2,6.1-14.6c1.5-2.3,3.2-4.4,5-6.5c2.2-2.5,6.1-4.5,9.3-2.3c1.9,1.3,2.2,3.8,1.8,5.9
		c-0.6,3.4-3.1,5.6-5.1,8.2c-2.6,3.3-4.9,7-5.8,11.1c-0.9,4.4-0.1,8.9,1.3,13c1.4,4,3.8,7.6,4.7,11.8
		C231.4,54,231.3,56.1,230.3,57.8z"/>
</g>
<path fill="none" stroke="#FFFFFF" stroke-width="2.5" stroke-miterlimit="10" d="M209.6,74.8c-3.2,4.3-5,9.3-5.3,14.3
	c-0.2,2.5,0,5.1,0.6,7.5c0.3,1.3,0.7,2.5,1.2,3.8"/>
<path fill="none" stroke="#FFFFFF" stroke-width="2.5" stroke-miterlimit="10" d="M198.2,164.4c4.9-2.1,9-5.5,11.8-9.7
	c1.4-2.1,2.5-4.4,3.3-6.8c0.4-1.2,0.7-2.5,0.9-3.8"/>
<path fill="none" stroke="#FFFFFF" stroke-width="2.5" stroke-miterlimit="10" d="M228.1,7.3c-4.1,3.4-7,7.8-8.5,12.6
	c-0.8,2.4-1.2,4.9-1.2,7.5c0,1.3,0.1,2.6,0.2,3.9"/>
<g>
	<g>
		<path fill="#FFFFFF" stroke="#000000" stroke-width="2.5" stroke-miterlimit="10" d="M222.6,52.8c1.1,1.6,5.3,4.4,10.2,0.1
			c4.7-7.2-0.3-15.1-3-18.5c-0.8-1-2.1-1.5-3.4-1.2c-1.5,0.4-3.1,0.6-4.7,1c-1,0.2-2.1,0.7-3.2,1.5c-1.1,0.7-1.5,1.6-1.5,2.5
			c-0.2,1.6,1.1,4.2,1.1,4.6C218.2,43.4,220.3,49.4,222.6,52.8z"/>
	</g>
</g>
</svg>
