<?xml version="1.0" encoding="utf-8"?>
<!-- Generator: Adobe Illustrator 26.0.1, SVG Export Plug-In . SVG Version: 6.00 Build 0)  -->
<svg version="1.0" id="Ebene_1" xmlns="http://www.w3.org/2000/svg" xmlns:xlink="http://www.w3.org/1999/xlink" x="0px" y="0px"
	 viewBox="0 0 164.9 166.1" enable-background="new 0 0 164.9 166.1" xml:space="preserve">
<g id="XMLID_2488_">
	<g id="XMLID_2516_">
		
			<ellipse id="XMLID_2519_" transform="matrix(0.2298 -0.9732 0.9732 0.2298 -17.3187 144.2401)" fill="#FFC80A" cx="82.5" cy="83.1" rx="55.8" ry="55.8"/>
		<g id="XMLID_2517_" opacity="0.17">
			<path id="XMLID_2518_" fill="#22231E" d="M60.6,134.4c6.7,2.9,14.1,4.4,21.8,4.4c30.8,0,55.8-25,55.8-55.8
				c0-9.2-2.3-17.9-6.2-25.5C118.5,91.1,92.9,118.5,60.6,134.4z"/>
		</g>
	</g>
	<g id="XMLID_2489_">
		<g id="XMLID_2514_">
			<path id="XMLID_2515_" fill="#FFDB06" d="M138.6,83.1c0,0,1.7,0.8,4.4,2.2c2.6,1.4,6.3,3.6,9.5,6.1c3.3,2.5,6.5,5.4,8.8,7.7
				c2.2,2.3,3.6,4,3.6,4s-8.1,3.3-16.5,4.6c-4,0.7-8.2,1-11.2,1c-3,0-4.9-0.1-4.9-0.1s0.7-1.5,1.8-3.7c0.9-2.3,2.2-5.4,2.8-8.6
				c0.5-1.6,0.7-3.2,0.9-4.8c0.2-1.5,0.5-3,0.5-4.2C138.6,84.7,138.6,83.1,138.6,83.1z"/>
		</g>
		<g id="XMLID_2512_">
			<path id="XMLID_2513_" fill="#FFDB06" d="M132.3,108.6c0,0,1.3,1.6,2.9,4c1.6,2.5,3.8,6,5.5,9.8c1.7,3.7,3.2,7.7,4.2,10.9
				c0.9,3.1,1.4,5.2,1.4,5.2s-8.7-0.9-16.7-3.6c-3.9-1.2-7.7-2.9-10.4-4.3c-2.7-1.4-4.4-2.4-4.4-2.4s1.3-1,3.3-2.5
				c1.9-1.6,4.4-3.8,6.6-6.3c1.2-1.2,2.1-2.5,3.1-3.8c0.5-0.6,0.9-1.2,1.4-1.8c0.4-0.6,0.7-1.2,1-1.7c0.6-1.1,1.2-1.9,1.6-2.6
				C132.2,109,132.3,108.6,132.3,108.6z"/>
		</g>
		<g id="XMLID_2510_">
			<path id="XMLID_2511_" fill="#FFDB06" d="M114.9,128.3c0,0,0.1,0.5,0.2,1.4c0.1,0.8,0.3,2.1,0.4,3.5c0.3,2.9,0.6,7.1,0.4,11.3
				c-0.2,4.1-0.7,8.4-1.3,11.6c-0.6,3.1-1.2,5.2-1.2,5.2s-7.4-4.8-13.1-11c-2.9-2.9-5.4-6.1-7.2-8.6c-1.8-2.5-2.8-4.1-2.8-4.1
				s1.6-0.2,4.1-0.6c2.4-0.6,5.7-1.3,8.7-2.6c1.6-0.5,3.1-1.2,4.5-1.9c1.4-0.6,2.7-1.3,3.7-2c1.1-0.6,2-1.2,2.6-1.6
				C114.6,128.5,114.9,128.3,114.9,128.3z"/>
		</g>
		<g id="XMLID_2508_">
			<path id="XMLID_2509_" fill="#FFDB06" d="M90.3,137.5c0,0-0.6,2-1.7,4.7c-1.1,2.7-2.8,6.4-4.9,10.2c-2.1,3.5-4.5,7-6.6,9.6
				c-2,2.6-3.5,4.2-3.5,4.2s-1.1-2-2.4-4.9c-1.4-2.9-2.9-6.8-4.1-10.9c-1.2-4-2-7.9-2.4-11c-0.4-3-0.5-5-0.5-5s0.4,0.1,1.1,0.4
				c0.7,0.2,1.6,0.7,2.8,1c1.2,0.3,2.6,0.7,4.1,1.1c1.5,0.3,3.2,0.5,4.8,0.8c3.3,0.3,6.6,0.6,9.1,0.3c1.2-0.1,2.3-0.1,3-0.1
				C89.9,137.6,90.3,137.5,90.3,137.5z"/>
		</g>
		<g id="XMLID_2506_">
			<path id="XMLID_2507_" fill="#FFDB06" d="M64.3,134.4c0,0-1.4,1.4-3.7,3.4c-2.3,1.9-5.5,4.3-9,6.6c-3.5,2.3-7.3,4.1-10.3,5.4
				c-1.5,0.7-2.8,1.2-3.7,1.6c-0.9,0.3-1.4,0.5-1.4,0.5s0-2.2,0.2-5.5c0.2-3.2,0.6-7.4,1.5-11.6c0.9-4.1,1.9-7.9,3-10.8
				c1.1-2.9,1.9-4.6,1.9-4.6s0.3,0.3,0.8,0.8c0.5,0.5,1.1,1.4,2.1,2.2c0.9,0.8,2,1.8,3.1,2.9c1.2,0.9,2.6,1.9,3.9,2.9
				c2.8,1.8,5.6,3.5,7.9,4.5c1.1,0.5,2,1,2.7,1.2C63.9,134.2,64.3,134.4,64.3,134.4z"/>
		</g>
		<g id="XMLID_2504_">
			<path id="XMLID_2505_" fill="#FFDB06" d="M42.7,119.4c0,0-1.9,0.6-4.9,1.3c-2.9,0.6-6.9,1.3-11.1,1.7c-4.2,0.3-8.3,0.2-11.6,0.1
				c-3.3-0.2-5.4-0.5-5.4-0.5s1-2,2.7-4.8c1.6-2.8,3.9-6.3,6.7-9.6c2.7-3.3,5.3-6.1,7.7-8.2c2.3-2,3.8-3.2,3.8-3.2s0.1,0.4,0.3,1.1
				c0.2,0.7,0.3,1.7,0.8,2.9c0.4,1.2,0.9,2.5,1.5,4c0.7,1.4,1.4,2.9,2.1,4.4c1.6,2.9,3.3,5.7,4.9,7.7
				C41.4,118.3,42.7,119.4,42.7,119.4z"/>
		</g>
		<g id="XMLID_2502_">
			<path id="XMLID_2503_" fill="#FFDB06" d="M30.5,96.2c0,0-1.9-0.3-4.9-1.1c-2.8-0.8-6.7-2-10.6-3.7C11,89.8,7.5,87.7,4.6,86
				c-2.8-1.7-4.6-3-4.6-3s1.9-1.3,4.6-3c2.8-1.7,6.4-3.7,10.3-5.4c3.9-1.6,7.7-2.9,10.6-3.7c3-0.8,4.9-1.1,4.9-1.1s-0.1,0.4-0.3,1.1
				c-0.2,0.7-0.4,1.7-0.5,3c-0.1,1.2-0.5,2.7-0.6,4.2c-0.1,1.6-0.2,3.2-0.3,4.9c0.1,1.7,0.2,3.3,0.3,4.9c0.1,1.6,0.4,3,0.6,4.2
				c0.2,1.2,0.3,2.3,0.5,3C30.3,95.8,30.5,96.2,30.5,96.2z"/>
		</g>
		<g id="XMLID_2500_">
			<path id="XMLID_2501_" fill="#FFDB06" d="M30.5,69.9c0,0-1.5-1.2-3.8-3.2c-2.4-2.1-5-4.9-7.7-8.2c-2.7-3.3-5-6.8-6.7-9.6
				c-1.7-2.8-2.7-4.8-2.7-4.8s2.1-0.3,5.4-0.5c3.3-0.2,7.5-0.3,11.6,0.1c4.2,0.4,8.2,1,11.1,1.7c3,0.7,4.9,1.3,4.9,1.3
				s-1.2,1.1-2.6,3.2c-1.6,1.9-3.3,4.8-4.9,7.7c-0.7,1.5-1.4,3-2.1,4.4c-0.5,1.5-1,2.8-1.5,4c-0.5,1.1-0.6,2.2-0.8,2.9
				C30.6,69.5,30.5,69.9,30.5,69.9z"/>
		</g>
		<g id="XMLID_2498_">
			<path id="XMLID_2499_" fill="#FFDB06" d="M42.7,46.7c0,0-0.8-1.8-1.9-4.6c-1.1-2.9-2.1-6.7-3-10.8c-0.9-4.2-1.3-8.3-1.5-11.6
				c-0.2-3.2-0.2-5.5-0.2-5.5s0.5,0.2,1.4,0.5c0.9,0.4,2.2,0.9,3.7,1.6c3,1.4,6.7,3.2,10.3,5.4c3.6,2.3,6.8,4.7,9,6.6
				c2.3,2,3.7,3.4,3.7,3.4s-0.4,0.1-1.1,0.4c-0.7,0.2-1.6,0.7-2.7,1.2c-2.3,1-5.1,2.7-7.9,4.5c-1.3,1-2.7,2-3.9,2.9
				c-1.2,1-2.2,2-3.1,2.9c-1,0.8-1.6,1.7-2.1,2.2C42.9,46.4,42.7,46.7,42.7,46.7z"/>
		</g>
		<g id="XMLID_2496_">
			<path id="XMLID_2497_" fill="#FFDB06" d="M64.3,31.8c0,0,0.1-2,0.5-5c0.4-3.1,1.2-6.9,2.4-11c1.1-4.1,2.7-8,4.1-10.9
				C72.6,2,73.6,0,73.6,0s1.5,1.5,3.5,4.2c2,2.6,4.5,6.1,6.6,9.6c2.1,3.7,3.8,7.4,4.9,10.2c1.1,2.7,1.7,4.7,1.7,4.7
				s-0.4-0.1-1.1-0.2c-0.7,0-1.8-0.1-3-0.1c-2.5-0.3-5.8,0-9.1,0.3c-1.6,0.3-3.3,0.5-4.8,0.8c-1.5,0.4-2.9,0.8-4.1,1.1
				c-1.2,0.3-2.1,0.8-2.8,1C64.6,31.6,64.3,31.8,64.3,31.8z"/>
		</g>
		<g id="XMLID_2494_">
			<path id="XMLID_2495_" fill="#FFDB06" d="M90.3,28.6c0,0,1-1.7,2.8-4.1c1.8-2.5,4.3-5.7,7.2-8.6c5.7-6.2,13.1-11,13.1-11
				s0.6,2.1,1.2,5.2c0.6,3.3,1.1,7.5,1.3,11.6c0.2,4.1-0.1,8.3-0.4,11.3c-0.1,1.5-0.3,2.7-0.4,3.5c-0.2,0.9-0.2,1.4-0.2,1.4
				s-0.3-0.3-0.9-0.6c-0.6-0.4-1.5-0.9-2.6-1.6c-1-0.7-2.3-1.3-3.7-2c-1.4-0.7-2.9-1.4-4.5-1.9c-3.1-1.3-6.3-1.9-8.7-2.6
				C92,28.8,90.3,28.6,90.3,28.6z"/>
		</g>
		<g id="XMLID_2492_">
			<path id="XMLID_2493_" fill="#FFDB06" d="M114.9,37.9c0,0,1.7-1,4.4-2.4c2.7-1.4,6.5-3.1,10.4-4.3c7.9-2.8,16.7-3.6,16.7-3.6
				s-0.5,2.1-1.4,5.2c-1,3.1-2.5,7.2-4.2,10.9c-1.7,3.8-3.9,7.3-5.5,9.8c-1.6,2.5-2.9,4-2.9,4s-0.1-0.4-0.5-1
				c-0.4-0.6-0.9-1.5-1.6-2.6c-0.3-0.5-0.7-1.1-1-1.7c-0.4-0.6-0.9-1.2-1.4-1.8c-0.9-1.3-1.9-2.6-3.1-3.8c-2.1-2.6-4.7-4.7-6.6-6.3
				C116.2,38.9,114.9,37.9,114.9,37.9z"/>
		</g>
		<g id="XMLID_2490_">
			<path id="XMLID_2491_" fill="#FFDB06" d="M132.3,57.6c0,0,1.9-0.1,4.9-0.1c3,0,7.2,0.3,11.2,1c8.3,1.2,16.5,4.6,16.5,4.6
				s-1.4,1.7-3.6,4c-2.3,2.3-5.6,5.2-8.8,7.7c-3.2,2.5-6.9,4.7-9.5,6.1c-2.6,1.4-4.4,2.2-4.4,2.2s-0.1-1.7-0.2-4.2
				c0-1.3-0.3-2.7-0.5-4.2c-0.2-1.5-0.4-3.2-0.9-4.8c-0.7-3.2-2-6.3-2.8-8.6C133.1,59,132.3,57.6,132.3,57.6z"/>
		</g>
	</g>
</g>
</svg>
