<?xml version="1.0" encoding="utf-8"?>
<!-- Generator: Adobe Illustrator 26.0.1, SVG Export Plug-In . SVG Version: 6.00 Build 0)  -->
<svg version="1.0" id="Ebene_1" xmlns="http://www.w3.org/2000/svg" xmlns:xlink="http://www.w3.org/1999/xlink" x="0px" y="0px"
	 viewBox="0 0 2000 600" enable-background="new 0 0 2000 600" xml:space="preserve">
<path fill="#BBD7F0" d="M1854.2,95.2c-225.1,72.7-462.4-42.1-695.8-80.3c-254.9-41.7-516.3,9.6-762.8,86.6
	c-117.2,36.6-234,79.3-356.2,91.6c-13.2,1.3-26.3,2.3-39.4,2.9v325.5c34.9-5.3,69.8-11.7,104.8-19.5c134.4-30.1,266.6-75,404.1-83.1
	c281.1-16.6,546.7,120.9,824.7,165.4c158.3,25.4,321.5,20.2,477.9-15.2c65.8-14.9,132.8-36.7,188.5-73.5V61.3
	C1953,56.8,1901.6,79.9,1854.2,95.2z"/>
</svg>
