<?xml version="1.0" encoding="utf-8"?>
<!-- Generator: Adobe Illustrator 26.0.1, SVG Export Plug-In . SVG Version: 6.00 Build 0)  -->
<svg version="1.0" id="Layer_1" xmlns="http://www.w3.org/2000/svg" xmlns:xlink="http://www.w3.org/1999/xlink" x="0px" y="0px"
	 viewBox="0 0 291 28.3" enable-background="new 0 0 291 28.3" xml:space="preserve">
<g>
	<path d="M0,1h8.3v19.9h10.3v6.7H0V1z"/>
	<path d="M51.4,14c0,6.7-4,14.4-14.4,14.4c-10.9,0-14.2-8.1-14.2-14.1C22.8,6.7,27.6,0,37.1,0C47.7,0,51.4,7.7,51.4,14z M31.3,14.3
		c0,4.7,1.8,7.4,5.8,7.4c3.4,0,5.7-2.7,5.7-7.7c0-1.3-0.1-2.4-0.5-3.5c-1.2-3.7-4.5-3.8-5.2-3.8C34.1,6.7,31.3,8.7,31.3,14.3z"/>
	<path d="M83.1,20.7c-0.7,1.3-1.4,2.5-2.6,3.8c-2.7,2.7-6.5,3.9-10.3,3.9c-9.5,0-13.8-7.2-13.8-14C56.4,7.3,61.2,0,70.2,0
		c4,0,7.9,1.5,10.7,4.3c1.2,1.2,1.7,2,2.2,3.1l-7,3.5c-0.7-1.6-1.9-4.4-5.5-4.4c-1.8,0-3,0.9-3.6,1.5c-2,1.9-2,5-2,6
		c0,4,1.5,7.7,5.6,7.7c3.9,0,5-3.5,5.3-4.4L83.1,20.7z"/>
	<path d="M149.3,1h13.2c2.5,0,5,0.2,6.5,0.9c3.5,1.6,4.6,5.1,4.6,7.7c0,1-0.1,3.4-2,5.3c-1.1,1.2-2.1,1.6-3.4,2l6.5,10.7h-9.3
		l-5.1-9.4h-2.5v9.4h-8.4L149.3,1L149.3,1z M157.7,6.6v6.2h3.5c1.4,0,4.1-0.1,4.1-3.1s-2.6-3.1-4.1-3.1
		C161.2,6.6,157.7,6.6,157.7,6.6z"/>
	<polygon points="129.8,6.8 142.4,6.8 142.4,1 121.3,1 121.3,10.7 129.8,10.7 	"/>
	<rect x="129.8" y="10.7" width="11.7" height="6.7"/>
	<polygon points="129.8,21.7 129.8,17.3 121.3,17.3 121.3,27.6 143.6,27.6 143.6,21.7 	"/>
	<g>
		<rect x="104.9" y="1" width="8.4" height="9.7"/>
		<rect x="104.9" y="17.3" width="8.4" height="10.2"/>
		<polygon points="96.9,10.7 96.9,1 88.5,1 88.5,27.6 96.9,27.6 96.9,17.3 104.9,17.3 104.9,10.7 		"/>
	</g>
</g>
<g>
	<path d="M192.2,27.2h-3V1.4h14.4v2.7h-11.4v9.5h10.7v2.6h-10.7V27.2z"/>
	<path d="M233.6,14.3c0,2-0.3,3.8-0.8,5.4c-0.5,1.6-1.3,3-2.3,4.2s-2.2,2.1-3.7,2.7c-1.5,0.6-3.2,1-5.1,1c-2,0-3.8-0.3-5.2-1
		c-1.5-0.6-2.7-1.5-3.7-2.7c-1-1.2-1.7-2.6-2.2-4.2c-0.5-1.6-0.7-3.5-0.7-5.4c0-2.6,0.4-5,1.3-6.9c0.9-2,2.2-3.5,4-4.6
		c1.8-1.1,4-1.7,6.7-1.7c2.6,0,4.7,0.5,6.5,1.6c1.8,1.1,3.1,2.6,4,4.6C233.1,9.2,233.6,11.6,233.6,14.3z M213,14.3
		c0,2.2,0.3,4.1,0.9,5.7c0.6,1.6,1.6,2.8,2.9,3.7c1.3,0.9,2.9,1.3,4.9,1.3c2,0,3.6-0.4,4.9-1.3c1.3-0.9,2.2-2.1,2.8-3.7
		c0.6-1.6,0.9-3.5,0.9-5.7c0-3.3-0.7-5.9-2.1-7.8c-1.4-1.9-3.6-2.8-6.5-2.8c-2,0-3.7,0.4-4.9,1.3c-1.3,0.9-2.3,2.1-2.9,3.7
		C213.3,10.2,213,12.1,213,14.3z"/>
	<path d="M263.3,14.3c0,2-0.3,3.8-0.8,5.4c-0.5,1.6-1.3,3-2.3,4.2c-1,1.2-2.2,2.1-3.7,2.7c-1.5,0.6-3.2,1-5.1,1c-2,0-3.8-0.3-5.2-1
		c-1.5-0.6-2.7-1.5-3.7-2.7c-1-1.2-1.7-2.6-2.2-4.2c-0.5-1.6-0.7-3.5-0.7-5.4c0-2.6,0.4-5,1.3-6.9c0.9-2,2.2-3.5,4-4.6
		c1.8-1.1,4-1.7,6.7-1.7c2.6,0,4.7,0.5,6.5,1.6c1.8,1.1,3.1,2.6,4,4.6S263.3,11.6,263.3,14.3z M242.7,14.3c0,2.2,0.3,4.1,0.9,5.7
		c0.6,1.6,1.6,2.8,2.9,3.7c1.3,0.9,2.9,1.3,4.9,1.3c2,0,3.6-0.4,4.9-1.3c1.3-0.9,2.2-2.1,2.8-3.7c0.6-1.6,0.9-3.5,0.9-5.7
		c0-3.3-0.7-5.9-2.1-7.8c-1.4-1.9-3.6-2.8-6.5-2.8c-2,0-3.7,0.4-4.9,1.3c-1.3,0.9-2.3,2.1-2.9,3.7C243,10.2,242.7,12.1,242.7,14.3z"
		/>
	<path d="M291,14.1c0,2.9-0.5,5.3-1.6,7.3c-1.1,2-2.6,3.4-4.6,4.4c-2,1-4.4,1.5-7.3,1.5h-7V1.4h7.8c2.6,0,4.9,0.5,6.8,1.4
		c1.9,1,3.4,2.4,4.4,4.3C290.5,9,291,11.3,291,14.1z M287.8,14.2c0-2.3-0.4-4.2-1.2-5.7c-0.8-1.5-1.9-2.6-3.4-3.4
		c-1.5-0.7-3.3-1.1-5.5-1.1h-4.3v20.7h3.7c3.6,0,6.2-0.9,8-2.6C286.9,20.3,287.8,17.7,287.8,14.2z"/>
</g>
</svg>
