<?xml version="1.0" encoding="utf-8"?>
<!-- Generator: Adobe Illustrator 26.0.1, SVG Export Plug-In . SVG Version: 6.00 Build 0)  -->
<svg version="1.0" id="Ebene_1" xmlns="http://www.w3.org/2000/svg" xmlns:xlink="http://www.w3.org/1999/xlink" x="0px" y="0px"
	 viewBox="0 0 937.3 645.9" enable-background="new 0 0 937.3 645.9" xml:space="preserve">
<g>
	<g>
		<path d="M1.3,434.4c-0.3-1,0.2-2,1.2-2.3l76.8-24.4c28.2-9,51.2-10.8,69-5.4c17.8,5.3,29.8,17.5,35.8,36.5
			c3.5,11,3.8,21.2,1.1,30.6c-2.8,9.4-8.6,17.6-17.6,24.5c12.3-0.7,22.8,1.9,31.5,7.9c8.6,6,14.8,14.8,18.4,26.2
			c6.6,20.8,4.7,38.5-5.5,53.3c-10.3,14.8-28.7,26.5-55.3,35.1l-88.8,28.3L1.3,434.4z M92.1,537.8l16.1,50.8l34.6-11
			c9.5-3,16.2-7.5,19.9-13.3c3.8-5.8,4.4-12.6,2-20.3c-5.6-17.7-17.5-23.7-35.7-18L92.1,537.8z M81.5,504.3l27.5-8.7
			c11.5-3.8,19.1-8.4,22.7-14c3.6-5.6,4.2-12.2,1.8-20c-2.8-9-7.5-14.6-14.1-16.8c-6.6-2.3-15.8-1.5-27.6,2.3l-25.9,8.2L81.5,504.3z
			"/>
		<path d="M68.2,645.8c-0.3,0.1-0.6,0.1-0.9-0.1c-0.3-0.1-0.5-0.4-0.6-0.7L0.1,434.8c0,0,0,0,0,0c-0.5-1.6,0.4-3.3,2-3.8L79,406.5
			c28.3-9,51.7-10.8,69.7-5.4c18.2,5.4,30.5,18,36.6,37.3c3.5,11.1,3.9,21.7,1.1,31.3c-2.5,8.6-7.7,16.3-15.3,22.9
			c11.1-0.1,20.7,2.7,28.7,8.3c8.8,6.1,15.2,15.2,18.8,26.8c6.7,21,4.7,39.3-5.7,54.3c-10.4,14.9-29.2,26.9-55.9,35.6L68.2,645.8z
			 M68.6,643.3l87.7-27.9c26.2-8.5,44.6-20.2,54.7-34.7c10-14.4,11.8-32,5.4-52.3c-3.5-11.2-9.6-19.8-18-25.6
			c-8.4-5.8-18.7-8.4-30.7-7.7c-0.5,0-1-0.3-1.2-0.8c-0.2-0.5,0-1,0.4-1.3c8.7-6.7,14.5-14.8,17.2-23.9c2.7-9.2,2.3-19.2-1.1-29.9
			c-5.9-18.6-17.7-30.6-35-35.8c-17.5-5.2-40.5-3.4-68.3,5.4L2.8,433.2c-0.4,0.1-0.6,0.5-0.5,0.9L68.6,643.3z M143.1,578.7l-34.6,11
			c-0.3,0.1-0.6,0.1-0.9-0.1c-0.3-0.1-0.5-0.4-0.6-0.7L91,538.1c-0.2-0.6,0.1-1.3,0.8-1.5l37-11.8c18.8-5.9,31.3,0.4,37.1,18.8
			c2.5,8,1.8,15.1-2.1,21.3C159.8,571,152.8,575.6,143.1,578.7z M108.9,587.1l33.5-10.6c9.2-2.9,15.7-7.2,19.3-12.8
			c3.6-5.5,4.2-12,1.9-19.3c-5.4-17.1-16.6-22.7-34.2-17.2l-35.9,11.4L108.9,587.1z M81.8,505.4c-0.3,0.1-0.6,0.1-0.9-0.1
			c-0.3-0.1-0.5-0.4-0.6-0.7l-15.5-49.1c-0.2-0.6,0.1-1.3,0.8-1.5l25.9-8.2c12-3.8,21.5-4.6,28.3-2.2c6.9,2.4,11.9,8.3,14.8,17.6
			c2.6,8.1,1.9,15.2-1.9,21c-3.8,5.8-11.6,10.6-23.3,14.4L81.8,505.4z M82.2,502.8l26.4-8.4c11.2-3.7,18.6-8.2,22.1-13.5
			c3.4-5.2,4-11.6,1.6-19c-2.7-8.5-7.2-14-13.4-16.1c-6.3-2.2-15.3-1.4-26.8,2.3L67.4,456L82.2,502.8z"/>
	</g>
	<g>
		<path fill="#FFFFFF" d="M81.7,639L14.9,428.1l78.6-25c28.2-9,51.2-10.8,69-5.5c17.8,5.3,29.7,17.4,35.7,36.3
			c3.5,10.9,3.8,21.1,1,30.4c-2.8,9.4-8.6,17.5-17.6,24.4c12.3-0.7,22.8,1.9,31.4,7.9c8.6,6,14.7,14.7,18.3,26.1
			c6.5,20.7,4.7,38.4-5.6,53.1c-10.3,14.7-28.7,26.4-55.3,35.1L81.7,639z M106.1,532.6l16,50.6l34.6-11c9.5-3,16.2-7.5,20-13.3
			c3.8-5.8,4.5-12.6,2-20.2c-5.6-17.6-17.4-23.5-35.6-17.9L106.1,532.6z M95.5,499.3l27.5-8.7c11.5-3.8,19.1-8.4,22.7-13.9
			c3.7-5.5,4.3-12.2,1.8-19.9c-2.8-8.9-7.5-14.5-14.1-16.7c-6.6-2.2-15.7-1.5-27.6,2.3l-25.9,8.2L95.5,499.3z"/>
		<path d="M82.1,640.2c-0.3,0.1-0.6,0.1-0.9-0.1c-0.3-0.1-0.5-0.4-0.6-0.7L13.8,428.5c-0.2-0.6,0.1-1.3,0.8-1.5l78.6-25
			c28.3-9,51.7-10.8,69.7-5.5c18.1,5.4,30.4,17.8,36.5,37.1c3.5,11.1,3.9,21.6,1,31.1c-2.5,8.6-7.7,16.3-15.3,22.8
			c11.1-0.1,20.7,2.7,28.7,8.2c8.8,6.1,15.1,15.1,18.8,26.7c6.6,20.9,4.7,39.1-5.8,54.1c-10.4,14.8-29.2,26.8-55.9,35.5L82.1,640.2z
			 M82.5,637.6l87.7-27.9c26.2-8.5,44.6-20.2,54.7-34.6c10-14.3,11.9-31.8,5.5-52c-3.5-11.1-9.5-19.7-17.9-25.5
			c-8.4-5.8-18.7-8.4-30.7-7.7c-0.5,0-1-0.3-1.2-0.8c-0.2-0.5,0-1,0.4-1.3c8.7-6.7,14.5-14.7,17.2-23.8c2.7-9.1,2.3-19.1-1-29.8
			c-5.8-18.4-17.6-30.4-35-35.5c-17.5-5.2-40.5-3.3-68.3,5.5l-77.5,24.6L82.5,637.6z M157,573.3l-34.6,11c-0.3,0.1-0.6,0.1-0.9-0.1
			c-0.3-0.1-0.5-0.4-0.6-0.7L105,533c-0.2-0.6,0.1-1.3,0.8-1.5l37-11.8c18.8-5.9,31.3,0.4,37.1,18.6c2.5,7.9,1.8,15.1-2.2,21.2
			C173.7,565.5,166.8,570.2,157,573.3z M122.9,581.7l33.5-10.6c9.2-2.9,15.7-7.2,19.3-12.8c3.6-5.5,4.2-12,1.9-19.2
			c-5.4-17-16.6-22.6-34.1-17.1l-35.9,11.4L122.9,581.7z M95.9,500.4c-0.3,0.1-0.6,0.1-0.9-0.1c-0.3-0.1-0.5-0.4-0.6-0.7L79,450.8
			c-0.2-0.6,0.1-1.3,0.8-1.5l25.9-8.2c12-3.8,21.5-4.6,28.3-2.3c6.9,2.4,11.9,8.2,14.8,17.5c2.6,8.1,1.9,15.1-1.9,20.9
			c-3.8,5.7-11.6,10.6-23.3,14.4L95.9,500.4z M96.3,497.8l26.4-8.4c11.2-3.7,18.6-8.2,22.1-13.5c3.4-5.2,4-11.6,1.7-18.9
			c-2.7-8.5-7.2-13.9-13.3-16c-6.3-2.1-15.3-1.4-26.8,2.3l-24.7,7.9L96.3,497.8z"/>
	</g>
	<path d="M157,573.3l-34.6,11c-0.3,0.1-0.6,0.1-0.9-0.1c-0.3-0.1-0.5-0.4-0.6-0.7L105,533c-0.2-0.6,0.1-1.3,0.8-1.5l37-11.8
		c18.8-5.9,31.3,0.4,37.1,18.6c2.5,7.9,1.8,15.1-2.2,21.2C173.7,565.5,166.8,570.2,157,573.3z M122.9,581.7l33.5-10.6
		c9.2-2.9,15.7-7.2,19.3-12.8c3.6-5.5,4.2-12,1.9-19.2c-5.4-17-16.6-22.6-34.1-17.1l-35.9,11.4L122.9,581.7z M95.9,500.4
		c-0.3,0.1-0.6,0.1-0.9-0.1c-0.3-0.1-0.5-0.4-0.6-0.7L79,450.8c-0.2-0.6,0.1-1.3,0.8-1.5l25.9-8.2c12-3.8,21.5-4.6,28.3-2.3
		c6.9,2.4,11.9,8.2,14.8,17.5c2.6,8.1,1.9,15.1-1.9,20.9c-3.8,5.7-11.6,10.6-23.3,14.4L95.9,500.4z M96.3,497.8l26.4-8.4
		c11.2-3.7,18.6-8.2,22.1-13.5c3.4-5.2,4-11.6,1.7-18.9c-2.7-8.5-7.2-13.9-13.3-16c-6.3-2.1-15.3-1.4-26.8,2.3l-24.7,7.9L96.3,497.8
		z"/>
</g>
<g>
	<g>
		<path d="M769.1,204.3L748.8,14.2c-0.1-1.3,0.8-2.5,2.1-2.6l63.5-6.9c18.1-2,34.7,0.2,50,6.6c15.3,6.3,27.7,16.2,37.3,29.8
			c9.6,13.5,15.5,29.2,17.5,47l1,9.1c1.9,18-0.3,34.6-6.7,49.8c-6.4,15.2-16.3,27.5-29.8,37.2c-13.5,9.6-29.1,15.4-46.8,17.4
			l-62.7,6.8C771.6,208.5,769.4,206.7,769.1,204.3z M801.7,43.1L815,166.9l17.1-1.9c14.1-1.5,24.5-7.6,31-18.1
			c6.5-10.5,8.8-25.3,6.7-44.4L869,94c-2-19-7.4-33-16-41.8c-8.6-8.8-20.2-12.5-34.7-10.9L801.7,43.1z"/>
		<path d="M774.2,209.4c-1.5,0.2-3-0.3-4.2-1.2c-1.2-1-1.9-2.3-2.1-3.8L747.6,14.3c-0.2-1.9,1.2-3.7,3.1-3.9l63.5-6.9
			c18.2-2,35.2,0.3,50.6,6.6c15.4,6.4,28.1,16.5,37.8,30.2c9.7,13.6,15.7,29.6,17.7,47.6l1,9.1c1.9,18.2-0.3,35.1-6.8,50.4
			c-6.4,15.3-16.6,28-30.2,37.7c-13.6,9.7-29.5,15.6-47.3,17.7L774.2,209.4z M751,12.7c-0.7,0.1-1.2,0.7-1.1,1.3l20.3,190.1
			c0.1,0.9,0.5,1.7,1.2,2.3c0.7,0.6,1.6,0.8,2.5,0.7l62.7-6.8c17.4-2,32.9-7.8,46.2-17.2c13.3-9.5,23.2-21.8,29.4-36.7
			c6.3-14.9,8.5-31.4,6.6-49.2l-1-9.1c-2-17.6-7.8-33.2-17.3-46.5c-9.5-13.3-21.9-23.1-36.8-29.4c-15-6.2-31.6-8.4-49.4-6.5
			L751,12.7z M769.1,204.3L769.1,204.3L769.1,204.3z M832.2,166.2l-17.1,1.9c-0.3,0-0.6-0.1-0.9-0.3c-0.2-0.2-0.4-0.5-0.4-0.8
			L800.6,43.3c-0.1-0.6,0.4-1.2,1-1.3l16.6-1.8c14.8-1.6,26.8,2.2,35.6,11.2c8.8,9,14.2,23.3,16.3,42.5l0.9,8.5
			c2.1,19.3-0.3,34.5-6.9,45.2C857.4,158.4,846.7,164.6,832.2,166.2z M816,165.6l16-1.7c13.7-1.5,23.8-7.4,30.2-17.5
			c6.4-10.2,8.6-24.9,6.6-43.7l-0.9-8.5c-2-18.7-7.3-32.5-15.7-41.1c-8.3-8.5-19.7-12.1-33.7-10.5L803,44.2L816,165.6z"/>
	</g>
	<g>
		<path fill="#FFFFFF" d="M784.9,205.9L763.9,9l65.8-7.1c18.1-2,34.7,0.2,50,6.6c15.3,6.3,27.7,16.2,37.3,29.8
			c9.6,13.5,15.5,29.2,17.5,47l1,9.1c1.9,18-0.3,34.6-6.7,49.8c-6.4,15.2-16.3,27.5-29.8,37.2c-13.5,9.6-29.1,15.4-46.8,17.4
			L784.9,205.9z M817.1,40.3l13.3,123.8l17.1-1.9c14.1-1.5,24.5-7.6,31-18.1c6.5-10.5,8.8-25.3,6.7-44.4l-0.9-8.5
			c-2-19-7.4-33-16-41.8c-8.6-8.8-20.2-12.5-34.7-10.9L817.1,40.3z"/>
		<path d="M785.1,207.1c-0.3,0-0.6-0.1-0.9-0.3c-0.2-0.2-0.4-0.5-0.4-0.8L762.7,9.1c-0.1-0.6,0.4-1.2,1-1.3l65.8-7.1
			c18.2-2,35.2,0.3,50.6,6.6c15.4,6.4,28.1,16.5,37.8,30.2c9.7,13.6,15.7,29.6,17.7,47.6l1,9.1c1.9,18.2-0.3,35.1-6.8,50.4
			c-6.4,15.3-16.6,28-30.2,37.7c-13.6,9.7-29.5,15.6-47.3,17.7L785.1,207.1z M786,204.6l66.1-7.2c17.4-2,32.9-7.8,46.2-17.2
			c13.3-9.5,23.2-21.8,29.4-36.7c6.3-14.9,8.5-31.4,6.6-49.2l-1-9.1c-2-17.6-7.8-33.2-17.3-46.5c-9.5-13.3-21.9-23.1-36.8-29.4
			c-15-6.2-31.6-8.4-49.4-6.5l-64.7,7L786,204.6z M847.6,163.4l-17.1,1.9c-0.3,0-0.6-0.1-0.9-0.3c-0.2-0.2-0.4-0.5-0.4-0.8
			L815.9,40.4c-0.1-0.6,0.4-1.2,1-1.3l16.6-1.8c14.8-1.6,26.8,2.2,35.6,11.2c8.8,9,14.2,23.3,16.3,42.5l0.9,8.5
			c2.1,19.3-0.3,34.5-6.9,45.2C872.7,155.5,862,161.8,847.6,163.4z M831.3,162.8l16-1.7c13.7-1.5,23.8-7.4,30.2-17.5
			c6.4-10.2,8.6-24.9,6.6-43.7l-0.9-8.5c-2-18.7-7.3-32.5-15.7-41.1c-8.3-8.5-19.7-12.1-33.7-10.5l-15.4,1.7L831.3,162.8z"/>
	</g>
</g>
<g>
	<g>
		<path d="M552.5,490.6L484.9,512l0,41.1l-50.3,16c-1.1,0.4-2.3-0.5-2.2-1.7l11.5-219.7c0.1-1,0.7-1.8,1.6-2.1l44.8-14.2
			l138.9,175.9l-51.8,16.5c-0.7,0.2-1.5,0-1.9-0.6L552.5,490.6z M484.9,471.1l44-14l-44-62.3L484.9,471.1z"/>
		<path d="M629.5,508.4l-51.8,16.5c-1.2,0.4-2.5-0.1-3.2-1.1L552,491.9l-65.9,21l0,40.2c0,0.5-0.3,1-0.8,1.1l-50.3,16
			c-0.9,0.3-1.9,0.1-2.6-0.5c-0.7-0.6-1.2-1.5-1.1-2.4l11.5-219.7c0.1-1.4,1-2.7,2.4-3.1l44.8-14.2c0.5-0.1,1,0,1.3,0.4l138.9,175.9
			c0.2,0.3,0.3,0.7,0.2,1.1C630.2,508,629.9,508.3,629.5,508.4z M484.6,510.9l67.5-21.5c0.5-0.2,1,0,1.3,0.4l23,32.5
			c0.1,0.2,0.4,0.3,0.6,0.2l50.2-15.9L489.9,332.7l-44,14c-0.5,0.1-0.8,0.6-0.8,1l-11.5,219.7c0,0.3,0.1,0.4,0.2,0.5
			c0.1,0.1,0.3,0.2,0.5,0.1l49.5-15.7l0-40.2C483.8,511.5,484.1,511.1,484.6,510.9z M529.3,458.2l-44,14c-0.4,0.1-0.7,0-1-0.2
			c-0.3-0.2-0.5-0.6-0.5-0.9l-0.1-76.3c0-0.5,0.3-1,0.8-1.1c0,0,0,0,0,0c0.5-0.2,1,0,1.3,0.4l44,62.3c0.2,0.3,0.3,0.7,0.2,1
			C529.9,457.8,529.6,458.1,529.3,458.2z M486.1,469.5l40.9-13l-41-58L486.1,469.5z"/>
	</g>
	<g>
		<path fill="#FFFFFF" d="M565.4,485.8l-67.5,21.5l-0.1,40.6l-52.7,16.7l12.6-220.9l46.3-14.7l138,173L589,518.8L565.4,485.8z
			 M498.1,466.8l44-14l-43.7-61.3L498.1,466.8z"/>
		<path d="M642.3,503.1l-52.9,16.8c-0.5,0.2-1,0-1.3-0.4L565,487.1l-65.9,21l-0.1,39.7c0,0.5-0.3,1-0.8,1.1l-52.7,16.7
			c-0.4,0.1-0.8,0-1.1-0.2c-0.3-0.2-0.5-0.6-0.4-1l12.6-220.9c0-0.5,0.3-0.9,0.8-1l46.3-14.7c0.5-0.1,1,0,1.3,0.4l138,173
			c0.2,0.3,0.3,0.7,0.2,1.1C643,502.7,642.7,502.9,642.3,503.1z M589.5,517.4l50.5-16.1L503.6,330.3l-44.8,14.2l-12.5,218.4l50.2-16
			l0.1-39.7c0-0.5,0.3-1,0.8-1.1l67.5-21.5c0.5-0.2,1,0,1.3,0.4L589.5,517.4z M542.4,454l-44,14c-0.4,0.1-0.7,0-1-0.2
			s-0.5-0.6-0.5-0.9l0.3-75.3c0-0.5,0.3-1,0.8-1.1c0.5-0.2,1,0,1.3,0.4l43.7,61.3c0.2,0.3,0.3,0.7,0.2,1
			C543,453.6,542.7,453.9,542.4,454z M499.2,465.2l40.9-13l-40.7-57.1L499.2,465.2z"/>
	</g>
	<path d="M542.4,454l-44,14c-0.4,0.1-0.7,0-1-0.2s-0.5-0.6-0.5-0.9l0.3-75.3c0-0.5,0.3-1,0.8-1.1c0,0,0,0,0,0c0.5-0.2,1,0,1.3,0.4
		l43.7,61.3c0.2,0.3,0.3,0.7,0.2,1C543,453.6,542.7,453.9,542.4,454z M499.2,465.2l40.9-13l-40.7-57.1L499.2,465.2z"/>
</g>
<g>
	<g>
		<path d="M789.8,362.1l-47,14.9l-107-96.4l37.5,118.4l-47.2,15L567,227.5c-0.7-2.1,0.5-4.3,2.5-4.9l43.5-13.8l106.8,96.4
			l-36.5-115.3c-0.6-1.8,0.4-3.7,2.2-4.2l43.9-14L789.8,362.1z"/>
		<path d="M790.1,363.2l-47,14.9c-0.4,0.1-0.8,0-1.1-0.2l-103.8-93.5l36.2,114.4c0.2,0.6-0.1,1.3-0.8,1.5l-47.2,15
			c-0.3,0.1-0.6,0.1-0.9-0.1c-0.3-0.1-0.5-0.4-0.6-0.7l-59.1-186.6c-0.8-2.7,0.6-5.5,3.3-6.4l43.5-13.8c0.4-0.1,0.8,0,1.1,0.2
			l103.6,93.5l-35.2-111.2c-0.8-2.4,0.6-4.9,2.9-5.7l43.9-14c0.3-0.1,0.6-0.1,0.9,0.1c0.3,0.1,0.5,0.4,0.6,0.7l60.3,190.4
			C791.1,362.3,790.7,363,790.1,363.2z M743.1,375.7l45.2-14.4l-59.6-188.1l-42.8,13.6c-1.2,0.4-1.8,1.6-1.4,2.8L721,304.8
			c0.2,0.5,0,1-0.5,1.3c-0.4,0.3-1,0.2-1.4-0.1l-106.3-96l-42.9,13.6c-1.4,0.5-2.3,2-1.8,3.5l58.7,185.5l45-14.3L634.7,281
			c-0.2-0.5,0-1,0.5-1.3c0.4-0.3,1-0.2,1.4,0.1L743.1,375.7z"/>
	</g>
	<g>
		<path fill="#FFFFFF" d="M802.3,358.1l-47,14.9l-106.7-95.4l37.2,117.5l-47.2,15l-59.8-188.8l47.2-15l106.5,95.5l-37.2-117.5
			l47.1-15L802.3,358.1z"/>
		<path d="M802.6,359.2l-47,14.9c-0.4,0.1-0.8,0-1.1-0.2L651,281.3L687,394.8c0.2,0.6-0.1,1.3-0.8,1.5l-47.2,15
			c-0.3,0.1-0.6,0.1-0.9-0.1c-0.3-0.1-0.5-0.4-0.6-0.7l-59.8-188.8c-0.2-0.6,0.1-1.3,0.8-1.5l47.2-15c0.4-0.1,0.8,0,1.1,0.2
			L730.2,298l-35.9-113.4c-0.2-0.6,0.1-1.3,0.8-1.5l47.1-15c0.3-0.1,0.6-0.1,0.9,0.1c0.3,0.1,0.5,0.4,0.6,0.7l59.8,188.8
			C803.6,358.4,803.2,359,802.6,359.2z M755.6,371.7l45.2-14.4l-59.1-186.6L696.8,185l36.9,116.4c0.2,0.5,0,1-0.5,1.3
			c-0.4,0.3-1,0.2-1.4-0.1l-106-95l-45.5,14.5l59.1,186.6l45-14.3L647.5,278c-0.2-0.5,0-1,0.5-1.3c0.4-0.3,1-0.2,1.4,0.1
			L755.6,371.7z"/>
	</g>
</g>
<g>
	<g>
		<path d="M301.8,390.4l-28.9,1l2.7,75.9l-51,1.8c-1.3,0-2.4-1-2.4-2.3l-7.3-209.5c-0.1-1.5,1.1-2.7,2.5-2.7l84.4-3
			c26.2-0.9,46.9,4,62.1,14.7c15.2,10.8,23.1,26.4,23.8,47c0.5,14.9-2.2,27.4-8,37.4c-5.9,10-15.4,18.3-28.4,24.9l49.2,84.9l0.1,2.2
			l-57.1,2.1L301.8,390.4z M271.5,351.6l33.7-1.2c10.1-0.4,17.7-3.2,22.6-8.6c4.9-5.4,7.2-12.7,6.9-21.9c-0.3-9.3-3.2-16.4-8.5-21.5
			c-5.3-5.1-13-7.4-23.1-7.1l-33.7,1.2L271.5,351.6z"/>
		<path d="M400.6,463.9l-57.1,2.1c-0.4,0-0.8-0.2-1.1-0.6l-41.3-73.8l-27,1l2.6,74.7c0,0.6-0.5,1.2-1.1,1.2l-51,1.8
			c-0.9,0-1.8-0.3-2.5-0.9c-0.7-0.6-1.1-1.5-1.1-2.4l-7.3-209.5c-0.1-2.1,1.6-3.9,3.7-3.9l84.4-3c26.4-1,47.5,4.1,62.8,14.9
			c15.4,10.9,23.6,27.1,24.3,47.9c0.5,15.1-2.2,27.9-8.2,38.1c-5.8,9.9-15.1,18.2-27.8,24.8l48.6,83.9c0.1,0.2,0.1,0.4,0.2,0.5
			l0.1,2.2C401.8,463.4,401.3,463.9,400.6,463.9z M344.1,463.7l55.2-2l0-0.8l-49-84.7c-0.2-0.3-0.2-0.6-0.1-0.9
			c0.1-0.3,0.3-0.6,0.6-0.7c12.8-6.4,22.2-14.7,27.9-24.4c5.7-9.8,8.4-22.2,7.9-36.8c-0.7-20.1-8.6-35.6-23.4-46.1
			c-14.9-10.5-35.5-15.4-61.4-14.5l-84.4,3c-0.8,0-1.5,0.7-1.4,1.5l7.3,209.5c0,0.3,0.1,0.6,0.4,0.8c0.2,0.2,0.5,0.3,0.8,0.3
			l49.8-1.8l-2.6-74.7c0-0.6,0.5-1.2,1.1-1.2l28.9-1c0.4,0,0.8,0.2,1.1,0.6L344.1,463.7z M305.3,351.6l-33.7,1.2
			c-0.3,0-0.6-0.1-0.8-0.3c-0.2-0.2-0.4-0.5-0.4-0.8l-2.1-59.1c0-0.6,0.5-1.2,1.1-1.2l33.7-1.2c10.3-0.4,18.3,2.1,23.9,7.4
			c5.6,5.3,8.5,12.8,8.9,22.3c0.3,9.5-2.1,17.2-7.2,22.7C323.6,348.2,315.7,351.2,305.3,351.6z M272.7,350.4l32.6-1.2
			c9.8-0.4,17.1-3.1,21.8-8.2c4.7-5.1,6.9-12.2,6.6-21.1c-0.3-8.9-3.1-15.9-8.1-20.7c-5.1-4.8-12.6-7.1-22.2-6.8l-32.6,1.2
			L272.7,350.4z"/>
	</g>
	<g>
		<path fill="#FFFFFF" d="M316,388.9l-28.9,1l2.6,75.3l-53.3,1.9l-7.4-213l87-3.1c26.2-0.9,46.9,3.9,62.1,14.6
			c15.2,10.7,23.1,26.2,23.8,46.7c0.5,14.8-2.2,27.2-8.1,37.2c-5.9,10-15.4,18.2-28.4,24.7l49.2,84.3l0.1,2.2l-57.1,2.1L316,388.9z
			 M285.8,350.4l33.7-1.2c10.1-0.4,17.7-3.2,22.6-8.5c4.9-5.3,7.2-12.6,6.9-21.8c-0.3-9.2-3.2-16.3-8.5-21.4c-5.3-5-13-7.4-23.1-7
			l-33.7,1.2L285.8,350.4z"/>
		<path d="M414.9,462l-57.1,2.1c-0.4,0-0.8-0.2-1.1-0.6l-41.3-73.3l-27,1l2.6,74.2c0,0.6-0.5,1.2-1.1,1.2l-53.3,1.9
			c-0.3,0-0.6-0.1-0.8-0.3c-0.2-0.2-0.4-0.5-0.4-0.8l-7.4-213c0-0.6,0.5-1.2,1.1-1.2l87-3.1c26.4-1,47.5,4,62.8,14.8
			c15.4,10.8,23.6,26.9,24.3,47.6c0.5,15-2.2,27.7-8.2,37.8c-5.8,9.8-15.2,18.1-27.8,24.6l48.6,83.3c0.1,0.2,0.2,0.4,0.2,0.5
			l0.1,2.2C416,461.4,415.5,461.9,414.9,462z M358.4,461.7l55.2-2l0-0.7l-49-84.1c-0.2-0.3-0.2-0.6-0.1-0.9c0.1-0.3,0.3-0.6,0.6-0.7
			c12.8-6.4,22.2-14.6,27.9-24.3c5.7-9.7,8.4-22,7.9-36.5c-0.7-20-8.5-35.4-23.3-45.8c-14.9-10.5-35.5-15.3-61.4-14.4l-85.9,3.1
			l7.4,210.7l51-1.8L286,390c0-0.6,0.5-1.2,1.1-1.2l28.9-1c0.4,0,0.8,0.2,1.1,0.6L358.4,461.7z M319.6,350.4l-33.7,1.2
			c-0.3,0-0.6-0.1-0.8-0.3c-0.2-0.2-0.4-0.5-0.4-0.8l-2-58.7c0-0.6,0.5-1.2,1.1-1.2l33.7-1.2c10.3-0.4,18.3,2.1,23.9,7.3
			c5.6,5.2,8.5,12.7,8.9,22.2c0.3,9.5-2.1,17.1-7.2,22.6C337.8,347,330,350,319.6,350.4z M286.9,349.2l32.6-1.2
			c9.8-0.4,17.1-3.1,21.8-8.2c4.7-5.1,6.9-12.1,6.6-20.9c-0.3-8.8-3-15.7-8.1-20.5c-5.1-4.8-12.6-7.1-22.2-6.7l-32.6,1.2
			L286.9,349.2z"/>
	</g>
	<path d="M319.6,350.4l-33.7,1.2c-0.3,0-0.6-0.1-0.8-0.3c-0.2-0.2-0.4-0.5-0.4-0.8l-2-58.7c0-0.6,0.5-1.2,1.1-1.2l33.7-1.2
		c10.3-0.4,18.3,2.1,23.9,7.3c5.6,5.2,8.5,12.7,8.9,22.2c0.3,9.5-2.1,17.1-7.2,22.6C337.8,347,330,350,319.6,350.4z M286.9,349.2
		l32.6-1.2c9.8-0.4,17.1-3.1,21.8-8.2c4.7-5.1,6.9-12.1,6.6-20.9c-0.3-8.8-3-15.7-8.1-20.5c-5.1-4.8-12.6-7.1-22.2-6.7l-32.6,1.2
		L286.9,349.2z"/>
</g>
</svg>
