<?xml version="1.0" encoding="utf-8"?>
<!-- Generator: Adobe Illustrator 26.0.1, SVG Export Plug-In . SVG Version: 6.00 Build 0)  -->
<svg version="1.0" id="Ebene_1" xmlns="http://www.w3.org/2000/svg" xmlns:xlink="http://www.w3.org/1999/xlink" x="0px" y="0px"
	 viewBox="0 0 264.4 588.5" enable-background="new 0 0 264.4 588.5" xml:space="preserve">
<g>
	<g id="XMLID_495_">
		<g id="XMLID_445_">
			<path fill="#FFFFFF" stroke="#000000" stroke-width="2.5" stroke-miterlimit="10" d="M215.7,403.4l10.1-70.8l0.8,0.1
				c1.8,0.3,3.5-1,3.8-2.9l0-0.1c0.3-1.8-1-3.5-2.9-3.8l-0.8-0.1l10-70l0.8,0.1c1.8,0.3,3.5-1,3.8-2.9l0-0.1c0.3-1.8-1-3.5-2.9-3.8
				l-0.8-0.1l9.6-67.4l2.3,0.3c1,0.1,2-0.6,2.1-1.6l0.4-3.1c0.1-1-0.6-2-1.6-2.1l-2.3-0.3l10.1-70.8l0.8,0.1c1.8,0.3,3.5-1,3.8-2.9
				l0-0.1c0.3-1.8-1-3.5-2.9-3.8l-34.8-5l9.7-68.1l1.1,0.2c0.8,0.1,1.6-0.4,1.7-1.2l0.6-3.9c0.1-0.8-0.4-1.6-1.2-1.7L121.5,1.3
				c-0.8-0.1-1.6,0.4-1.7,1.2l-0.6,3.9c-0.1,0.8,0.4,1.6,1.2,1.7l1.3,0.2l-9.7,68.1l-35-5c-1.8-0.3-3.5,1-3.8,2.9l0,0.1
				c-0.3,1.8,1,3.5,2.9,3.8l1.1,0.2L67.2,149l-2.6-0.4c-1-0.1-2,0.6-2.1,1.6l-0.4,3.1c-0.1,1,0.6,2,1.6,2.1l2.6,0.4l-9.6,67.4
				l-1.1-0.2c-1.8-0.3-3.5,1-3.8,2.9l0,0.1c-0.3,1.8,1,3.5,2.9,3.8l1.1,0.2l-10,70l-1.1-0.2c-1.8-0.3-3.5,1-3.8,2.9l0,0.1
				c-0.3,1.8,1,3.5,2.9,3.8l1.1,0.2l-10.1,70.8l-1.1-0.2c-1.8-0.3-3.5,1-3.8,2.9l0,0.1c-0.3,1.8,1,3.5,2.9,3.8l1.1,0.2l-9.7,68.2
				l-9.4-1.3c-1.1-0.2-2.2,0.6-2.4,1.8l-0.6,4.4c-0.2,1.1,0.6,2.2,1.8,2.4l2.4,0.3L1.4,559.2l195,27.9l14.2-99.3l2.2,0.3
				c1.1,0.2,2.2-0.6,2.4-1.8l0.6-4.4c0.2-1.1-0.6-2.2-1.8-2.4l-9-1.3l9.7-68.2l0.8,0.1c1.8,0.3,3.5-1,3.8-2.9l0-0.1
				c0.3-1.8-1-3.5-2.9-3.8L215.7,403.4z"/>
		</g>
	</g>
	<g id="XMLID_166_">
		<g id="XMLID_517_">
			<g id="XMLID_520_">
				<g id="XMLID_3274_">
					<path d="M149.7,38.9c1.3-1.1,2.2-2.8,2.5-4.7c0.6-4.1-2-7.8-5.8-8.3c-3.8-0.5-7.3,2.3-7.9,6.4c-0.3,1.9,0.2,3.7,1.1,5.2l-0.1,0
						l-3,6.6l-5,35.1l14.4,2.1l4.9-34.6L149.7,38.9z"/>
				</g>
			</g>
		</g>
		<g id="XMLID_513_">
			<g id="XMLID_516_">
				<g id="XMLID_3268_">
					<path d="M179.6,43.2c1.3-1.1,2.2-2.8,2.5-4.7c0.6-4.1-2-7.8-5.8-8.3c-3.8-0.5-7.3,2.3-7.9,6.4c-0.3,1.9,0.2,3.7,1.1,5.2l-0.1,0
						l-3,6.6l-5,35.1l14.4,2.1l4.9-34.6L179.6,43.2z"/>
				</g>
			</g>
		</g>
		<g id="XMLID_454_">
			<g id="XMLID_512_">
				<g id="XMLID_3262_">
					<path d="M209.5,47.4c1.3-1.1,2.2-2.8,2.5-4.7c0.6-4.1-2-7.8-5.8-8.3c-3.8-0.5-7.3,2.3-7.9,6.4c-0.3,1.9,0.2,3.7,1.1,5.2l-0.1,0
						l-3,6.6l-5,35.1l14.4,2.1l4.9-34.6L209.5,47.4z"/>
				</g>
			</g>
		</g>
	</g>
	<g id="XMLID_422_">
		<g id="XMLID_439_">
			<g id="XMLID_442_">
				<g id="XMLID_3251_">
					<path d="M105.1,106.5c1.4-1.2,2.4-2.9,2.7-4.9c0.6-4.3-2.1-8.2-6.1-8.8c-4-0.6-7.7,2.4-8.3,6.7c-0.3,2,0.2,3.9,1.1,5.4l-0.1,0
						l-3.2,7L85.8,149l15.2,2.2l5.2-36.5L105.1,106.5z"/>
				</g>
			</g>
		</g>
		<g id="XMLID_435_">
			<g id="XMLID_438_">
				<g id="XMLID_3245_">
					<path d="M136.6,111.1c1.4-1.2,2.4-2.9,2.7-4.9c0.6-4.3-2.1-8.2-6.1-8.8c-4-0.6-7.7,2.4-8.3,6.7c-0.3,2,0.2,3.9,1.1,5.4l-0.1,0
						l-3.2,7l-5.3,37.1l15.2,2.2l5.2-36.5L136.6,111.1z"/>
				</g>
			</g>
		</g>
		<g id="XMLID_431_">
			<g id="XMLID_434_">
				<g id="XMLID_3239_">
					<path d="M168.2,115.6c1.4-1.2,2.4-2.9,2.7-4.9c0.6-4.3-2.1-8.2-6.1-8.8c-4-0.6-7.7,2.4-8.3,6.7c-0.3,2,0.2,3.9,1.1,5.4l-0.1,0
						l-3.2,7L149,158l15.2,2.2l5.2-36.5L168.2,115.6z"/>
				</g>
			</g>
		</g>
		<g id="XMLID_427_">
			<g id="XMLID_430_">
				<g id="XMLID_3233_">
					<path d="M199.8,120.1c1.4-1.2,2.4-2.9,2.7-4.9c0.6-4.3-2.1-8.2-6.1-8.8c-4-0.6-7.7,2.4-8.3,6.7c-0.3,2,0.2,3.9,1.1,5.4l-0.1,0
						l-3.2,7l-5.3,37.1l15.2,2.2l5.2-36.5L199.8,120.1z"/>
				</g>
			</g>
		</g>
		<g id="XMLID_423_">
			<g id="XMLID_426_">
				<g id="XMLID_3227_">
					<path d="M231.3,124.6c1.4-1.2,2.4-2.9,2.7-4.9c0.6-4.3-2.1-8.2-6.1-8.8c-4-0.6-7.7,2.4-8.3,6.7c-0.3,2,0.2,3.9,1.1,5.4l-0.1,0
						l-3.2,7l-5.3,37.1l15.2,2.2l5.2-36.5L231.3,124.6z"/>
				</g>
			</g>
		</g>
	</g>
	<g id="XMLID_399_">
		<g id="XMLID_416_">
			<g id="XMLID_419_">
				<g id="XMLID_3216_">
					<path d="M93.6,181.5c1.4-1.2,2.4-2.9,2.7-5c0.6-4.3-2.1-8.3-6.2-8.9c-4-0.6-7.8,2.5-8.4,6.8c-0.3,2,0.2,3.9,1.1,5.5l-0.1,0
						l-3.2,7l-5.3,37.4l15.3,2.2l5.3-36.8L93.6,181.5z"/>
				</g>
			</g>
		</g>
		<g id="XMLID_412_">
			<g id="XMLID_415_">
				<g id="XMLID_3210_">
					<path d="M125.4,186c1.4-1.2,2.4-2.9,2.7-5c0.6-4.3-2.1-8.3-6.2-8.9c-4-0.6-7.8,2.5-8.4,6.8c-0.3,2,0.2,3.9,1.1,5.5l-0.1,0
						l-3.2,7l-5.3,37.4l15.3,2.2l5.3-36.8L125.4,186z"/>
				</g>
			</g>
		</g>
		<g id="XMLID_408_">
			<g id="XMLID_411_">
				<g id="XMLID_3204_">
					<path d="M157.2,190.6c1.4-1.2,2.4-2.9,2.7-5c0.6-4.3-2.1-8.3-6.2-8.9c-4-0.6-7.8,2.5-8.4,6.8c-0.3,2,0.2,3.9,1.1,5.5l-0.1,0
						l-3.2,7l-5.3,37.4l15.3,2.2l5.3-36.8L157.2,190.6z"/>
				</g>
			</g>
		</g>
		<g id="XMLID_404_">
			<g id="XMLID_407_">
				<g id="XMLID_3198_">
					<path d="M189,195.1c1.4-1.2,2.4-2.9,2.7-5c0.6-4.3-2.1-8.3-6.2-8.9c-4-0.6-7.8,2.5-8.4,6.8c-0.3,2,0.2,3.9,1.1,5.5l-0.1,0
						l-3.2,7l-5.3,37.4l15.3,2.2l5.3-36.8L189,195.1z"/>
				</g>
			</g>
		</g>
		<g id="XMLID_400_">
			<g id="XMLID_403_">
				<g id="XMLID_3192_">
					<path d="M220.8,199.7c1.4-1.2,2.4-2.9,2.7-5c0.6-4.3-2.1-8.3-6.2-8.9s-7.8,2.5-8.4,6.8c-0.3,2,0.2,3.9,1.1,5.5l-0.1,0l-3.2,7
						l-5.3,37.4l15.3,2.2l5.3-36.8L220.8,199.7z"/>
				</g>
			</g>
		</g>
	</g>
	<g id="XMLID_376_">
		<g id="XMLID_393_">
			<g id="XMLID_396_">
				<g id="XMLID_3181_">
					<path d="M83.2,258.1c1.4-1.2,2.4-2.9,2.7-5c0.6-4.3-2.1-8.2-6.1-8.8c-4-0.6-7.7,2.4-8.4,6.7c-0.3,2,0.2,3.9,1.1,5.5l-0.1,0
						l-3.2,7l-5.3,37.2l15.2,2.2l5.2-36.6L83.2,258.1z"/>
				</g>
			</g>
		</g>
		<g id="XMLID_389_">
			<g id="XMLID_392_">
				<g id="XMLID_3175_">
					<path d="M114.9,262.6c1.4-1.2,2.4-2.9,2.7-5c0.6-4.3-2.1-8.2-6.1-8.8c-4-0.6-7.7,2.4-8.4,6.7c-0.3,2,0.2,3.9,1.1,5.5l-0.1,0
						l-3.2,7l-5.3,37.2l15.2,2.2l5.2-36.6L114.9,262.6z"/>
				</g>
			</g>
		</g>
		<g id="XMLID_385_">
			<g id="XMLID_388_">
				<g id="XMLID_3169_">
					<path d="M146.6,267.1c1.4-1.2,2.4-2.9,2.7-5c0.6-4.3-2.1-8.2-6.1-8.8c-4-0.6-7.7,2.4-8.4,6.7c-0.3,2,0.2,3.9,1.1,5.5l-0.1,0
						l-3.2,7l-5.3,37.2l15.2,2.2l5.2-36.6L146.6,267.1z"/>
				</g>
			</g>
		</g>
		<g id="XMLID_381_">
			<g id="XMLID_384_">
				<g id="XMLID_3163_">
					<path d="M178.2,271.6c1.4-1.2,2.4-2.9,2.7-5c0.6-4.3-2.1-8.2-6.1-8.8c-4-0.6-7.7,2.4-8.4,6.7c-0.3,2,0.2,3.9,1.1,5.5l-0.1,0
						l-3.2,7l-5.3,37.2l15.2,2.2l5.2-36.6L178.2,271.6z"/>
				</g>
			</g>
		</g>
		<g id="XMLID_377_">
			<g id="XMLID_380_">
				<g id="XMLID_3157_">
					<path d="M209.9,276.2c1.4-1.2,2.4-2.9,2.7-5c0.6-4.3-2.1-8.2-6.1-8.8c-4-0.6-7.7,2.4-8.4,6.7c-0.3,2,0.2,3.9,1.1,5.5l-0.1,0
						l-3.2,7l-5.3,37.2l15.2,2.2l5.2-36.6L209.9,276.2z"/>
				</g>
			</g>
		</g>
	</g>
	<g id="XMLID_167_">
		<g id="XMLID_370_">
			<g id="XMLID_373_">
				<g id="XMLID_3146_">
					<path d="M72.4,335c1.4-1.2,2.4-2.9,2.7-4.9c0.6-4.3-2.1-8.2-6.1-8.8c-4-0.6-7.7,2.4-8.3,6.7c-0.3,2,0.2,3.9,1.1,5.4l-0.1,0
						l-3.2,7l-5.3,37.1l15.2,2.2l5.2-36.5L72.4,335z"/>
				</g>
			</g>
		</g>
		<g id="XMLID_180_">
			<g id="XMLID_369_">
				<g id="XMLID_3140_">
					<path d="M104,339.5c1.4-1.2,2.4-2.9,2.7-4.9c0.6-4.3-2.1-8.2-6.1-8.8c-4-0.6-7.7,2.4-8.3,6.7c-0.3,2,0.2,3.9,1.1,5.4l-0.1,0
						l-3.2,7L84.7,382l15.2,2.2l5.2-36.5L104,339.5z"/>
				</g>
			</g>
		</g>
		<g id="XMLID_176_">
			<g id="XMLID_179_">
				<g id="XMLID_3134_">
					<path d="M135.5,344c1.4-1.2,2.4-2.9,2.7-4.9c0.6-4.3-2.1-8.2-6.1-8.8c-4-0.6-7.7,2.4-8.3,6.7c-0.3,2,0.2,3.9,1.1,5.4l-0.1,0
						l-3.2,7l-5.3,37.1l15.2,2.2l5.2-36.5L135.5,344z"/>
				</g>
			</g>
		</g>
		<g id="XMLID_172_">
			<g id="XMLID_175_">
				<g id="XMLID_3128_">
					<path d="M167.1,348.5c1.4-1.2,2.4-2.9,2.7-4.9c0.6-4.3-2.1-8.2-6.1-8.8c-4-0.6-7.7,2.4-8.3,6.7c-0.3,2,0.2,3.9,1.1,5.4l-0.1,0
						l-3.2,7l-5.3,37.1l15.2,2.2l5.2-36.5L167.1,348.5z"/>
				</g>
			</g>
		</g>
		<g id="XMLID_168_">
			<g id="XMLID_171_">
				<g id="XMLID_3122_">
					<path d="M198.7,353c1.4-1.2,2.4-2.9,2.7-4.9c0.6-4.3-2.1-8.2-6.1-8.8c-4-0.6-7.7,2.4-8.3,6.7c-0.3,2,0.2,3.9,1.1,5.4l-0.1,0
						l-3.2,7l-5.3,37.1l15.2,2.2l5.2-36.5L198.7,353z"/>
				</g>
			</g>
		</g>
	</g>
	<g id="XMLID_148_">
		<g id="XMLID_143_">
			<g id="XMLID_146_">
				<g id="XMLID_3111_">
					<path d="M61,412.3c1.4-1.2,2.4-2.9,2.7-5c0.6-4.3-2.1-8.3-6.1-8.8c-4-0.6-7.8,2.4-8.4,6.8c-0.3,2,0.2,3.9,1.1,5.5l-0.1,0
						l-3.2,7L41.7,455l15.3,2.2l5.2-36.7L61,412.3z"/>
				</g>
			</g>
		</g>
		<g id="XMLID_149_">
			<g id="XMLID_152_">
				<g id="XMLID_3105_">
					<path d="M92.8,416.8c1.4-1.2,2.4-2.9,2.7-5c0.6-4.3-2.1-8.3-6.1-8.8c-4-0.6-7.8,2.4-8.4,6.8c-0.3,2,0.2,3.9,1.1,5.5l-0.1,0
						l-3.2,7l-5.3,37.3l15.3,2.2l5.2-36.7L92.8,416.8z"/>
				</g>
			</g>
		</g>
		<g id="XMLID_153_">
			<g id="XMLID_156_">
				<g id="XMLID_3099_">
					<path d="M124.5,421.3c1.4-1.2,2.4-2.9,2.7-5c0.6-4.3-2.1-8.3-6.1-8.8c-4-0.6-7.8,2.4-8.4,6.8c-0.3,2,0.2,3.9,1.1,5.5l-0.1,0
						l-3.2,7l-5.3,37.3l15.3,2.2l5.2-36.7L124.5,421.3z"/>
				</g>
			</g>
		</g>
		<g id="XMLID_157_">
			<g id="XMLID_160_">
				<g id="XMLID_3093_">
					<path d="M156.2,425.9c1.4-1.2,2.4-2.9,2.7-5c0.6-4.3-2.1-8.3-6.1-8.8c-4-0.6-7.8,2.4-8.4,6.8c-0.3,2,0.2,3.9,1.1,5.5l-0.1,0
						l-3.2,7l-5.3,37.3l15.3,2.2l5.2-36.7L156.2,425.9z"/>
				</g>
			</g>
		</g>
		<g id="XMLID_161_">
			<g id="XMLID_164_">
				<g id="XMLID_3087_">
					<path d="M188,430.4c1.4-1.2,2.4-2.9,2.7-5c0.6-4.3-2.1-8.3-6.1-8.8c-4-0.6-7.8,2.4-8.4,6.8c-0.3,2,0.2,3.9,1.1,5.5l-0.1,0
						l-3.2,7l-5.3,37.3l15.3,2.2l5.2-36.7L188,430.4z"/>
				</g>
			</g>
		</g>
	</g>
	<g id="XMLID_121_">
		<g id="XMLID_117_">
			<g id="XMLID_3078_">
				<path d="M15.6,561.2l10.3-72.3c1-6.9,7.4-11.7,14.2-10.7l0,0c6.9,1,11.7,7.4,10.7,14.2l-10.3,72.3"/>
			</g>
		</g>
	</g>
	<g id="XMLID_123_">
		<g id="XMLID_127_">
			<g id="XMLID_3069_">
				<path d="M75.5,569.8l-24.9-3.6L61,493.9c1-6.9,7.4-11.7,14.2-10.7l0,0c6.9,1,11.7,7.4,10.7,14.2L75.5,569.8z"/>
			</g>
		</g>
	</g>
	<g id="XMLID_128_">
		<g id="XMLID_132_">
			<g id="XMLID_3060_">
				<path d="M110.6,574.8l-24.9-3.6L96,499c1-6.9,7.4-11.7,14.2-10.7l0,0c6.9,1,11.7,7.4,10.7,14.2L110.6,574.8z"/>
			</g>
		</g>
	</g>
	<g id="XMLID_133_">
		<g id="XMLID_137_">
			<g id="XMLID_3051_">
				<path d="M145.6,579.8l-24.9-3.6l10.3-72.3c1-6.9,7.4-11.7,14.2-10.7l0,0c6.9,1,11.7,7.4,10.7,14.2L145.6,579.8z"/>
			</g>
		</g>
	</g>
	<g id="XMLID_138_">
		<g id="XMLID_142_">
			<g id="XMLID_3042_">
				<path d="M180.7,584.8l-24.9-3.6l10.3-72.3c1-6.9,7.4-11.7,14.2-10.7l0,0c6.9,1,11.7,7.4,10.7,14.2L180.7,584.8z"/>
			</g>
		</g>
	</g>
	<line fill="none" stroke="#000000" stroke-width="2.5" stroke-miterlimit="10" x1="77.3" y1="78.2" x2="259.3" y2="104.3"/>
	<line fill="none" stroke="#000000" stroke-width="2.5" stroke-miterlimit="10" x1="66.2" y1="155.8" x2="247.4" y2="181.7"/>
	<line fill="none" stroke="#000000" stroke-width="2.5" stroke-miterlimit="10" x1="55.6" y1="229.9" x2="236.8" y2="255.8"/>
	<line fill="none" stroke="#000000" stroke-width="2.5" stroke-miterlimit="10" x1="225.8" y1="332.6" x2="44.6" y2="306.7"/>
	<line fill="none" stroke="#000000" stroke-width="2.5" stroke-miterlimit="10" x1="33.5" y1="384.2" x2="215.5" y2="410.3"/>
	<line fill="none" stroke="#000000" stroke-width="2.5" stroke-miterlimit="10" x1="15.6" y1="459.9" x2="210.6" y2="487.8"/>
</g>
</svg>
