<?xml version="1.0" encoding="utf-8"?>
<!-- Generator: Adobe Illustrator 26.0.1, SVG Export Plug-In . SVG Version: 6.00 Build 0)  -->
<svg version="1.0" id="Ebene_1" xmlns="http://www.w3.org/2000/svg" xmlns:xlink="http://www.w3.org/1999/xlink" x="0px" y="0px"
	 viewBox="0 0 700 150" enable-background="new 0 0 700 150" xml:space="preserve">
<linearGradient id="SVGID_1_" gradientUnits="userSpaceOnUse" x1="350" y1="7927.9888" x2="350" y2="8078.022" gradientTransform="matrix(1 0 0 1 0 -7928.022)">
	<stop  offset="0" style="stop-color:#CCE0FB"/>
	<stop  offset="1" style="stop-color:#FFFFFF"/>
</linearGradient>
<path fill="url(#SVGID_1_)" d="M700,10.5c-24.2-23.7-77.8,0-77.8,0l0,0c-24.2-23.7-77.8,0-77.8,0l0,0c-24.2-23.7-77.8,0-77.8,0l0,0
	c-24.2-23.7-77.8,0-77.8,0l0,0c-24.2-23.7-77.8,0-77.8,0l0,0c-24.2-23.7-77.8,0-77.8,0l0,0c-24.2-23.7-77.8,0-77.8,0l0,0
	c-24.2-23.7-77.8,0-77.8,0l0,0c-24-23.7-77.6,0-77.6,0V150h700V10.5z"/>
</svg>
